<svg xmlns="http://www.w3.org/2000/svg" xmlns:svg="http://www.w3.org/2000/svg" xmlns:xlink="http://www.w3.org/1999/xlink" id="svg2" width="16" height="16" version="1.1"><defs id="defs4"><linearGradient id="linearGradient3922"><stop id="stop3924" offset="0" stop-color="#c49a60" stop-opacity="1"/><stop id="stop3926" offset="1" stop-color="#d3a568" stop-opacity="1"/></linearGradient><linearGradient id="linearGradient3914"><stop id="stop3916" offset="0" stop-color="#7b5113" stop-opacity="1"/><stop id="stop3918" offset="1" stop-color="#9a681f" stop-opacity="1"/></linearGradient><linearGradient id="linearGradient3903"><stop id="stop3905" offset="0" stop-color="#000" stop-opacity="1"/><stop id="stop3907" offset="1" stop-color="#000" stop-opacity="0"/></linearGradient><linearGradient id="linearGradient3891"><stop id="stop3893" offset="0" stop-color="#ffe59e" stop-opacity="1"/><stop id="stop3895" offset="1" stop-color="#fff5dc" stop-opacity="1"/></linearGradient><linearGradient id="linearGradient5091"><stop id="stop5093" offset="0" stop-color="#c6852e" stop-opacity="1"/><stop id="stop5095" offset="1" stop-color="#e1a555" stop-opacity="1"/></linearGradient><linearGradient id="linearGradient5081"><stop id="stop5083" offset="0" stop-color="#ffe69e" stop-opacity="1"/><stop id="stop5089" offset=".38" stop-color="#ffc85a" stop-opacity="1"/><stop id="stop5085" offset="1" stop-color="#fffcd3" stop-opacity="1"/></linearGradient><linearGradient id="linearGradient4200" x1="6.389" x2="6.389" y1="7.237" y2=".393" gradientTransform="matrix(1.0698871,0,0,1.0698871,4.6141416,1043.527)" gradientUnits="userSpaceOnUse" xlink:href="#linearGradient5091"/><radialGradient id="radialGradient4963" cx="19.365" cy="1051.11" r="3.773" fx="19.365" fy="1051.11" gradientTransform="matrix(2.8249601,0,0,1.7930635,-46.347422,-833.43041)" gradientUnits="userSpaceOnUse" xlink:href="#linearGradient5081"/><filter id="filter3805" width="1.319" height="1.074" x="-.16" y="-.037"><feGaussianBlur id="feGaussianBlur3807" stdDeviation=".077"/></filter><radialGradient id="radialGradient4963-8" cx="19.365" cy="1051.11" r="3.773" fx="19.365" fy="1051.11" gradientTransform="matrix(2.8249601,0,0,1.7930635,-46.347422,-833.43041)" gradientUnits="userSpaceOnUse" xlink:href="#linearGradient5081-4"/><linearGradient id="linearGradient5081-4"><stop id="stop5083-9" offset="0" stop-color="#ffe69e" stop-opacity="1"/><stop id="stop5089-7" offset=".38" stop-color="#ffc85a" stop-opacity="1"/><stop id="stop5085-9" offset="1" stop-color="#fffcd3" stop-opacity="1"/></linearGradient><linearGradient id="linearGradient4200-7" x1="6.389" x2="6.389" y1="7.237" y2=".393" gradientTransform="matrix(1.0698871,0,0,1.0698871,4.6141416,1043.527)" gradientUnits="userSpaceOnUse" xlink:href="#linearGradient5091-2"/><linearGradient id="linearGradient5091-2"><stop id="stop5093-4" offset="0" stop-color="#c6852e" stop-opacity="1"/><stop id="stop5095-7" offset="1" stop-color="#e1a555" stop-opacity="1"/></linearGradient><linearGradient id="linearGradient3831" x1="6.389" x2="6.389" y1="7.237" y2=".393" gradientTransform="matrix(1.0698871,0,0,1.0698871,4.6141415,1043.527)" gradientUnits="userSpaceOnUse" xlink:href="#linearGradient3922"/><radialGradient id="radialGradient4963-2" cx="19.365" cy="1051.11" r="3.773" fx="19.365" fy="1051.11" gradientTransform="matrix(2.8249601,0,0,1.7930635,-46.347422,-833.43041)" gradientUnits="userSpaceOnUse" xlink:href="#linearGradient5081-0"/><linearGradient id="linearGradient5081-0"><stop id="stop5083-3" offset="0" stop-color="#ffe69e" stop-opacity="1"/><stop id="stop5089-75" offset=".38" stop-color="#ffc85a" stop-opacity="1"/><stop id="stop5085-6" offset="1" stop-color="#fffcd3" stop-opacity="1"/></linearGradient><linearGradient id="linearGradient4200-1" x1="6.389" x2="6.389" y1="7.237" y2=".393" gradientTransform="matrix(1.0698871,0,0,1.0698871,4.6141416,1043.527)" gradientUnits="userSpaceOnUse" xlink:href="#linearGradient5091-7"/><linearGradient id="linearGradient5091-7"><stop id="stop5093-6" offset="0" stop-color="#c6852e" stop-opacity="1"/><stop id="stop5095-1" offset="1" stop-color="#e1a555" stop-opacity="1"/></linearGradient><linearGradient id="linearGradient3897" x1="8.391" x2="8.391" y1="1051.37" y2="1044.433" gradientUnits="userSpaceOnUse" xlink:href="#linearGradient3891"/><linearGradient id="linearGradient3909" x1="7.791" x2="8.95" y1="1048.343" y2="1048.343" gradientUnits="userSpaceOnUse" xlink:href="#linearGradient3903"/><linearGradient id="linearGradient3920" x1="-12.219" x2="-12.219" y1="5.395" y2="12.916" gradientUnits="userSpaceOnUse" xlink:href="#linearGradient3914"/></defs><metadata id="metadata7"/><g id="layer1" display="inline" transform="translate(0,-1036.3622)"><g id="g8472" display="inline" transform="matrix(0.9346781,0,0,0.9346781,5.428189,69.044514)"><g id="g4193" transform="matrix(1.9494937,0,0,1.9494937,-13.566249,-998.69171)"><path id="path4292" fill="url(#radialGradient4963)" fill-opacity="1" stroke="url(#linearGradient4200)" stroke-dasharray="none" stroke-linecap="butt" stroke-linejoin="miter" stroke-miterlimit="4" stroke-opacity="1" stroke-width=".549" d="m 7.6231986,1044.4966 -2.434777,4.3798 c -0.648383,1.0968 -0.206291,2.7732 1.003019,2.7928 l 1.632362,0 1.069887,0 1.6323624,0 c 1.209311,-0.019 1.651402,-1.6961 1.003019,-2.7928 l -2.4347774,-4.3798 c -0.314859,-0.5957 -1.196998,-0.4999 -1.471095,0 z"/><g id="g3797" stroke="#fff5da" stroke-dasharray="none" stroke-miterlimit="4" stroke-opacity="1" stroke-width=".549" filter="url(#filter3805)" opacity=".5"><path id="path4253-1" fill="#ffdb9f" fill-opacity="1" stroke="#fff5da" stroke-dasharray="none" stroke-miterlimit="4" stroke-opacity="1" stroke-width=".592" d="m 4.109375,5.484375 c 0,0.345178 -0.279822,0.625 -0.625,0.625 -0.345178,0 -0.625,-0.279822 -0.625,-0.625 0,-0.345178 0.279822,-0.625 0.625,-0.625 0.345178,0 0.625,0.279822 0.625,0.625 z" display="inline" transform="matrix(0.92758799,0,0,0.92758799,5.1382097,1045.1815)"/><path id="path4253-7-8" fill="#ffdb9f" fill-opacity="1" stroke="#fff5da" stroke-dasharray="none" stroke-miterlimit="4" stroke-opacity="1" stroke-width=".549" d="m 8.3828217,1045.8375 c -0.311801,0 -0.577113,0.2776 -0.577113,0.6378 l 0.07528,2.1544 c 0,0.3202 0.22468,0.5796 0.501836,0.5796 0.277156,0 0.501835,-0.2594 0.501835,-0.5796 l 0.05018,-2.1544 c 0,-0.3602 -0.240219,-0.6378 -0.552018,-0.6378 z" display="inline"/></g><g id="g3899" fill="url(#linearGradient3909)" fill-opacity="1"><path id="path4253" fill="url(#linearGradient3920)" fill-opacity="1" stroke="none" d="m -11.96875,4.90625 c -0.568148,0 -1.0625,0.4999119 -1.0625,1.15625 l 0.125,3.9375 c 0,0.583452 0.43248,1.03125 0.9375,1.03125 0.50502,0 0.90625,-0.447798 0.90625,-1.03125 l 0.09375,-3.9375 c 0,-0.6563381 -0.431856,-1.15625 -1,-1.15625 z m -0.03125,7 c -0.583421,0 -1.0625,0.479079 -1.0625,1.0625 0,0.583421 0.479079,1.0625 1.0625,1.0625 0.583421,0 1.0625,-0.479079 1.0625,-1.0625 0,-0.583421 -0.479079,-1.0625 -1.0625,-1.0625 z" transform="matrix(0.54880252,0,0,0.54880252,14.955904,1043.149)"/></g><path id="path4292-34" fill="none" stroke="url(#linearGradient3897)" stroke-dasharray="none" stroke-linecap="butt" stroke-linejoin="miter" stroke-miterlimit="4" stroke-opacity="1" stroke-width=".488" d="m 7.7042244,1044.9418 -2.1665688,3.8974 c -0.5769589,0.976 -0.1835666,2.4677 0.8925293,2.4852 l 1.4525456,0 0.9520312,0 1.4525473,0 c 1.076097,-0.017 1.469488,-1.5093 0.892529,-2.4852 l -2.1665702,-3.8974 c -0.2801751,-0.5299 -1.0651401,-0.4448 -1.3090434,0 z" display="inline"/><path id="path4292-3" fill="none" stroke="url(#linearGradient3831)" stroke-dasharray="none" stroke-linecap="butt" stroke-linejoin="miter" stroke-miterlimit="4" stroke-opacity="1" stroke-width=".549" d="m 7.6231985,1044.4966 -2.434777,4.3798 c -0.648383,1.0968 -0.206291,2.7732 1.003019,2.7928 l 1.632362,0 1.069887,0 1.6323635,0 c 1.209311,-0.019 1.651402,-1.6961 1.003019,-2.7928 l -2.4347785,-4.3798 c -0.314859,-0.5957 -1.196998,-0.4999 -1.471095,0 z" display="inline"/></g></g></g></svg>