<svg xmlns="http://www.w3.org/2000/svg" xmlns:svg="http://www.w3.org/2000/svg" xmlns:xlink="http://www.w3.org/1999/xlink" id="svg2" width="16" height="16" version="1.1"><defs id="defs4"><mask id="mask4980" maskUnits="userSpaceOnUse"><g id="g4982" fill="#fff" stroke="#fff"><path id="path4984" fill="none" stroke="#fff" stroke-linecap="butt" stroke-linejoin="miter" stroke-opacity="1" stroke-width="1" d="m 6.96875,1039.8898 -4.46875,0 0,5" display="inline"/><path id="path4986" fill="#fff" fill-opacity="1" stroke="#fff" stroke-dasharray="none" stroke-dashoffset="0" stroke-linecap="round" stroke-linejoin="round" stroke-miterlimit="4" stroke-opacity="1" stroke-width=".659" d="m 6.356423,1036.6666 0,1.3363 0,3.2951 0,1.977 0.659027,0 6.291516,-2.9835 c 0.390322,-0.2469 0.407362,-0.4152 0,-0.659 l -6.014828,-2.9659 z" display="inline"/><path id="path4988" fill="#fff" fill-opacity="1" stroke="#fff" stroke-dasharray="none" stroke-dashoffset="0" stroke-linecap="round" stroke-linejoin="round" stroke-miterlimit="4" stroke-opacity="1" stroke-width="1" d="m 7.7339807,12.000427 a 2.762136,2.762136 0 1 1 -5.524272,0 2.762136,2.762136 0 1 1 5.524272,0 z" display="inline" transform="matrix(0.91532738,0,0,0.91532738,-1.545875,1036.4059)"/></g></mask><filter id="filter4976" width="1.241" height="1.239" x="-.121" y="-.119" color-interpolation-filters="sRGB"><feGaussianBlur id="feGaussianBlur4978" stdDeviation=".66"/></filter><linearGradient id="linearGradient4744" x1="-13.937" x2="-13.937" y1="1049.958" y2="1040.053" gradientTransform="matrix(0.65902618,0,0,0.65902618,19.891025,353.37063)" gradientUnits="userSpaceOnUse" xlink:href="#linearGradient4738"/><linearGradient id="linearGradient4738"><stop id="stop4740" offset="0" stop-color="#8cc861" stop-opacity="1"/><stop id="stop4746" offset=".438" stop-color="#4aa766" stop-opacity="1"/><stop id="stop4742" offset="1" stop-color="#c2dd97" stop-opacity="1"/></linearGradient><linearGradient id="linearGradient4747" x1="11.063" x2="11.063" y1="1038.55" y2="1049.912" gradientTransform="matrix(0.65902618,0,0,0.65902618,5.8438862,353.37063)" gradientUnits="userSpaceOnUse" xlink:href="#linearGradient4741"/><linearGradient id="linearGradient4741"><stop id="stop4743" offset="0" stop-color="#30825a" stop-opacity="1"/><stop id="stop4745" offset="1" stop-color="#106643" stop-opacity="1"/></linearGradient><radialGradient id="radialGradient4761" cx="4.459" cy="12.547" r="3.262" fx="4.459" fy="12.547" gradientTransform="matrix(1.1151466,0,0,1.1151466,-0.42710264,-1.4447071)" gradientUnits="userSpaceOnUse" xlink:href="#linearGradient4753"/><linearGradient id="linearGradient4753"><stop id="stop4755" offset="0" stop-color="#e0e8f0" stop-opacity="1"/><stop id="stop4763" offset=".5" stop-color="#c8d0d8" stop-opacity="1"/><stop id="stop4757" offset="1" stop-color="#6c839e" stop-opacity="1"/></linearGradient><linearGradient id="linearGradient4751" x1="4.543" x2="4.543" y1="14.885" y2="9.029" gradientUnits="userSpaceOnUse" xlink:href="#linearGradient4743"/><linearGradient id="linearGradient4743"><stop id="stop4747" offset="0" stop-color="#687890" stop-opacity="1"/><stop id="stop4749" offset="1" stop-color="#7090b0" stop-opacity="1"/></linearGradient></defs><metadata id="metadata7"/><g id="layer1" transform="translate(0,-1036.3622)"><path id="path3971-4" fill="none" stroke="#868e94" stroke-linecap="butt" stroke-linejoin="miter" stroke-opacity="1" stroke-width="1" d="m 6.96875,1039.8898 -4.46875,0 0,5" display="inline"/><path id="rect3968-9" fill="#d1ecf1" fill-opacity="1" stroke="#868e94" stroke-dasharray="none" stroke-dashoffset="0" stroke-linecap="round" stroke-linejoin="round" stroke-miterlimit="4" stroke-opacity="1" stroke-width=".659" d="m 6.356423,1036.6666 0,1.3363 0,3.2951 0,1.977 0.659027,0 6.291516,-2.9835 c 0.390322,-0.2469 0.407362,-0.4152 0,-0.659 l -6.014828,-2.9659 z" display="inline"/><path id="path3973-1" fill="#ecf0f6" fill-opacity="1" stroke="#c6c6c6" stroke-dasharray="none" stroke-dashoffset="0" stroke-linecap="round" stroke-linejoin="round" stroke-miterlimit="4" stroke-opacity="1" stroke-width="1" d="m 7.7339807,12.000427 a 2.762136,2.762136 0 1 1 -5.524272,0 2.762136,2.762136 0 1 1 5.524272,0 z" display="inline" transform="matrix(0.91532738,0,0,0.91532738,-1.545875,1036.4059)"/><g id="g4966" display="inline" filter="url(#filter4976)" mask="url(#mask4980)" opacity=".5"><g id="g4961" fill="#000" stroke="#000"><path id="path3971-5" fill="none" stroke="#000" stroke-linecap="butt" stroke-linejoin="miter" stroke-opacity="1" stroke-width="1" d="m 8.96875,1041.8898 -4.46875,0 0,5" display="inline"/><path id="rect3968-1" fill="#000" fill-opacity="1" stroke="#000" stroke-dasharray="none" stroke-dashoffset="0" stroke-linecap="round" stroke-linejoin="round" stroke-miterlimit="4" stroke-opacity="1" stroke-width=".659" d="m 8.3564234,1038.6666 0,1.3363 0,3.2951 0,1.977 0.6590262,0 6.2915164,-2.9835 c 0.390322,-0.2469 0.407362,-0.4152 0,-0.659 l -6.0148275,-2.9659 z" display="inline"/><path id="path3973-6" fill="#000" fill-opacity="1" stroke="#000" stroke-dasharray="none" stroke-dashoffset="0" stroke-linecap="round" stroke-linejoin="round" stroke-miterlimit="4" stroke-opacity="1" stroke-width="1" d="m 7.7339807,12.000427 c 0,1.525486 -1.2366504,2.762136 -2.762136,2.762136 -1.5254856,0 -2.762136,-1.23665 -2.762136,-2.762136 0,-1.525485 1.2366504,-2.7621357 2.762136,-2.7621357 1.5254856,0 2.762136,1.2366507 2.762136,2.7621357 z" display="inline" transform="matrix(0.91532738,0,0,0.91532738,0.45412502,1038.4059)"/></g></g><path id="path3971" fill="none" stroke="#4557a2" stroke-linecap="butt" stroke-linejoin="miter" stroke-opacity="1" stroke-width="1" d="m 8.96875,1041.8898 -4.46875,0 0,5" display="inline"/><path id="rect3968" fill="url(#linearGradient4744)" fill-opacity="1" stroke="url(#linearGradient4747)" stroke-dasharray="none" stroke-dashoffset="0" stroke-linecap="round" stroke-linejoin="round" stroke-miterlimit="4" stroke-opacity="1" stroke-width=".659" d="m 8.3564234,1038.6666 0,1.3363 0,3.2951 0,1.977 0.6590262,0 6.2915164,-2.9835 c 0.390322,-0.2469 0.407362,-0.4152 0,-0.659 l -6.0148275,-2.9659 z" display="inline"/><path id="path3973" fill="url(#radialGradient4761)" fill-opacity="1" stroke="url(#linearGradient4751)" stroke-dasharray="none" stroke-dashoffset="0" stroke-linecap="round" stroke-linejoin="round" stroke-miterlimit="4" stroke-opacity="1" stroke-width="1" d="m 7.7339807,12.000427 a 2.762136,2.762136 0 1 1 -5.524272,0 2.762136,2.762136 0 1 1 5.524272,0 z" display="inline" transform="matrix(0.91532738,0,0,0.91532738,0.45412502,1038.4059)"/></g></svg>