<svg xmlns="http://www.w3.org/2000/svg" xmlns:svg="http://www.w3.org/2000/svg" xmlns:xlink="http://www.w3.org/1999/xlink" id="svg2" width="16" height="16" version="1.1"><defs id="defs4"><linearGradient id="linearGradient13761" x1="28.005" x2="28.005" y1="-5.608" y2="1.609" gradientUnits="userSpaceOnUse" xlink:href="#linearGradient13755"/><linearGradient id="linearGradient13755"><stop id="stop13757" offset="0" stop-color="#f1fdfc" stop-opacity="1"/><stop id="stop13765" offset=".455" stop-color="#dbeff9" stop-opacity="1"/><stop id="stop13763" offset=".545" stop-color="#cee4f0" stop-opacity="1"/><stop id="stop13759" offset="1" stop-color="#def1fa" stop-opacity="1"/></linearGradient><linearGradient id="linearGradient13837" x1="30.034" x2="30.034" y1="-6.111" y2="1.909" gradientUnits="userSpaceOnUse" xlink:href="#linearGradient13831"/><linearGradient id="linearGradient13831"><stop id="stop13833" offset="0" stop-color="#055797" stop-opacity="1"/><stop id="stop13835" offset="1" stop-color="#184785" stop-opacity="1"/></linearGradient><linearGradient id="linearGradient13906" x1="28.005" x2="28.005" y1="-5.608" y2="1.609" gradientUnits="userSpaceOnUse" xlink:href="#linearGradient13755-3"/><linearGradient id="linearGradient13755-3"><stop id="stop13757-5" offset="0" stop-color="#f1fdfc" stop-opacity="1"/><stop id="stop13765-0" offset=".455" stop-color="#dbeff9" stop-opacity="1"/><stop id="stop13763-0" offset=".545" stop-color="#cee4f0" stop-opacity="1"/><stop id="stop13759-65" offset="1" stop-color="#def1fa" stop-opacity="1"/></linearGradient><linearGradient id="linearGradient13908" x1="30.034" x2="30.034" y1="-6.111" y2="1.909" gradientUnits="userSpaceOnUse" xlink:href="#linearGradient13831-8"/><linearGradient id="linearGradient13831-8"><stop id="stop13833-2" offset="0" stop-color="#055797" stop-opacity="1"/><stop id="stop13835-7" offset="1" stop-color="#184785" stop-opacity="1"/></linearGradient><linearGradient id="linearGradient13928" x1="11" x2="16" y1="8.5" y2="8.5" gradientTransform="translate(4.3772058e-8,1036.3622)" gradientUnits="userSpaceOnUse" xlink:href="#linearGradient13922"/><linearGradient id="linearGradient13922"><stop id="stop13924" offset="0" stop-color="#91a5c7" stop-opacity="1"/><stop id="stop13926" offset="1" stop-color="#6e83ae" stop-opacity="1"/></linearGradient><linearGradient id="linearGradient13945" x1="11" x2="16" y1="8.5" y2="8.5" gradientTransform="translate(-2.5622794e-7,1038.3623)" gradientUnits="userSpaceOnUse" xlink:href="#linearGradient13922-6"/><linearGradient id="linearGradient13922-6"><stop id="stop13924-9" offset="0" stop-color="#91a5c7" stop-opacity="1"/><stop id="stop13926-8" offset="1" stop-color="#6e83ae" stop-opacity="1"/></linearGradient><linearGradient id="linearGradient13945-8" x1="11" x2="16" y1="8.5" y2="8.5" gradientTransform="translate(-2.5622794e-7,1040.3623)" gradientUnits="userSpaceOnUse" xlink:href="#linearGradient13922-5"/><linearGradient id="linearGradient13922-5"><stop id="stop13924-0" offset="0" stop-color="#91a5c7" stop-opacity="1"/><stop id="stop13926-5" offset="1" stop-color="#6e83ae" stop-opacity="1"/></linearGradient><linearGradient id="linearGradient13945-1" x1="11" x2="16" y1="8.5" y2="8.5" gradientTransform="translate(-2.5622794e-7,1042.3623)" gradientUnits="userSpaceOnUse" xlink:href="#linearGradient13922-7"/><linearGradient id="linearGradient13922-7"><stop id="stop13924-3" offset="0" stop-color="#91a5c7" stop-opacity="1"/><stop id="stop13926-4" offset="1" stop-color="#6e83ae" stop-opacity="1"/></linearGradient><mask id="mask14146" maskUnits="userSpaceOnUse"><g id="g14148" fill="#fff" stroke="#fff" display="inline" transform="matrix(0.73426076,0,0,0.73426076,3.6725146,281.72245)"><path id="path14150" fill="#fff" fill-opacity="1" stroke="#fff" stroke-dasharray="none" stroke-linecap="round" stroke-linejoin="round" stroke-miterlimit="4" stroke-opacity="1" stroke-width=".802" d="m 30,-2 c 0,2.209139 -1.790861,4 -4,4 -2.209139,0 -4,-1.790861 -4,-4 0,-2.209139 1.790861,-4 4,-4 2.209139,0 4,1.790861 4,4 z" display="inline" transform="matrix(1.247029,0,0,1.247029,-18.103841,1064.137)"/><path id="path14152" fill="#fff" stroke="#fff" stroke-linecap="round" stroke-linejoin="round" stroke-opacity="1" stroke-width="1" d="m 14.349242,1061.6734 0,-2.0313" display="inline"/><path id="path14154" fill="#fff" stroke="#fff" stroke-linecap="round" stroke-linejoin="round" stroke-opacity="1" stroke-width="1" d="m 14.349242,1061.6734 1.458408,2.3881" display="inline"/></g></mask><filter id="filter14156" width="1.36" height="1.36" x="-.18" y="-.18" color-interpolation-filters="sRGB"><feGaussianBlur id="feGaussianBlur14158" stdDeviation=".993"/></filter><linearGradient id="linearGradient13741" x1="388.637" x2="388.637" y1="478.188" y2="457.955" gradientUnits="userSpaceOnUse" xlink:href="#linearGradient10798-1-9-3-7-1-15-1-7-6-1-28-0"/><linearGradient id="linearGradient10798-1-9-3-7-1-15-1-7-6-1-28-0"><stop id="stop10800-5-2-1-8-2-8-1-7-3-7-2-4" offset="0" stop-color="#4f9e55" stop-opacity="1"/><stop id="stop10806-6-8-5-3-2-95-0-5-4-8-94-0" offset=".5" stop-color="#3c8d49" stop-opacity="1"/><stop id="stop10802-1-5-3-0-2-0-9-8-4-3-4-7" offset="1" stop-color="#a4e173" stop-opacity="1"/></linearGradient><linearGradient id="linearGradient13743" x1="16.966" x2="15.634" y1="1054.691" y2="1056.289" gradientUnits="userSpaceOnUse" xlink:href="#linearGradient9276-9"/><linearGradient id="linearGradient9276-9"><stop id="stop9278-0" offset="0" stop-color="#9dd560" stop-opacity="1"/><stop id="stop9280-5" offset="1" stop-color="#499851" stop-opacity="1"/></linearGradient><linearGradient id="linearGradient8740" x1="28.005" x2="28.005" y1="-5.608" y2="1.609" gradientUnits="userSpaceOnUse" xlink:href="#linearGradient13755"/><linearGradient id="linearGradient8742" x1="30.034" x2="30.034" y1="-6.111" y2="1.909" gradientUnits="userSpaceOnUse" xlink:href="#linearGradient13831"/></defs><metadata id="metadata7"/><g id="layer1" transform="translate(0,-1036.3622)"><path id="path13745" fill="url(#linearGradient8740)" fill-opacity="1" stroke="url(#linearGradient8742)" stroke-dasharray="none" stroke-linecap="round" stroke-linejoin="round" stroke-miterlimit="4" stroke-opacity="1" stroke-width=".802" d="m 30,-2 a 4,4 0 1 1 -8,0 4,4 0 1 1 8,0 z" display="inline" transform="matrix(1.247029,0,0,1.247029,13.077247,1037.3561)"/><path id="path13811" fill="none" stroke="#1f4a83" stroke-linecap="round" stroke-linejoin="round" stroke-opacity="1" stroke-width="1" d="m 45.53033,1034.8925 0,-2.0313" display="inline"/><path id="path13811-9" fill="none" stroke="#1f4a83" stroke-linecap="round" stroke-linejoin="round" stroke-opacity="1" stroke-width="1" d="m 45.53033,1034.8925 1.458408,2.3881" display="inline"/><g id="g13901" display="inline" transform="matrix(0.73426076,0,0,0.73426076,-4.5476017,268.81772)"><path id="path13745-2" fill="url(#linearGradient13906)" fill-opacity="1" stroke="url(#linearGradient13908)" stroke-dasharray="none" stroke-linecap="round" stroke-linejoin="round" stroke-miterlimit="4" stroke-opacity="1" stroke-width=".802" d="m 30,-2 c 0,2.209139 -1.790861,4 -4,4 -2.209139,0 -4,-1.790861 -4,-4 0,-2.209139 1.790861,-4 4,-4 2.209139,0 4,1.790861 4,4 z" display="inline" transform="matrix(1.247029,0,0,1.247029,-18.103841,1064.137)"/><path id="path13811-4" fill="none" stroke="#1f4a83" stroke-linecap="round" stroke-linejoin="round" stroke-opacity="1" stroke-width="1" d="m 14.349242,1061.6734 0,-2.0313" display="inline"/><path id="path13811-9-5" fill="none" stroke="#1f4a83" stroke-linecap="round" stroke-linejoin="round" stroke-opacity="1" stroke-width="1" d="m 14.349242,1061.6734 1.458408,2.3881" display="inline"/></g><rect id="rect13912" width="5" height="1" x="11" y="1044.362" fill="url(#linearGradient13928)" fill-opacity="1" stroke="none" display="inline"/><rect id="rect13912-3" width="5" height="1" x="11" y="1046.362" fill="url(#linearGradient13945)" fill-opacity="1" stroke="none" display="inline"/><rect id="rect13912-1" width="5" height="1" x="11" y="1048.362" fill="url(#linearGradient13945-8)" fill-opacity="1" stroke="none" display="inline"/><rect id="rect13912-5" width="5" height="1" x="11" y="1050.362" fill="url(#linearGradient13945-1)" fill-opacity="1" stroke="none" display="inline"/><g id="g14139" display="inline" mask="url(#mask14146)" transform="translate(-8.2201163,-12.904699)"><g id="layer1-0-8-9" fill="#fff" stroke="#fff" stroke-dasharray="none" stroke-miterlimit="4" stroke-width="2.584" display="inline" filter="url(#filter14156)" transform="matrix(0.77393739,0,0,0.77393739,7.411332,246.44575)"><g id="g8159-2-9-7" fill="#fff" stroke="#fff" stroke-dasharray="none" stroke-miterlimit="4" stroke-width="2.584" display="inline" transform="translate(-8.2201167,-12.904699)"><path id="path10796-2-6-0-3-1-6" fill="#fff" fill-opacity="1" stroke="#fff" stroke-dasharray="none" stroke-miterlimit="4" stroke-width="4.148" d="m 398.75,468.23718 c 0,5.86803 -4.75697,10.625 -10.625,10.625 -5.86803,0 -10.625,-4.75697 -10.625,-10.625 0,-5.86802 4.75697,-10.625 10.625,-10.625 5.86803,0 10.625,4.75698 10.625,10.625 z" display="inline" transform="matrix(0.62300696,0,0,0.62300696,-225.45273,765.59692)"/><path id="path8117-2-7-3" fill="#fff" fill-opacity="1" stroke="#fff" stroke-dasharray="none" stroke-miterlimit="4" stroke-opacity="1" stroke-width="2.584" d="m 14.039346,1052.2494 6.0625,5.1875 -6,5.0625 z" display="inline"/><path id="path10796-2-6-0-5-3-1" fill="#fff" stroke="#fff" stroke-dasharray="none" stroke-dashoffset="0" stroke-linecap="round" stroke-linejoin="round" stroke-miterlimit="4" stroke-opacity="1" stroke-width="4.148" d="m 398.75,468.23718 c 0,5.86803 -4.75697,10.625 -10.625,10.625 -5.86803,0 -10.625,-4.75697 -10.625,-10.625 0,-5.86802 4.75697,-10.625 10.625,-10.625 5.86803,0 10.625,4.75698 10.625,10.625 z" display="inline" transform="matrix(0.62300696,0,0,0.62300696,-225.45273,765.59692)"/></g></g></g><g id="layer1-0-8" display="inline" transform="matrix(0.77393739,0,0,0.77393739,-0.80878426,233.54102)"><g id="g8159-2-9" display="inline" transform="translate(-8.2201167,-12.904699)"><path id="path10796-2-6-0-3-1" fill="url(#linearGradient13741)" fill-opacity="1" stroke="none" d="m 398.75,468.23718 c 0,5.86803 -4.75697,10.625 -10.625,10.625 -5.86803,0 -10.625,-4.75697 -10.625,-10.625 0,-5.86802 4.75697,-10.625 10.625,-10.625 5.86803,0 10.625,4.75698 10.625,10.625 z" display="inline" transform="matrix(0.62300696,0,0,0.62300696,-225.45273,765.59692)"/><path id="path8117-2-7" fill="#fff" fill-opacity="1" stroke="url(#linearGradient13743)" stroke-dasharray="none" stroke-miterlimit="4" stroke-opacity="1" stroke-width=".646" d="m 14.039346,1052.2494 6.0625,5.1875 -6,5.0625 z" display="inline"/><path id="path10796-2-6-0-5-3" fill="none" stroke="#14733c" stroke-dasharray="none" stroke-dashoffset="0" stroke-linecap="round" stroke-linejoin="round" stroke-miterlimit="4" stroke-opacity="1" stroke-width="1.5" d="m 398.75,468.23718 c 0,5.86803 -4.75697,10.625 -10.625,10.625 -5.86803,0 -10.625,-4.75697 -10.625,-10.625 0,-5.86802 4.75697,-10.625 10.625,-10.625 5.86803,0 10.625,4.75698 10.625,10.625 z" display="inline" transform="matrix(0.62300696,0,0,0.62300696,-225.45273,765.59692)"/></g></g></g></svg>