<svg xmlns="http://www.w3.org/2000/svg" xmlns:svg="http://www.w3.org/2000/svg" xmlns:xlink="http://www.w3.org/1999/xlink" id="svg2" width="16" height="16" version="1.1"><defs id="defs4"><linearGradient id="linearGradient5069" x1="1" x2="16" y1="1039.1" y2="1039.1" gradientTransform="matrix(-1,0,0,1,17,0)" gradientUnits="userSpaceOnUse" xlink:href="#linearGradient5063"/><linearGradient id="linearGradient5063"><stop id="stop5065" offset="0" stop-color="#4f9cd2" stop-opacity="1"/><stop id="stop5067" offset="1" stop-color="#295189" stop-opacity="1"/></linearGradient><linearGradient id="linearGradient4852" x1="9" x2="9" y1="1037.362" y2="1051.362" gradientTransform="translate(-1,0)" gradientUnits="userSpaceOnUse" xlink:href="#linearGradient4845"/><linearGradient id="linearGradient4845"><stop id="stop4847" offset="0" stop-color="#96792f" stop-opacity="1"/><stop id="stop4849" offset="1" stop-color="#615941" stop-opacity="1"/></linearGradient><linearGradient id="linearGradient5062-9" x1="-12" x2="-15" y1="1047.362" y2="1047.362" gradientTransform="translate(17,-4)" gradientUnits="userSpaceOnUse" xlink:href="#linearGradient4910-4-4"/><linearGradient id="linearGradient4910-4-4"><stop id="stop4912-8-8" offset="0" stop-color="#fff" stop-opacity="0"/><stop id="stop4914-8-8" offset="1" stop-color="#b1e6f3" stop-opacity="1"/></linearGradient><linearGradient id="linearGradient4975-2-1" x1="-11" x2="-11" y1="1043.362" y2="1046.362" gradientTransform="translate(17,-4)" gradientUnits="userSpaceOnUse" xlink:href="#linearGradient4994-4-7"/><linearGradient id="linearGradient4994-4-7"><stop id="stop4996-5-4" offset="0" stop-color="#b1e6f3" stop-opacity="1"/><stop id="stop4998-5-0" offset="1" stop-color="#fff" stop-opacity="0"/></linearGradient><linearGradient id="linearGradient4885" x1="-12" x2="-15" y1="1047.362" y2="1047.362" gradientTransform="matrix(-1,0,0,-1,0,2092.7244)" gradientUnits="userSpaceOnUse" xlink:href="#linearGradient4910-4-4-7"/><linearGradient id="linearGradient4910-4-4-7"><stop id="stop4912-8-8-4" offset="0" stop-color="#fff" stop-opacity="0"/><stop id="stop4914-8-8-0" offset="1" stop-color="#b1e6f3" stop-opacity="1"/></linearGradient><linearGradient id="linearGradient4975-2-1-9" x1="-11" x2="-11" y1="1042.362" y2="1045.362" gradientTransform="matrix(-1,0,0,-1,0,2092.7244)" gradientUnits="userSpaceOnUse" xlink:href="#linearGradient4994-4-7-4"/><linearGradient id="linearGradient4994-4-7-4"><stop id="stop4996-5-4-8" offset="0" stop-color="#b1e6f3" stop-opacity="1"/><stop id="stop4998-5-0-8" offset="1" stop-color="#fff" stop-opacity="0"/></linearGradient><linearGradient id="linearGradient5002" x1="-17.426" x2="-10.239" y1="1.515" y2="1.515" gradientTransform="matrix(-1,0,0,1,-3.068933,1036.3622)" gradientUnits="userSpaceOnUse" xlink:href="#linearGradient5033"/><linearGradient id="linearGradient5033"><stop id="stop5035" offset="0" stop-color="#d0f0f8" stop-opacity="1"/><stop id="stop5037" offset="1" stop-color="#d0f0f8" stop-opacity="1"/></linearGradient><linearGradient id="linearGradient5004" x1="-15.925" x2="-15.925" y1="1037.04" y2="1034.677" gradientTransform="matrix(-1,0,0,1,-3.068933,2)" gradientUnits="userSpaceOnUse" xlink:href="#linearGradient5039"/><linearGradient id="linearGradient5039"><stop id="stop5041" offset="0" stop-color="#4898d0" stop-opacity="1"/><stop id="stop5043" offset="1" stop-color="#80b8e0" stop-opacity="1"/></linearGradient><linearGradient id="linearGradient4923" x1="-17.426" x2="-10.239" y1="1.515" y2="1.515" gradientTransform="translate(20,1036.331)" gradientUnits="userSpaceOnUse" xlink:href="#linearGradient4916"/><linearGradient id="linearGradient4916"><stop id="stop4918" offset="0" stop-color="#4898d0" stop-opacity="1"/><stop id="stop4921" offset="1" stop-color="#90c0e0" stop-opacity="1"/></linearGradient><linearGradient id="linearGradient4931" x1="-19.039" x2="-8.029" y1="1035.878" y2="1035.878" gradientTransform="translate(20,1.9688)" gradientUnits="userSpaceOnUse" xlink:href="#linearGradient4925"/><linearGradient id="linearGradient4925"><stop id="stop4927" offset="0" stop-color="#285088" stop-opacity="1"/><stop id="stop4929" offset="1" stop-color="#4068a0" stop-opacity="1"/></linearGradient><linearGradient id="linearGradient4952" x1="-17.426" x2="-10.239" y1="1.515" y2="1.515" gradientTransform="translate(20,1036.3654)" gradientUnits="userSpaceOnUse" xlink:href="#linearGradient4916-4"/><linearGradient id="linearGradient4916-4"><stop id="stop4918-7" offset="0" stop-color="#4898d0" stop-opacity="1"/><stop id="stop4921-0" offset="1" stop-color="#90c0e0" stop-opacity="1"/></linearGradient><linearGradient id="linearGradient5086" x1="1" x2="16" y1="1039.1" y2="1039.1" gradientTransform="matrix(-0.73333333,0,0,1,12.733333,0)" gradientUnits="userSpaceOnUse" xlink:href="#linearGradient5105"/><linearGradient id="linearGradient5105"><stop id="stop5107" offset="0" stop-color="#4068a0" stop-opacity="1"/><stop id="stop5109" offset="1" stop-color="#295189" stop-opacity="1"/></linearGradient><linearGradient id="linearGradient4967" x1="673.61" x2="696.684" y1="460.616" y2="460.616" gradientTransform="matrix(0.27903303,0,0,0.27903303,-182.64712,915.83521)" gradientUnits="userSpaceOnUse" xlink:href="#linearGradient5961"/><linearGradient id="linearGradient5961"><stop id="stop5963" offset="0" stop-color="#ffa815" stop-opacity="1"/><stop id="stop5965" offset=".174" stop-color="#fdd876" stop-opacity="1"/><stop id="stop5967" offset=".347" stop-color="#faecd5" stop-opacity="1"/><stop id="stop5969" offset=".5" stop-color="#fdd775" stop-opacity="1"/><stop id="stop5971" offset=".638" stop-color="#ffc624" stop-opacity="1"/><stop id="stop5973" offset=".819" stop-color="#ffa815" stop-opacity="1"/><stop id="stop5975" offset="1" stop-color="#c87a15" stop-opacity="1"/></linearGradient><filter id="filter4924-5" width="1.165" height="1.438" x="-.083" y="-.219" color-interpolation-filters="sRGB"><feGaussianBlur id="feGaussianBlur4926-2" stdDeviation=".986"/></filter><linearGradient id="linearGradient4800-4" x1="5.015" x2="11.813" y1="2.633" y2="2.633" gradientUnits="userSpaceOnUse" xlink:href="#linearGradient4794-9"/><linearGradient id="linearGradient4794-9"><stop id="stop4796-8" offset="0" stop-color="#d48b15" stop-opacity="1"/><stop id="stop4802-2" offset=".389" stop-color="#fcdf98" stop-opacity="1"/><stop id="stop4798-4" offset="1" stop-color="#b96d15" stop-opacity="1"/></linearGradient><linearGradient id="linearGradient4755-8" x1="690.186" x2="690.186" y1="484.134" y2="438.441" gradientTransform="matrix(0.27903303,0,0,0.27903303,-182.64712,915.83521)" gradientUnits="userSpaceOnUse" xlink:href="#linearGradient4721-1"/><linearGradient id="linearGradient4721-1"><stop id="stop4723-2" offset="0" stop-color="#b96d15" stop-opacity="1"/><stop id="stop4725-1" offset="1" stop-color="#d48b15" stop-opacity="1"/></linearGradient><linearGradient id="linearGradient5144" x1="1" x2="16" y1="1039.1" y2="1039.1" gradientTransform="matrix(-1,0,0,1,17,0)" gradientUnits="userSpaceOnUse" xlink:href="#linearGradient5063"/></defs><metadata id="metadata7"/><g id="layer1" transform="translate(0,-1036.3622)"><path font-size="medium" style="text-indent:0;text-align:start;line-height:normal;text-transform:none;block-progression:tb;marker:none;-inkscape-font-specification:Sans" id="rect3997-9-1-1-5" fill="url(#linearGradient5144)" fill-opacity="1" fill-rule="nonzero" stroke="none" stroke-width="1" d="m 16,1038.8895 -15,-0.052 0,0.5248 15,0 z" baseline-shift="baseline" color="#000" direction="ltr" display="inline" enable-background="accumulate" font-family="Sans" font-stretch="normal" font-style="normal" font-variant="normal" font-weight="normal" letter-spacing="normal" overflow="visible" text-anchor="start" text-decoration="none" visibility="visible" word-spacing="normal" writing-mode="lr-tb"/><path font-size="medium" style="text-indent:0;text-align:start;line-height:normal;text-transform:none;block-progression:tb;marker:none;-inkscape-font-specification:Sans" id="rect3997-9-1" fill="url(#linearGradient4852)" fill-opacity="1" fill-rule="nonzero" stroke="none" stroke-width="1" d="m 1,1039.3622 0,12 15.000001,0 0,-12 z m 1,1 13.000001,0 0,10 -13.000001,0 z" baseline-shift="baseline" color="#000" direction="ltr" display="inline" enable-background="accumulate" font-family="Sans" font-stretch="normal" font-style="normal" font-variant="normal" font-weight="normal" letter-spacing="normal" overflow="visible" text-anchor="start" text-decoration="none" visibility="visible" word-spacing="normal" writing-mode="lr-tb"/><path font-size="medium" style="text-indent:0;text-align:start;line-height:normal;text-transform:none;block-progression:tb;marker:none;-inkscape-font-specification:Sans" id="rect3997-9-1-1" fill="#fff" fill-opacity="1" fill-rule="nonzero" stroke="none" stroke-width="1" d="m 2,1039.3622 13.000001,0 0,11 -12.968751,0 z" baseline-shift="baseline" color="#000" direction="ltr" display="inline" enable-background="accumulate" font-family="Sans" font-stretch="normal" font-style="normal" font-variant="normal" font-weight="normal" letter-spacing="normal" overflow="visible" text-anchor="start" text-decoration="none" visibility="visible" word-spacing="normal" writing-mode="lr-tb"/><path id="rect4853-82-7" fill="url(#linearGradient5062-9)" fill-opacity="1" stroke="none" d="m 4,1041.3622 0,9 -2,0 0,-11 z" display="inline"/><path id="rect4853-82-0" fill="url(#linearGradient4975-2-1)" fill-opacity="1" stroke="none" d="m 3,1041.3622 12.000001,0 0,-2 -13.000001,0 z" display="inline"/><path id="rect4853-82-7-2" fill="url(#linearGradient4885)" fill-opacity="1" stroke="none" d="m 13,1048.3622 0,-7 2,-2 0,11 z" display="inline" opacity=".25"/><path id="rect4853-82-0-4" fill="url(#linearGradient4975-2-1-9)" fill-opacity="1" stroke="none" d="m 13,1048.3622 -9,0 -2,2 13,0 z" display="inline" opacity=".25"/><path id="path4914-9" fill="url(#linearGradient5002)" fill-opacity="1" stroke="url(#linearGradient5004)" stroke-linecap="round" stroke-linejoin="round" stroke-opacity="1" stroke-width="1" d="m 15.498146,1038.8609 -0.469564,-1.9667 -3.535107,-0.022 -2.032932,1.9888 z" display="inline"/><path id="path4914" fill="url(#linearGradient4923)" fill-opacity="1" stroke="url(#linearGradient4931)" stroke-linecap="round" stroke-linejoin="round" stroke-opacity="1" stroke-width="1" d="m 1.4996055,1038.8518 0.9553065,-1.9888 6.98268,0.01 2.060554,1.9888 z" display="inline"/><path id="path4914-0" fill="url(#linearGradient4952)" fill-opacity="1" stroke="none" d="m 1.1764988,1038.3654 0.4948965,-1 7.6102357,0 0.994369,1 z" display="inline"/><path font-size="medium" style="text-indent:0;text-align:start;line-height:normal;text-transform:none;block-progression:tb;marker:none;-inkscape-font-specification:Sans" id="rect3997-9-1-1-5-6" fill="url(#linearGradient5086)" fill-opacity="1" fill-rule="nonzero" stroke="none" stroke-width="1" d="m 12,1038.8895 -11,-0.052 0,0.5248 11,0 z" baseline-shift="baseline" color="#000" direction="ltr" display="inline" enable-background="accumulate" font-family="Sans" font-stretch="normal" font-style="normal" font-variant="normal" font-weight="normal" letter-spacing="normal" overflow="visible" text-anchor="start" text-decoration="none" visibility="visible" word-spacing="normal" writing-mode="lr-tb"/><g id="layer1-3" display="inline" transform="matrix(0.53212753,0,0,0.53212753,3.9867264,489.14597)"><path id="path3868-1" fill="url(#linearGradient4967)" fill-opacity="1" stroke="none" d="m 8.5,1037.8622 c -2.204824,0 -3.968751,0.6672 -3.968751,1.5 l 0,10 c 0,0.8327 1.763927,1.5 3.968751,1.5 2.204824,0 4,-0.6673 4,-1.5 l 0,-10 c 0,-0.8328 -1.795176,-1.5 -4,-1.5 z" display="inline"/><g id="g4913" display="inline" filter="url(#filter4924-5)" transform="matrix(0.27903303,0,0,0.27903303,-182.64712,921.83521)"><path id="path3868-6" fill="#eb9715" fill-opacity="1" stroke="none" d="M 10.378906,3.9386165 C 9.4619637,4.1385648 8.3722747,4.1927484 7.3495584,4.0892475 l 1.0332541,-1.456435 z" display="inline" transform="matrix(3.5838051,0,0,3.5838051,655.01968,411.78602)"/><path id="path3868-6-2" fill="#deeaf8" fill-opacity="1" stroke="none" d="M 7.3495584,4.0892475 C 6.6726614,4.0207443 6.0554326,3.8861514 5.5599096,3.6989969 L 8.3828125,2.6328125 z" display="inline" transform="matrix(3.5838051,0,0,3.5838051,655.01968,411.78602)"/><path id="path3868-6-4" fill="#ffc624" fill-opacity="1" stroke="none" d="M 9.4160668,1.1763775 C 11.545763,1.391907 12.80962,2.2186963 12.238969,3.0230631 11.964933,3.4093337 11.295849,3.7386681 10.378906,3.9386165 L 8.3828125,2.6328125 z" display="inline" transform="matrix(3.5838051,0,0,3.5838051,655.01968,411.78602)"/><path id="path3868-6-4-5" fill="#e59215" fill-opacity="1" stroke="none" d="M 6.3867187,1.3270086 C 7.3036612,1.1270602 8.3933503,1.0728766 9.4160668,1.1763775 l -1.0332543,1.456435 z" display="inline" transform="matrix(3.5838051,0,0,3.5838051,655.01968,411.78602)"/><path id="path3868-6-4-5-8" fill="#ffc624" fill-opacity="1" stroke="none" d="M 5.5599096,3.6989969 C 4.0008634,3.1101595 4.0008635,2.1554654 5.5599097,1.566628 5.8066068,1.4734528 6.0845777,1.3928934 6.3867187,1.3270086 l 1.9960938,1.3058039 z" display="inline" transform="matrix(3.5838051,0,0,3.5838051,655.01968,411.78602)"/></g><path id="path3868" fill="none" stroke="url(#linearGradient4800-4)" stroke-opacity="1" d="M 12.375,2.6328125 C 12.375,3.4655543 10.587637,4.140625 8.3828125,4.140625 6.1779882,4.140625 4.390625,3.4655543 4.390625,2.6328125 4.390625,1.8000707 6.1779882,1.125 8.3828125,1.125 10.587637,1.125 12.375,1.8000707 12.375,2.6328125 z" display="inline" transform="translate(0.125005,1036.7371)"/><path id="path3868-1-4" fill="none" stroke="url(#linearGradient4755-8)" stroke-opacity="1" stroke-width="1" d="m 8.5,1037.8622 c -2.204824,0 -3.968751,0.6672 -3.968751,1.5 l 0,10 c 0,0.8327 1.763927,1.5 3.968751,1.5 2.204824,0 4,-0.6673 4,-1.5 l 0,-10 c 0,-0.8328 -1.795176,-1.5 -4,-1.5 z" display="inline"/></g></g></svg>