<svg xmlns="http://www.w3.org/2000/svg" xmlns:svg="http://www.w3.org/2000/svg" xmlns:xlink="http://www.w3.org/1999/xlink" id="svg2" width="16" height="16" version="1.1"><defs id="defs4"><linearGradient id="linearGradient6122"><stop id="stop6124" offset="0" stop-color="silver" stop-opacity="1"/><stop id="stop6132" offset=".5" stop-color="#9c9c9c" stop-opacity="1"/><stop id="stop6126" offset="1" stop-color="gray" stop-opacity="1"/></linearGradient><radialGradient id="radialGradient6128" cx="9.388" cy="1046.854" r="5.569" fx="9.388" fy="1046.854" gradientTransform="matrix(0.67473608,0,0,0.67473736,3.0534993,340.50265)" gradientUnits="userSpaceOnUse" xlink:href="#linearGradient6122"/></defs><metadata id="metadata7"/><g id="layer1" display="inline" transform="translate(0,-1036.3622)"><g id="g4908" transform="translate(17.6875,0)"><g id="layer1-8" display="inline" transform="translate(-18.599558,-2.010247)"><path id="rect6501-7-1-1" fill="url(#radialGradient6128)" fill-opacity="1" stroke="none" d="m 9.3877575,1041.2851 c 0,0 0.5737311,2.094 2.0245595,3.5448 1.450828,1.4508 3.544832,2.0246 3.544832,2.0246 0,0 -2.082126,0.5618 -3.544827,2.0245 -1.4627015,1.4628 -2.0245592,3.5449 -2.0245592,3.5449 0,0 -0.5143438,-2.0346 -2.0245599,-3.5449 -1.5102161,-1.5102 -3.5448326,-2.0245 -3.5448326,-2.0245 0,0 2.1296406,-0.6094 3.5448326,-2.0246 1.415192,-1.4152 2.0245546,-3.5448 2.0245546,-3.5448 z" display="inline"/><path id="rect6501-1-6-8-2" fill="none" stroke="#c65353" stroke-dasharray="none" stroke-linecap="round" stroke-linejoin="round" stroke-miterlimit="4" stroke-opacity="1" stroke-width=".709" d="m 9.3877575,1041.531 c 0,0 0.5484017,2.0015 1.9351775,3.3883 1.386776,1.3868 3.388332,1.9352 3.388332,1.9352 0,0 -1.990202,0.537 -3.388327,1.9352 -1.3981251,1.3981 -1.9351772,3.3883 -1.9351772,3.3883 0,0 -0.4916362,-1.9448 -1.9351783,-3.3883 -1.4435413,-1.4436 -3.3883323,-1.9352 -3.3883323,-1.9352 0,0 2.0356199,-0.5825 3.3883323,-1.9352 1.3527132,-1.3527 1.935173,-3.3883 1.935173,-3.3883 z" display="inline"/></g></g></g></svg>