<svg xmlns="http://www.w3.org/2000/svg" xmlns:svg="http://www.w3.org/2000/svg" xmlns:xlink="http://www.w3.org/1999/xlink" id="svg2" width="16" height="16" version="1.1"><defs id="defs4"><linearGradient id="linearGradient18742" x1="9" x2="11" y1="1043.362" y2="1043.362" gradientTransform="translate(-16,3.8281246e-7)" gradientUnits="userSpaceOnUse" xlink:href="#linearGradient18719-0"/><linearGradient id="linearGradient18719-0"><stop id="stop18721-3" offset="0" stop-color="#000" stop-opacity="1"/><stop id="stop18723-9" offset="1" stop-color="#000" stop-opacity="0"/></linearGradient><linearGradient id="linearGradient18725" x1="9" x2="11" y1="1043.362" y2="1043.362" gradientUnits="userSpaceOnUse" xlink:href="#linearGradient18719"/><linearGradient id="linearGradient18719"><stop id="stop18721" offset="0" stop-color="#000" stop-opacity="1"/><stop id="stop18723" offset="1" stop-color="#000" stop-opacity="0"/></linearGradient><linearGradient id="linearGradient18685" x1="8.014" x2="8.014" y1="1039.876" y2="1041.877" gradientTransform="translate(-1.885763,-0.99879962)" gradientUnits="userSpaceOnUse" xlink:href="#linearGradient4082-3-1-8"/><linearGradient id="linearGradient4082-3-1-8"><stop id="stop4084-8-1-82" offset="0" stop-color="#4476aa" stop-opacity="1"/><stop id="stop4864-7-00-4" offset=".5" stop-color="#5a9ccc" stop-opacity="1"/><stop id="stop4086-2-0-5" offset="1" stop-color="#4476aa" stop-opacity="1"/></linearGradient><linearGradient id="linearGradient18667" x1="8.014" x2="7.886" y1="1039.876" y2="1044.361" gradientTransform="translate(-1.885763,1.0012004)" gradientUnits="userSpaceOnUse" xlink:href="#linearGradient17711-5"/><linearGradient id="linearGradient17711-5"><stop id="stop17713-2" offset="0" stop-color="#7f85aa" stop-opacity="1"/><stop id="stop17715-7" offset=".5" stop-color="#8086aa" stop-opacity="1"/><stop id="stop17717-6" offset="1" stop-color="#7c82a6" stop-opacity="1"/></linearGradient><linearGradient id="linearGradient18470" x1="-16.963" x2="-4.992" y1="1038.895" y2="1038.895" gradientTransform="translate(18.990402,0.96970038)" gradientUnits="userSpaceOnUse" xlink:href="#linearGradient8287-6"/><linearGradient id="linearGradient8287-6"><stop id="stop8289-6" offset="0" stop-color="#6eb6e2" stop-opacity="1"/><stop id="stop8291-34" offset="1" stop-color="#d3e5f4" stop-opacity="1"/></linearGradient><linearGradient id="linearGradient18475" x1="-4.99" x2="-4.99" y1="1042.392" y2="1039.392" gradientTransform="translate(18.990402,2.9697004)" gradientUnits="userSpaceOnUse" xlink:href="#linearGradient17705"/><linearGradient id="linearGradient17705"><stop id="stop17707" offset="0" stop-color="#cbcef1" stop-opacity="1"/><stop id="stop17709" offset="1" stop-color="#e9ebf6" stop-opacity="1"/></linearGradient><linearGradient id="linearGradient18480" x1="-11" x2="-11" y1="1042.362" y2="1044.362" gradientTransform="translate(16.071922,4.0010004)" gradientUnits="userSpaceOnUse" xlink:href="#linearGradient4994-4-5-3"/><linearGradient id="linearGradient4994-4-5-3"><stop id="stop4996-5-9-7" offset="0" stop-color="#c5dff4" stop-opacity="1"/><stop id="stop4998-5-0-9" offset="1" stop-color="#fff" stop-opacity="0"/></linearGradient><linearGradient id="linearGradient18483" x1="-13" x2="-15" y1="1047.362" y2="1047.362" gradientTransform="translate(16.998645,-9.0372996)" gradientUnits="userSpaceOnUse" xlink:href="#linearGradient4910-4-0-6"/><linearGradient id="linearGradient4910-4-0-6"><stop id="stop4912-8-5-7" offset="0" stop-color="#fff" stop-opacity="0"/><stop id="stop4914-8-1-8" offset="1" stop-color="#c5dff4" stop-opacity="1"/></linearGradient><linearGradient id="linearGradient18604" x1="7.928" x2="8.014" y1="1049.325" y2="1053.325" gradientTransform="translate(-1.928407,-2.9632996)" gradientUnits="userSpaceOnUse" xlink:href="#linearGradient4810-5-87"/><linearGradient id="linearGradient4810-5-87"><stop id="stop4812-0-1" offset="0" stop-color="#9d7c2f" stop-opacity="1"/><stop id="stop4814-4-5" offset="1" stop-color="#6b623f" stop-opacity="1"/></linearGradient></defs><metadata id="metadata7"/><g id="layer1" transform="translate(0,-1036.3622)"><path id="rect3997-9-6" fill="#f4fcff" fill-opacity="1" stroke="none" d="m 1.5,1038.8935 0,12.0312 14,0 0,-12.0312 -7.5,0 0,9.4687 -1,0 0,-9.4687 -5.5,0 z" display="inline"/><path font-size="medium" style="text-indent:0;text-align:start;line-height:normal;text-transform:none;block-progression:tb;marker:none;-inkscape-font-specification:Sans" id="rect3997-9" fill="url(#linearGradient18604)" fill-opacity="1" fill-rule="nonzero" stroke="none" stroke-width="1" d="m 1,1038.3935 0,0.5 0,12.0312 0,0.5 0.5,0 14,0 0.5,0 0,-0.5 0,-12.0312 0,-0.5 -0.5,0 -7.5,0 0,1 7,0 0,11.0312 -13,0 0,-11.0312 5,0 0,-1 -5.5,0 -0.5,0 z" baseline-shift="baseline" color="#000" direction="ltr" display="inline" enable-background="accumulate" font-family="Sans" font-stretch="normal" font-style="normal" font-variant="normal" font-weight="normal" letter-spacing="normal" overflow="visible" text-anchor="start" text-decoration="none" visibility="visible" word-spacing="normal" writing-mode="lr-tb"/><path id="rect4853-82-7" fill="url(#linearGradient18483)" fill-opacity="1" stroke="none" d="m 3,1047.3622 -0.0014,2.9928 -1,0 L 2,1046.3622 z" display="inline"/><path id="rect4853-82-0" fill="url(#linearGradient18480)" fill-opacity="1" stroke="none" d="m 2,1046.3622 1,1 4,0 0,-1 -5,0 z m 6,0 0,1 7,0 0,-1 -7,0 z" display="inline"/><path id="rect3997-9-9-4" fill="url(#linearGradient18475)" fill-opacity="1" stroke="none" d="m 1.5,1040.8622 0,5.0313 5.5,0 0,-5.0313 -5.5,0 z m 6.5,0 0,5.0313 7.5,0 0,-5.0313 -7.5,0 z" display="inline"/><path id="rect3997-9-9" fill="url(#linearGradient18470)" fill-opacity="1" stroke="none" d="m 1.5,1038.8622 0,2 5.5,0 0,-2 -5.5,0 z m 6.5,0 0,2 7.5,0 0,-2 -7.5,0 z" display="inline"/><rect id="rect17719" width="1" height="1" x="4" y="1042.362" fill="#2b568d" fill-opacity="1" stroke="none" display="inline"/><rect id="rect17719-3" width="1" height="1" x="6" y="1042.362" fill="#687692" fill-opacity="1" stroke="none" display="inline"/><rect id="rect17719-3-0-2" width="1" height="1" x="10" y="1042.362" fill="#687692" fill-opacity="1" stroke="none" display="inline"/><rect id="rect17719-5" width="1" height="1" x="5" y="1043.362" fill="#bec3df" fill-opacity="1" stroke="none" display="inline"/><rect id="rect17719-3-0-6" width="1" height="1" x="9" y="1043.362" fill="#bec3df" fill-opacity="1" stroke="none" display="inline"/><rect id="rect17719-3-0-2-3" width="1" height="1" x="11" y="1043.362" fill="#bec3df" fill-opacity="1" stroke="none" display="inline"/><path font-size="medium" style="text-indent:0;text-align:start;line-height:normal;text-transform:none;block-progression:tb;marker:none;-inkscape-font-specification:Sans" id="rect3997-9-9-4-1" fill="url(#linearGradient18667)" fill-opacity="1" fill-rule="nonzero" stroke="none" stroke-width="1" d="m 1,1040.3622 0,0.5 0,5.0313 0,0.5 0.5,0 5.5,0 0,-1 -5,0 0,-4.0313 5,0 0,-1 -5.5,0 -0.5,0 z m 7,0 0,1 7,0 0,4.0313 -7,0 0,1 7.5,0 0.5,0 0,-0.5 0,-5.0313 0,-0.5 -0.5,0 -7.5,0 z" baseline-shift="baseline" color="#000" direction="ltr" display="inline" enable-background="accumulate" font-family="Sans" font-stretch="normal" font-style="normal" font-variant="normal" font-weight="normal" letter-spacing="normal" overflow="visible" text-anchor="start" text-decoration="none" visibility="visible" word-spacing="normal" writing-mode="lr-tb"/><path font-size="medium" style="text-indent:0;text-align:start;line-height:normal;text-transform:none;block-progression:tb;marker:none;-inkscape-font-specification:Sans" id="rect3997-9-9-42" fill="url(#linearGradient18685)" fill-opacity="1" fill-rule="nonzero" stroke="none" stroke-width="1" d="m 1,1038.3622 0,0.5 0,2 0,0.5 0.5,0 5.5,0 0,-1 -5,0 0,-1 5,0 0,-1 -5.5,0 -0.5,0 z m 7,0 0,1 7,0 0,1 -7,0 0,1 7.5,0 0.5,0 0,-0.5 0,-2 0,-0.5 -0.5,0 -7.5,0 z" baseline-shift="baseline" color="#000" direction="ltr" display="inline" enable-background="accumulate" font-family="Sans" font-stretch="normal" font-style="normal" font-variant="normal" font-weight="normal" letter-spacing="normal" overflow="visible" text-anchor="start" text-decoration="none" visibility="visible" word-spacing="normal" writing-mode="lr-tb"/><rect id="rect17673-1-2" width="2" height="10" x="9" y="1038.362" fill="url(#linearGradient18725)" fill-opacity="1" stroke="none" display="inline" opacity=".5"/><rect id="rect17673-1-2-5" width="2" height="10" x="-7" y="1038.362" fill="url(#linearGradient18742)" fill-opacity="1" stroke="none" display="inline" opacity=".5" transform="scale(-1,1)"/><rect id="rect17673" width="1" height="11" x="8" y="1037.362" fill="#023a7e" fill-opacity="1" stroke="none" display="inline"/></g></svg>