<svg xmlns="http://www.w3.org/2000/svg" xmlns:svg="http://www.w3.org/2000/svg" xmlns:xlink="http://www.w3.org/1999/xlink" id="svg2" width="16" height="16" version="1.1"><defs id="defs4"><linearGradient id="linearGradient8315"><stop id="stop8317" offset="0" stop-color="#998a64" stop-opacity="1"/><stop id="stop8319" offset="1" stop-color="#bb994d" stop-opacity="1"/></linearGradient><linearGradient id="linearGradient8287"><stop id="stop8289" offset="0" stop-color="#6eb6e2" stop-opacity="1"/><stop id="stop8291" offset="1" stop-color="#d3e5f4" stop-opacity="1"/></linearGradient><linearGradient id="linearGradient4082-3"><stop id="stop4084-8" offset="0" stop-color="#4476aa" stop-opacity="1"/><stop id="stop4864-7" offset=".5" stop-color="#5a9ccc" stop-opacity="1"/><stop id="stop4086-2" offset="1" stop-color="#4476aa" stop-opacity="1"/></linearGradient><linearGradient id="linearGradient4994-4-5"><stop id="stop4996-5-9" offset="0" stop-color="#c5dff4" stop-opacity="1"/><stop id="stop4998-5-0" offset="1" stop-color="#fff" stop-opacity="0"/></linearGradient><linearGradient id="linearGradient4910-4-0"><stop id="stop4912-8-5" offset="0" stop-color="#fff" stop-opacity="0"/><stop id="stop4914-8-1" offset="1" stop-color="#c5dff4" stop-opacity="1"/></linearGradient><linearGradient id="linearGradient4810-5"><stop id="stop4812-0" offset="0" stop-color="#be9a4b" stop-opacity="1"/><stop id="stop4814-4" offset="1" stop-color="#877e60" stop-opacity="1"/></linearGradient><linearGradient id="linearGradient8878" x1="8.014" x2="8.014" y1="1039.876" y2="1041.877" gradientTransform="translate(-0.876166,-1.9685044)" gradientUnits="userSpaceOnUse" xlink:href="#linearGradient4082-3"/><linearGradient id="linearGradient8881" x1="-11" x2="-11" y1="1042.362" y2="1044.362" gradientTransform="translate(17,-1.9688049)" gradientUnits="userSpaceOnUse" xlink:href="#linearGradient4994-4-5"/><linearGradient id="linearGradient8884" x1="-13" x2="-15" y1="1047.362" y2="1047.362" gradientTransform="translate(17,-6.0000049)" gradientUnits="userSpaceOnUse" xlink:href="#linearGradient4910-4-0"/><linearGradient id="linearGradient8887" x1="8.014" x2="8.014" y1="1042.362" y2="1050.071" gradientTransform="translate(-0.91881,0.0669951)" gradientUnits="userSpaceOnUse" xlink:href="#linearGradient4810-5"/><linearGradient id="linearGradient8293" x1="-18.996" x2="-4.992" y1="1038.895" y2="1038.895" gradientTransform="translate(20,0)" gradientUnits="userSpaceOnUse" xlink:href="#linearGradient8287"/><linearGradient id="linearGradient8321" x1="7" x2="7" y1="14" y2="4" gradientUnits="userSpaceOnUse" xlink:href="#linearGradient8315"/></defs><metadata id="metadata7"/><g id="layer1" display="inline" transform="translate(0,-1036.3622)"><path id="rect3997-9" fill="#f4fcff" fill-opacity="1" stroke="url(#linearGradient8887)" stroke-dashoffset="0" stroke-linecap="butt" stroke-linejoin="miter" stroke-miterlimit="4" stroke-opacity="1" stroke-width="1" d="m 1.507673,1039.9279 13.001925,0 0,10.9667 -13.001925,0 z" display="inline"/><path id="rect4853-82-7" fill="url(#linearGradient8884)" fill-opacity="1" stroke="none" d="m 3,1041.3611 0,9.0312 -1,0 0,-10.0312 z" display="inline"/><path id="rect4853-82-0" fill="url(#linearGradient8881)" fill-opacity="1" stroke="none" d="m 3,1041.3923 10.928078,0 0,-1 -11.928078,0 z" display="inline"/><path id="rect3997-9-9" fill="url(#linearGradient8293)" fill-opacity="1" stroke="url(#linearGradient8878)" stroke-dashoffset="0" stroke-linecap="butt" stroke-linejoin="miter" stroke-miterlimit="4" stroke-opacity="1" stroke-width="1" d="m 1.503712,1037.8924 13.004333,0 0,2.0053 -13.004333,0 z" display="inline"/><path id="rect7508" fill="url(#linearGradient8321)" fill-opacity="1" stroke="none" d="m 3,4 0,8 -1,0 0,1 1,0 0,1.03125 1,0 L 4,13 l 8,0 0,1.03125 1,0 L 13,13 l 1,0 0,-1 -1,0 0,-8 -1,0 0,8 -8,0 0,-8 z" transform="translate(0,1036.3622)"/></g></svg>