<svg xmlns="http://www.w3.org/2000/svg" xmlns:svg="http://www.w3.org/2000/svg" xmlns:xlink="http://www.w3.org/1999/xlink" id="svg2" width="16" height="16" version="1.1"><defs id="defs4"><linearGradient id="linearGradient4845"><stop id="stop4847" offset="0" stop-color="#afb8cd" stop-opacity="1"/><stop id="stop4849" offset="1" stop-color="#8192b5" stop-opacity="1"/></linearGradient><linearGradient id="linearGradient4837"><stop id="stop4839" offset="0" stop-color="#acbfd5" stop-opacity="1"/><stop id="stop4841" offset="1" stop-color="#627297" stop-opacity="1"/></linearGradient><linearGradient id="linearGradient4784"><stop id="stop4786" offset="0" stop-color="#b68e69" stop-opacity="1"/><stop id="stop4792" offset=".942" stop-color="#d5ae7d" stop-opacity="1"/><stop id="stop4788" offset="1" stop-color="#c69863" stop-opacity="1"/></linearGradient><linearGradient id="linearGradient4767"><stop id="stop4769" offset="0" stop-color="#f1c373" stop-opacity="1"/><stop id="stop4771" offset="1" stop-color="#f6e3c9" stop-opacity="1"/></linearGradient><linearGradient id="linearGradient4774" x1="-12" x2="-12" y1="1050.995" y2="1038.866" gradientTransform="translate(21.96875,0)" gradientUnits="userSpaceOnUse" xlink:href="#linearGradient4767"/><linearGradient id="linearGradient4790" x1="-17.313" x2="-17.344" y1="1050.945" y2="1039.084" gradientTransform="translate(21.96875,0)" gradientUnits="userSpaceOnUse" xlink:href="#linearGradient4784"/><linearGradient id="linearGradient4843" x1="-11.376" x2="-11.376" y1="1036.296" y2="1040.278" gradientTransform="translate(21.96875,0)" gradientUnits="userSpaceOnUse" xlink:href="#linearGradient4837"/><linearGradient id="linearGradient4851" x1="-12.922" x2="-12.922" y1="1037.323" y2="1040.391" gradientTransform="translate(21.96875,0)" gradientUnits="userSpaceOnUse" xlink:href="#linearGradient4845"/><linearGradient id="linearGradient5000-6" x1="9.895" x2="9.895" y1="1039.153" y2="1051.838" gradientTransform="translate(-4,-2)" gradientUnits="userSpaceOnUse" xlink:href="#linearGradient4994-7"/><linearGradient id="linearGradient4908" x1="10.545" x2="10.545" y1="1038.578" y2="1052.323" gradientTransform="translate(-4,-2)" gradientUnits="userSpaceOnUse" xlink:href="#linearGradient4902"/><linearGradient id="linearGradient4871" x1="7.007" x2="14" y1="1047.857" y2="1047.857" gradientTransform="matrix(0.72293526,0,0,1,-13.971893,-4.125)" gradientUnits="userSpaceOnUse" xlink:href="#linearGradient5147"/><linearGradient id="linearGradient4869" x1="7.007" x2="14" y1="1045.857" y2="1045.857" gradientTransform="matrix(0.57546531,0,0,1,-12.938564,-4.125)" gradientUnits="userSpaceOnUse" xlink:href="#linearGradient4861"/><linearGradient id="linearGradient4867" x1="7.007" x2="11" y1="1043.857" y2="1043.857" gradientTransform="matrix(0.82571734,0,0,1,-14.692092,-4.125)" gradientUnits="userSpaceOnUse" xlink:href="#linearGradient4877"/><linearGradient id="linearGradient4861"><stop id="stop4863" offset="0" stop-color="#91a5c7" stop-opacity="1"/><stop id="stop4865" offset="1" stop-color="#637aa7" stop-opacity="1"/></linearGradient><linearGradient id="linearGradient4877"><stop id="stop4879" offset="0" stop-color="#91a5c7" stop-opacity="1"/><stop id="stop4881" offset="1" stop-color="#5e76a3" stop-opacity="1"/></linearGradient><linearGradient id="linearGradient4902"><stop id="stop4904" offset="0" stop-color="#c7b571" stop-opacity="1"/><stop id="stop4906" offset="1" stop-color="#9a9a8f" stop-opacity="1"/></linearGradient><linearGradient id="linearGradient4994-7"><stop id="stop4996-7" offset="0" stop-color="#f9fafc" stop-opacity="1"/><stop id="stop4998-4" offset="1" stop-color="#dce7f7" stop-opacity="1"/></linearGradient><linearGradient id="linearGradient5147"><stop id="stop5149" offset="0" stop-color="#91a5c7" stop-opacity="1"/><stop id="stop5151" offset="1" stop-color="#637aa7" stop-opacity="1"/></linearGradient><filter id="filter11154" width="1.204" height="1.3" x="-.102" y="-.15"><feGaussianBlur id="feGaussianBlur11156" stdDeviation=".34"/></filter></defs><metadata id="metadata7"/><g id="layer1" display="inline" transform="translate(0,-1036.3622)"><rect id="rect3997" width="11.054" height="11.993" x="3.446" y="1038.869" fill="url(#linearGradient4774)" fill-opacity="1" stroke="url(#linearGradient4790)" stroke-dasharray="none" stroke-dashoffset="0" stroke-linecap="butt" stroke-linejoin="miter" stroke-miterlimit="4" stroke-opacity="1" stroke-width="1" rx="1.219" ry="1.219"/><path id="path4794" fill="url(#linearGradient4851)" fill-opacity="1" stroke="none" d="m 4.9843751,1040.3466 1.53125,-1.3672 0.9375,-2.1172 1.5,0 1.4999999,0 0.953125,2.1172 1.546875,1.3672"/><path font-size="medium" style="text-indent:0;text-align:start;line-height:normal;text-transform:none;block-progression:tb;marker:none;-inkscape-font-specification:Sans" id="path4794-5" fill="url(#linearGradient4843)" fill-opacity="1" fill-rule="nonzero" stroke="none" stroke-width="1" d="m 7.3125001,1036.375 c -0.138213,0.043 -0.255616,0.1482 -0.3125,0.2812 l -0.875,2 -0.966084,0.8634 c -0.219449,0.2194 -0.161431,0.3252 -0.190934,0.8384 0.205415,0 0.484943,0 0.746694,-3e-4 l 1.129074,-1.0139 c 0.0516,-0.043 0.0944,-0.097 0.125,-0.1563 l 0.8125,-1.8125 1.1875,0 1.1562499,0 0.8125,1.8125 c 0.0306,0.06 0.0734,0.1133 0.125,0.1563 l 1.173251,1.0325 c 0.113518,0 0.471938,-0.02 0.715999,-0.031 0,-0.2129 0.08262,-0.5753 -0.123815,-0.7817 l -1.015435,-0.9075 -0.90625,-2 c -0.07974,-0.164 -0.255243,-0.2768 -0.4375,-0.2812 l -1.4999999,0 -1.5,0 c -0.05166,-0.01 -0.104595,-0.01 -0.15625,0 z" baseline-shift="baseline" color="#000" direction="ltr" display="inline" enable-background="accumulate" font-family="Sans" font-stretch="normal" font-style="normal" font-variant="normal" font-weight="normal" letter-spacing="normal" overflow="visible" text-anchor="start" text-decoration="none" visibility="visible" word-spacing="normal" writing-mode="lr-tb"/><g id="layer1-3" display="inline" transform="translate(3.1589147,4.1676048)"><path id="rect4001-3" fill="url(#linearGradient5000-6)" fill-opacity="1" stroke="none" d="m 1.4972825,1036.9037 8.1563025,0 0.759173,3.0066 0,6.5483 -8.9154755,0 z" display="inline"/><path id="rect4001" fill="none" stroke="url(#linearGradient4908)" stroke-dashoffset="0" stroke-linecap="butt" stroke-linejoin="miter" stroke-miterlimit="4" stroke-opacity="1" stroke-width="1" d="m 1.4972825,1036.9037 8.4908829,0 0.04042,3.0066 0,6.4546 -8.5313047,0 z"/><rect id="rect4001-1" width="3.297" height="1.01" x="-8.906" y="1039.227" fill="url(#linearGradient4867)" fill-opacity="1" stroke="none" display="inline" transform="scale(-1,1)"/><rect id="rect4001-1-7" width="4.024" height="1.01" x="-8.906" y="1041.227" fill="url(#linearGradient4869)" fill-opacity="1" stroke="none" display="inline" transform="scale(-1,1)"/><rect id="rect4001-1-7-4" width="5.055" height="1.01" x="-8.906" y="1043.227" fill="url(#linearGradient4871)" fill-opacity="1" stroke="none" display="inline" transform="scale(-1,1)"/></g><path id="path4065-9" fill="none" stroke="#fff" stroke-dasharray="none" stroke-linecap="butt" stroke-linejoin="miter" stroke-miterlimit="4" stroke-opacity="1" stroke-width="1.8" d="m 1.7812498,1045.1747 2.4999999,2.5313 5.5000013,-5.4375" display="inline" filter="url(#filter11154)"/><path id="path4065" fill="none" stroke="#0073ff" stroke-dasharray="none" stroke-linecap="butt" stroke-linejoin="miter" stroke-miterlimit="4" stroke-opacity="1" stroke-width="1.8" d="m 0.49999987,1045.4246 2.49999993,2.5313 5.500001,-5.4375" display="inline"/></g></svg>