<svg xmlns="http://www.w3.org/2000/svg" xmlns:svg="http://www.w3.org/2000/svg" id="svg27656" width="16" height="16" version="1.1"><metadata id="metadata27661"/><g id="layer1" transform="translate(0,-1036.3622)"><g id="text3909-7-7-1" fill="#005597" fill-opacity="1" stroke="#005597" stroke-miterlimit="4" stroke-opacity="1" stroke-width=".1" display="inline" font-family="AustralianFlyingCorpsStencil" font-size="11.052" font-stretch="normal" font-style="normal" font-variant="normal" font-weight="normal" letter-spacing="0" text-anchor="start" transform="matrix(1.1454062,-0.30138061,0.30138061,1.1454062,-294.50727,-157.73238)" word-spacing="0" writing-mode="lr-tb" style="text-align:start;line-height:125%;-inkscape-font-specification:AustralianFlyingCorpsStencil"><path id="path4719" fill="#2e6797" fill-opacity="1" stroke="#2e6797" stroke-opacity="1" d="m -7.2191854,1043.532 c -9.8e-6,0.8694 -0.2357809,1.6504 -0.7073142,2.343 -0.5231262,0.7883 -1.2009683,1.1825 -2.0335281,1.1825 -0.3315603,0 -0.6115383,-0.085 -0.8399353,-0.2542 -0.250513,-0.1916 -0.379451,-0.4494 -0.386813,-0.7736 -0.397869,0.6778 -0.902567,1.0167 -1.514094,1.0167 -0.552593,0 -0.987296,-0.1694 -1.304111,-0.5083 -0.31682,-0.3463 -0.475229,-0.7995 -0.475226,-1.3594 -3e-6,-0.7736 0.279976,-1.4699 0.839935,-2.0888 0.559953,-0.6189 1.219376,-0.9283 1.97827,-0.9283 2.197514,0.2312 2.2605273,0.9685 1.332997,3.8931 -7e-6,0.3389 0.121563,0.5084 0.3647091,0.5084 0.1105104,0 0.5863212,0.027 0.777893,-0.091 1.0167553,-0.6262 1.5251368,-1.6025 1.5251461,-2.9287 -9.3e-6,-1.0241 -0.3462981,-1.8382 -1.0388676,-2.4424 -0.6631146,-0.5673 -1.5141016,-0.851 -2.5529616,-0.851 -3.110897,0.2421 -4.514466,2.7442 -4.556393,5.6732 0.331488,4.2361 4.276983,4.8432 7.0499031,3.1445 l 0.2431393,0.3537 c -3.3360714,2.3099 -8.3182214,0.6397 -8.3761174,-3.6419 0.287834,-3.4222 2.281054,-5.9651 5.517898,-6.0047 1.200954,0 2.1808775,0.3205 2.9397744,0.9615 0.8104548,0.6926 1.2156864,1.6246 1.2156962,2.7961 m -3.6139336,-0.3537 c -6e-6,-0.361 -0.162098,-0.5415 -0.486278,-0.5415 -0.456812,0 -0.869412,0.4236 -1.2378,1.2709 -0.32419,0.7295 -0.486282,1.3594 -0.486278,1.8899 -4e-6,0.5084 0.198928,0.7626 0.596796,0.7626 0.397859,0 0.780987,-0.4716 1.149385,-1.4147 0.309444,-0.8104 0.464169,-1.4662 0.464175,-1.9672"/></g></g></svg>