<svg xmlns="http://www.w3.org/2000/svg" xmlns:svg="http://www.w3.org/2000/svg" xmlns:xlink="http://www.w3.org/1999/xlink" id="svg2" width="16" height="16" version="1.1"><defs id="defs4"><linearGradient id="linearGradient4913"><stop id="stop4915" offset="0" stop-color="#6d6d6d" stop-opacity="1"/><stop id="stop4917" offset="1" stop-color="#7b7b7b" stop-opacity="1"/></linearGradient><linearGradient id="linearGradient4919" x1="12" x2="12" y1="2" y2="13" gradientUnits="userSpaceOnUse" xlink:href="#linearGradient4913"/></defs><metadata id="metadata7"/><g id="layer1" display="inline" transform="translate(0,-1036.3622)"><g id="g8159" display="inline" transform="translate(-8.2201163,-12.904699)"><path id="path4911-7" fill="url(#linearGradient4919)" fill-opacity="1" stroke="none" stroke-width="1" d="M 8.5 2 C 5.466525 2 3 4.4665 3 7.5 C 3 10.5334 5.466525 13 8.5 13 C 11.533474 13 14 10.5334 14 7.5 C 14 4.4665 11.533474 2 8.5 2 z M 8.5 3 C 9.2878932 3 10.013305 3.2082896 10.65625 3.5625 L 8.25 6.4375 C 8.1221691 5.9953936 7.979775 5.54679 7.78125 5.15625 C 7.615813 4.83085 7.39554 4.50335 7.09375 4.28125 C 6.79196 4.05915 6.39022 3.94825 5.96875 3.96875 L 6.03125 4.96875 C 6.25478 4.95775 6.372497 4.99975 6.5 5.09375 C 6.627503 5.18775 6.753587 5.35495 6.875 5.59375 C 7.0935425 6.02368 7.2712941 6.6817147 7.46875 7.375 L 5 10.34375 C 4.3704993 9.5690579 4 8.5809392 4 7.5 C 4 5.0026 6.002645 3 8.5 3 z M 11.5 4.15625 C 12.418115 4.9839352 13 6.1631565 13 7.5 C 13 9.9973 10.997354 12.03125 8.5 12.03125 C 7.4276064 12.03125 6.4594186 11.620528 5.6875 11 L 5.75 11 L 7.84375 8.5 C 8.025978 8.9878595 8.2372821 9.4630962 8.5625 9.875 C 9.088655 10.5415 9.927776 11.0235 11.03125 11 L 11 10 C 10.162031 10.018 9.717017 9.7229 9.34375 9.25 C 9.0183342 8.837811 8.7923907 8.2362655 8.59375 7.59375 L 11.5 4.15625 z" baseline-shift="baseline" color="#000" direction="ltr" display="inline" enable-background="accumulate" font-family="Sans" font-size="medium" font-stretch="normal" font-style="normal" font-variant="normal" font-weight="normal" letter-spacing="normal" overflow="visible" text-anchor="start" text-decoration="none" transform="translate(8.2201163,1049.2669)" visibility="visible" word-spacing="normal" writing-mode="lr-tb" style="text-indent:0;text-align:start;line-height:normal;text-transform:none;block-progression:tb;marker:none;-inkscape-font-specification:Sans"/></g></g></svg>