<svg xmlns="http://www.w3.org/2000/svg" xmlns:svg="http://www.w3.org/2000/svg" xmlns:xlink="http://www.w3.org/1999/xlink" id="svg2" width="16" height="16" version="1.1"><defs id="defs4"><linearGradient id="linearGradient3929-5" x1="388.637" x2="388.637" y1="478.188" y2="462.115" gradientUnits="userSpaceOnUse" xlink:href="#linearGradient10798-1-9-3-7-6-8-9-0-9-1"/><linearGradient id="linearGradient10798-1-9-3-7-6-8-9-0-9-1"><stop id="stop10800-5-2-1-8-20-6-4-9-8-2" offset="0" stop-color="#7564b1" stop-opacity="1"/><stop id="stop10806-6-8-5-3-9-24-8-4-3-2" offset=".5" stop-color="#5d4aa1" stop-opacity="1"/><stop id="stop10802-1-5-3-0-4-8-4-2-9-2" offset="1" stop-color="#9283c3" stop-opacity="1"/></linearGradient><filter id="filter8047" color-interpolation-filters="sRGB"><feGaussianBlur id="feGaussianBlur8049" stdDeviation=".138"/></filter><linearGradient id="linearGradient7188" x1="388.637" x2="388.637" y1="478.188" y2="462.115" gradientUnits="userSpaceOnUse" xlink:href="#linearGradient10798-1-9-3-7-6-8-9-0-9-1"/></defs><metadata id="metadata7"/><g id="layer1" transform="translate(0,-1036.3622)"><path id="path10796-2-6-2" fill="url(#linearGradient7188)" fill-opacity="1" stroke="#55429f" stroke-dasharray="none" stroke-dashoffset="0" stroke-linecap="round" stroke-linejoin="round" stroke-miterlimit="4" stroke-opacity="1" stroke-width="2.166" d="m 398.75,468.23718 a 10.625,10.625 0 1 1 -21.25,0 10.625,10.625 0 1 1 21.25,0 z" display="inline" font-family="Sans" font-size="13.589" font-style="normal" font-weight="normal" letter-spacing="0" transform="matrix(0.55482947,0,0,0.55482947,-207.83019,785.0574)" word-spacing="0" style="line-height:125%"/><path id="rect7222" fill="#fff" fill-opacity="1" stroke="none" d="m 5.5130017,1041.3622 0,1.0313 1.0000019,0 0,4.9687 -1.0000019,0 0,1.0313 4.0000022,0 0,-1.0313 -1,0 0,-4.9687 1,0 0,-1.0313 -4.0000022,0 z" display="inline" font-family="Sans" font-size="13.589" font-style="normal" font-weight="normal" letter-spacing="0" word-spacing="0" style="line-height:125%"/><path id="rect7222-9" fill="#fff" fill-opacity="1" stroke="none" d="m 5.7005017,1041.5497 0,1.0313 1.000002,0 0,4.9687 -1.000002,0 0,1.0313 4.000002,0 0,-1.0313 -1,0 0,-4.9687 1,0 0,-1.0313 -4.000002,0 z" display="inline" filter="url(#filter8047)" font-family="Sans" font-size="13.589" font-style="normal" font-weight="normal" letter-spacing="0" opacity=".5" word-spacing="0" style="line-height:125%"/></g></svg>