<svg xmlns="http://www.w3.org/2000/svg" xmlns:svg="http://www.w3.org/2000/svg" xmlns:xlink="http://www.w3.org/1999/xlink" id="svg2" width="16" height="16" version="1.1"><defs id="defs4"><linearGradient id="linearGradient4908-2" x1="10.545" x2="10.545" y1="1038.578" y2="1052.323" gradientTransform="translate(-1.977903,-1.044194)" gradientUnits="userSpaceOnUse" xlink:href="#linearGradient4902-3"/><linearGradient id="linearGradient4902-3"><stop id="stop4904-2" offset="0" stop-color="#b28a30" stop-opacity="1"/><stop id="stop4906-2" offset="1" stop-color="#7c703e" stop-opacity="1"/></linearGradient><linearGradient id="linearGradient4900-1" x1="7.999" x2="9.987" y1="1042.231" y2="1040.33" gradientTransform="translate(2.022097,-1.044194)" gradientUnits="userSpaceOnUse" xlink:href="#linearGradient4894-6"/><linearGradient id="linearGradient4894-6"><stop id="stop4896-8" offset="0" stop-color="#e0c88f" stop-opacity="1"/><stop id="stop4898-5" offset="1" stop-color="#d5b269" stop-opacity="1"/></linearGradient><linearGradient id="linearGradient4994-6"><stop id="stop4996-1" offset="0" stop-color="#f9fafc" stop-opacity="1"/><stop id="stop4998-89" offset="1" stop-color="#dce7f7" stop-opacity="1"/></linearGradient><linearGradient id="linearGradient4101" x1="9.895" x2="9.895" y1="1039.153" y2="1051.838" gradientTransform="translate(-1.977903,-1.044194)" gradientUnits="userSpaceOnUse" xlink:href="#linearGradient4994-6"/><filter id="filter4875" width="1.358" height="1.362" x="-.179" y="-.181"><feGaussianBlur id="feGaussianBlur4877" stdDeviation=".714"/></filter><mask id="mask4917" maskUnits="userSpaceOnUse"><path id="path4919" fill="#fff" stroke="#fff" stroke-dashoffset="0" stroke-linecap="butt" stroke-linejoin="miter" stroke-miterlimit="4" stroke-opacity="1" stroke-width="1" d="m 3.5193795,1037.8597 7.0096695,0 3.062057,3.0066 0,9.9546 -10.0717265,0 z" display="inline"/></mask></defs><metadata id="metadata7"/><g id="layer1" display="inline" transform="translate(0,-1036.3622)"><path id="rect4001-3" fill="url(#linearGradient4101)" fill-opacity="1" stroke="none" d="m 3.5193795,1037.8597 7.0096695,0 3.062057,3.0066 0,9.9546 -10.0717265,0 z" display="inline"/><path id="path4884" fill="url(#linearGradient4900-1)" fill-opacity="1" stroke="none" d="m 9.998718,1037.397 0,3.9112 3.977478,0 z" display="inline"/><path id="rect4001" fill="none" stroke="url(#linearGradient4908-2)" stroke-dashoffset="0" stroke-linecap="butt" stroke-linejoin="miter" stroke-miterlimit="4" stroke-opacity="1" stroke-width="1" d="m 3.5193795,1037.8597 7.0096695,0 3.062057,3.0066 0,9.9546 -10.0717265,0 z" display="inline"/><g id="g4913" mask="url(#mask4917)"><g id="text3909-7-7-1-1" fill="#fff" fill-opacity="1" stroke="#fff" stroke-dasharray="none" stroke-miterlimit="4" stroke-opacity="1" stroke-width="1.5" display="inline" filter="url(#filter4875)" font-family="AustralianFlyingCorpsStencil" font-size="11.052" font-stretch="normal" font-style="normal" font-variant="normal" font-weight="normal" letter-spacing="0" opacity=".75" text-anchor="start" transform="translate(17.171238,-0.006311)" word-spacing="0" writing-mode="lr-tb" style="text-align:start;line-height:125%;-inkscape-font-specification:AustralianFlyingCorpsStencil"><path id="path4719-7" fill="#fff" stroke="#fff" stroke-dasharray="none" stroke-miterlimit="4" stroke-width="1.5" d="m -7.2191854,1043.532 c -9.8e-6,0.8694 -0.2357809,1.6504 -0.7073142,2.343 -0.5231262,0.7883 -1.2009683,1.1825 -2.0335281,1.1825 -0.3315603,0 -0.6115383,-0.085 -0.8399353,-0.2542 -0.250513,-0.1916 -0.379451,-0.4494 -0.386813,-0.7736 -0.397869,0.6778 -0.902567,1.0167 -1.514094,1.0167 -0.552593,0 -0.987296,-0.1694 -1.304111,-0.5083 -0.31682,-0.3463 -0.475229,-0.7995 -0.475226,-1.3594 -3e-6,-0.7736 0.279976,-1.4699 0.839935,-2.0888 0.559953,-0.6189 1.219376,-0.9283 1.97827,-0.9283 0.729411,0 1.123591,0.3094 1.18254,0.9283 l 0.24314,-0.8068 1.259903,0 c -0.2063077,0.6558 -0.4089236,1.3115 -0.6078481,1.9672 -0.2799856,0.9358 -0.4199749,1.5657 -0.4199679,1.8899 -7e-6,0.3389 0.1215627,0.5084 0.364709,0.5084 0.1105104,0 0.2615513,-0.059 0.4531231,-0.1769 1.0167553,-0.6262 1.5251368,-1.6025 1.5251461,-2.9287 -9.3e-6,-1.0241 -0.3462981,-1.8382 -1.0388676,-2.4424 -0.6631146,-0.5673 -1.5141016,-0.851 -2.5529616,-0.851 -1.304115,0 -2.379821,0.4605 -3.227121,1.3815 -0.817834,0.8915 -1.226749,1.9967 -1.226748,3.3155 -10e-7,1.201 0.372075,2.144 1.11623,2.8293 0.714679,0.6557 1.679867,0.9836 2.895567,0.9836 1.090437,0 2.232453,-0.3721 3.4260531,-1.1163 l 0.2431393,0.3537 c -1.0757148,0.8252 -2.2914094,1.2378 -3.6470884,1.2378 -1.473575,0 -2.674534,-0.361 -3.602882,-1.0831 -1.009397,-0.7957 -1.514094,-1.9119 -1.514094,-3.3487 0,-1.4514 0.545221,-2.6598 1.635664,-3.625 1.0536,-0.9357 2.313503,-1.4035 3.77971,-1.4035 1.200954,0 2.1808775,0.3205 2.9397744,0.9615 0.8104548,0.6926 1.2156864,1.6246 1.2156962,2.7961 m -3.6139336,-0.3537 c -6e-6,-0.361 -0.162098,-0.5415 -0.486278,-0.5415 -0.456812,0 -0.869412,0.4236 -1.2378,1.2709 -0.32419,0.7295 -0.486282,1.3594 -0.486278,1.8899 -4e-6,0.5084 0.198928,0.7626 0.596796,0.7626 0.397859,0 0.780987,-0.4716 1.149385,-1.4147 0.309444,-0.8104 0.464169,-1.4662 0.464175,-1.9672"/></g></g><g id="text3909-7-7-1" fill="#005597" fill-opacity="1" stroke="#005597" stroke-miterlimit="4" stroke-opacity="1" stroke-width=".1" display="inline" font-family="AustralianFlyingCorpsStencil" font-size="11.052" font-stretch="normal" font-style="normal" font-variant="normal" font-weight="normal" letter-spacing="0" text-anchor="start" transform="translate(17.171238,-0.00631064)" word-spacing="0" writing-mode="lr-tb" style="text-align:start;line-height:125%;-inkscape-font-specification:AustralianFlyingCorpsStencil"><path id="path4719" d="m -7.2191854,1043.532 c -9.8e-6,0.8694 -0.2357809,1.6504 -0.7073142,2.343 -0.5231262,0.7883 -1.2009683,1.1825 -2.0335281,1.1825 -0.3315603,0 -0.6115383,-0.085 -0.8399353,-0.2542 -0.250513,-0.1916 -0.379451,-0.4494 -0.386813,-0.7736 -0.397869,0.6778 -0.902567,1.0167 -1.514094,1.0167 -0.552593,0 -0.987296,-0.1694 -1.304111,-0.5083 -0.31682,-0.3463 -0.475229,-0.7995 -0.475226,-1.3594 -3e-6,-0.7736 0.279976,-1.4699 0.839935,-2.0888 0.559953,-0.6189 1.219376,-0.9283 1.97827,-0.9283 0.729411,0 1.123591,0.3094 1.18254,0.9283 l 0.24314,-0.8068 1.259903,0 c -0.2063077,0.6558 -0.4089236,1.3115 -0.6078481,1.9672 -0.2799856,0.9358 -0.4199749,1.5657 -0.4199679,1.8899 -7e-6,0.3389 0.1215627,0.5084 0.364709,0.5084 0.1105104,0 0.2615513,-0.059 0.4531231,-0.1769 1.0167553,-0.6262 1.5251368,-1.6025 1.5251461,-2.9287 -9.3e-6,-1.0241 -0.3462981,-1.8382 -1.0388676,-2.4424 -0.6631146,-0.5673 -1.5141016,-0.851 -2.5529616,-0.851 -1.304115,0 -2.379821,0.4605 -3.227121,1.3815 -0.817834,0.8915 -1.226749,1.9967 -1.226748,3.3155 -10e-7,1.201 0.372075,2.144 1.11623,2.8293 0.714679,0.6557 1.679867,0.9836 2.895567,0.9836 1.090437,0 2.232453,-0.3721 3.4260531,-1.1163 l 0.2431393,0.3537 c -1.0757148,0.8252 -2.2914094,1.2378 -3.6470884,1.2378 -1.473575,0 -2.674534,-0.361 -3.602882,-1.0831 -1.009397,-0.7957 -1.514094,-1.9119 -1.514094,-3.3487 0,-1.4514 0.545221,-2.6598 1.635664,-3.625 1.0536,-0.9357 2.313503,-1.4035 3.77971,-1.4035 1.200954,0 2.1808775,0.3205 2.9397744,0.9615 0.8104548,0.6926 1.2156864,1.6246 1.2156962,2.7961 m -3.6139336,-0.3537 c -6e-6,-0.361 -0.162098,-0.5415 -0.486278,-0.5415 -0.456812,0 -0.869412,0.4236 -1.2378,1.2709 -0.32419,0.7295 -0.486282,1.3594 -0.486278,1.8899 -4e-6,0.5084 0.198928,0.7626 0.596796,0.7626 0.397859,0 0.780987,-0.4716 1.149385,-1.4147 0.309444,-0.8104 0.464169,-1.4662 0.464175,-1.9672"/></g></g></svg>