<svg xmlns="http://www.w3.org/2000/svg" xmlns:svg="http://www.w3.org/2000/svg" xmlns:xlink="http://www.w3.org/1999/xlink" id="svg2" width="16" height="16" version="1.1"><defs id="defs4"><linearGradient id="linearGradient4908-2" x1="10.545" x2="10.545" y1="1038.578" y2="1052.323" gradientTransform="translate(-1.977903,-1.044194)" gradientUnits="userSpaceOnUse" xlink:href="#linearGradient4902-3"/><linearGradient id="linearGradient4902-3"><stop id="stop4904-2" offset="0" stop-color="#b28a30" stop-opacity="1"/><stop id="stop4906-2" offset="1" stop-color="#7c703e" stop-opacity="1"/></linearGradient><linearGradient id="linearGradient4900-1" x1="7.999" x2="9.987" y1="1042.231" y2="1040.33" gradientTransform="translate(2.022097,-1.044194)" gradientUnits="userSpaceOnUse" xlink:href="#linearGradient4894-6"/><linearGradient id="linearGradient4894-6"><stop id="stop4896-8" offset="0" stop-color="#e0c88f" stop-opacity="1"/><stop id="stop4898-5" offset="1" stop-color="#d5b269" stop-opacity="1"/></linearGradient><linearGradient id="linearGradient4994-6"><stop id="stop4996-1" offset="0" stop-color="#f9fafc" stop-opacity="1"/><stop id="stop4998-89" offset="1" stop-color="#dce7f7" stop-opacity="1"/></linearGradient><linearGradient id="linearGradient4101" x1="9.895" x2="9.895" y1="1039.153" y2="1051.838" gradientTransform="translate(-1.977903,-1.044194)" gradientUnits="userSpaceOnUse" xlink:href="#linearGradient4994-6"/></defs><metadata id="metadata7"/><g id="layer1" display="inline" transform="translate(0,-1036.3622)"><path id="rect4001-3" fill="url(#linearGradient4101)" fill-opacity="1" stroke="none" d="m 3.5193795,1037.8597 7.0096695,0 3.062057,3.0066 0,9.9546 -10.0717265,0 z" display="inline"/><path id="path4884" fill="url(#linearGradient4900-1)" fill-opacity="1" stroke="none" d="m 9.998718,1037.397 0,3.9112 3.977478,0 z" display="inline"/><path id="rect4001" fill="none" stroke="url(#linearGradient4908-2)" stroke-dashoffset="0" stroke-linecap="butt" stroke-linejoin="miter" stroke-miterlimit="4" stroke-opacity="1" stroke-width="1" d="m 3.5193795,1037.8597 7.0096695,0 3.062057,3.0066 0,9.9546 -10.0717265,0 z" display="inline"/><path id="path10927-5-7-4-4" fill="#366c9a" fill-opacity="1" d="m 6.5272772,1048.2963 c -0.1933415,-0.019 -0.420446,-0.062 -0.6028077,-0.1155 -0.2829848,-0.083 -0.2547891,0.017 -0.2547891,-0.8978 0,-0.4784 0.00804,-0.794 0.020385,-0.7988 0.011198,0 0.033126,0 0.048745,0.013 0.050649,0.038 0.3077924,0.1696 0.3929307,0.2011 0.1948459,0.072 0.4872053,0.1088 0.6931487,0.087 0.4565347,-0.048 0.7659062,-0.3076 0.9215107,-0.772 0.1254823,-0.3746 0.1191685,-0.2293 0.1320805,-3.0391 l 0.011887,-2.5847 0.8665952,0 0.8665981,0 0.00643,2.4096 c 0.00666,2.4908 -5.741e-4,2.7823 -0.081182,3.2361 -0.163276,0.9202 -0.6253407,1.6128 -1.3103752,1.9638 -0.4604999,0.236 -1.1290707,0.3521 -1.7111364,0.2972 z" display="inline"/></g></svg>