<svg xmlns="http://www.w3.org/2000/svg" xmlns:svg="http://www.w3.org/2000/svg" xmlns:xlink="http://www.w3.org/1999/xlink" id="svg2" width="16" height="16" version="1.1"><defs id="defs4"><linearGradient id="linearGradient4908-2" x1="10.545" x2="10.545" y1="1038.578" y2="1052.323" gradientTransform="translate(-1.977903,-1.044194)" gradientUnits="userSpaceOnUse" xlink:href="#linearGradient4902-3"/><linearGradient id="linearGradient4902-3"><stop id="stop4904-2" offset="0" stop-color="#b28a30" stop-opacity="1"/><stop id="stop4906-2" offset="1" stop-color="#7c703e" stop-opacity="1"/></linearGradient><linearGradient id="linearGradient4900-1" x1="7.999" x2="9.987" y1="1042.231" y2="1040.33" gradientTransform="translate(2.022097,-1.044194)" gradientUnits="userSpaceOnUse" xlink:href="#linearGradient4894-6"/><linearGradient id="linearGradient4894-6"><stop id="stop4896-8" offset="0" stop-color="#e0c88f" stop-opacity="1"/><stop id="stop4898-5" offset="1" stop-color="#d5b269" stop-opacity="1"/></linearGradient><linearGradient id="linearGradient4994-6"><stop id="stop4996-1" offset="0" stop-color="#f9fafc" stop-opacity="1"/><stop id="stop4998-89" offset="1" stop-color="#dce7f7" stop-opacity="1"/></linearGradient><linearGradient id="linearGradient4101" x1="9.895" x2="9.895" y1="1039.153" y2="1051.838" gradientTransform="translate(-1.977903,-1.044194)" gradientUnits="userSpaceOnUse" xlink:href="#linearGradient4994-6"/></defs><metadata id="metadata7"/><g id="layer1" display="inline" transform="translate(0,-1036.3622)"><path id="rect4001-3" fill="url(#linearGradient4101)" fill-opacity="1" stroke="none" d="m 3.5193795,1037.8597 7.0096695,0 3.062057,3.0066 0,9.9546 -10.0717265,0 z" display="inline"/><path id="path10927-5-7-4-4-1" fill="#edf2f9" fill-opacity="1" stroke="#286296" stroke-dasharray="none" stroke-linejoin="round" stroke-miterlimit="4" stroke-opacity="1" stroke-width="1.092" d="m 7.135293,1048.7251 c -0.32328,0.012 -0.677411,-0.1789 -0.92644,-0.2485 l 0,-1.7301 c 0.382273,0.2723 0.884752,0.3314 1.25142,0.3287 0.498497,-0.053 0.836305,-0.3359 1.006212,-0.843 0.137017,-0.4089 0.130122,-0.2503 0.144221,-3.3184 l 0.01299,-2.0727 0.94625,0 0.946258,0 0.007,1.8815 c 0.0101,2.7197 -6.26e-4,3.038 -0.08864,3.5336 -0.178286,1.0047 -0.682823,1.761 -1.430824,2.1443 -0.502828,0.2577 -1.232852,0.3844 -1.868418,0.3245 z" display="inline"/><path id="path4884" fill="url(#linearGradient4900-1)" fill-opacity="1" stroke="none" d="m 9.998718,1037.397 0,3.9112 3.977478,0 z" display="inline"/><path id="rect4001" fill="none" stroke="url(#linearGradient4908-2)" stroke-dashoffset="0" stroke-linecap="butt" stroke-linejoin="miter" stroke-miterlimit="4" stroke-opacity="1" stroke-width="1" d="m 3.5193795,1037.8597 7.0096695,0 3.062057,3.0066 0,9.9546 -10.0717265,0 z" display="inline"/></g></svg>