<svg xmlns="http://www.w3.org/2000/svg" xmlns:svg="http://www.w3.org/2000/svg" xmlns:xlink="http://www.w3.org/1999/xlink" id="svg2" width="16" height="16" version="1.1"><defs id="defs4"><linearGradient id="linearGradient5894"><stop id="stop5896" offset="0" stop-color="#e9a328" stop-opacity="1"/><stop id="stop5898" offset="1" stop-color="#f9c537" stop-opacity="1"/></linearGradient><linearGradient id="linearGradient5992"><stop id="stop5994" offset="0" stop-color="#fff" stop-opacity="1"/><stop id="stop6002" offset=".383" stop-color="#fdfbeb" stop-opacity="1"/><stop id="stop6000" offset=".595" stop-color="#f8eb99" stop-opacity="1"/><stop id="stop5996" offset="1" stop-color="#ffe4b1" stop-opacity="1"/></linearGradient><linearGradient id="linearGradient5933"><stop id="stop5935" offset="0" stop-color="#fff" stop-opacity="1"/><stop id="stop5937" offset="1" stop-color="#abb6c2" stop-opacity="1"/></linearGradient><linearGradient id="linearGradient5925"><stop id="stop5927" offset="0" stop-color="#9eacbc" stop-opacity="1"/><stop id="stop5929" offset="1" stop-color="#667480" stop-opacity="1"/></linearGradient><radialGradient id="radialGradient6262" cx="28.688" cy="1046.294" r="4.5" fx="28.688" fy="1046.294" gradientTransform="matrix(1.4312189,0,0,1.9064579,-34.245592,-947.65067)" gradientUnits="userSpaceOnUse" xlink:href="#linearGradient5992"/><linearGradient id="linearGradient6264" x1="3.29" x2="3.29" y1="1038.393" y2="1046.9" gradientTransform="translate(-1.875,0)" gradientUnits="userSpaceOnUse" xlink:href="#linearGradient5894"/><linearGradient id="linearGradient6266" x1="27.74" x2="28.339" y1="1048.96" y2="1050.113" gradientTransform="translate(-21.875,0)" gradientUnits="userSpaceOnUse" xlink:href="#linearGradient5933"/><linearGradient id="linearGradient6268" x1="26.385" x2="28.899" y1="1047.351" y2="1051.042" gradientTransform="translate(-21.875,0)" gradientUnits="userSpaceOnUse" xlink:href="#linearGradient5925"/><filter id="filter7038" width="1.481" height="1.479" x="-.24" y="-.24"><feGaussianBlur id="feGaussianBlur7040" stdDeviation=".662"/></filter></defs><metadata id="metadata7"/><g id="layer1" display="inline" transform="translate(0,-1036.3622)"><path id="path5108-6" fill="none" stroke="#edaa2b" stroke-dasharray="none" stroke-dashoffset="0" stroke-linecap="round" stroke-linejoin="round" stroke-miterlimit="4" stroke-opacity="1" stroke-width=".826" d="m 5.5022998,1038.5281 c -1.8240601,0 -3.3055556,1.4814 -3.3055556,3.3055 0,2.1067 1.6593104,1.1418 1.6786025,3.3314 l 3.2539062,0 c 0,-2.089 1.6786025,-1.1771 1.6786025,-3.3314 0,-1.8241 -1.4814955,-3.3055 -3.3055556,-3.3055 z" display="inline" filter="url(#filter7038)"/><g id="g6257" transform="matrix(0.77997385,0,0,0.73483496,0.334973,276.05573)"><path id="path5108" fill="url(#radialGradient6262)" fill-opacity="1" stroke="url(#linearGradient6264)" stroke-dasharray="none" stroke-dashoffset="0" stroke-linecap="round" stroke-linejoin="round" stroke-miterlimit="4" stroke-opacity="1" stroke-width="1" d="m 6.625,1037.8622 c -2.207266,0 -4,1.7927 -4,4 0,2.5493 2.007905,3.3816 2.03125,6.0313 l 3.9375,0 c 0,-2.5279 2.03125,-3.4244 2.03125,-6.0313 0,-2.2073 -1.792734,-4 -4,-4 z"/><rect id="rect5896-7" width="2.031" height="3.438" x="5.594" y="1048.425" fill="#4a607a" fill-opacity="1" stroke="#4a607a" stroke-dasharray="none" stroke-dashoffset="0" stroke-linecap="round" stroke-linejoin="round" stroke-miterlimit="4" stroke-opacity="1" stroke-width="1" display="inline"/><rect id="rect5896" width="3.938" height="3" x="4.656" y="1047.862" fill="url(#linearGradient6266)" fill-opacity="1" stroke="url(#linearGradient6268)" stroke-dasharray="none" stroke-dashoffset="0" stroke-linecap="round" stroke-linejoin="round" stroke-miterlimit="4" stroke-opacity="1" stroke-width="1"/></g><rect id="rect4244" width="7" height="8" x="7.001" y="1042.355" fill="#d8424f" fill-opacity="1" stroke="none" display="inline"/><path font-size="7.69" style="text-indent:0;text-align:start;line-height:125%;text-transform:none;block-progression:tb;marker:none;-inkscape-font-specification:Sans" id="path4187" fill="#fff" fill-opacity="1" fill-rule="nonzero" stroke="none" stroke-width=".275" d="m 8.2509853,1044.1366 0,0.125 0,0.5 0,0.125 0.125,0 0.375,0 1.1875,1.4063 -1.21875,1.5312 -0.34375,0 -0.125,0 0,0.125 0,0.5 0,0.125 0.125,0 1.5,0 0.1249997,0 0,-0.125 0,-0.5 0,-0.125 -0.1249997,0 0.6249997,-0.8437 0.625,0.8437 -0.125,0 0,0.125 0,0.5 0,0.125 0.125,0 1.5,0 0.125,0 0,-0.125 0,-0.5 0,-0.125 -0.125,0 -0.3125,0 -1.25,-1.5625 1.15625,-1.375 0.40625,0 0.125,0 0,-0.125 0,-0.5 0,-0.125 -0.125,0 -1.5,0 -0.125,0 0,0.125 0,0.5 0,0.125 0.0625,0 -0.5625,0.7188 -0.5624997,-0.7188 0.0625,0 0,-0.125 0,-0.5 0,-0.125 -0.1249988,0 -1.5,0 -0.125,0 z" baseline-shift="baseline" color="#000" direction="ltr" display="inline" enable-background="accumulate" font-family="Sans" font-stretch="normal" font-style="normal" font-variant="normal" font-weight="normal" letter-spacing="0" overflow="visible" text-anchor="start" text-decoration="none" visibility="visible" word-spacing="0" writing-mode="lr-tb"/></g></svg>