<svg xmlns="http://www.w3.org/2000/svg" xmlns:svg="http://www.w3.org/2000/svg" xmlns:xlink="http://www.w3.org/1999/xlink" id="svg2" width="16" height="16" version="1.1"><defs id="defs4"><linearGradient id="linearGradient4908-2" x1="10.545" x2="10.545" y1="1038.578" y2="1052.323" gradientTransform="translate(-1.977903,-1.044194)" gradientUnits="userSpaceOnUse" xlink:href="#linearGradient4902-3"/><linearGradient id="linearGradient4902-3"><stop id="stop4904-2" offset="0" stop-color="#b28a30" stop-opacity="1"/><stop id="stop4906-2" offset="1" stop-color="#7c703e" stop-opacity="1"/></linearGradient><linearGradient id="linearGradient4900-1" x1="7.999" x2="9.987" y1="1042.231" y2="1040.33" gradientTransform="translate(2.022097,-1.044194)" gradientUnits="userSpaceOnUse" xlink:href="#linearGradient4894-6"/><linearGradient id="linearGradient4894-6"><stop id="stop4896-8" offset="0" stop-color="#e0c88f" stop-opacity="1"/><stop id="stop4898-5" offset="1" stop-color="#d5b269" stop-opacity="1"/></linearGradient><linearGradient id="linearGradient4994-6"><stop id="stop4996-1" offset="0" stop-color="#f9fafc" stop-opacity="1"/><stop id="stop4998-89" offset="1" stop-color="#dce7f7" stop-opacity="1"/></linearGradient><linearGradient id="linearGradient4101" x1="9.895" x2="9.895" y1="1039.153" y2="1051.838" gradientTransform="translate(-1.977903,-1.044194)" gradientUnits="userSpaceOnUse" xlink:href="#linearGradient4994-6"/><filter id="filter5140" width="1.236" height="1.244" x="-.118" y="-.122"><feGaussianBlur id="feGaussianBlur5142" stdDeviation=".334"/></filter><mask id="mask5246" maskUnits="userSpaceOnUse"><path id="path5248" fill="#fff" fill-opacity="1" stroke="none" stroke-width="1" d="m 3.03125,1037.3622 0,0.5 0,5.5 0,1 4.46875,0 a 0.50005,0.50005 0 0 0 0.5,-0.5 l 0,-1.0625 2.0625,2.0938 -2.0625,2.0625 0,-1.0938 a 0.50005,0.50005 0 0 0 -0.5,-0.5 l -4.46875,0 0,1 0,4.4375 0,0.5 0.5,0 10.0625,0 0.5,0 0,-0.5 0,-9.9375 0,-0.2187 -0.15625,-0.1563 -3.0625,-3 -0.15625,-0.125 -0.1875,0 -7,0 -0.5,0 z" baseline-shift="baseline" color="#000" direction="ltr" display="inline" enable-background="accumulate" font-family="Sans" font-size="medium" font-stretch="normal" font-style="normal" font-variant="normal" font-weight="normal" letter-spacing="normal" overflow="visible" text-anchor="start" text-decoration="none" visibility="visible" word-spacing="normal" writing-mode="lr-tb" style="text-indent:0;text-align:start;line-height:normal;text-transform:none;block-progression:tb;marker:none;-inkscape-font-specification:Sans"/></mask></defs><metadata id="metadata7"/><g id="layer1" display="inline" transform="translate(0,-1036.3622)"><g id="g5239" mask="url(#mask5246)"><path id="rect4001-3" fill="url(#linearGradient4101)" fill-opacity="1" stroke="none" d="m 3.519379,1037.8597 7.00967,0 3.062057,3.0066 0,9.9546 -10.071727,0 z" display="inline"/><path id="path4884" fill="url(#linearGradient4900-1)" fill-opacity="1" stroke="none" d="m 9.998718,1037.397 0,3.9112 3.977478,0 z" display="inline"/><path id="rect4001" fill="none" stroke="url(#linearGradient4908-2)" stroke-dashoffset="0" stroke-linecap="butt" stroke-linejoin="miter" stroke-miterlimit="4" stroke-opacity="1" stroke-width="1" d="m 3.519379,1037.8597 7.00967,0 3.062057,3.0066 0,9.9546 -10.071727,0 z" display="inline"/><path id="path3836-2" fill="#000" fill-opacity="0" stroke="#000" stroke-dasharray="none" stroke-linejoin="round" stroke-miterlimit="4" stroke-opacity="1" stroke-width="1" d="m 3.993884,1046.0282 3.506116,0 0,2.3125 3.28125,-3.25 -3.28125,-3.3125 0,2.25 -3.506116,0" display="inline" filter="url(#filter5140)" opacity=".3"/><path id="path3836" fill="#fff" fill-opacity="0" stroke="#8693ae" stroke-dasharray="none" stroke-linejoin="round" stroke-miterlimit="4" stroke-opacity="1" stroke-width="1" d="m 3.993884,1045.8622 3.506116,0 0,2.3125 3.28125,-3.25 -3.28125,-3.3125 0,2.25 -3.506116,0" display="inline"/></g></g></svg>