<svg xmlns="http://www.w3.org/2000/svg" xmlns:svg="http://www.w3.org/2000/svg" xmlns:xlink="http://www.w3.org/1999/xlink" id="svg2" width="16" height="16" version="1.1"><defs id="defs4"><linearGradient id="linearGradient3781"><stop id="stop3783" offset="0" stop-color="#6e6f75" stop-opacity="1"/><stop id="stop3785" offset="1" stop-color="#8f8f93" stop-opacity="1"/></linearGradient><linearGradient id="linearGradient3773"><stop id="stop3775" offset="0" stop-color="#9a9a9e" stop-opacity="1"/><stop id="stop3777" offset=".5" stop-color="#8f8f93" stop-opacity="1"/><stop id="stop3779" offset="1" stop-color="#cfcfcf" stop-opacity="1"/></linearGradient><linearGradient id="linearGradient3929-5" x1="388.637" x2="388.637" y1="478.188" y2="462.115" gradientUnits="userSpaceOnUse" xlink:href="#linearGradient10798-1-9-3-7-6-8-9-0-9-1"/><linearGradient id="linearGradient10798-1-9-3-7-6-8-9-0-9-1"><stop id="stop10800-5-2-1-8-20-6-4-9-8-2" offset="0" stop-color="#7564b1" stop-opacity="1"/><stop id="stop10806-6-8-5-3-9-24-8-4-3-2" offset=".5" stop-color="#5d4aa1" stop-opacity="1"/><stop id="stop10802-1-5-3-0-4-8-4-2-9-2" offset="1" stop-color="#9283c3" stop-opacity="1"/></linearGradient><linearGradient id="linearGradient7188" x1="388.637" x2="388.637" y1="475.148" y2="462.115" gradientUnits="userSpaceOnUse" xlink:href="#linearGradient3773"/><linearGradient id="linearGradient3787" x1="383.808" x2="383.808" y1="475.26" y2="461.873" gradientUnits="userSpaceOnUse" xlink:href="#linearGradient3781"/></defs><metadata id="metadata7"/><g id="layer1" transform="translate(0,-1036.3622)"><path id="path10796-2-6-2" fill="url(#linearGradient7188)" fill-opacity="1" stroke="url(#linearGradient3787)" stroke-dasharray="none" stroke-dashoffset="0" stroke-linecap="round" stroke-linejoin="round" stroke-miterlimit="4" stroke-opacity="1" stroke-width="1.802" d="m 395.35435,468.23718 c 0,3.99266 -3.23669,7.22936 -7.22935,7.22936 -3.99266,0 -7.22935,-3.2367 -7.22935,-7.22936 0,-3.99266 3.23669,-7.22935 7.22935,-7.22935 3.99266,0 7.22935,3.23669 7.22935,7.22935 z" display="inline" font-family="Sans" font-size="13.589" font-style="normal" font-weight="normal" letter-spacing="0" transform="matrix(0.55482947,0,0,0.55482947,-206.83213,785.12598)" word-spacing="0" style="line-height:125%"/><path id="rect3010" fill="#fff" fill-opacity="1" stroke="none" d="M 6.375 6 L 6.375 7 L 8 7 L 8 10.46875 L 9 10.46875 L 9 7 L 10.625 7 L 10.625 6 L 9 6 L 8 6 L 6.375 6 z" opacity="1" transform="translate(0,1036.3622)"/></g></svg>