<svg xmlns="http://www.w3.org/2000/svg" xmlns:svg="http://www.w3.org/2000/svg" id="svg2" width="16" height="16" version="1.1"><metadata id="metadata7"/><g id="layer1" display="inline" transform="translate(0,-1036.3622)"><g id="g8472" display="inline" transform="matrix(0.9346781,0,0,0.9346781,-14.571811,69.044514)"><g id="g4193" opacity="1" transform="matrix(1.4166388,0,0,1.4166388,-3.2411359,-441.5072)"><path id="path4292" fill="none" fill-opacity="1" stroke="#8b8b8b" stroke-dasharray="none" stroke-linecap="butt" stroke-linejoin="miter" stroke-miterlimit="4" stroke-opacity="1" stroke-width=".755" d="m 18.599249,1044.4966 -2.362015,4.3798 c -0.648383,1.0968 -0.206291,2.7732 1.003019,2.7928 l 1.5596,0 1.069887,0 1.5596,0 c 1.209311,-0.019 1.651402,-1.6961 1.003019,-2.7928 l -2.362015,-4.3798 c -0.314859,-0.5957 -1.196998,-0.4999 -1.471095,0 z"/><path id="path4253" fill="#959595" fill-opacity="1" stroke="none" d="m 4.109375,5.484375 c 0,0.345178 -0.279822,0.625 -0.625,0.625 -0.345178,0 -0.625,-0.279822 -0.625,-0.625 0,-0.345178 0.279822,-0.625 0.625,-0.625 0.345178,0 0.625,0.279822 0.625,0.625 z" transform="matrix(1.125929,0,0,1.125929,15.411638,1043.5862)"/><path id="path4253-7" fill="#959595" fill-opacity="1" stroke="none" d="m 19.350026,1045.7152 c -0.378471,0 -0.700512,0.3368 -0.700512,0.774 l 0.09137,1.4889 c 0,0.3887 0.272722,0.7037 0.609141,0.7037 0.336419,0 0.609139,-0.315 0.609139,-0.7037 l 0.06091,-1.4889 c 0,-0.4372 -0.291583,-0.774 -0.670056,-0.774 z" display="inline"/></g></g></g></svg>