<svg xmlns="http://www.w3.org/2000/svg" xmlns:svg="http://www.w3.org/2000/svg" xmlns:xlink="http://www.w3.org/1999/xlink" id="svg2" width="8" height="8" version="1.1"><defs id="defs4"><linearGradient id="linearGradient5269" x1="19.625" x2="22" y1="1041.644" y2="1041.644" gradientUnits="userSpaceOnUse" xlink:href="#linearGradient4981"/><linearGradient id="linearGradient5267" x1="18.909" x2="22.095" y1="7.609" y2="8.297" gradientUnits="userSpaceOnUse" xlink:href="#linearGradient4981"/><linearGradient id="linearGradient5265" x1="21.123" x2="21.123" y1="1045.577" y2="1046.688" gradientUnits="userSpaceOnUse" xlink:href="#linearGradient4973"/><linearGradient id="linearGradient4973"><stop id="stop4975" offset="0" stop-color="#000" stop-opacity="1"/><stop id="stop4977" offset="1" stop-color="#000" stop-opacity="0"/></linearGradient><linearGradient id="linearGradient4981"><stop id="stop4983" offset="0" stop-color="#359b58" stop-opacity="1"/><stop id="stop4991" offset=".394" stop-color="#72b649" stop-opacity="1"/><stop id="stop4989" offset=".5" stop-color="#72b649" stop-opacity="1"/><stop id="stop4985" offset="1" stop-color="#359b58" stop-opacity="1"/></linearGradient></defs><metadata id="metadata7"/><g id="layer1" display="inline" transform="translate(0,-1044.3622)"><g id="g8472" display="inline" transform="matrix(0.9346781,0,0,0.9346781,-14.571811,69.044514)"><g id="layer1-3" display="inline" transform="matrix(1.0144223,0,0,1.0144223,11.217495,-31.896833)"><g id="g5014" transform="translate(-3.6239221,22.097086)"><g id="g5001" transform="matrix(0.70710678,0.70710678,-0.70710678,0.70710678,734.42008,290.38128)"><path id="rect4944" fill="#a5adba" fill-opacity="1" stroke="#17325d" stroke-dashoffset="0" stroke-linecap="round" stroke-linejoin="round" stroke-miterlimit="4" stroke-opacity="1" stroke-width=".5" d="m 20.492187,1045.1591 0.921876,0 0,2.4062 c -0.376231,0.2965 -0.615362,0.1856 -0.921876,0 z"/><g id="g5057"><path id="path4971" fill="url(#linearGradient5265)" fill-opacity="1" fill-rule="nonzero" stroke="none" stroke-width=".5" d="m 20.40625,1044.9062 a 0.250025,0.250025 0 0 0 -0.125,0.125 0.250025,0.250025 0 0 0 -0.03125,0.125 l 0,2.4063 a 0.250025,0.250025 0 0 0 0,0.062 0.250025,0.250025 0 0 0 0.125,0.1562 c 0.159025,0.096 0.31691,0.1983 0.53125,0.2188 0.21434,0.021 0.436009,-0.076 0.65625,-0.25 a 0.250025,0.250025 0 0 0 0.09375,-0.125 0.250025,0.250025 0 0 0 0,-0.062 l 0,-2.4063 a 0.250025,0.250025 0 0 0 0,-0.031 0.250025,0.250025 0 0 0 -0.03125,-0.094 0.250025,0.250025 0 0 0 -0.15625,-0.125 0.250025,0.250025 0 0 0 -0.0625,0 l -0.90625,0 a 0.250025,0.250025 0 0 0 -0.09375,0 z" baseline-shift="baseline" color="#000" direction="ltr" display="inline" enable-background="accumulate" font-family="Sans" font-size="medium" font-stretch="normal" font-style="normal" font-variant="normal" font-weight="normal" letter-spacing="normal" opacity=".5" overflow="visible" text-anchor="start" text-decoration="none" visibility="visible" word-spacing="normal" writing-mode="lr-tb" style="text-indent:0;text-align:start;line-height:normal;text-transform:none;block-progression:tb;marker:none;-inkscape-font-specification:Sans"/><path id="path4884-8" fill="url(#linearGradient5267)" fill-opacity="1" stroke="#00953e" stroke-dasharray="none" stroke-dashoffset="0" stroke-linecap="round" stroke-linejoin="round" stroke-miterlimit="4" stroke-opacity="1" stroke-width="1" d="M 20.9375,6.125 C 19.686416,6.1463072 18.732332,7.2495515 18.53125,8 c 0,0.595432 1.068685,1.09375 2.40625,1.09375 C 22.275065,9.09375 23.375,8.595432 23.375,8 23.179528,7.2704899 22.188584,6.1036928 20.9375,6.125 z" display="inline" transform="translate(0,1036.3622)"/><path id="rect4923" fill="url(#linearGradient5269)" fill-opacity="1" stroke="#00953e" stroke-dasharray="none" stroke-dashoffset="0" stroke-linecap="round" stroke-linejoin="round" stroke-miterlimit="4" stroke-opacity="1" stroke-width=".835" d="m 20.929746,1040.0249 c -0.533598,0 -0.994941,0.084 -1.356203,0.2348 l 0,2.7676 c 0.361262,0.1504 0.822605,0.2348 1.356203,0.2348 0.487606,0 0.928812,-0.081 1.277961,-0.2087 l 0,-2.8198 c -0.349149,-0.128 -0.790355,-0.2087 -1.277961,-0.2087 z"/><path id="path4884" fill="#7db551" fill-opacity="1" stroke="#00953e" stroke-dasharray="none" stroke-dashoffset="0" stroke-linecap="round" stroke-linejoin="round" stroke-miterlimit="4" stroke-opacity="1" stroke-width="1" d="m 23.125,3.1406245 c 0,0.595432 -1.08431,1.078125 -2.421875,1.078125 -1.337565,0 -2.421875,-0.482693 -2.421875,-1.078125 0,-0.595432 1.08431,-1.078125 2.421875,-1.078125 1.337565,0 2.421875,0.482693 2.421875,1.078125 z" transform="matrix(0.90924832,0,0,0.90924832,2.1288433,1036.5222)"/></g></g></g></g></g></g></svg>