<svg xmlns="http://www.w3.org/2000/svg" xmlns:svg="http://www.w3.org/2000/svg" xmlns:xlink="http://www.w3.org/1999/xlink" id="svg2" width="7" height="8" version="1.1"><defs id="defs4"><linearGradient id="linearGradient10798-1-9-3-7-1-15-1-7-6-1-3"><stop id="stop10800-5-2-1-8-2-8-1-7-3-7-4" offset="0" stop-color="#4f9e55" stop-opacity="1"/><stop id="stop10806-6-8-5-3-2-95-0-5-4-8-0" offset=".5" stop-color="#3c8d49" stop-opacity="1"/><stop id="stop10802-1-5-3-0-2-0-9-8-4-3-8" offset="1" stop-color="#a4e173" stop-opacity="1"/></linearGradient><linearGradient id="linearGradient8163-2-7" x1="388.637" x2="388.637" y1="478.188" y2="457.955" gradientUnits="userSpaceOnUse" xlink:href="#linearGradient10798-1-9-3-7-1-15-1-7-6-1-3"/></defs><metadata id="metadata7"/><g id="layer1" display="inline" transform="translate(0,-1044.3622)"><g id="g8472" display="inline" transform="matrix(0.9346781,0,0,0.9346781,-14.571811,69.044514)"><g id="layer1-5" display="inline" transform="matrix(0.48581594,0,0,0.48581594,15.384272,540.91024)"><g id="g8159" display="inline" transform="translate(-8.2201163,-12.904699)"><path id="path10796-2-6-0" fill="url(#linearGradient8163-2-7)" fill-opacity="1" stroke="#14733c" stroke-dasharray="none" stroke-dashoffset="0" stroke-linecap="round" stroke-linejoin="round" stroke-miterlimit="4" stroke-opacity="1" stroke-width="3.491" d="m 398.75,468.23718 c 0,5.86803 -4.75697,10.625 -10.625,10.625 -5.86803,0 -10.625,-4.75697 -10.625,-10.625 0,-5.86802 4.75697,-10.625 10.625,-10.625 5.86803,0 10.625,4.75698 10.625,10.625 z" display="inline" transform="matrix(0.62300696,0,0,0.62300696,-225.45273,765.59692)"/><path id="path8117" fill="#fff" fill-opacity="1" stroke="none" d="m 14.233999,1052.5785 5.673194,4.8544 -5.614707,4.7374 z" display="inline"/></g></g></g></g></svg>