<svg xmlns="http://www.w3.org/2000/svg" xmlns:svg="http://www.w3.org/2000/svg" xmlns:xlink="http://www.w3.org/1999/xlink" id="svg2" width="16" height="16" version="1.1"><defs id="defs4"><linearGradient id="linearGradient4793"><stop id="stop4795" offset="0" stop-color="#7395b8" stop-opacity="1"/><stop id="stop4797" offset="1" stop-color="#125f9c" stop-opacity="1"/></linearGradient><linearGradient id="linearGradient4793-4"><stop id="stop4795-0" offset="0" stop-color="#7395b8" stop-opacity="1"/><stop id="stop4797-9" offset="1" stop-color="#125f9c" stop-opacity="1"/></linearGradient><linearGradient id="linearGradient4864" x1="-17.094" x2="-13.313" y1="9.625" y2="12.438" gradientUnits="userSpaceOnUse" xlink:href="#linearGradient4793"/><linearGradient id="linearGradient4866" x1="-17.094" x2="-13.313" y1="9.625" y2="12.438" gradientUnits="userSpaceOnUse" xlink:href="#linearGradient4793-4"/></defs><metadata id="metadata7"/><g id="layer1" display="inline" transform="translate(0,-1036.3622)"><g id="g4857" transform="matrix(0.75134134,0.65047808,-0.62287103,0.78464248,652.4173,219.65493)"><path id="path4835" fill="#79879d" fill-opacity="1" stroke="#4d607b" stroke-dasharray="none" stroke-linecap="butt" stroke-linejoin="miter" stroke-miterlimit="4" stroke-opacity="1" stroke-width=".5" d="m 6.312499,1045.9559 2.125,-3 2.500001,-5.875 c 0,0 0.71875,1.4063 0.5,2.0313 -0.21875,0.625 -2.531251,6.0312 -2.531251,6.0312 l -2,1.9688 z"/><path id="path4835-8" fill="#79879d" fill-opacity="1" stroke="#4d607b" stroke-dasharray="none" stroke-linecap="butt" stroke-linejoin="miter" stroke-miterlimit="4" stroke-opacity="1" stroke-width=".5" d="m 11.478929,1045.9559 -2.125,-3 -2.500001,-5.875 c 0,0 -0.71875,1.4063 -0.5,2.0313 0.21875,0.625 2.531251,6.0312 2.531251,6.0312 l 2,1.9688 z" display="inline"/><path id="path4855" fill="#4d607b" fill-opacity="1" stroke="none" d="m -10.906251,7.0937495 c 0,0.1467007 -0.118924,0.265625 -0.265625,0.265625 -0.146701,0 -0.265625,-0.1189243 -0.265625,-0.265625 0,-0.1467006 0.118924,-0.265625 0.265625,-0.265625 0.146701,0 0.265625,0.1189244 0.265625,0.265625 z" transform="matrix(1.3529412,0,0,1.3529412,24.013328,1033.8898)"/><path id="path4023" fill="none" stroke="url(#linearGradient4864)" stroke-dasharray="none" stroke-dashoffset="0" stroke-linecap="round" stroke-linejoin="round" stroke-miterlimit="4" stroke-opacity="1" stroke-width="1" d="m -13.187501,10.875 c 0,1.208123 -0.909422,2.1875 -2.03125,2.1875 -1.121828,0 -2.03125,-0.979377 -2.03125,-2.1875 0,-1.2081229 0.909422,-2.1875 2.03125,-2.1875 1.121828,0 2.03125,0.9793771 2.03125,2.1875 z" transform="translate(20,1036.706)"/><path id="path4023-4" fill="none" stroke="url(#linearGradient4866)" stroke-dasharray="none" stroke-dashoffset="0" stroke-linecap="round" stroke-linejoin="round" stroke-miterlimit="4" stroke-opacity="1" stroke-width="1" d="m -13.187501,10.875 c 0,1.208123 -0.909422,2.1875 -2.03125,2.1875 -1.121828,0 -2.03125,-0.979377 -2.03125,-2.1875 0,-1.2081229 0.909422,-2.1875 2.03125,-2.1875 1.121828,0 2.03125,0.9793771 2.03125,2.1875 z" display="inline" transform="translate(27.84375,1036.706)"/></g></g></svg>