<svg xmlns="http://www.w3.org/2000/svg" xmlns:svg="http://www.w3.org/2000/svg" xmlns:xlink="http://www.w3.org/1999/xlink" id="svg2" width="16" height="16" version="1.1"><defs id="defs4"><linearGradient id="linearGradient12204"><stop id="stop12206" offset="0" stop-color="#f5b9ac" stop-opacity="1"/><stop id="stop12214" offset=".25" stop-color="#f7cec5" stop-opacity="1"/><stop id="stop12212" offset=".5" stop-color="#f7ccc3" stop-opacity="1"/><stop id="stop12208" offset="1" stop-color="#f5b9ac" stop-opacity="1"/></linearGradient><linearGradient id="linearGradient12144"><stop id="stop12146" offset="0" stop-color="#ca9189" stop-opacity="1"/><stop id="stop12154" offset=".25" stop-color="#f5b9ac" stop-opacity="1"/><stop id="stop12152" offset=".5" stop-color="#f5b9ac" stop-opacity="1"/><stop id="stop12148" offset="1" stop-color="#bd847e" stop-opacity="1"/></linearGradient><linearGradient id="linearGradient4082-3"><stop id="stop4084-8" offset="0" stop-color="#4476aa" stop-opacity="1"/><stop id="stop4864-7" offset=".5" stop-color="#5a9ccc" stop-opacity="1"/><stop id="stop4086-2" offset="1" stop-color="#4476aa" stop-opacity="1"/></linearGradient><linearGradient id="linearGradient4994-4-5"><stop id="stop4996-5-9" offset="0" stop-color="#c5dff4" stop-opacity="1"/><stop id="stop4998-5-0" offset="1" stop-color="#fff" stop-opacity="0"/></linearGradient><linearGradient id="linearGradient4910-4-0"><stop id="stop4912-8-5" offset="0" stop-color="#fff" stop-opacity="0"/><stop id="stop4914-8-1" offset="1" stop-color="#c5dff4" stop-opacity="1"/></linearGradient><linearGradient id="linearGradient4810-5"><stop id="stop4812-0" offset="0" stop-color="#be9a4b" stop-opacity="1"/><stop id="stop4814-4" offset="1" stop-color="#877e60" stop-opacity="1"/></linearGradient><linearGradient id="linearGradient8878" x1="8.014" x2="8.014" y1="1039.876" y2="1041.877" gradientTransform="translate(-0.87616643,1.0002456)" gradientUnits="userSpaceOnUse" xlink:href="#linearGradient4082-3"/><linearGradient id="linearGradient8881" x1="-11" x2="-11" y1="1042.362" y2="1044.362" gradientTransform="translate(17,0.9999451)" gradientUnits="userSpaceOnUse" xlink:href="#linearGradient4994-4-5"/><linearGradient id="linearGradient8884" x1="-13" x2="-15" y1="1047.362" y2="1047.362" gradientTransform="translate(17,-5.0312549)" gradientUnits="userSpaceOnUse" xlink:href="#linearGradient4910-4-0"/><linearGradient id="linearGradient8887" x1="8.014" x2="8.014" y1="1042.362" y2="1050.071" gradientTransform="translate(-0.91881011,1.0357451)" gradientUnits="userSpaceOnUse" xlink:href="#linearGradient4810-5"/><linearGradient id="linearGradient4908-52-3-2-6"><stop id="stop4910-7-2-7-1" offset="0" stop-color="#986443" stop-opacity="1"/><stop id="stop4912-6-2-9-49" offset="1" stop-color="#994f1b" stop-opacity="1"/></linearGradient><filter id="filter5428-3" color-interpolation-filters="sRGB"><feGaussianBlur id="feGaussianBlur5430-8" stdDeviation=".222"/></filter><linearGradient id="linearGradient5077-5-3"><stop id="stop5079-7-3" offset="0" stop-color="#e4cf94" stop-opacity="1"/><stop id="stop5087-6-7" offset=".322" stop-color="#ede0ba" stop-opacity="1"/><stop id="stop5085-1-30" offset=".648" stop-color="#c1aa7e" stop-opacity="1"/><stop id="stop5081-8-1" offset="1" stop-color="#ad8865" stop-opacity="1"/></linearGradient><linearGradient id="linearGradient5300-8"><stop id="stop5302-7" offset="0" stop-color="#4d4d4d" stop-opacity="1"/><stop id="stop5308-8" offset=".294" stop-color="#727272" stop-opacity="1"/><stop id="stop5304-9" offset="1" stop-color="#4d4d4d" stop-opacity="1"/></linearGradient><linearGradient id="linearGradient12292" x1="-11.211" x2="-8.701" y1="1042.16" y2="1044.67" gradientTransform="translate(20,0)" gradientUnits="userSpaceOnUse" xlink:href="#linearGradient4908-52-3-2-6"/><linearGradient id="linearGradient12294" x1="-.981" x2="1.984" y1="1047.424" y2="1050.319" gradientTransform="translate(4,-1036.3622)" gradientUnits="userSpaceOnUse" xlink:href="#linearGradient5077-5-3"/><linearGradient id="linearGradient12296" x1="2.656" x2="4.082" y1="1049.398" y2="1050.53" gradientUnits="userSpaceOnUse" xlink:href="#linearGradient5300-8"/><linearGradient id="linearGradient12298" x1="29.095" x2="32.28" y1=".031" y2=".031" gradientTransform="translate(3.3308581e-7,1037.1136)" gradientUnits="userSpaceOnUse" xlink:href="#linearGradient12144"/><linearGradient id="linearGradient12300" x1="29.15" x2="32.162" y1="1.047" y2="1.047" gradientUnits="userSpaceOnUse" xlink:href="#linearGradient12204"/><mask id="mask7584" maskUnits="userSpaceOnUse"><path id="path7586" fill="#fff" fill-opacity="1" stroke="#fff" stroke-dashoffset="0" stroke-linecap="butt" stroke-linejoin="miter" stroke-miterlimit="4" stroke-opacity="1" stroke-width="1" d="m 1.5076731,1040.8978 13.0019249,0 0,10.9667 -13.0019248,0 z" display="inline"/></mask><filter id="filter8356" width="1.48" height="1.48" x="-.24" y="-.24"><feGaussianBlur id="feGaussianBlur8358" stdDeviation=".909"/></filter></defs><metadata id="metadata7"/><g id="layer1" display="inline" transform="translate(0,-1036.3622)"><path id="rect3997-9" fill="#f4fcff" fill-opacity="1" stroke="url(#linearGradient8887)" stroke-dashoffset="0" stroke-linecap="butt" stroke-linejoin="miter" stroke-miterlimit="4" stroke-opacity="1" stroke-width="1" d="m 1.5076731,1040.8978 13.0019249,0 0,10.9667 -13.0019248,0 z" display="inline"/><path id="rect4853-82-7" fill="url(#linearGradient8884)" fill-opacity="1" stroke="none" d="m 3,1044.331 0,7.0312 -1,0 0,-8.0312 z" display="inline"/><path id="rect4853-82-0" fill="url(#linearGradient8881)" fill-opacity="1" stroke="none" d="m 3,1044.3622 10.928078,0 0,-1 -11.928078,0 z" display="inline"/><path id="rect3997-9-9" fill="#58b6e8" fill-opacity="1" stroke="url(#linearGradient8878)" stroke-dashoffset="0" stroke-linecap="butt" stroke-linejoin="miter" stroke-miterlimit="4" stroke-opacity="1" stroke-width="1" d="m 1.503712,1040.8623 13.004333,0 0,2.0053 -13.004333,0 z" display="inline"/><g id="g7581" mask="url(#mask7584)"><path filter="url(#filter8356)" style="text-indent:0;text-align:start;line-height:normal;text-transform:none;block-progression:tb;marker:none;-inkscape-font-specification:Sans" id="path5226-6-14-1-5-9-9" fill="#fff" stroke="#fff" stroke-dasharray="none" stroke-linejoin="round" stroke-miterlimit="4" stroke-opacity="1" stroke-width="2" d="m 14.945713,1040.3274 -5.5989979,5.572 -3.4954296,1.6602 1.6601595,-3.4924 5.545372,-5.5834 c 0.812805,0.3857 1.414835,1.0349 1.888896,1.8439 z" baseline-shift="baseline" color="#000" direction="ltr" display="inline" enable-background="accumulate" font-family="Sans" font-size="medium" font-stretch="normal" font-style="normal" font-variant="normal" font-weight="normal" letter-spacing="normal" overflow="visible" text-anchor="start" text-decoration="none" visibility="visible" word-spacing="normal" writing-mode="lr-tb"/></g><g id="g12278" transform="matrix(0.70710678,0.70710678,-0.70710678,0.70710678,726.06628,283.93164)"><g id="layer1-5-8" display="inline" transform="matrix(0.45259182,-0.45259182,0.45259182,0.45259182,-446.0304,573.84462)"><path font-family="Sans" style="text-indent:0;text-align:start;line-height:normal;text-transform:none;block-progression:tb;marker:none;-inkscape-font-specification:Sans" id="path5226-6-14-1-5-9" fill="none" stroke="url(#linearGradient12292)" stroke-dasharray="none" stroke-linejoin="round" stroke-miterlimit="4" stroke-opacity="1" stroke-width="1" d="m 15.685953,1040.5523 -8.7475939,8.7054 -5.461084,2.5938 2.59375,-5.4564 8.6638109,-8.7231 c 1.269887,0.6025 2.210467,1.6169 2.951117,2.8807 z" baseline-shift="baseline" color="#000" direction="ltr" display="inline" enable-background="accumulate" font-size="medium" font-stretch="normal" font-style="normal" font-variant="normal" font-weight="normal" letter-spacing="normal" overflow="visible" text-anchor="start" text-decoration="none" visibility="visible" word-spacing="normal" writing-mode="lr-tb"/><path id="path5424-7" fill="#ffcb72" fill-opacity="1" stroke="none" stroke-width="1" d="m 12.75,1037.6747 -8.6875,8.7188 0.9375,0.9062 8.9375,-8.875 c -0.362696,-0.2963 -0.752826,-0.5438 -1.1875,-0.75 z" baseline-shift="baseline" color="#000" direction="ltr" display="inline" enable-background="accumulate" font-family="Sans" font-size="medium" font-stretch="normal" font-style="normal" font-variant="normal" font-weight="normal" letter-spacing="normal" overflow="visible" text-anchor="start" text-decoration="none" visibility="visible" word-spacing="normal" writing-mode="lr-tb" style="text-indent:0;text-align:start;line-height:normal;text-transform:none;block-progression:tb;marker:none;-inkscape-font-specification:Sans"/><path id="path5226-6-14-1-5-2-9" fill="#e5a856" fill-opacity="1" stroke="none" stroke-width="1" d="m 15.3125,1039.956 -8.78125,8.9062 0.40625,0.4063 8.75,-8.7188 c -0.120121,-0.205 -0.24381,-0.4026 -0.375,-0.5937 z" baseline-shift="baseline" color="#000" direction="ltr" display="inline" enable-background="accumulate" font-family="Sans" font-size="medium" font-stretch="normal" font-style="normal" font-variant="normal" font-weight="normal" letter-spacing="normal" overflow="visible" text-anchor="start" text-decoration="none" visibility="visible" word-spacing="normal" writing-mode="lr-tb" style="text-indent:0;text-align:start;line-height:normal;text-transform:none;block-progression:tb;marker:none;-inkscape-font-specification:Sans"/><path id="path5226-6-14-1-5-2-7-1" fill="#fbbc67" fill-opacity="1" stroke="none" stroke-width="1" d="m 6.536718,1048.8567 -1.548139,-1.5456 8.939717,-8.8821 c 0.52506,0.4288 0.980135,0.9451 1.380966,1.5292 z" baseline-shift="baseline" color="#000" direction="ltr" display="inline" enable-background="accumulate" font-family="Sans" font-size="medium" font-stretch="normal" font-style="normal" font-variant="normal" font-weight="normal" letter-spacing="normal" overflow="visible" text-anchor="start" text-decoration="none" visibility="visible" word-spacing="normal" writing-mode="lr-tb" style="text-indent:0;text-align:start;line-height:normal;text-transform:none;block-progression:tb;marker:none;-inkscape-font-specification:Sans"/><path id="path5426-9" fill="none" stroke="#fff" stroke-dasharray="none" stroke-linecap="butt" stroke-linejoin="miter" stroke-miterlimit="4" stroke-opacity="1" stroke-width="1" d="m 4.984376,1047.2528 8.937501,-8.8281" filter="url(#filter5428-3)" opacity=".5"/><path id="path5006-5" fill="url(#linearGradient12294)" fill-opacity="1" stroke="none" d="M 4.09375,10 2.6875,12.9375 c 0.1928924,0.586348 0.244767,1.257306 1.375,1.28125 L 4.03125,14.28125 6.96875,12.875 C 7.3020356,11.516034 6.7891722,11.737439 5.9815375,11.315162 5.6074141,10.176906 5.9121401,10.42899 4.6833038,10.420015 4.6786211,9.4016554 4.2560993,10.44918 4.09375,10 z" display="inline" transform="translate(0,1036.3622)"/><path id="path5006-1-8" fill="url(#linearGradient12296)" fill-opacity="1" stroke="none" d="m 2.6874999,1049.2997 -1.21875,2.5625 2.5625,-1.2187 0.03125,-0.062 c -0.7244984,-0.1443 -1.1657597,-0.5692 -1.375,-1.2818 z" display="inline"/></g><path id="path11335" fill="url(#linearGradient12298)" fill-opacity="1" stroke="none" d="m 30.6875,1035.7699 c -0.790527,0 -1.4375,0.166 -1.4375,0.375 l 0,2 c 0,0.209 0.646973,0.375 1.4375,0.375 0.790527,0 1.4375,-0.166 1.4375,-0.375 l 0,-2 c 0,-0.209 -0.646973,-0.375 -1.4375,-0.375 z"/><path id="path11335-9" fill="#f5b9ac" fill-opacity="1" stroke="url(#linearGradient12300)" stroke-dasharray="none" stroke-dashoffset="0" stroke-linecap="butt" stroke-linejoin="round" stroke-miterlimit="4" stroke-opacity="1" stroke-width=".294" d="m 32.015625,1.046875 c 0,0.1984773 -0.608613,0.359375 -1.359375,0.359375 -0.750762,0 -1.359375,-0.1608977 -1.359375,-0.359375 0,-0.19847733 0.608613,-0.359375 1.359375,-0.359375 0.750762,0 1.359375,0.16089767 1.359375,0.359375 z" display="inline" transform="matrix(1.0529667,0,0,1.0529667,-1.5886036,1035.0448)"/><path id="path11335-4" fill="none" stroke="#b6766f" stroke-dasharray="none" stroke-dashoffset="0" stroke-linecap="butt" stroke-linejoin="round" stroke-miterlimit="4" stroke-opacity="1" stroke-width=".309" d="m 30.687499,1035.7698 c -0.790526,0 -1.437499,0.166 -1.437499,0.375 l 0,1.4807 c 0,0.209 0.646973,0.375 1.437499,0.375 0.790527,0 1.4375,-0.166 1.4375,-0.375 l 0,-1.4807 c 0,-0.209 -0.646973,-0.375 -1.4375,-0.375 z" display="inline"/><path id="path11335-4-0" fill="#dedfe2" fill-opacity="1" stroke="#a79a9e" stroke-dasharray="none" stroke-dashoffset="0" stroke-linecap="butt" stroke-linejoin="round" stroke-miterlimit="4" stroke-opacity="1" stroke-width=".344" d="m 29.09375,1037.7074 0,1.6022 c 0,0.2327 0.713814,0.4063 1.59375,0.4063 0.879938,0 1.59375,-0.1736 1.59375,-0.4063 l 0,-1.6022 c 0,0.2327 -0.713812,0.4062 -1.59375,0.4062 -0.879936,0 -1.59375,-0.1735 -1.59375,-0.4062 z" display="inline"/></g></g></svg>