<svg xmlns="http://www.w3.org/2000/svg" xmlns:svg="http://www.w3.org/2000/svg" xmlns:xlink="http://www.w3.org/1999/xlink" id="svg2" width="16" height="16" version="1.1"><defs id="defs4"><linearGradient id="linearGradient4921"><stop id="stop4923" offset="0" stop-color="#85a2cd" stop-opacity="1"/><stop id="stop4925" offset="1" stop-color="#d3dce9" stop-opacity="1"/></linearGradient><linearGradient id="linearGradient4913"><stop id="stop4915" offset="0" stop-color="#4e6b9b" stop-opacity="1"/><stop id="stop4917" offset="1" stop-color="#6783b1" stop-opacity="1"/></linearGradient><linearGradient id="linearGradient4919" x1="1.86" x2="1.86" y1="1051.589" y2="1046.849" gradientTransform="matrix(1.0224167,0,0,1.0224167,-17.402778,-24.047507)" gradientUnits="userSpaceOnUse" xlink:href="#linearGradient4913"/><linearGradient id="linearGradient4927" x1="1.86" x2="1.86" y1="1051.589" y2="1046.849" gradientTransform="matrix(1.0224167,0,0,1.0224167,-17.402778,-24.047507)" gradientUnits="userSpaceOnUse" xlink:href="#linearGradient4921"/><linearGradient id="linearGradient4789"><stop id="stop4791" offset="0" stop-color="#4e8fbd" stop-opacity="1"/><stop id="stop4793" offset="1" stop-color="#30495a" stop-opacity="1"/></linearGradient><linearGradient id="linearGradient3924" x1="-2.287" x2="-2.287" y1="1044.692" y2="1049.598" gradientTransform="matrix(0.72295781,-0.72295781,0.72295781,0.72295781,-747.11893,286.63871)" gradientUnits="userSpaceOnUse" xlink:href="#linearGradient4789"/></defs><metadata id="metadata7"/><g id="layer1" display="inline" transform="translate(0,-1036.3622)"><g id="g4908" transform="translate(17.6875,0)"><path id="path4143" fill="url(#linearGradient4927)" fill-opacity="1" stroke="url(#linearGradient4919)" stroke-dasharray="none" stroke-linecap="butt" stroke-linejoin="miter" stroke-miterlimit="4" stroke-opacity="1" stroke-width=".716" d="m -17.306927,1043.9175 0,7.0931 7.124966,0 7.1249674,0 0,-7.0931 -3.0033491,0 0,2.013 0.9265651,0 0,3.0672 -5.0481834,0 -5.048182,0 0,-3.0672 0.926565,0 0,-2.013 z"/></g><path id="path3986" fill="url(#linearGradient3924)" fill-opacity="1" stroke="none" d="m 1.7208163,1039.5526 0.6549857,-0.6549 6.2783105,6.2782 1.3099712,-1.3099 0.3354433,3.4985 -3.4985427,-0.3034 1.2300951,-1.2302 z" display="inline"/></g></svg>