<svg xmlns="http://www.w3.org/2000/svg" xmlns:svg="http://www.w3.org/2000/svg" xmlns:xlink="http://www.w3.org/1999/xlink" id="svg2" width="16" height="16" version="1.1"><defs id="defs4"><linearGradient id="linearGradient4987"><stop id="stop4989" offset="0" stop-color="#e4cf9d" stop-opacity="1"/><stop id="stop4997" offset=".383" stop-color="#b5cef2" stop-opacity="1"/><stop id="stop4995" offset=".625" stop-color="#97b2d9" stop-opacity="1"/><stop id="stop4991" offset="1" stop-color="#f8f8fc" stop-opacity="1"/></linearGradient><linearGradient id="linearGradient4893"><stop id="stop4895" offset="0" stop-color="#b7c9e3" stop-opacity="1"/><stop id="stop4897" offset="1" stop-color="#f3f5f6" stop-opacity="1"/></linearGradient><linearGradient id="linearGradient4883"><stop id="stop4885" offset="0" stop-color="#e4cf9d" stop-opacity="1"/><stop id="stop4891" offset=".167" stop-color="#dce9f2" stop-opacity="1"/><stop id="stop4887" offset="1" stop-color="#fefdfa" stop-opacity="1"/></linearGradient><linearGradient id="linearGradient4780"><stop id="stop4782" offset="0" stop-color="#b1bdbf" stop-opacity="1"/><stop id="stop4784" offset="1" stop-color="#8a9b9e" stop-opacity="1"/></linearGradient><linearGradient id="linearGradient4738"><stop id="stop4740" offset="0" stop-color="#8a9b9e" stop-opacity="1"/><stop id="stop4742" offset="1" stop-color="#5b7aaa" stop-opacity="1"/></linearGradient><linearGradient id="linearGradient4744" x1="29.587" x2="29.587" y1="1037.924" y2="1052.018" gradientTransform="translate(-20,1.7382813e-5)" gradientUnits="userSpaceOnUse" xlink:href="#linearGradient4738"/><linearGradient id="linearGradient4858" x1="29.587" x2="29.587" y1="1037.924" y2="1044.859" gradientTransform="translate(-20,0)" gradientUnits="userSpaceOnUse" xlink:href="#linearGradient4780"/><linearGradient id="linearGradient4889" x1="29" x2="29" y1="1044.362" y2="1038.362" gradientTransform="matrix(1,0,0,0.94028876,-20,61.972037)" gradientUnits="userSpaceOnUse" xlink:href="#linearGradient4883"/><linearGradient id="linearGradient4899" x1="32.664" x2="32.664" y1="1051.801" y2="1038.272" gradientTransform="translate(-20,1.7382813e-5)" gradientUnits="userSpaceOnUse" xlink:href="#linearGradient4893"/><linearGradient id="linearGradient4993" x1="48" x2="48" y1="1050.362" y2="1046.362" gradientUnits="userSpaceOnUse" xlink:href="#linearGradient4987"/></defs><metadata id="metadata7"/><g id="layer1" display="inline" transform="translate(0,-1036.3622)"><rect id="rect3968" width="14.007" height="14" x="1.496" y="1037.862" fill="url(#linearGradient4899)" fill-opacity="1" stroke="url(#linearGradient4744)" stroke-opacity="1" rx=".813" ry=".813"/><rect id="rect3968-9-1" width="7.969" height="6.611" x="4.531" y="1037.862" fill="url(#linearGradient4889)" fill-opacity="1" stroke="none" display="inline" rx=".813" ry=".764"/><path id="rect3968-9" fill="url(#linearGradient4858)" fill-opacity="1" stroke="none" stroke-width="1" d="m 4,1037.3622 0,6.6874 c 0,0.7184 0.594024,1.3124 1.3125,1.3124 l 6.375,0 c 0.718476,0 1.3125,-0.594 1.3125,-1.3124 l 0,-6.6874 z m 8,1 0,5.6874 c 0,0.1817 -0.130726,0.3124 -0.3125,0.3124 l -6.375,0 C 5.130726,1044.362 5,1044.2313 5,1044.0496 l 0,-5.6874 z" baseline-shift="baseline" color="#000" direction="ltr" display="inline" enable-background="accumulate" font-family="Sans" font-size="medium" font-stretch="normal" font-style="normal" font-variant="normal" font-weight="normal" letter-spacing="normal" overflow="visible" text-anchor="start" text-decoration="none" visibility="visible" word-spacing="normal" writing-mode="lr-tb" style="text-indent:0;text-align:start;line-height:normal;text-transform:none;block-progression:tb;marker:none;-inkscape-font-specification:Sans"/><g id="g4953" transform="translate(-40,1.0002)"><path id="rect3968-9-6-8" fill="url(#linearGradient4993)" fill-opacity="1" stroke="none" stroke-width="1" d="m 51.274749,1050.5808 0,-4.0717 c 0,-0.2017 -0.145092,-0.3467 -0.346843,-0.3467 l -4.855812,0 c -0.201751,0 -0.346843,0.145 -0.346843,0.3467 l 0,4.0717 z" baseline-shift="baseline" color="#000" direction="ltr" display="inline" enable-background="accumulate" font-family="Sans" font-size="medium" font-stretch="normal" font-style="normal" font-variant="normal" font-weight="normal" letter-spacing="normal" overflow="visible" text-anchor="start" text-decoration="none" visibility="visible" word-spacing="normal" writing-mode="lr-tb" style="text-indent:0;text-align:start;line-height:normal;text-transform:none;block-progression:tb;marker:none;-inkscape-font-specification:Sans"/><path id="rect3968-9-6" fill="#5b7aaa" fill-opacity="1" stroke="none" stroke-width="1" d="m 45,1051.362 0,-4.6685 c 0,-0.7184 0.594024,-1.3124 1.3125,-1.3124 l 4.375,0 c 0.718476,0 1.3125,0.594 1.3125,1.3124 l 0,4.6685 z m 6,-1 0,-3.6685 c 0,-0.1817 -0.130726,-0.3124 -0.3125,-0.3124 l -4.375,0 c -0.181774,0 -0.3125,0.1307 -0.3125,0.3124 l 0,3.6685 z" baseline-shift="baseline" color="#000" direction="ltr" display="inline" enable-background="accumulate" font-family="Sans" font-size="medium" font-stretch="normal" font-style="normal" font-variant="normal" font-weight="normal" letter-spacing="normal" overflow="visible" text-anchor="start" text-decoration="none" visibility="visible" word-spacing="normal" writing-mode="lr-tb" style="text-indent:0;text-align:start;line-height:normal;text-transform:none;block-progression:tb;marker:none;-inkscape-font-specification:Sans"/><rect id="rect4963" width="1" height="2.906" x="49" y="1046.925" fill="#5b7aaa" fill-opacity="1" stroke="none"/><rect id="rect4963-5" width="1" height="5" x="1040.362" y="-51" fill="#9baaac" fill-opacity="1" stroke="none" display="inline" opacity=".35" transform="matrix(0,1,-1,0,0,0)"/><rect id="rect4963-5-7" width="1" height="5" x="1038.362" y="-51" fill="#a6b4b6" fill-opacity="1" stroke="none" display="inline" opacity=".35" transform="matrix(0,1,-1,0,0,0)"/></g></g></svg>