<svg xmlns="http://www.w3.org/2000/svg" xmlns:svg="http://www.w3.org/2000/svg" xmlns:xlink="http://www.w3.org/1999/xlink" id="svg2" width="16" height="16" version="1.1"><defs id="defs4"><linearGradient id="linearGradient5067"><stop id="stop5069" offset="0" stop-color="#677da9" stop-opacity="1"/><stop id="stop5071" offset="1" stop-color="#8998bb" stop-opacity="1"/></linearGradient><linearGradient id="linearGradient5057"><stop id="stop5059" offset="0" stop-color="#677da9" stop-opacity="1"/><stop id="stop5061" offset="1" stop-color="#b4bbd1" stop-opacity="1"/></linearGradient><linearGradient id="linearGradient4962"><stop id="stop4964" offset="0" stop-color="#7cb87d" stop-opacity="1"/><stop id="stop4966" offset="1" stop-color="#a8ceb7" stop-opacity="1"/></linearGradient><linearGradient id="linearGradient4828"><stop id="stop4830" offset="0" stop-color="#3979bd" stop-opacity="1"/><stop id="stop4832" offset="1" stop-color="#9abbdf" stop-opacity="1"/></linearGradient><linearGradient id="linearGradient4818"><stop id="stop4820" offset="0" stop-color="#eb9186" stop-opacity="1"/><stop id="stop4822" offset="1" stop-color="#e06b5e" stop-opacity="1"/></linearGradient><linearGradient id="linearGradient4810"><stop id="stop4812" offset="0" stop-color="#bfb688" stop-opacity="1"/><stop id="stop4814" offset="1" stop-color="#8694ae" stop-opacity="1"/></linearGradient><linearGradient id="linearGradient4767"><stop id="stop4769" offset="0" stop-color="#bfb688" stop-opacity="1"/><stop id="stop4771" offset="1" stop-color="#a2a59b" stop-opacity="1"/></linearGradient><linearGradient id="linearGradient4774" x1="8.014" x2="8.014" y1="1036.662" y2="1042.955" gradientTransform="matrix(1.0041934,0,0,1.0045021,-0.04757162,-4.665861)" gradientUnits="userSpaceOnUse" xlink:href="#linearGradient4767"/><linearGradient id="linearGradient4791" x1="8.014" x2="8.014" y1="1036.662" y2="1050.071" gradientTransform="translate(-2,2.000062)" gradientUnits="userSpaceOnUse" xlink:href="#linearGradient4810"/><linearGradient id="linearGradient4824" x1="12.032" x2="14.872" y1="1038.347" y2="1041.308" gradientTransform="translate(-4,0)" gradientUnits="userSpaceOnUse" xlink:href="#linearGradient4818"/><linearGradient id="linearGradient4834" x1="4.788" x2="6.617" y1="4.487" y2="2.694" gradientUnits="userSpaceOnUse" xlink:href="#linearGradient4828"/><linearGradient id="linearGradient4828-8"><stop id="stop4830-8" offset="0" stop-color="#3979bd" stop-opacity="1"/><stop id="stop4832-2" offset="1" stop-color="#9abbdf" stop-opacity="1"/></linearGradient><linearGradient id="linearGradient4851" x1="4.788" x2="6.617" y1="4.487" y2="2.694" gradientUnits="userSpaceOnUse" xlink:href="#linearGradient4828-8"/><radialGradient id="radialGradient4968" cx="3.513" cy="12.464" r="2.173" fx="3.513" fy="12.464" gradientTransform="matrix(0.43809804,0,0,0.47690359,1.974207,6.5201176)" gradientUnits="userSpaceOnUse" xlink:href="#linearGradient4962"/><linearGradient id="linearGradient4962-2"><stop id="stop4964-2" offset="0" stop-color="#7cb87d" stop-opacity="1"/><stop id="stop4966-1" offset="1" stop-color="#a8ceb7" stop-opacity="1"/></linearGradient><radialGradient id="radialGradient5038" cx="3.513" cy="12.464" r="2.173" fx="3.513" fy="12.464" gradientTransform="matrix(0.43809804,0,0,0.47690359,1.974207,6.5201176)" gradientUnits="userSpaceOnUse" xlink:href="#linearGradient4962-2"/><linearGradient id="linearGradient5063" x1="8" x2="11" y1="1046.862" y2="1046.862" gradientTransform="translate(0,-2)" gradientUnits="userSpaceOnUse" xlink:href="#linearGradient5067"/><linearGradient id="linearGradient5065" x1="6" x2="11" y1="1050.862" y2="1050.862" gradientTransform="translate(0,-2)" gradientUnits="userSpaceOnUse" xlink:href="#linearGradient5057"/><linearGradient id="linearGradient4910"><stop id="stop4912" offset="0" stop-color="#fff" stop-opacity="0"/><stop id="stop4914" offset="1" stop-color="#d1eeff" stop-opacity="1"/></linearGradient><linearGradient id="linearGradient4975" x1="-11" x2="-11" y1="1043.362" y2="1045.362" gradientTransform="translate(18,-6)" gradientUnits="userSpaceOnUse" xlink:href="#linearGradient4994"/><linearGradient id="linearGradient4994"><stop id="stop4996" offset="0" stop-color="#d1eeff" stop-opacity="1"/><stop id="stop4998" offset="1" stop-color="#fff" stop-opacity="0"/></linearGradient><linearGradient id="linearGradient5062" x1="-13" x2="-15" y1="1047.362" y2="1047.362" gradientTransform="translate(18,-6)" gradientUnits="userSpaceOnUse" xlink:href="#linearGradient4910"/><linearGradient id="linearGradient4910-7"><stop id="stop4912-4" offset="0" stop-color="#fff" stop-opacity="0"/><stop id="stop4914-0" offset="1" stop-color="#d1eeff" stop-opacity="1"/></linearGradient><linearGradient id="linearGradient4111" x1="-13" x2="-15" y1="1047.362" y2="1047.362" gradientTransform="translate(16,-4)" gradientUnits="userSpaceOnUse" xlink:href="#linearGradient4910-7"/></defs><metadata id="metadata7"/><g id="layer1" display="inline" transform="translate(0,-1036.3622)"><rect id="rect3997-9" width="10.947" height="13.002" x=".548" y="1038.856" fill="#f4fcff" fill-opacity="1" stroke="url(#linearGradient4791)" stroke-dasharray="none" stroke-dashoffset="0" stroke-linecap="butt" stroke-linejoin="miter" stroke-miterlimit="4" stroke-opacity="1" stroke-width="1" display="inline"/><rect id="rect3997" width="12.99" height="6.002" x="2.511" y="1036.859" fill="#f4fcff" fill-opacity="1" stroke="url(#linearGradient4774)" stroke-dasharray="none" stroke-dashoffset="0" stroke-linecap="butt" stroke-linejoin="miter" stroke-miterlimit="4" stroke-opacity="1" stroke-width="1.004"/><rect id="rect4816" width="3.016" height="2.994" x="7.988" y="1038.375" fill="url(#linearGradient4824)" fill-opacity="1" stroke="none"/><path id="path4826" fill="url(#linearGradient4834)" fill-opacity="1" stroke="none" d="M 6.6634934,2.7073805 6.2673522,4.1857998 5.8712109,5.664219 4.7889329,4.581941 3.7066549,3.499663 5.1850742,3.1035218 z" transform="matrix(0.69996579,-0.81479642,0.71417637,0.79858371,-1.1022434,1041.592)"/><path id="path4826-4" fill="url(#linearGradient4851)" fill-opacity="1" stroke="none" d="M 6.6634934,2.7073805 6.2673522,4.1857998 5.8712109,5.664219 4.7889329,4.581941 3.7066549,3.499663 5.1850742,3.1035218 z" display="inline" transform="matrix(0.69344277,-0.80123508,0.69016627,0.80041974,7.0115842,1041.5296)"/><path id="path4959" fill="url(#radialGradient4968)" fill-opacity="1" stroke="#379860" stroke-dasharray="none" stroke-miterlimit="4" stroke-opacity="1" stroke-width="1.34" d="m 5.0160387,12.464466 c 0,0.829864 -0.6727378,1.502602 -1.5026019,1.502602 -0.8298641,0 -1.5026019,-0.672738 -1.5026019,-1.502602 0,-0.829864 0.6727378,-1.502602 1.5026019,-1.502602 0.8298641,0 1.5026019,0.672738 1.5026019,1.502602 z" transform="matrix(0.68773292,0,0,0.68773292,3.0805578,1036.2821)"/><path id="rect4816-1-1-4" fill="url(#linearGradient5065)" fill-opacity="1" stroke="none" d="m 6,1048.3622 0,0.091 0,0.9091 5,0 0,-0.9091 0,-0.091 z" display="inline"/><path id="rect4816-1-1-4-2" fill="url(#linearGradient5063)" fill-opacity="1" stroke="none" d="m 8,1044.3622 0,0.091 0,0.9091 3,0 0,-0.9091 0,-0.091 z" display="inline"/><path id="path4959-6" fill="url(#radialGradient5038)" fill-opacity="1" stroke="#379860" stroke-dasharray="none" stroke-miterlimit="4" stroke-opacity="1" stroke-width="1.34" d="m 5.0160387,12.464466 c 0,0.829864 -0.6727378,1.502602 -1.5026019,1.502602 -0.8298641,0 -1.5026019,-0.672738 -1.5026019,-1.502602 0,-0.829864 0.6727378,-1.502602 1.5026019,-1.502602 0.8298641,0 1.5026019,0.672738 1.5026019,1.502602 z" display="inline" transform="matrix(0.68773292,0,0,0.68773292,1.0805578,1040.2821)"/><path id="rect4853-82-7" fill="url(#linearGradient5062)" fill-opacity="1" stroke="none" d="m 4,1038.3622 0,4 -1,0 0,-5 z" display="inline"/><path id="rect4853-82-0" fill="url(#linearGradient4975)" fill-opacity="1" stroke="none" d="m 4,1038.3622 11,0 0,-1 -12,0 z" display="inline"/><path id="rect4853-82-7-9" fill="url(#linearGradient4111)" fill-opacity="1" stroke="none" d="m 2,1039.3622 0,12 -1,0 0,-12 z" display="inline"/></g></svg>