<svg xmlns="http://www.w3.org/2000/svg" xmlns:svg="http://www.w3.org/2000/svg" xmlns:xlink="http://www.w3.org/1999/xlink" id="svg2" width="16" height="16" version="1.1"><defs id="defs4"><linearGradient id="linearGradient4810"><stop id="stop4812" offset="0" stop-color="#bfb688" stop-opacity="1"/><stop id="stop4814" offset="1" stop-color="#8694ae" stop-opacity="1"/></linearGradient><radialGradient id="radialGradient4968" cx="3.513" cy="12.464" r="2.173" fx="3.513" fy="12.464" gradientTransform="matrix(0.43809804,0,0,0.47690359,1.974207,6.5201176)" gradientUnits="userSpaceOnUse" xlink:href="#linearGradient4962"/><linearGradient id="linearGradient4962"><stop id="stop4964" offset="0" stop-color="#7cb87d" stop-opacity="1"/><stop id="stop4966" offset="1" stop-color="#a8ceb7" stop-opacity="1"/></linearGradient><linearGradient id="linearGradient5065" x1="6" x2="11" y1="1050.862" y2="1050.862" gradientTransform="translate(2,-2.000037)" gradientUnits="userSpaceOnUse" xlink:href="#linearGradient5057"/><linearGradient id="linearGradient5057"><stop id="stop5059" offset="0" stop-color="#677da9" stop-opacity="1"/><stop id="stop5061" offset="1" stop-color="#b4bbd1" stop-opacity="1"/></linearGradient><linearGradient id="linearGradient5063" x1="8" x2="11" y1="1046.862" y2="1046.862" gradientTransform="translate(2,-2.000037)" gradientUnits="userSpaceOnUse" xlink:href="#linearGradient5067"/><linearGradient id="linearGradient5067"><stop id="stop5069" offset="0" stop-color="#677da9" stop-opacity="1"/><stop id="stop5071" offset="1" stop-color="#8998bb" stop-opacity="1"/></linearGradient><radialGradient id="radialGradient5038" cx="3.513" cy="12.464" r="2.173" fx="3.513" fy="12.464" gradientTransform="matrix(0.43809804,0,0,0.47690359,1.974207,6.5201176)" gradientUnits="userSpaceOnUse" xlink:href="#linearGradient4962-2"/><linearGradient id="linearGradient4962-2"><stop id="stop4964-2" offset="0" stop-color="#7cb87d" stop-opacity="1"/><stop id="stop4966-1" offset="1" stop-color="#a8ceb7" stop-opacity="1"/></linearGradient><linearGradient id="linearGradient5062" x1="-13" x2="-15" y1="1047.362" y2="1047.362" gradientTransform="translate(18,-4.000037)" gradientUnits="userSpaceOnUse" xlink:href="#linearGradient4910-4"/><linearGradient id="linearGradient4910-4"><stop id="stop4912-8" offset="0" stop-color="#fff" stop-opacity="0"/><stop id="stop4914-8" offset="1" stop-color="#d1eeff" stop-opacity="1"/></linearGradient><linearGradient id="linearGradient4975-2" x1="-11" x2="-11" y1="1042.362" y2="1044.362" gradientTransform="translate(18,-4.000037)" gradientUnits="userSpaceOnUse" xlink:href="#linearGradient4994-4"/><linearGradient id="linearGradient4994-4"><stop id="stop4996-5" offset="0" stop-color="#d1eeff" stop-opacity="1"/><stop id="stop4998-5" offset="1" stop-color="#fff" stop-opacity="0"/></linearGradient><linearGradient id="linearGradient4121" x1="8.014" x2="8.014" y1="1036.662" y2="1050.071" gradientTransform="translate(0,2.000063)" gradientUnits="userSpaceOnUse" xlink:href="#linearGradient4810"/><linearGradient id="linearGradient5057-7"><stop id="stop5059-1" offset="0" stop-color="#677da9" stop-opacity="1"/><stop id="stop5061-1" offset="1" stop-color="#b4bbd1" stop-opacity="1"/></linearGradient><radialGradient id="radialGradient5038-5" cx="3.513" cy="12.464" r="2.173" fx="3.513" fy="12.464" gradientTransform="matrix(0.43809804,0,0,0.47690359,1.974207,6.5201176)" gradientUnits="userSpaceOnUse" xlink:href="#linearGradient4962-2-2"/><linearGradient id="linearGradient4962-2-2"><stop id="stop4964-2-7" offset="0" stop-color="#7cb87d" stop-opacity="1"/><stop id="stop4966-1-6" offset="1" stop-color="#a8ceb7" stop-opacity="1"/></linearGradient><linearGradient id="linearGradient4190" x1="6" x2="11" y1="1050.862" y2="1050.862" gradientTransform="translate(2,-10.0001)" gradientUnits="userSpaceOnUse" xlink:href="#linearGradient5057-7"/></defs><metadata id="metadata7"/><g id="layer1" display="inline" transform="translate(0,-1036.3622)"><rect id="rect3997-9" width="12" height="14.002" x="2.501" y="1037.862" fill="#f4fcff" fill-opacity="1" stroke="url(#linearGradient4121)" stroke-dasharray="none" stroke-dashoffset="0" stroke-linecap="butt" stroke-linejoin="miter" stroke-miterlimit="4" stroke-opacity="1" stroke-width="1" display="inline"/><path id="path4959" fill="url(#radialGradient4968)" fill-opacity="1" stroke="#379860" stroke-dasharray="none" stroke-miterlimit="4" stroke-opacity="1" stroke-width="1.34" d="m 5.0160387,12.464466 c 0,0.829864 -0.6727378,1.502602 -1.5026019,1.502602 -0.8298641,0 -1.5026019,-0.672738 -1.5026019,-1.502602 0,-0.829864 0.6727378,-1.502602 1.5026019,-1.502602 0.8298641,0 1.5026019,0.672738 1.5026019,1.502602 z" display="inline" transform="matrix(0.68773292,0,0,0.68773292,5.0805578,1036.2821)"/><path id="rect4816-1-1-4" fill="url(#linearGradient5065)" fill-opacity="1" stroke="none" d="m 8,1048.3622 0,0.091 0,0.9091 5,0 0,-0.9091 0,-0.091 z" display="inline"/><path id="rect4816-1-1-4-2" fill="url(#linearGradient5063)" fill-opacity="1" stroke="none" d="m 10,1044.3622 0,0.091 0,0.9091 3,0 0,-0.9091 0,-0.091 z" display="inline"/><path id="path4959-6" fill="url(#radialGradient5038)" fill-opacity="1" stroke="#379860" stroke-dasharray="none" stroke-miterlimit="4" stroke-opacity="1" stroke-width="1.34" d="m 5.0160387,12.464466 c 0,0.829864 -0.6727378,1.502602 -1.5026019,1.502602 -0.8298641,0 -1.5026019,-0.672738 -1.5026019,-1.502602 0,-0.829864 0.6727378,-1.502602 1.5026019,-1.502602 0.8298641,0 1.5026019,0.672738 1.5026019,1.502602 z" display="inline" transform="matrix(0.68773292,0,0,0.68773292,3.0805578,1040.2821)"/><path id="rect4853-82-7" fill="url(#linearGradient5062)" fill-opacity="1" stroke="none" d="m 4,1039.3622 0,12 -1,0 0,-13 z" display="inline"/><path id="rect4853-82-0" fill="url(#linearGradient4975-2)" fill-opacity="1" stroke="none" d="m 4,1039.3622 10,0 0,-1 -11,0 z" display="inline"/><path id="rect4816-1-1-4-1" fill="url(#linearGradient4190)" fill-opacity="1" stroke="none" d="m 8,1040.3622 0,0.091 0,0.9091 5,0 0,-0.9091 0,-0.091 z" display="inline"/><path id="path4959-6-4" fill="url(#radialGradient5038-5)" fill-opacity="1" stroke="#379860" stroke-dasharray="none" stroke-miterlimit="4" stroke-opacity="1" stroke-width="1.34" d="m 5.0160387,12.464466 c 0,0.829864 -0.6727378,1.502602 -1.5026019,1.502602 -0.8298641,0 -1.5026019,-0.672738 -1.5026019,-1.502602 0,-0.829864 0.6727378,-1.502602 1.5026019,-1.502602 0.8298641,0 1.5026019,0.672738 1.5026019,1.502602 z" display="inline" transform="matrix(0.68773292,0,0,0.68773292,3.0805578,1032.2821)"/></g></svg>