<svg xmlns="http://www.w3.org/2000/svg" xmlns:svg="http://www.w3.org/2000/svg" xmlns:xlink="http://www.w3.org/1999/xlink" id="svg2" width="16" height="16" version="1.1"><defs id="defs4"><linearGradient id="linearGradient4962-2"><stop id="stop4964-2" offset="0" stop-color="#f6928e" stop-opacity="1"/><stop id="stop4966-1" offset="1" stop-color="#f13f53" stop-opacity="1"/></linearGradient><linearGradient id="linearGradient4838" x1="3.563" x2="3.563" y1="11.336" y2="13.619" gradientUnits="userSpaceOnUse" xlink:href="#linearGradient4962-2"/><linearGradient id="linearGradient4962-2-7"><stop id="stop4964-2-4" offset="0" stop-color="#f6928e" stop-opacity="1"/><stop id="stop4966-1-0" offset="1" stop-color="#f13f53" stop-opacity="1"/></linearGradient><linearGradient id="linearGradient4855" x1="3.563" x2="3.563" y1="11.336" y2="13.619" gradientUnits="userSpaceOnUse" xlink:href="#linearGradient4962-2-7"/></defs><metadata id="metadata7"/><g id="layer1" display="inline" transform="translate(0,-1036.3622)"><path id="path4959-6" fill="url(#linearGradient4838)" fill-opacity="1" stroke="#c82930" stroke-dasharray="none" stroke-miterlimit="4" stroke-opacity="1" stroke-width=".752" d="m 5.0160387,12.464466 c 0,0.829864 -0.6727378,1.502602 -1.5026019,1.502602 -0.8298641,0 -1.5026019,-0.672738 -1.5026019,-1.502602 0,-0.829864 0.6727378,-1.502602 1.5026019,-1.502602 0.8298641,0 1.5026019,0.672738 1.5026019,1.502602 z" display="inline" transform="matrix(1.3289275,0,0,1.3289275,-1.1662871,1031.2903)"/><path id="path4959-6-9" fill="url(#linearGradient4855)" fill-opacity="1" stroke="#c82930" stroke-dasharray="none" stroke-miterlimit="4" stroke-opacity="1" stroke-width=".752" d="m 5.0160387,12.464466 c 0,0.829864 -0.6727378,1.502602 -1.5026019,1.502602 -0.8298641,0 -1.5026019,-0.672738 -1.5026019,-1.502602 0,-0.829864 0.6727378,-1.502602 1.5026019,-1.502602 0.8298641,0 1.5026019,0.672738 1.5026019,1.502602 z" display="inline" transform="matrix(1.3289275,0,0,1.3289275,7.833713,1024.3059)"/><path id="path4874" fill="none" stroke="#c82930" stroke-linecap="butt" stroke-linejoin="miter" stroke-opacity="1" stroke-width="1" d="m 3.4913399,9.459262 0,-5.9441167 4.0106214,4.0106215" transform="translate(0,1036.3622)"/><path id="path4874-4" fill="none" stroke="#c82930" stroke-linecap="butt" stroke-linejoin="miter" stroke-opacity="1" stroke-width="1" d="m 12.495903,1042.9267 0,5.9441 -3.0604464,-3.0383" display="inline"/><path id="path4894" fill="#801f23" fill-opacity="1" stroke="#801f23" stroke-linecap="butt" stroke-linejoin="miter" stroke-opacity="1" stroke-width="1" d="m 5.9770487,1043.8878 3.0273013,0"/><path id="path4894-8" fill="#801f23" fill-opacity="1" stroke="#801f23" stroke-linecap="butt" stroke-linejoin="miter" stroke-opacity="1" stroke-width="1" d="m 7.9770487,1045.8878 3.0273013,0" display="inline"/></g></svg>