<svg xmlns="http://www.w3.org/2000/svg" xmlns:svg="http://www.w3.org/2000/svg" xmlns:xlink="http://www.w3.org/1999/xlink" id="svg2" width="16" height="16" version="1.1"><defs id="defs4"><linearGradient id="linearGradient5068"><stop id="stop5070" offset="0" stop-color="#7593c1" stop-opacity="1"/><stop id="stop5072" offset="1" stop-color="#5a78ab" stop-opacity="1"/></linearGradient><linearGradient id="linearGradient5056"><stop id="stop5058" offset="0" stop-color="#97adce" stop-opacity="1"/><stop id="stop5066" offset=".286" stop-color="#e0e8f0" stop-opacity="1"/><stop id="stop5064" offset=".6" stop-color="#98aece" stop-opacity="1"/><stop id="stop5060" offset="1" stop-color="#7e9bca" stop-opacity="1"/></linearGradient><linearGradient id="linearGradient4898"><stop id="stop4900" offset="0" stop-color="#ffd991" stop-opacity="1"/><stop id="stop4902" offset="1" stop-color="#ffcd6f" stop-opacity="0"/></linearGradient><linearGradient id="linearGradient4846"><stop id="stop4848" offset="0" stop-color="#937e48" stop-opacity="1"/><stop id="stop4850" offset="1" stop-color="#7c724f" stop-opacity="1"/></linearGradient><linearGradient id="linearGradient4898-9"><stop id="stop4900-4" offset="0" stop-color="#ffd991" stop-opacity="1"/><stop id="stop4902-8" offset="1" stop-color="#ffcd6f" stop-opacity="0"/></linearGradient><linearGradient id="linearGradient4846-4"><stop id="stop4848-5" offset="0" stop-color="#937e48" stop-opacity="1"/><stop id="stop4850-5" offset="1" stop-color="#7c724f" stop-opacity="1"/></linearGradient><linearGradient id="linearGradient4898-7"><stop id="stop4900-6" offset="0" stop-color="#ffd991" stop-opacity="1"/><stop id="stop4902-1" offset="1" stop-color="#ffcd6f" stop-opacity="0"/></linearGradient><linearGradient id="linearGradient4846-6"><stop id="stop4848-8" offset="0" stop-color="#937e48" stop-opacity="1"/><stop id="stop4850-57" offset="1" stop-color="#7c724f" stop-opacity="1"/></linearGradient><linearGradient id="linearGradient5035" x1="5" x2="5" y1="1" y2="6" gradientTransform="translate(6,1036.3622)" gradientUnits="userSpaceOnUse" xlink:href="#linearGradient4846-6"/><linearGradient id="linearGradient5037" x1="3" x2="4" y1="1039.862" y2="1039.862" gradientTransform="translate(6,0)" gradientUnits="userSpaceOnUse" xlink:href="#linearGradient4898-7"/><linearGradient id="linearGradient5039" x1="4.577" x2="4.577" y1="1038.362" y2="1039.362" gradientTransform="translate(6,0)" gradientUnits="userSpaceOnUse" xlink:href="#linearGradient4898-7"/><linearGradient id="linearGradient5041" x1="5" x2="5" y1="1" y2="6" gradientUnits="userSpaceOnUse" xlink:href="#linearGradient4846"/><linearGradient id="linearGradient5043" x1="3" x2="4" y1="1039.862" y2="1039.862" gradientUnits="userSpaceOnUse" xlink:href="#linearGradient4898"/><linearGradient id="linearGradient5045" x1="4.577" x2="4.577" y1="1038.362" y2="1039.362" gradientUnits="userSpaceOnUse" xlink:href="#linearGradient4898"/><linearGradient id="linearGradient5047" x1="5" x2="5" y1="1" y2="6" gradientTransform="translate(0,1042.3622)" gradientUnits="userSpaceOnUse" xlink:href="#linearGradient4846-4"/><linearGradient id="linearGradient5049" x1="3" x2="4" y1="1039.862" y2="1039.862" gradientTransform="translate(0,6)" gradientUnits="userSpaceOnUse" xlink:href="#linearGradient4898-9"/><linearGradient id="linearGradient5051" x1="4.577" x2="4.577" y1="1038.362" y2="1039.362" gradientTransform="translate(0,6)" gradientUnits="userSpaceOnUse" xlink:href="#linearGradient4898-9"/><linearGradient id="linearGradient5062" x1="29.106" x2="34.041" y1="1047.914" y2="1047.914" gradientTransform="translate(-20,0)" gradientUnits="userSpaceOnUse" xlink:href="#linearGradient5056"/><linearGradient id="linearGradient5074" x1="31.231" x2="31.231" y1="1043.726" y2="1051.948" gradientTransform="translate(-20,0)" gradientUnits="userSpaceOnUse" xlink:href="#linearGradient5068"/></defs><metadata id="metadata7"/><g id="layer1" display="inline" transform="translate(0,-1036.3622)"><path id="rect5053" fill="url(#linearGradient5062)" fill-opacity="1" stroke="url(#linearGradient5074)" stroke-opacity="1" d="m 8.480719,1044.8262 c 1.744952,-1.2221 3.908043,-1.2865 6.060662,0 l 0,6.0774 c -1.417336,1.4173 -4.70998,1.3507 -6.060662,0 z"/><g id="g5023" opacity=".75"><path id="rect4035" fill="url(#linearGradient5041)" fill-opacity="1" stroke="none" d="M 2,1 2,6 7,6 7,1 2,1 z M 3,2 6,2 6,5 3,5 3,2 z" transform="translate(0,1036.3622)"/><rect id="rect4035-1" width="3" height="3" x="3" y="1038.362" fill="#f9b44d" fill-opacity="1" stroke="none" display="inline"/><path id="rect4035-1-7" fill="url(#linearGradient5043)" fill-opacity="1" stroke="none" d="m 3,1038.3622 1,1 0,2 -1,0 z" display="inline"/><path id="rect4035-1-7-4" fill="url(#linearGradient5045)" fill-opacity="1" stroke="none" d="m 3,1038.3622 1,1 2,0 0,-1 z" display="inline"/></g><g id="g5029"><path id="rect4035-17" fill="url(#linearGradient5047)" fill-opacity="1" stroke="none" d="m 2,1043.3622 0,5 5,0 0,-5 -5,0 z m 1,1 3,0 0,3 -3,0 0,-3 z" display="inline"/><rect id="rect4035-1-1" width="3" height="3" x="3" y="1044.362" fill="#f9b44d" fill-opacity="1" stroke="none" display="inline"/><path id="rect4035-1-7-1" fill="url(#linearGradient5049)" fill-opacity="1" stroke="none" d="m 3,1044.3622 1,1 0,2 -1,0 z" display="inline"/><path id="rect4035-1-7-4-5" fill="url(#linearGradient5051)" fill-opacity="1" stroke="none" d="m 3,1044.3622 1,1 2,0 0,-1 z" display="inline"/></g><g id="g5017" opacity=".5"><path id="rect4035-18" fill="url(#linearGradient5035)" fill-opacity="1" stroke="none" d="m 8,1037.3622 0,5 5,0 0,-5 -5,0 z m 1,1 3,0 0,3 -3,0 0,-3 z" display="inline"/><rect id="rect4035-1-9" width="3" height="3" x="9" y="1038.362" fill="#f9b44d" fill-opacity="1" stroke="none" display="inline"/><path id="rect4035-1-7-2" fill="url(#linearGradient5037)" fill-opacity="1" stroke="none" d="m 9,1038.3622 1,1 0,2 -1,0 z" display="inline"/><path id="rect4035-1-7-4-7" fill="url(#linearGradient5039)" fill-opacity="1" stroke="none" d="m 9,1038.3622 1,1 2,0 0,-1 z" display="inline"/></g></g></svg>