<svg xmlns="http://www.w3.org/2000/svg" xmlns:svg="http://www.w3.org/2000/svg" xmlns:xlink="http://www.w3.org/1999/xlink" id="svg2" width="16" height="16" version="1.1"><defs id="defs4"><linearGradient id="linearGradient5068"><stop id="stop5070" offset="0" stop-color="#fff" stop-opacity="1"/><stop id="stop5072" offset="1" stop-color="#fff" stop-opacity="0"/></linearGradient><linearGradient id="linearGradient4863"><stop id="stop4865" offset="0" stop-color="#ba9726" stop-opacity="1"/><stop id="stop4867" offset="1" stop-color="#997413" stop-opacity="1"/></linearGradient><linearGradient id="linearGradient4823"><stop id="stop4825" offset="0" stop-color="#fefdef" stop-opacity="1"/><stop id="stop4827" offset="1" stop-color="#fbdd83" stop-opacity="1"/></linearGradient><linearGradient id="linearGradient4815"><stop id="stop4817" offset="0" stop-color="#c7b571" stop-opacity="1"/><stop id="stop4819" offset="1" stop-color="#989891" stop-opacity="1"/></linearGradient><linearGradient id="linearGradient4753"><stop id="stop4755" offset="0" stop-color="#f9fafc" stop-opacity="1"/><stop id="stop4757" offset="1" stop-color="#dce7f7" stop-opacity="1"/></linearGradient><linearGradient id="linearGradient5618" x1=".938" x2=".938" y1="4.844" y2="7.549" gradientTransform="matrix(1.8479968,0,0,1.8479968,10.267503,1029.4109)" gradientUnits="userSpaceOnUse" xlink:href="#linearGradient4823"/><linearGradient id="linearGradient4759" x1="7.464" x2="7.464" y1="3" y2="15" gradientTransform="translate(0,1036.3622)" gradientUnits="userSpaceOnUse" xlink:href="#linearGradient4753"/><linearGradient id="linearGradient4821" x1="8" x2="8" y1="1038.362" y2="1052.362" gradientTransform="translate(-2,0)" gradientUnits="userSpaceOnUse" xlink:href="#linearGradient4815"/><linearGradient id="linearGradient4869" x1="12.578" x2="12.578" y1="1037.784" y2="1043.763" gradientUnits="userSpaceOnUse" xlink:href="#linearGradient4863"/><linearGradient id="linearGradient5074" x1="12" x2="10.008" y1="1038.362" y2="1038.347" gradientTransform="translate(-0.0078125,0.015625)" gradientUnits="userSpaceOnUse" xlink:href="#linearGradient5068"/><linearGradient id="linearGradient5076" x1="10" x2="10.008" y1="1040.362" y2="1038.347" gradientTransform="translate(-0.0078125,0.015625)" gradientUnits="userSpaceOnUse" xlink:href="#linearGradient5068"/><linearGradient id="linearGradient5078" x1="10" x2="8.008" y1="1041.362" y2="1041.347" gradientTransform="translate(-0.0078125,0.015625)" gradientUnits="userSpaceOnUse" xlink:href="#linearGradient5068"/><linearGradient id="linearGradient5080" x1="10" x2="10.008" y1="5" y2="6.984" gradientTransform="translate(-0.0078125,1036.3778)" gradientUnits="userSpaceOnUse" xlink:href="#linearGradient5068"/><linearGradient id="linearGradient5082" x1="12" x2="10.008" y1="1042.362" y2="1042.362" gradientTransform="translate(-0.0078125,0.015625)" gradientUnits="userSpaceOnUse" xlink:href="#linearGradient5068"/><linearGradient id="linearGradient5084" x1="12" x2="12" y1="1043.362" y2="1045.347" gradientTransform="translate(-0.0078125,0.015625)" gradientUnits="userSpaceOnUse" xlink:href="#linearGradient5068"/><linearGradient id="linearGradient5086" x1="13" x2="15.008" y1="1043.362" y2="1043.347" gradientTransform="translate(-0.0078125,0.015625)" gradientUnits="userSpaceOnUse" xlink:href="#linearGradient5068"/><linearGradient id="linearGradient5088" x1="14" x2="14" y1="1041.362" y2="1043.347" gradientTransform="translate(-0.0078125,0.015625)" gradientUnits="userSpaceOnUse" xlink:href="#linearGradient5068"/></defs><metadata id="metadata7"/><g id="layer1" display="inline" transform="translate(0,-1036.3622)"><path id="rect3983-9" fill="url(#linearGradient4821)" fill-opacity="1" stroke="none" d="m 3,1038.3622 0,14 11,0 0,-14 -11,0 z m 1,1 9,0 0,12 -9,0 0,-12 z" display="inline"/><rect id="rect3983" width="9" height="12" x="4" y="1039.362" fill="url(#linearGradient4759)" fill-opacity="1" stroke="none" opacity="1"/><path id="path5581-1-1" fill="url(#linearGradient5080)" fill-opacity="1" stroke="none" d="m 8,1043.3622 2,0 1.492188,-1.4844 -2.0312504,0 z" display="inline"/><path id="path5581-1" fill="url(#linearGradient4869)" fill-opacity="1" stroke="none" d="m 11.50625,1037.8466 2.01875,0 0,2.0219 1.990625,0 0,2.003 -1.990625,0 0,2.0063 -2.01875,0 0,-2.0063 -2.021875,0 0,-2.003 2.021875,0 z" display="inline"/><path id="path5581" fill="url(#linearGradient5618)" fill-opacity="1" stroke="none" d="m 12,1038.3622 1,0 0,2 2,0 0,1 -2,0 0,2 -1,0 0,-2 -2,0 0,-1 2,0 z" display="inline"/><path id="path5581-1-1-8" fill="url(#linearGradient5084)" fill-opacity="1" stroke="none" d="m 10,1045.3622 4,0 0,-1 -0.476562,-0.4844 -2.03125,0 z" display="inline"/><path id="path5581-1-1-7" fill="url(#linearGradient5086)" fill-opacity="1" stroke="none" d="m 13.523438,1041.8778 0,2 0.476562,0.4844 0,-2 z" display="inline"/><path id="path5581-1-1-6" fill="url(#linearGradient5082)" fill-opacity="1" stroke="none" d="m 10,1043.3622 0,2 1.492188,-1.4844 0,-2 z" display="inline"/><path id="path5581-1-1-1" fill="url(#linearGradient5078)" fill-opacity="1" stroke="none" d="m 8,1038.3622 0,5 1.4609376,-1.4844 0,-2 z" display="inline"/><path id="path5581-1-1-89" fill="url(#linearGradient5076)" fill-opacity="1" stroke="none" d="m 10,1038.3622 -2,0 1.4609375,1.5156 2.0312505,0 z" display="inline"/><path id="path5581-1-1-2" fill="url(#linearGradient5074)" fill-opacity="1" stroke="none" d="m 10,1038.3622 0,0 1.503907,1.5273 0,-1.5156 z" display="inline"/><path id="path5581-1-1-79" fill="url(#linearGradient5088)" fill-opacity="1" stroke="none" d="m 13.996095,1041.8778 -0.472657,0 0.476563,0.4844 -0.0039,0 z" display="inline"/></g></svg>