<svg xmlns="http://www.w3.org/2000/svg" xmlns:svg="http://www.w3.org/2000/svg" xmlns:xlink="http://www.w3.org/1999/xlink" id="svg2" width="16" height="16" version="1.1"><defs id="defs4"><linearGradient id="linearGradient7552"><stop id="stop7554" offset="0" stop-color="#c08c29" stop-opacity="1"/><stop id="stop7556" offset="1" stop-color="#b17813" stop-opacity="1"/></linearGradient><linearGradient id="linearGradient5291"><stop id="stop5293" offset="0" stop-color="#83706b" stop-opacity="1"/><stop id="stop5295" offset="1" stop-color="#83706b" stop-opacity="1"/></linearGradient><linearGradient id="linearGradient5281"><stop id="stop5283" offset="0" stop-color="#e0b575" stop-opacity="1"/><stop id="stop5289" offset=".5" stop-color="#f5ca75" stop-opacity="1"/><stop id="stop5285" offset="1" stop-color="#f5f5b5" stop-opacity="1"/></linearGradient><linearGradient id="linearGradient5287" x1="31.544" x2="31.544" y1="11.384" y2="3.946" gradientTransform="translate(-19.96875,1036.3466)" gradientUnits="userSpaceOnUse" xlink:href="#linearGradient5281"/><linearGradient id="linearGradient5297" x1="35.169" x2="35.169" y1="11.447" y2="3.579" gradientTransform="translate(-19.96875,1036.3466)" gradientUnits="userSpaceOnUse" xlink:href="#linearGradient5291"/><linearGradient id="linearGradient5109" x1="5.531" x2="14.75" y1="1044.8" y2="1044.8" gradientUnits="userSpaceOnUse" xlink:href="#linearGradient5103"/><linearGradient id="linearGradient5103"><stop id="stop5105" offset="0" stop-color="#fefdef" stop-opacity="1"/><stop id="stop7550" offset=".267" stop-color="#fef5d4" stop-opacity="1"/><stop id="stop7548" offset=".517" stop-color="#fbe08e" stop-opacity="1"/><stop id="stop5107" offset="1" stop-color="#fbdd83" stop-opacity="1"/></linearGradient><linearGradient id="linearGradient7558" x1="4.258" x2="16.469" y1="1064.831" y2="1064.831" gradientTransform="translate(0,-20)" gradientUnits="userSpaceOnUse" xlink:href="#linearGradient7552"/><mask id="mask7862" maskUnits="userSpaceOnUse"><g id="g7864"><path id="path7866" fill="#fff" fill-opacity="1" stroke="#fff" stroke-dasharray="none" stroke-miterlimit="4" stroke-opacity="1" stroke-width=".5" d="m 11.5,1039.6591 c -0.18722,10e-5 -0.383743,0.04 -0.65625,0.094 l 0,0.875 c -0.213492,0.042 -0.422114,0.072 -0.625,0.1562 -0.194391,0.083 -0.388449,0.2275 -0.5625,0.3438 l -0.625,-0.6252 c -0.462167,0.3084 -0.597312,0.4445 -0.90625,0.9062 l 0.625,0.625 c -0.121067,0.1808 -0.2597,0.3909 -0.34375,0.5938 -0.08385,0.2029 -0.113627,0.4115 -0.15625,0.625 l -0.90625,0 c -0.108682,0.5449 -0.108112,0.7362 0,1.2812 l 0.90625,0 c 0.08465,0.427 0.258374,0.8566 0.5,1.2188 l -0.625,0.5937 c 0.308933,0.4619 0.444082,0.5977 0.90625,0.9063 l 0.625,-0.5938 c 0.361804,0.2421 0.760581,0.4148 1.1875,0.5 l 0,0.875 c 0.545014,0.1081 0.76758,0.1087 1.3125,0 l 0,-0.875 c 0.426989,-0.085 0.8255,-0.2582 1.1875,-0.5 l 0.625,0.5938 c 0.46183,-0.309 0.597782,-0.4441 0.90625,-0.9063 l -0.625,-0.5937 c 0.242113,-0.3618 0.414842,-0.792 0.5,-1.2188 l 0.90625,0 c 0.108112,-0.545 0.108682,-0.7363 0,-1.2812 l -0.90625,0 c -0.08469,-0.4271 -0.258169,-0.8568 -0.5,-1.2188 l 0.625,-0.625 c -0.154067,-0.2313 -0.242615,-0.3988 -0.375,-0.5312 -0.13245,-0.1323 -0.299966,-0.2209 -0.53125,-0.375 l -0.625,0.625 c -0.361809,-0.2421 -0.760526,-0.415 -1.1875,-0.5 l 0,-0.875 c -0.27246,-0.054 -0.46903,-0.094 -0.65625,-0.094 z m 0,3.3125 c 0.500508,0 0.90625,0.4057 0.90625,0.9063 0,0.5005 -0.405742,0.9062 -0.90625,0.9062 -0.500508,0 -0.90625,-0.4057 -0.90625,-0.9062 0,-0.5006 0.405742,-0.9063 0.90625,-0.9063 z" display="inline"/></g></mask><filter id="filter7880" width="1.424" height="1.313" x="-.212" y="-.156"><feGaussianBlur id="feGaussianBlur7882" stdDeviation=".796"/></filter></defs><metadata id="metadata7"/><g id="layer1" display="inline" transform="translate(0,-1036.3622)"><path id="path4059-7-6-6" fill="url(#linearGradient5287)" fill-opacity="1" stroke="url(#linearGradient5297)" stroke-dasharray="none" stroke-miterlimit="4" stroke-opacity="1" stroke-width=".5" d="m 11.5,1039.6591 c -0.18722,10e-5 -0.383743,0.04 -0.65625,0.094 l 0,0.875 c -0.213492,0.042 -0.422114,0.072 -0.625,0.1562 -0.194391,0.083 -0.388449,0.2275 -0.5625,0.3438 l -0.625,-0.6252 c -0.462167,0.3084 -0.597312,0.4445 -0.90625,0.9062 l 0.625,0.625 c -0.121067,0.1808 -0.2597,0.3909 -0.34375,0.5938 -0.08385,0.2029 -0.113627,0.4115 -0.15625,0.625 l -0.90625,0 c -0.108682,0.5449 -0.108112,0.7362 0,1.2812 l 0.90625,0 c 0.08465,0.427 0.258374,0.8566 0.5,1.2188 l -0.625,0.5937 c 0.308933,0.4619 0.444082,0.5977 0.90625,0.9063 l 0.625,-0.5938 c 0.361804,0.2421 0.760581,0.4148 1.1875,0.5 l 0,0.875 c 0.545014,0.1081 0.76758,0.1087 1.3125,0 l 0,-0.875 c 0.426989,-0.085 0.8255,-0.2582 1.1875,-0.5 l 0.625,0.5938 c 0.46183,-0.309 0.597782,-0.4441 0.90625,-0.9063 l -0.625,-0.5937 c 0.242113,-0.3618 0.414842,-0.792 0.5,-1.2188 l 0.90625,0 c 0.108112,-0.545 0.108682,-0.7363 0,-1.2812 l -0.90625,0 c -0.08469,-0.4271 -0.258169,-0.8568 -0.5,-1.2188 l 0.625,-0.625 c -0.154067,-0.2313 -0.242615,-0.3988 -0.375,-0.5312 -0.13245,-0.1323 -0.299966,-0.2209 -0.53125,-0.375 l -0.625,0.625 c -0.361809,-0.2421 -0.760526,-0.415 -1.1875,-0.5 l 0,-0.875 c -0.27246,-0.054 -0.46903,-0.094 -0.65625,-0.094 z m 0,3.3125 c 0.500508,0 0.90625,0.4057 0.90625,0.9063 0,0.5005 -0.405742,0.9062 -0.90625,0.9062 -0.500508,0 -0.90625,-0.4057 -0.90625,-0.9062 0,-0.5006 0.405742,-0.9063 0.90625,-0.9063 z" display="inline"/><g id="g7859" mask="url(#mask7862)"><path id="path4108-1-0" fill="#fff" fill-opacity="1" stroke="#fff" stroke-dasharray="none" stroke-miterlimit="4" stroke-width="1" d="M 4.5 0 C 3.5011625 0.0006875 2.49315 0.25685 2 0.75 L 2 1.75 L 2 6 L 0.46875 6 C -0.18315 6 -0.16875 6.7409 0.46875 7.5 L 4.46875 12.21875 L 8.5 7.5 C 9.2602 6.7398 9.0203 6 8.5 6 L 7 6 L 7 1.75 L 7 0.75 C 6.5041 0.2541 5.4988375 -0.0006875 4.5 0 z" display="inline" filter="url(#filter7880)" transform="translate(0,1036.3622)"/></g><g id="layer1-7" display="inline" transform="matrix(0,1,-1,0,1049.3309,1032.1121)"><path id="path4108-1" fill="url(#linearGradient5109)" fill-opacity="1" stroke="none" d="m 5,1043.3309 0,2.9844 6.25,0 0,1.5313 3.781143,-2.9844 -3.781143,-3.0469 0,1.5156 z" display="inline"/><path id="path4108-1-6" fill="url(#linearGradient7558)" fill-opacity="1" stroke="none" d="m 10.25,1040.8153 0,1.5156 -4.25,0 -1,0 c -0.99185,0.9918 -0.986324,3.9981 0,4.9844 l 1,0 4.25,0 0,1.5313 c 0,0.6519 0.740915,0.6375 1.5,0 l 4.71875,-3.9844 -4.71875,-4.0469 c -0.760225,-0.7602 -1.5,-0.5203 -1.5,0 z m 1,1 3.78125,3.0469 -3.78125,2.9844 0,-1.5313 -5.6875,0 c -0.276214,-0.2099 -0.277444,-2.7126 0,-2.9844 l 5.6875,0 z" display="inline"/></g></g></svg>