<svg xmlns="http://www.w3.org/2000/svg" xmlns:svg="http://www.w3.org/2000/svg" xmlns:xlink="http://www.w3.org/1999/xlink" id="svg2" width="16" height="16" version="1.1"><defs id="defs4"><linearGradient id="linearGradient5275"><stop id="stop5277" offset="0" stop-color="#fce5a6" stop-opacity="1"/><stop id="stop5279" offset="1" stop-color="#f9f2db" stop-opacity="1"/></linearGradient><linearGradient id="linearGradient7263-1" x1="27.438" x2="27.438" y1="1049.035" y2="1046.44" gradientTransform="matrix(-1,0,0,-1,31.965001,2092.7307)" gradientUnits="userSpaceOnUse" xlink:href="#linearGradient7255-7"/><linearGradient id="linearGradient7255-7"><stop id="stop7257-4" offset="0" stop-color="#fce8b0" stop-opacity="1"/><stop id="stop7259-0" offset="1" stop-color="#c28a1d" stop-opacity="0"/></linearGradient><linearGradient id="linearGradient7076-1"><stop id="stop7078-7" offset="0" stop-color="#956413" stop-opacity="1"/><stop id="stop7080-11" offset="1" stop-color="#c38b1d" stop-opacity="1"/></linearGradient><linearGradient id="linearGradient5268" x1="1.138" x2="10.01" y1="1045.208" y2="1045.208" gradientTransform="matrix(0,-0.58432111,-0.58432111,0,614.70201,1051.4874)" gradientUnits="userSpaceOnUse" xlink:href="#linearGradient5275"/><linearGradient id="linearGradient5273" x1="30.125" x2="30.125" y1="1049.143" y2="1040.669" gradientTransform="matrix(-1,0,0,-1,31.965001,2092.7307)" gradientUnits="userSpaceOnUse" xlink:href="#linearGradient7076-1"/><linearGradient id="linearGradient8164-4"><stop id="stop8166-0" offset="0" stop-color="#accf8e" stop-opacity="1"/><stop id="stop8176-3" offset=".29" stop-color="#93c586" stop-opacity="1"/><stop id="stop8174-7" offset=".429" stop-color="#58ab71" stop-opacity="1"/><stop id="stop8172-8" offset=".575" stop-color="#4da766" stop-opacity="1"/><stop id="stop8178-3" offset=".708" stop-color="#61af61" stop-opacity="1"/><stop id="stop8168-1" offset="1" stop-color="#78ba5e" stop-opacity="1"/></linearGradient><linearGradient id="linearGradient8180-2"><stop id="stop8182-5" offset="0" stop-color="#36825e" stop-opacity="1"/><stop id="stop8184-7" offset="1" stop-color="#257550" stop-opacity="1"/></linearGradient><linearGradient id="linearGradient14026" x1="20.303" x2="20.303" y1="1056.022" y2="1065.103" gradientTransform="matrix(0.59667546,0,0,0.59667546,-3.1664719,408.06501)" gradientUnits="userSpaceOnUse" xlink:href="#linearGradient8164-4"/><linearGradient id="linearGradient14028" x1="21.47" x2="21.47" y1="1054.852" y2="1066.104" gradientTransform="matrix(0.59667546,0,0,0.59667546,-2.9255466,408.06501)" gradientUnits="userSpaceOnUse" xlink:href="#linearGradient8180-2"/></defs><metadata id="metadata7"/><g id="layer1" display="inline" transform="translate(0,-1036.3622)"><path id="rect3968" fill="url(#linearGradient5268)" fill-opacity="1" stroke="url(#linearGradient5273)" stroke-dasharray="none" stroke-dashoffset="0" stroke-linecap="round" stroke-linejoin="round" stroke-miterlimit="4" stroke-opacity="1" stroke-width=".584" d="m 11.9375,1051.8937 c 1.7874,0 3.46875,-1.7831 3.46875,-3.5313 l 0,-1.7187 c 0,-0.3903 -0.2972,-0.7188 -0.6875,-0.7188 l -0.53125,0 c -0.3903,0 -0.71875,0.3284 -0.71875,0.7188 l 0,0.75 c 0,2.0179 -0.50225,2.5468 -2.53125,2.5468 -0.968012,0.035 -1.9599802,0 -2.96875,0 -2.017902,0 -2.53125,-0.4866 -2.53125,-2.5156 l 0,-0.5 2.25,0 0,-1 -3.21875,-3.2187 -3.21875,3.2187 0,1 2.21875,0 0,1.5 c 0,1.7874 1.783035,3.4688 3.53125,3.4688 l 3.4375,0 0.28125,0 z" display="inline"/><path font-stretch="normal" style="text-indent:0;text-align:start;line-height:normal;text-transform:none;block-progression:tb;marker:none;-inkscape-font-specification:Sans" id="rect3968-7" fill="url(#linearGradient7263-1)" fill-opacity="1" stroke="none" stroke-width="1.5" d="m 5.152501,1049.4929 0,-2.5625 a 0.29218979,0.29218979 0 0 1 0.031,-0.125 0.29218979,0.29218979 0 0 1 0.062,-0.094 0.29218979,0.29218979 0 0 1 0.062,-0.031 0.29218979,0.29218979 0 0 1 0.125,-0.031 l 1.9687003,0 0,-0.5625 -2.9375003,-2.9375 -2.9375,2.9375 0,0.5625 1.9375,0 a 0.29218979,0.29218979 0 0 1 0.062,0 0.29218979,0.29218979 0 0 1 0.1563,0.094 0.29218979,0.29218979 0 0 1 0.031,0.062 0.29218979,0.29218979 0 0 1 0.031,0.094 0.29218979,0.29218979 0 0 1 0,0.031 l 0,2.5625 0.4687,0 0,-2.5625 a 0.750075,0.750075 0 0 0 -0.75,-0.75 l -1.4062,0 2.4062,-2.4063 2.4063,2.4063 -1.4375,0 a 0.750075,0.750075 0 0 0 -0.75,0.75 l 0,2.5625 0.4687,0 z" baseline-shift="baseline" color="#000" direction="ltr" display="inline" enable-background="accumulate" font-family="Sans" font-size="medium" font-style="normal" font-variant="normal" font-weight="normal" letter-spacing="normal" opacity=".5" overflow="visible" text-anchor="start" text-decoration="none" visibility="visible" word-spacing="normal" writing-mode="lr-tb"/><path id="path8117" fill="url(#linearGradient14026)" fill-opacity="1" stroke="url(#linearGradient14028)" stroke-dasharray="none" stroke-linejoin="round" stroke-miterlimit="4" stroke-opacity="1" stroke-width=".771" d="m 8.3965203,1037.4096 6.4339577,3.47 -6.3966655,3.4636 z" display="inline"/></g></svg>