<svg xmlns="http://www.w3.org/2000/svg" xmlns:svg="http://www.w3.org/2000/svg" xmlns:xlink="http://www.w3.org/1999/xlink" id="svg2" width="16" height="16" version="1.1"><defs id="defs4"><linearGradient id="linearGradient4919"><stop id="stop4921" offset="0" stop-color="#fff" stop-opacity="0"/><stop id="stop3792" offset=".255" stop-color="#fff" stop-opacity="1"/><stop id="stop4927" offset=".584" stop-color="#fff" stop-opacity="1"/><stop id="stop4923" offset="1" stop-color="#fff" stop-opacity="0"/></linearGradient><linearGradient id="linearGradient5118"><stop id="stop5120" offset="0" stop-color="#2f81ad" stop-opacity="1"/><stop id="stop5122" offset="1" stop-color="#a7d7f1" stop-opacity="1"/></linearGradient><radialGradient id="radialGradient5099" cx="5.531" cy="4.531" r="3.682" fx="5.531" fy="4.531" gradientTransform="matrix(1.7515315,1.7129662e-7,-5.5948986e-8,0.57208606,-4.1569089,1.9389839)" gradientUnits="userSpaceOnUse" xlink:href="#linearGradient5118"/><linearGradient id="linearGradient4925" x1="3.938" x2="7.11" y1="2.949" y2="6.121" gradientUnits="userSpaceOnUse" xlink:href="#linearGradient4919"/><linearGradient id="linearGradient3041" x1="3.938" x2="7.11" y1="2.949" y2="6.121" gradientUnits="userSpaceOnUse" xlink:href="#linearGradient4919"/><radialGradient id="radialGradient5099-1" cx="5.531" cy="4.531" r="3.682" fx="5.531" fy="4.531" gradientTransform="matrix(1.7515315,1.7129662e-7,-5.5948986e-8,0.57208606,-4.1569089,1.9389839)" gradientUnits="userSpaceOnUse" xlink:href="#linearGradient5118-1"/><linearGradient id="linearGradient5118-1"><stop id="stop5120-9" offset="0" stop-color="#2f81ad" stop-opacity="1"/><stop id="stop5122-8" offset="1" stop-color="#a7d7f1" stop-opacity="1"/></linearGradient></defs><metadata id="metadata7"/><g id="layer1" display="inline" transform="translate(0,-1036.3622)"><path id="path4108-9-1-6-7-2" fill="#fff" fill-opacity="1" stroke="none" d="m 8.6875007,4.5312495 a 3.1562502,3.1562502 0 1 1 -6.3125005,0 3.1562502,3.1562502 0 1 1 6.3125005,0 z" display="inline" transform="matrix(-1.4133662,0,0,1.4133662,16.308529,1038.4104)"/><path id="path4108-9-1-6-7" fill="url(#radialGradient5099)" fill-opacity="1" stroke="#214b6c" stroke-dasharray="none" stroke-miterlimit="4" stroke-opacity="1" stroke-width="1.052" d="m 8.6875007,4.5312495 c 0,1.7431489 -1.4131013,3.1562503 -3.1562502,3.1562503 -1.7431489,0 -3.1562503,-1.4131014 -3.1562503,-3.1562503 0,-1.7431489 1.4131014,-3.1562502 3.1562503,-3.1562502 1.7431489,0 3.1562502,1.4131013 3.1562502,3.1562502 z" display="inline" transform="matrix(-0.9612863,0,0,0.9612863,13.785865,1040.5252)"/><path id="path4108-9-1-6-7-9" fill="url(#linearGradient3041)" fill-opacity="1" stroke="none" d="m 8.6875007,4.5312495 a 3.1562502,3.1562502 0 1 1 -6.3125005,0 3.1562502,3.1562502 0 1 1 6.3125005,0 z" display="inline" transform="matrix(-1.1197502,0,0,1.1197502,14.57398,1039.8072)"/><g id="g3006" transform="translate(-0.50000002,0.21875001)"><path id="path4115-6" fill="none" stroke="#6f99c7" stroke-dasharray="none" stroke-linecap="round" stroke-linejoin="round" stroke-miterlimit="4" stroke-opacity="1" stroke-width="1" d="m 3.082298,1038.2738 11.005625,11.0057" display="inline"/><path id="path4115" fill="none" stroke="#001864" stroke-dasharray="none" stroke-linecap="round" stroke-linejoin="round" stroke-miterlimit="4" stroke-opacity="1" stroke-width="1" d="M 2.5077732,1038.8483 13.513403,1049.854"/><g id="g3899"><path id="path4115-6-7" fill="none" stroke="#fff" stroke-dasharray="none" stroke-linecap="round" stroke-linejoin="round" stroke-miterlimit="4" stroke-opacity="1" stroke-width="1" d="M 3.7505723,1037.5743 14.756197,1048.58" display="inline"/><path id="path4115-6-7-1" fill="none" stroke="#fff" stroke-dasharray="none" stroke-linecap="round" stroke-linejoin="round" stroke-miterlimit="4" stroke-opacity="1" stroke-width="1" d="m 1.7818222,1039.5118 11.0056248,11.0057" display="inline"/></g></g></g></svg>