<svg xmlns="http://www.w3.org/2000/svg" xmlns:svg="http://www.w3.org/2000/svg" xmlns:xlink="http://www.w3.org/1999/xlink" id="svg2" width="16" height="16" version="1.1"><defs id="defs4"><linearGradient id="linearGradient4809"><stop id="stop4811" offset="0" stop-color="#fff" stop-opacity="1"/><stop id="stop4813" offset="1" stop-color="#fff" stop-opacity="0"/></linearGradient><linearGradient id="linearGradient4729"><stop id="stop4731" offset="0" stop-color="#fff" stop-opacity="1"/><stop id="stop4737" offset=".5" stop-color="#fff" stop-opacity=".496"/><stop id="stop4733" offset="1" stop-color="#fff" stop-opacity="1"/></linearGradient><linearGradient id="linearGradient6642"><stop id="stop6644" offset="0" stop-color="#e83038" stop-opacity="1"/><stop id="stop6646" offset="1" stop-color="#af131a" stop-opacity="1"/></linearGradient><linearGradient id="linearGradient3976" x1="8.22" x2="8.22" y1="1043.381" y2="1049.088" gradientUnits="userSpaceOnUse" xlink:href="#linearGradient6642"/><linearGradient id="linearGradient3978" x1="7.501" x2="7.501" y1="1040.394" y2="1048.31" gradientUnits="userSpaceOnUse" xlink:href="#linearGradient4729"/><linearGradient id="linearGradient4852"><stop id="stop4854" offset="0" stop-color="#707070" stop-opacity="1"/><stop id="stop4856" offset="1" stop-color="#a0a0a0" stop-opacity="1"/></linearGradient><linearGradient id="linearGradient4844"><stop id="stop4846" offset="0" stop-color="#606060" stop-opacity="1"/><stop id="stop4848" offset="1" stop-color="#787878" stop-opacity="1"/></linearGradient><linearGradient id="linearGradient4013" x1="4.753" x2="4.753" y1="1051.047" y2="1038.581" gradientTransform="matrix(0.69136524,0,0,0.69136524,5.0240277,325.86693)" gradientUnits="userSpaceOnUse" xlink:href="#linearGradient4852"/><linearGradient id="linearGradient4015" x1="8.657" x2="8.657" y1="1050.739" y2="1037.7" gradientTransform="matrix(0.69136524,0,0,0.69136524,5.0240277,325.86693)" gradientUnits="userSpaceOnUse" xlink:href="#linearGradient4844"/><radialGradient id="radialGradient4815" cx="8.239" cy="1045.268" r="4.51" fx="8.239" fy="1045.268" gradientTransform="matrix(1,0,0,0.9996545,0,0.35996519)" gradientUnits="userSpaceOnUse" xlink:href="#linearGradient4809"/></defs><metadata id="metadata7"/><g id="layer1" display="inline" transform="translate(0,-1036.3622)"><g id="g3966" transform="matrix(0.85381076,0,0,0.84973545,-1.2248467,154.32622)"><rect color="#000" style="line-height:125%;marker:none" id="rect6562" width="9.944" height="9.988" x="2.903" y="1039.493" fill="url(#linearGradient3976)" fill-opacity="1" fill-rule="nonzero" stroke="#a81d24" stroke-dasharray="none" stroke-miterlimit="4" stroke-opacity="1" stroke-width=".6" display="inline" enable-background="accumulate" font-family="Sans" font-size="13.589" font-style="normal" font-weight="normal" letter-spacing="0" overflow="visible" rx="1.149" ry="1.149" visibility="visible" word-spacing="0"/><rect id="rect6562-9" width="7.689" height="7.653" x="4.017" y="1040.633" fill="none" stroke="url(#linearGradient3978)" stroke-dasharray="none" stroke-miterlimit="4" stroke-opacity=".692" stroke-width=".9" color="#000" display="inline" enable-background="accumulate" font-family="Sans" font-size="13.589" font-style="normal" font-weight="normal" letter-spacing="0" overflow="visible" rx=".309" ry=".309" visibility="visible" word-spacing="0" style="line-height:125%;marker:none"/></g><rect id="rect6562-94" width="9.021" height="9.017" x=".989" y="1037.355" fill="url(#radialGradient4815)" fill-opacity="1" fill-rule="nonzero" stroke="none" stroke-width=".511" color="#000" display="inline" enable-background="accumulate" font-family="Sans" font-size="13.589" font-style="normal" font-weight="normal" letter-spacing="0" overflow="visible" rx="1.258" ry="1.258" visibility="visible" word-spacing="0" style="line-height:125%;marker:none"/><path id="rect4043" fill="url(#linearGradient4013)" fill-opacity="1" stroke="url(#linearGradient4015)" stroke-dasharray="none" stroke-dashoffset="0" stroke-linecap="round" stroke-linejoin="miter" stroke-miterlimit="4" stroke-opacity="1" stroke-width=".678" d="m 14.301661,1043.9571 c -0.323687,-0.3236 -0.84483,-0.3236 -1.168501,0 l -2.152079,2.1521 -2.1520654,-2.1521 c -0.3236375,-0.3236 -0.8448303,-0.3236 -1.1684999,0 l -0.5946124,0.5948 c -0.3236551,0.3235 -0.3236469,0.8446 2.53e-5,1.1684 l 2.152028,2.1521 -2.1520312,2.1519 c -0.3237041,0.3238 -0.3236958,0.845 -9.2e-6,1.1686 l 0.5946443,0.5947 c 0.3236519,0.3236 0.844796,0.3236 1.1684997,0 l 2.1520688,-2.1521 2.167019,2.167 c 0.323652,0.3237 0.844796,0.3237 1.1685,0 l 0.594612,-0.5945 c 0.32367,-0.3238 0.320419,-0.8417 -2.5e-5,-1.1687 l -2.16702,-2.1669 2.152066,-2.152 c 0.323684,-0.3238 0.323676,-0.845 2.4e-5,-1.1685 z" display="inline"/></g></svg>