<svg xmlns="http://www.w3.org/2000/svg" xmlns:svg="http://www.w3.org/2000/svg" xmlns:xlink="http://www.w3.org/1999/xlink" id="svg2" width="16" height="16" version="1.1"><defs id="defs4"><linearGradient id="linearGradient5991"><stop id="stop5993" offset="0" stop-color="#9c6a3e" stop-opacity="1"/><stop id="stop5995" offset="1" stop-color="#c48d4f" stop-opacity="1"/></linearGradient><linearGradient id="linearGradient5981"><stop id="stop5983" offset="0" stop-color="#9c6a3e" stop-opacity="1"/><stop id="stop5985" offset="1" stop-color="#c48d4f" stop-opacity="1"/></linearGradient><linearGradient id="linearGradient5973"><stop id="stop5975" offset="0" stop-color="#ffffc7" stop-opacity="1"/><stop id="stop5977" offset=".555" stop-color="#fff1a8" stop-opacity="1"/><stop id="stop5979" offset="1" stop-color="#ffd379" stop-opacity="1"/></linearGradient><linearGradient id="linearGradient5965"><stop id="stop5967" offset="0" stop-color="#ffffc7" stop-opacity="1"/><stop id="stop5969" offset=".555" stop-color="#fff1a8" stop-opacity="1"/><stop id="stop5971" offset="1" stop-color="#ffd379" stop-opacity="1"/></linearGradient><linearGradient id="linearGradient5897" x1="-17.95" x2="-17.95" y1="1064.428" y2="1056.436" gradientTransform="matrix(-0.50533162,0,0,-0.41430567,-1.672201,1485.2614)" gradientUnits="userSpaceOnUse" xlink:href="#linearGradient5965"/><linearGradient id="linearGradient5926" x1="-17.95" x2="-17.95" y1="1064.538" y2="1056.333" gradientTransform="matrix(-0.50533162,0,0,-0.41430567,-6.5234067,1479.354)" gradientUnits="userSpaceOnUse" xlink:href="#linearGradient5973"/><linearGradient id="linearGradient5987" x1="27.119" x2="27.119" y1="1043.289" y2="1038.868" gradientTransform="translate(-21.856154,5.0823298)" gradientUnits="userSpaceOnUse" xlink:href="#linearGradient5981"/><linearGradient id="linearGradient5989" x1="22.577" x2="22.577" y1="1041.094" y2="1037.027" gradientTransform="translate(-21.723572,1.1490485)" gradientUnits="userSpaceOnUse" xlink:href="#linearGradient5991"/></defs><metadata id="metadata7"/><g id="layer1" display="inline" transform="translate(0,-1036.3622)"><g id="g8391" transform="translate(-0.13258251,0)"><path id="path4887-8-4-7-4" fill="url(#linearGradient5926)" fill-opacity="1" stroke="url(#linearGradient5989)" stroke-dasharray="none" stroke-linecap="butt" stroke-linejoin="miter" stroke-miterlimit="4" stroke-opacity="1" stroke-width="1" d="m 4.6267441,1038.5846 c 0,0 0.990421,-0.074 0.990421,0.6682 l 0,2.6113 -4.9587578,-0.011 0,-1.8168 0,-1.0528 c 0,-0.6447 0.29721,-1.0949 1.101781,-1.0813 l 0.452249,0 c 1.074957,0 1.5181598,-0.1549 1.5181598,0.6733 z" display="inline"/><g id="layer1-8-0" display="inline" transform="translate(0.00695065,-0.9965488)"><path id="rect4035-1-1-5-2-4" fill="#325fa7" fill-opacity="1" stroke="none" d="m 2.1438445,1043.3787 1.0000146,0 0,4.039 -1.0000146,0 z" display="inline"/><path id="rect4035-1-1-5-2-2-1-5" fill="#325fa7" fill-opacity="1" stroke="none" d="m 2.1438445,1046.5061 3.0000003,0 0,0.9999 -3.0000003,0 z" display="inline"/></g></g><path id="path4887-8-4-7" fill="url(#linearGradient5897)" fill-opacity="1" stroke="url(#linearGradient5987)" stroke-dasharray="none" stroke-linecap="butt" stroke-linejoin="miter" stroke-miterlimit="4" stroke-opacity="1" stroke-width="1" d="m 9.5221437,1044.492 c 0,0 0.9904223,-0.074 0.9904223,0.6682 l 0,2.6997 -5.0029522,-0.011 0,-1.9052 0,-1.0528 c 0,-0.6447 0.297209,-1.0949 1.10178,-1.0813 l 0.45225,0 c 1.0749569,0 1.5623533,-0.1549 1.5623533,0.6733 z" display="inline"/><path id="rect4035-1-1-5-2-2-1-5-0" fill="#5c7aaa" fill-opacity="1" stroke="none" d="m 11.935027,1046.4264 3.08839,0 0,0.9999 -3.08839,0 z" display="inline"/><path id="rect4035-1-1-5-2-2-1-5-0-6" fill="#5c7aaa" fill-opacity="1" stroke="none" d="m 6.9852807,1040.4159 6.0052033,0 0,0.9999 -6.0052033,0 z" display="inline"/><path id="rect4035-1-1-5-2-2-1-5-0-6-9" fill="#a4e4ff" fill-opacity="1" stroke="none" d="m 6.9852807,1039.3994 6.0052033,0 0,0.9999 -6.0052033,0 z" display="inline"/><path id="rect4035-1-1-5-2-2-1-5-0-6-9-7" fill="#a4e4ff" fill-opacity="1" stroke="none" d="m 11.935027,1045.454 3.054029,0 0,0.9999 -3.054029,0 z" display="inline"/></g></svg>