<svg xmlns="http://www.w3.org/2000/svg" xmlns:svg="http://www.w3.org/2000/svg" xmlns:xlink="http://www.w3.org/1999/xlink" id="svg2" width="16" height="16" version="1.1"><defs id="defs4"><linearGradient id="linearGradient5105"><stop id="stop5107" offset="0" stop-color="#bfb688" stop-opacity="1"/><stop id="stop5109" offset="1" stop-color="#8693ae" stop-opacity="1"/></linearGradient><linearGradient id="linearGradient5255"><stop id="stop5257" offset="0" stop-color="#f9fafc" stop-opacity="1"/><stop id="stop5259" offset="1" stop-color="#dee9f7" stop-opacity="1"/></linearGradient><linearGradient id="linearGradient4903-7-7-52"><stop id="stop4905-2-3-9" offset="0" stop-color="#ffe69f" stop-opacity="1"/><stop id="stop4911-4-9-2" offset=".415" stop-color="#ffcb2f" stop-opacity="1"/><stop id="stop4907-3-6-1" offset="1" stop-color="#fff" stop-opacity="1"/></linearGradient><linearGradient id="linearGradient18366" x1="22.879" x2="22.879" y1="1037.211" y2="1051.027" gradientTransform="matrix(1.3823084,0,0,0.98071248,-6.2406004,20.044209)" gradientUnits="userSpaceOnUse" xlink:href="#linearGradient5255"/><linearGradient id="linearGradient18368" x1="9.171" x2="9.171" y1="1036.943" y2="1051.68" gradientTransform="matrix(1.3823084,0,0,0.98071248,20.379848,20.044209)" gradientUnits="userSpaceOnUse" xlink:href="#linearGradient5105"/><linearGradient id="linearGradient20355" x1="733.184" x2="738.317" y1="727.802" y2="732.935" gradientTransform="matrix(0.72160234,0,0,0.72160234,246.54659,-1265.7937)" gradientUnits="userSpaceOnUse" xlink:href="#linearGradient4903-7-7-52"/><linearGradient id="linearGradient10798-1-9-3-7-1-15-1-7-6-1"><stop id="stop10800-5-2-1-8-2-8-1-7-3-7" offset="0" stop-color="#e17673" stop-opacity="1"/><stop id="stop10806-6-8-5-3-2-95-0-5-4-8" offset=".5" stop-color="#d04046" stop-opacity="1"/><stop id="stop10802-1-5-3-0-2-0-9-8-4-3" offset="1" stop-color="#e17673" stop-opacity="1"/></linearGradient><linearGradient id="linearGradient8163-2" x1="388.637" x2="388.637" y1="470.63" y2="465.527" gradientUnits="userSpaceOnUse" xlink:href="#linearGradient10798-1-9-3-7-1-15-1-7-6-1"/><linearGradient id="linearGradient3858" x1="385.984" x2="385.984" y1="462.57" y2="471.699" gradientUnits="userSpaceOnUse" xlink:href="#linearGradient3852"/><linearGradient id="linearGradient3852"><stop id="stop3854" offset="0" stop-color="#ff4949" stop-opacity="1"/><stop id="stop3856" offset="1" stop-color="#cb3e44" stop-opacity="1"/></linearGradient><linearGradient id="linearGradient3060" x1="385.984" x2="385.984" y1="462.57" y2="471.699" gradientUnits="userSpaceOnUse" xlink:href="#linearGradient3852"/><linearGradient id="linearGradient3060-8" x1="385.984" x2="385.984" y1="462.57" y2="471.699" gradientUnits="userSpaceOnUse" xlink:href="#linearGradient3852-6"/><linearGradient id="linearGradient3852-6"><stop id="stop3854-6" offset="0" stop-color="#ff4949" stop-opacity="1"/><stop id="stop3856-5" offset="1" stop-color="#cb3e44" stop-opacity="1"/></linearGradient><linearGradient id="linearGradient3057" x1="385.984" x2="385.984" y1="462.57" y2="471.699" gradientUnits="userSpaceOnUse" xlink:href="#linearGradient3852-6"/></defs><metadata id="metadata7"/><g id="layer1" display="inline" transform="translate(0,-1036.3622)"><g id="g8472" display="inline" transform="matrix(0.9346781,0,0,0.9346781,-14.571811,69.044514)"><g id="g10285" transform="matrix(0,1,1,0,-1019.4029,1019.4029)"><path id="rect4172-1" fill="url(#linearGradient18366)" fill-opacity="1" stroke="url(#linearGradient18368)" stroke-dasharray="none" stroke-dashoffset="0" stroke-linecap="butt" stroke-linejoin="miter" stroke-miterlimit="4" stroke-opacity="1" stroke-width="1.07" d="m 16.049309,1035.5285 16.175622,0 0,14.5775 c -1.062971,-0.5903 -4.698633,-4.1216 -7.209706,-2.3399 -2.511074,1.7815 -7.381716,3.2137 -8.965916,-1.115 z" display="inline"/><path id="path18345" fill="#adc1e1" fill-opacity="1" stroke="#a8bcde" stroke-dasharray="none" stroke-linecap="butt" stroke-linejoin="miter" stroke-miterlimit="4" stroke-opacity="1" stroke-width="1.07" d="m 23.54956,1036.0253 0,12.2625"/><rect id="rect4942" width="1.418" height="1.07" x="22.742" y="1042.646" fill="none" stroke="none"/><rect id="rect4942-1" width="1.418" height="1.07" x="22.742" y="1044.786" fill="none" stroke="none" display="inline"/><g id="g20348" transform="matrix(0.8824479,0,0,0.8824479,4.1739061,122.66787)"><rect id="rect4942-1-7" width="1.422" height="1.013" x="25.573" y="1043.461" fill="none" stroke="none" display="inline"/><rect stroke-width=".794" style="line-height:125%;marker:none" id="rect4880" width="4.851" height="4.583" x="774.856" y="-741.458" fill="url(#linearGradient20355)" fill-opacity="1" fill-rule="nonzero" stroke="#b28d22" stroke-dasharray="none" stroke-dashoffset="0" stroke-linecap="butt" stroke-linejoin="miter" stroke-miterlimit="4" stroke-opacity="1" color="#000" display="inline" enable-background="accumulate" font-family="Sans" font-size="13.589" font-style="normal" font-weight="normal" letter-spacing="0" overflow="visible" ry="1.02" transform="matrix(0.72724267,0.68638043,0.72724267,-0.68638043,0,0)" visibility="visible" word-spacing="0"/><rect color="#000" style="line-height:125%;marker:none" id="rect4880-5" width="3.583" height="3.286" x="775.439" y="-740.819" fill="none" stroke="#fff" stroke-dasharray="none" stroke-dashoffset="0" stroke-linecap="butt" stroke-linejoin="miter" stroke-miterlimit="4" stroke-opacity=".751" stroke-width=".502" display="inline" enable-background="accumulate" font-family="Sans" font-size="13.589" font-style="normal" font-weight="normal" letter-spacing="0" overflow="visible" ry=".327" transform="matrix(0.72724267,0.68638043,0.72724267,-0.68638043,0,0)" visibility="visible" word-spacing="0"/></g><path id="path18347" fill="#adc1e1" fill-opacity="1" stroke="#a8bcde" stroke-dasharray="none" stroke-linecap="butt" stroke-linejoin="miter" stroke-miterlimit="4" stroke-opacity="1" stroke-width="1.07" d="m 16.566538,1045.1615 15.173435,0"/><rect id="rect21127" width="1.337" height="17.152" x="1035.026" y="15.551" fill="#5c6884" fill-opacity="1" stroke="none" ry="0" transform="matrix(0,1,1,0,0,0)"/><path id="path10796-2-6-2-9" fill="url(#linearGradient3057)" fill-opacity="1" stroke="#a81d24" stroke-dasharray="none" stroke-dashoffset="0" stroke-linecap="round" stroke-linejoin="round" stroke-miterlimit="4" stroke-opacity="1" stroke-width="2.166" d="m 398.75,468.23718 c 0,5.86803 -4.75697,10.625 -10.625,10.625 -5.86803,0 -10.625,-4.75697 -10.625,-10.625 0,-5.86802 4.75697,-10.625 10.625,-10.625 5.86803,0 10.625,4.75698 10.625,10.625 z" display="inline" font-family="Sans" font-size="13.589" font-style="normal" font-weight="normal" letter-spacing="0" transform="matrix(0,0.21244553,0.21244553,0,-79.176068,958.58922)" word-spacing="0" style="line-height:125%"/></g><rect id="rect3819" width="8.626" height="9.662" x="15.59" y="1042.41" fill="#fff" fill-opacity="1" stroke="none"/><g id="g3047" transform="translate(-10.230795,2.4741137)"><rect id="rect4244" width="7.489" height="8.559" x="25.821" y="1041.039" fill="#d8424f" fill-opacity="1" stroke="none" display="inline"/><path font-size="7.69" style="text-indent:0;text-align:start;line-height:125%;text-transform:none;block-progression:tb;marker:none;-inkscape-font-specification:Sans" id="path4187" fill="#fff" fill-opacity="1" fill-rule="nonzero" stroke="none" stroke-width=".275" d="m 27.158346,1042.9451 0,0.1337 0,0.535 0,0.1337 0.133736,0 0.401208,0 1.27049,1.5046 -1.303924,1.6382 -0.367774,0 -0.133736,0 0,0.1337 0,0.535 0,0.1337 0.133736,0 1.60483,0 0.133736,0 0,-0.1337 0,-0.535 0,-0.1337 -0.133736,0 0.66868,-0.9027 0.668679,0.9027 -0.133736,0 0,0.1337 0,0.535 0,0.1337 0.133736,0 1.604831,0 0.133735,0 0,-0.1337 0,-0.535 0,-0.1337 -0.133735,0 -0.33434,0 -1.337359,-1.6717 1.237057,-1.4711 0.434642,0 0.133735,0 0,-0.1337 0,-0.535 0,-0.1337 -0.133735,0 -1.604831,0 -0.133736,0 0,0.1337 0,0.535 0,0.1337 0.06687,0 -0.601811,0.769 -0.601812,-0.769 0.06687,0 0,-0.1337 0,-0.535 0,-0.1337 -0.133734,0 -1.60483,0 -0.133736,0 z" baseline-shift="baseline" color="#000" direction="ltr" display="inline" enable-background="accumulate" font-family="Sans" font-stretch="normal" font-style="normal" font-variant="normal" font-weight="normal" letter-spacing="0" overflow="visible" text-anchor="start" text-decoration="none" visibility="visible" word-spacing="0" writing-mode="lr-tb"/></g></g></g></svg>