<svg xmlns="http://www.w3.org/2000/svg" xmlns:svg="http://www.w3.org/2000/svg" id="svg2" width="7" height="8" version="1.1"><metadata id="metadata7"/><g id="layer1" transform="translate(0,-1044.3622)"><rect id="rect4244" width="7" height="8" x="0" y="1044.362" fill="#d8424f" fill-opacity="1" stroke="none" display="inline"/><path font-size="7.69" style="text-indent:0;text-align:start;line-height:125%;text-transform:none;block-progression:tb;marker:none;-inkscape-font-specification:Sans" id="path4187" fill="#fff" fill-opacity="1" fill-rule="nonzero" stroke="none" stroke-width=".275" d="m 1.25,1046.1435 0,0.125 0,0.5 0,0.125 0.125,0 0.375,0 1.1875,1.4063 -1.21875,1.5312 -0.34375,0 -0.125,0 0,0.125 0,0.5 0,0.125 0.125,0 1.5,0 0.125,0 0,-0.125 0,-0.5 0,-0.125 -0.125,0 0.625,-0.8437 0.625,0.8437 -0.125,0 0,0.125 0,0.5 0,0.125 0.125,0 1.5,0 0.125,0 0,-0.125 0,-0.5 0,-0.125 -0.125,0 -0.3125,0 -1.25,-1.5625 1.15625,-1.375 0.40625,0 0.125,0 0,-0.125 0,-0.5 0,-0.125 -0.125,0 -1.5,0 -0.125,0 0,0.125 0,0.5 0,0.125 0.0625,0 -0.5625,0.7188 -0.5625,-0.7188 0.0625,0 0,-0.125 0,-0.5 0,-0.125 -0.125,0 -1.5,0 -0.125,0 z" baseline-shift="baseline" color="#000" direction="ltr" display="inline" enable-background="accumulate" font-family="Sans" font-stretch="normal" font-style="normal" font-variant="normal" font-weight="normal" letter-spacing="0" overflow="visible" text-anchor="start" text-decoration="none" visibility="visible" word-spacing="0" writing-mode="lr-tb"/></g></svg>