<svg xmlns="http://www.w3.org/2000/svg" xmlns:svg="http://www.w3.org/2000/svg" xmlns:xlink="http://www.w3.org/1999/xlink" id="svg2" width="7" height="8" version="1.1"><defs id="defs4"><linearGradient id="linearGradient5091"><stop id="stop5093" offset="0" stop-color="#c6852e" stop-opacity="1"/><stop id="stop5095" offset="1" stop-color="#e1a555" stop-opacity="1"/></linearGradient><linearGradient id="linearGradient5081"><stop id="stop5083" offset="0" stop-color="#ffe296" stop-opacity="1"/><stop id="stop5089" offset=".5" stop-color="#f8d880" stop-opacity="1"/><stop id="stop5085" offset="1" stop-color="#fffcd3" stop-opacity="1"/></linearGradient><linearGradient id="linearGradient5087" x1="3.383" x2="3.383" y1="7.016" y2=".982" gradientUnits="userSpaceOnUse" xlink:href="#linearGradient5081"/><linearGradient id="linearGradient5097" x1="6.389" x2="6.389" y1="7.237" y2=".393" gradientUnits="userSpaceOnUse" xlink:href="#linearGradient5091"/></defs><metadata id="metadata7"/><g id="layer1" display="inline" transform="translate(0,-1044.3622)"><g id="g8472" display="inline" transform="matrix(0.9346781,0,0,0.9346781,-14.571811,69.044514)"><path id="path4292" fill="url(#linearGradient5087)" fill-opacity="1" stroke="url(#linearGradient5097)" stroke-linecap="butt" stroke-linejoin="miter" stroke-opacity="1" stroke-width="1" d="M 2.8125,0.90625 0.78125,5 C 0.17522066,6.0251238 0.58843406,7.4816983 1.71875,7.5 L 3,7.5 l 1,0 1.28125,0 C 6.4115665,7.4817738 6.8247794,6.0250615 6.21875,5 L 4.1875,0.90625 c -0.2942923,-0.55673837 -1.1188077,-0.46727236 -1.375,0 z" transform="matrix(1.0698871,0,0,1.0698871,15.590192,1043.4798)"/><path id="path4253" fill="#502800" fill-opacity="1" stroke="none" d="m 4.109375,5.484375 c 0,0.345178 -0.279822,0.625 -0.625,0.625 -0.345178,0 -0.625,-0.279822 -0.625,-0.625 0,-0.345178 0.279822,-0.625 0.625,-0.625 0.345178,0 0.625,0.279822 0.625,0.625 z" transform="matrix(1.125929,0,0,1.125929,15.411638,1043.3738)"/><path id="path4253-7" fill="#502800" fill-opacity="1" stroke="none" d="m 19.350026,1045.5028 c -0.378471,0 -0.700512,0.3368 -0.700512,0.774 l 0.09137,1.4889 c 0,0.3887 0.272722,0.7037 0.609141,0.7037 0.336419,0 0.609139,-0.315 0.609139,-0.7037 l 0.06091,-1.4889 c 0,-0.4372 -0.291583,-0.774 -0.670056,-0.774 z" display="inline"/></g></g></svg>