<svg xmlns="http://www.w3.org/2000/svg" xmlns:svg="http://www.w3.org/2000/svg" xmlns:xlink="http://www.w3.org/1999/xlink" id="svg2" width="16" height="16" version="1.1"><defs id="defs4"><linearGradient id="linearGradient5328-5"><stop id="stop5330-9" offset="0" stop-color="#fff" stop-opacity="1"/><stop id="stop5332-8" offset="1" stop-color="#464646" stop-opacity="1"/></linearGradient><linearGradient id="linearGradient5209-0"><stop id="stop5211-9" offset="0" stop-color="#5c5c5c" stop-opacity="1"/><stop id="stop5213-4" offset="1" stop-color="#aeaeae" stop-opacity="1"/></linearGradient><radialGradient id="radialGradient4939" cx="7.844" cy="3.083" r="2.35" fx="7.844" fy="3.083" gradientTransform="matrix(0.43860549,0,0,0.40879915,4.4038399,1.7465522)" gradientUnits="userSpaceOnUse" xlink:href="#linearGradient5328-5"/><linearGradient id="linearGradient4941" x1="7.83" x2="7.83" y1="5.575" y2="1.504" gradientUnits="userSpaceOnUse" xlink:href="#linearGradient5209-0"/><radialGradient id="radialGradient4943" cx="7.899" cy="3.052" r="2.35" fx="7.899" fy="3.052" gradientTransform="matrix(0.57492068,0,0,0.56784337,3.3251271,1.624137)" gradientUnits="userSpaceOnUse" xlink:href="#linearGradient5328-5"/><linearGradient id="linearGradient4945" x1="7.83" x2="7.83" y1="5.968" y2="2.87" gradientUnits="userSpaceOnUse" xlink:href="#linearGradient5209-0"/><radialGradient id="radialGradient4947" cx="7.822" cy="2.527" r="2.35" fx="7.822" fy="2.527" gradientTransform="matrix(0.46051529,0,0,0.4056276,4.2200483,1.9923988)" gradientUnits="userSpaceOnUse" xlink:href="#linearGradient5328-5"/><linearGradient id="linearGradient4949" x1="7.845" x2="7.845" y1="5.653" y2="1.018" gradientUnits="userSpaceOnUse" xlink:href="#linearGradient5209-0"/><linearGradient id="linearGradient4855"><stop id="stop4857" offset="0" stop-color="#0d5c9a" stop-opacity="1"/><stop id="stop4859" offset="1" stop-color="#3583c0" stop-opacity="1"/></linearGradient><linearGradient id="linearGradient4900" x1="4.154" x2="2.342" y1="1043.866" y2="1045.921" gradientTransform="translate(0.71815532,11.215967)" gradientUnits="userSpaceOnUse" xlink:href="#linearGradient4855"/></defs><metadata id="metadata7"/><g id="layer1" display="inline" transform="translate(0,-1036.3622)"><g id="g4902" transform="translate(2.032932,-0.08838835)"><g id="g5354" display="inline" transform="translate(-12.5,-3.0124284e-7)"><path id="path5232-8" fill="#464646" fill-opacity="1" stroke="none" d="m 15.879507,1051.0355 1.0625,0 c 0,0 -0.01559,-1.2145 0,-1.6421 0.03102,-0.8506 0.735541,-1.4322 1.781631,-1.5285 l 0.56007,-1.0026 c -0.259641,0.041 -1.880308,0.1681 -2.53656,0.6184 -0.68501,0.4699 -0.867641,1.0111 -0.867641,1.5343 0,0.8495 0,2.0205 0,2.0205 z" display="inline"/><path id="path5232" fill="#464646" fill-opacity="1" stroke="none" d="m 15.879507,1040.7372 1.0625,0 c 0,0 -0.01559,0.9707 0,1.3125 0.03102,0.6799 0.757638,0.8798 1.803728,0.9568 l -0.368927,1.0914 c -0.259641,-0.033 -0.973408,-0.1594 -1.62966,-0.5193 -0.68501,-0.3756 -0.867641,-0.8082 -0.867641,-1.2264 0,-0.679 0,-1.615 0,-1.615 z"/><path id="path5232-8-6" fill="#464646" fill-opacity="1" stroke="none" d="m 24.96266,1051.0355 -1.0625,0 c 0,0 0.01559,-1.2145 0,-1.6421 -0.03102,-0.8506 -0.735542,-1.4322 -1.781631,-1.5285 l -0.670556,-1.0026 c 0.259641,0.041 1.990794,0.1681 2.647046,0.6184 0.68501,0.4699 0.867641,1.0111 0.867641,1.5343 0,0.8495 0,2.0205 0,2.0205 z" display="inline"/><rect id="rect5291" width="3.469" height=".972" x="15.203" y="1044.669" fill="#464646" fill-opacity="1" stroke="none"/><rect id="rect5291-0" width="3.469" height=".972" x="22.141" y="1044.669" fill="#464646" fill-opacity="1" stroke="none" display="inline"/><path id="path5232-0" fill="#464646" fill-opacity="1" stroke="none" d="m 25.026985,1040.7372 -1.0625,0 c 0,0 0.01559,0.9707 0,1.3125 -0.03102,0.6799 -0.757638,0.8798 -1.803728,0.9568 l 0.368927,1.0914 c 0.259641,-0.033 0.973408,-0.1594 1.62966,-0.5193 0.68501,-0.3756 0.867641,-0.8082 0.867641,-1.2264 0,-0.679 0,-1.615 0,-1.615 z" display="inline"/><g id="g5221" transform="translate(2.7545071,0)"><path id="path5160" fill="url(#radialGradient4939)" fill-opacity="1" stroke="url(#linearGradient4941)" stroke-dasharray="none" stroke-miterlimit="4" stroke-opacity="1" stroke-width=".9" d="m 9.7227181,3.7582138 c 0,1.1959806 -0.8508154,2.1655144 -1.9003495,2.1655144 -1.049534,0 -1.9003495,-0.9695338 -1.9003495,-2.1655144 0,-1.1959807 0.8508155,-2.1655145 1.9003495,-2.1655145 1.0495341,0 1.9003495,0.9695338 1.9003495,2.1655145 z" transform="translate(9.8218299,1036.1412)"/><path id="path5160-4" fill="url(#radialGradient4943)" fill-opacity="1" stroke="url(#linearGradient4945)" stroke-dasharray="none" stroke-miterlimit="4" stroke-opacity="1" stroke-width=".9" d="m 9.7227181,3.7582138 c 0,1.1959806 -0.8508154,2.1655144 -1.9003495,2.1655144 -1.049534,0 -1.9003495,-0.9695338 -1.9003495,-2.1655144 0,-1.1959807 0.8508155,-2.1655145 1.9003495,-2.1655145 1.0495341,0 1.9003495,0.9695338 1.9003495,2.1655145 z" display="inline" transform="translate(9.82183,1045.3778)"/><path id="path5160-2" fill="url(#radialGradient4947)" fill-opacity="1" stroke="url(#linearGradient4949)" stroke-dasharray="none" stroke-miterlimit="4" stroke-opacity="1" stroke-width=".9" d="m 9.7227181,3.7582138 c 0,1.1959806 -0.8508154,2.1655144 -1.9003495,2.1655144 -1.049534,0 -1.9003495,-0.9695338 -1.9003495,-2.1655144 0,-1.1959807 0.8508155,-2.1655145 1.9003495,-2.1655145 1.0495341,0 1.9003495,0.9695338 1.9003495,2.1655145 z" display="inline" transform="matrix(0.95654474,0,0,0.95654474,10.148006,1040.9638)"/></g></g></g><path id="path4085" fill="url(#linearGradient4900)" fill-opacity="1" stroke="none" d="m 0.71815532,1047.5782 3.95537858,0 0,3.9996 z" display="inline"/></g></svg>