<svg xmlns="http://www.w3.org/2000/svg" xmlns:svg="http://www.w3.org/2000/svg" id="svg2" width="16" height="16" version="1.1"><metadata id="metadata7"/><g id="layer1" display="inline" transform="translate(0,-1036.3622)"><g id="g6616"><path id="path6578" fill="none" stroke="#3d9465" stroke-dasharray="none" stroke-miterlimit="4" stroke-opacity="1" stroke-width="1.396" d="m 14.363107,7.912466 c 0,3.758796 -3.047107,6.805903 -6.8059032,6.805903 -3.7587964,0 -6.80590299,-3.047107 -6.80590299,-6.805903 0,-3.7587964 3.04710659,-6.8059029 6.80590299,-6.8059029 3.7587962,0 6.8059032,3.0471065 6.8059032,6.8059029 z" color="#000" display="inline" enable-background="accumulate" overflow="visible" transform="matrix(0.93090814,0,0,0.93090814,0.1022966,1036.8426)" visibility="visible" style="marker:none"/><path id="path6578-2" fill="none" stroke="#3d9465" stroke-dasharray="none" stroke-miterlimit="4" stroke-opacity="1" stroke-width="2.578" d="m 14.363107,7.912466 c 0,3.758796 -3.047107,6.805903 -6.8059032,6.805903 -3.7587964,0 -6.80590299,-3.047107 -6.80590299,-6.805903 0,-3.7587964 3.04710659,-6.8059029 6.80590299,-6.8059029 3.7587962,0 6.8059032,3.0471065 6.8059032,6.8059029 z" color="#000" display="inline" enable-background="accumulate" overflow="visible" transform="matrix(0.50434102,0,0,0.50434102,3.4143396,1040.3062)" visibility="visible" style="marker:none"/><path d="m 14.363107,7.912466 c 0,3.758796 -3.047107,6.805903 -6.8059032,6.805903 -3.7587964,0 -6.80590299,-3.047107 -6.80590299,-6.805903 0,-3.7587964 3.04710659,-6.8059029 6.80590299,-6.8059029 3.7587962,0 6.8059032,3.0471065 6.8059032,6.8059029 z" style="marker:none" id="path6578-2-0" fill="#20680c" fill-opacity="1" stroke="#20680c" stroke-dasharray="none" stroke-miterlimit="4" stroke-opacity="1" stroke-width="2.03" color="#000" display="inline" enable-background="accumulate" overflow="visible" transform="matrix(0.23263973,0,0,0.23263973,5.6551417,1042.2685)" visibility="visible"/></g><path id="path5122" fill="#6b8fa5" fill-opacity="1" stroke="#000f6f" stroke-linecap="butt" stroke-linejoin="miter" stroke-opacity="1" stroke-width="1" d="m 0.90625,1037.9248 13.953125,13.953" display="inline"/><path id="path5122-7" fill="#6b8fa5" fill-opacity="1" stroke="#6b7ae2" stroke-linecap="butt" stroke-linejoin="miter" stroke-opacity="1" stroke-width="1" d="m 1.5,1037.331 13.953125,13.9531" display="inline"/></g></svg>