<svg xmlns="http://www.w3.org/2000/svg" xmlns:svg="http://www.w3.org/2000/svg" xmlns:xlink="http://www.w3.org/1999/xlink" id="svg2" width="16" height="16" version="1.1"><defs id="defs4"><linearGradient id="linearGradient8656"><stop id="stop8658" offset="0" stop-color="#2b568d" stop-opacity="1"/><stop id="stop8660" offset=".5" stop-color="#5a9ccc" stop-opacity="1"/><stop id="stop8662" offset="1" stop-color="#5176a8" stop-opacity="1"/></linearGradient><linearGradient id="linearGradient8650"><stop id="stop8652" offset="0" stop-color="#55a4db" stop-opacity="1"/><stop id="stop8654" offset="1" stop-color="#d3e5f4" stop-opacity="1"/></linearGradient><linearGradient id="linearGradient8636"><stop id="stop8638" offset="0" stop-color="#a79c68" stop-opacity="1"/><stop id="stop8640" offset="1" stop-color="#6e7a8d" stop-opacity="1"/></linearGradient><linearGradient id="linearGradient13831"><stop id="stop13833" offset="0" stop-color="#055797" stop-opacity="1"/><stop id="stop13835" offset="1" stop-color="#184785" stop-opacity="1"/></linearGradient><linearGradient id="linearGradient13755"><stop id="stop13757" offset="0" stop-color="#f1fdfc" stop-opacity="1"/><stop id="stop13765" offset=".455" stop-color="#dbeff9" stop-opacity="1"/><stop id="stop13763" offset=".545" stop-color="#cee4f0" stop-opacity="1"/><stop id="stop13759" offset="1" stop-color="#def1fa" stop-opacity="1"/></linearGradient><linearGradient id="linearGradient8584" x1="28.005" x2="28.005" y1="-5.608" y2="1.609" gradientUnits="userSpaceOnUse" xlink:href="#linearGradient13755"/><linearGradient id="linearGradient8586" x1="30.034" x2="30.034" y1="-6.111" y2="1.909" gradientUnits="userSpaceOnUse" xlink:href="#linearGradient13831"/><linearGradient id="linearGradient4994-4-5"><stop id="stop4996-5-9" offset="0" stop-color="#c5dff4" stop-opacity="1"/><stop id="stop4998-5-0" offset="1" stop-color="#fff" stop-opacity="0"/></linearGradient><linearGradient id="linearGradient4910-4-0"><stop id="stop4912-8-5" offset="0" stop-color="#fff" stop-opacity="0"/><stop id="stop4914-8-1" offset="1" stop-color="#c5dff4" stop-opacity="1"/></linearGradient><linearGradient id="linearGradient8626" x1="8.014" x2="8.014" y1="1040.313" y2="1047.313" gradientTransform="translate(2.3013063,24.971698)" gradientUnits="userSpaceOnUse" xlink:href="#linearGradient8636"/><linearGradient id="linearGradient8628" x1="-13" x2="-15" y1="1047.362" y2="1047.362" gradientTransform="translate(20.220116,18.904698)" gradientUnits="userSpaceOnUse" xlink:href="#linearGradient4910-4-0"/><linearGradient id="linearGradient8630" x1="-11" x2="-11" y1="1042.362" y2="1044.362" gradientTransform="translate(20.220116,22.935898)" gradientUnits="userSpaceOnUse" xlink:href="#linearGradient4994-4-5"/><linearGradient id="linearGradient8632" x1="-11.999" x2="-5.999" y1="1038.895" y2="1038.895" gradientTransform="translate(17.220116,24.904698)" gradientUnits="userSpaceOnUse" xlink:href="#linearGradient8650"/><linearGradient id="linearGradient8634" x1="8.014" x2="8.014" y1="1039.876" y2="1041.877" gradientTransform="translate(-3.6560497,22.936198)" gradientUnits="userSpaceOnUse" xlink:href="#linearGradient8656"/><mask id="mask8789" maskUnits="userSpaceOnUse"><g id="g8791" fill="#fff" stroke="#fff" display="inline" transform="translate(-34.953207,8.004981)"><path id="path8793" fill="#fff" fill-opacity="1" stroke="#fff" stroke-dasharray="none" stroke-linecap="round" stroke-linejoin="round" stroke-miterlimit="4" stroke-opacity="1" stroke-width=".802" d="m 30,-2 c 0,2.209139 -1.790861,4 -4,4 -2.209139,0 -4,-1.790861 -4,-4 0,-2.209139 1.790861,-4 4,-4 2.209139,0 4,1.790861 4,4 z" transform="matrix(1.247029,0,0,1.247029,21.297363,1050.2608)"/><path id="path8795" fill="#fff" stroke="#fff" stroke-linecap="round" stroke-linejoin="round" stroke-opacity="1" stroke-width="1" d="m 53.750446,1047.7972 0,-2.0313"/><path id="path8797" fill="#fff" stroke="#fff" stroke-linecap="round" stroke-linejoin="round" stroke-opacity="1" stroke-width="1" d="m 53.750446,1047.7972 1.458408,2.3881" display="inline"/></g></mask><filter id="filter9575" width="1.411" height="1.32" x="-.206" y="-.16"><feGaussianBlur id="feGaussianBlur9577" stdDeviation=".6"/></filter><linearGradient id="linearGradient4901" x1="0" x2="8" y1="13.5" y2="13.5" gradientTransform="translate(0,1026.3622)" gradientUnits="userSpaceOnUse" xlink:href="#linearGradient4878-7"/><linearGradient id="linearGradient4878-7"><stop id="stop4880-4" offset="0" stop-color="#4e8fbd" stop-opacity="1"/><stop id="stop4882-0" offset="1" stop-color="#4d5a5d" stop-opacity="1"/></linearGradient><linearGradient id="linearGradient3024" x1="-2.084" x2="6.907" y1="13.5" y2="13.5" gradientTransform="matrix(0,1,1,0,8.2220685,1057.2753)" gradientUnits="userSpaceOnUse" xlink:href="#linearGradient4878-7"/><linearGradient id="linearGradient3024-1" x1="-2.084" x2="6.907" y1="13.5" y2="13.5" gradientTransform="matrix(0,1,1,0,8.2220685,1057.2753)" gradientUnits="userSpaceOnUse" xlink:href="#linearGradient4878-7-9"/><linearGradient id="linearGradient4878-7-9"><stop id="stop4880-4-7" offset="0" stop-color="#4e8fbd" stop-opacity="1"/><stop id="stop4882-0-5" offset="1" stop-color="#4d5a5d" stop-opacity="1"/></linearGradient><filter id="filter3903" width="1.36" height="1.18" x="-.18" y="-.09"><feGaussianBlur id="feGaussianBlur3905" stdDeviation=".375"/></filter></defs><metadata id="metadata7"/><g id="layer1" display="inline" transform="translate(0,-1036.3622)"><g id="g8159" display="inline" transform="translate(-8.2201163,-12.904699)"><g id="g8579" transform="translate(-34.953207,8.0049808)"><path id="path13745" fill="url(#linearGradient8584)" fill-opacity="1" stroke="url(#linearGradient8586)" stroke-dasharray="none" stroke-linecap="round" stroke-linejoin="round" stroke-miterlimit="4" stroke-opacity="1" stroke-width=".802" d="m 30,-2 c 0,2.209139 -1.790861,4 -4,4 -2.209139,0 -4,-1.790861 -4,-4 0,-2.209139 1.790861,-4 4,-4 2.209139,0 4,1.790861 4,4 z" transform="matrix(1.247029,0,0,1.247029,21.297363,1050.2608)"/><path id="path13811" fill="none" stroke="#1f4a83" stroke-linecap="round" stroke-linejoin="round" stroke-opacity="1" stroke-width="1" d="m 53.750446,1047.7972 0,-2.0313"/><path id="path13811-9" fill="none" stroke="#1f4a83" stroke-linecap="round" stroke-linejoin="round" stroke-opacity="1" stroke-width="1" d="m 53.750446,1047.7972 1.458408,2.3881" display="inline"/></g><g id="g8786" mask="url(#mask8789)"><path id="rect3997-9-1" fill="#fff" fill-opacity="1" stroke="#fff" stroke-dasharray="none" stroke-dashoffset="0" stroke-linecap="butt" stroke-linejoin="miter" stroke-miterlimit="4" stroke-opacity="1" stroke-width="2" d="m 9.720116,1054.7669 0,2.0313 7,0 0,-2.0313 -7,0 z m 0,2.0625 0,6.9375 7,0 0,-6.9375 -7,0 z" display="inline" filter="url(#filter9575)"/><path id="path4108-9-6" fill="#fff" fill-opacity="1" stroke="#fff" d="m 21.222068,1055.2753 1,0 0,7 2,0 -2.5,2.9998 -2.5,-2.9998 2,0 z" display="inline" filter="url(#filter3903)"/></g><g id="g8620" transform="translate(4.9993035,-8.0174516)"><path id="rect3997-9" fill="#f4fcff" fill-opacity="1" stroke="url(#linearGradient8626)" stroke-dashoffset="0" stroke-linecap="butt" stroke-linejoin="miter" stroke-miterlimit="4" stroke-opacity="1" stroke-width="1" d="m 4.7277893,1064.8326 7.0019247,0 0,6.9667 -7.0019247,0 z" display="inline"/><path id="rect4853-82-7" fill="url(#linearGradient8628)" fill-opacity="1" stroke="none" d="m 6.220116,1066.2658 0,5.0312 -0.9999997,0 0,-6.0312 z" display="inline"/><path id="rect4853-82-0" fill="url(#linearGradient8630)" fill-opacity="1" stroke="none" d="m 6.220116,1066.297 4.990578,0 0,-1 -5.9905777,0 z" display="inline"/><path id="rect3997-9-9" fill="url(#linearGradient8632)" fill-opacity="1" stroke="url(#linearGradient8634)" stroke-dashoffset="0" stroke-linecap="butt" stroke-linejoin="miter" stroke-miterlimit="4" stroke-opacity="1" stroke-width="1" d="m 4.7238283,1062.7971 7.0043327,0 0,2.0053 -7.0043327,0 z" display="inline"/></g><path id="text9604-8-2-9" fill="#2b568d" fill-opacity="1" stroke="#2b568d" stroke-dasharray="none" stroke-miterlimit="4" stroke-opacity="1" stroke-width=".444" d="M 3.4375 9.25 C 3.3621428 9.4023182 3.2124231 9.5568186 3.03125 9.71875 C 2.8500746 9.8806876 2.6483495 10.011168 2.40625 10.125 L 2.40625 10.53125 C 2.5409277 10.48155 2.7058496 10.411908 2.875 10.3125 C 3.0441484 10.213097 3.1770333 10.130658 3.28125 10.03125 L 3.28125 12.78125 L 3.71875 12.78125 L 3.71875 9.25 L 3.4375 9.25 z M 6 9.25 C 5.6649065 9.2500035 5.3863101 9.3260439 5.1875 9.5 C 4.9886888 9.6739626 4.8742127 9.918117 4.84375 10.25 L 5.28125 10.3125 C 5.2828526 10.091245 5.3436908 9.9063113 5.46875 9.78125 C 5.5938075 9.6561947 5.7603181 9.5937532 5.96875 9.59375 C 6.165956 9.5937532 6.3460948 9.6634096 6.46875 9.78125 C 6.5914015 9.8990964 6.656248 10.047198 6.65625 10.21875 C 6.656248 10.38229 6.5721764 10.535173 6.4375 10.71875 C 6.30282 10.902331 6.0394405 11.154502 5.65625 11.46875 C 5.4093389 11.670769 5.2244194 11.846083 5.09375 12 C 4.9630796 12.153919 4.8718223 12.310022 4.8125 12.46875 C 4.7756236 12.564949 4.7467932 12.677035 4.75 12.78125 L 7.09375 12.78125 L 7.09375 12.375 L 5.375 12.375 C 5.4230986 12.296438 5.4887467 12.202761 5.5625 12.125 C 5.6362514 12.04724 5.8027621 11.905552 6.0625 11.6875 C 6.3735411 11.424558 6.5848714 11.213213 6.71875 11.0625 C 6.8526244 10.91179 6.9422784 10.761284 7 10.625 C 7.0577168 10.488721 7.0937475 10.359844 7.09375 10.21875 C 7.0937475 9.9413796 6.9784552 9.7188407 6.78125 9.53125 C 6.5840405 9.3436658 6.3382974 9.2500035 6 9.25 z" display="inline" font-family="Arial" font-size="4.925" font-stretch="normal" font-style="normal" font-variant="normal" font-weight="normal" letter-spacing="0" text-anchor="start" transform="translate(8.2201163,1049.2669)" word-spacing="0" writing-mode="lr-tb" style="text-align:start;line-height:125%;-inkscape-font-specification:Arial"/><path id="path4108-9" fill="url(#linearGradient3024)" fill-opacity="1" stroke="none" d="m 21.222068,1055.2753 1,0 0,7 2,0 -2.5,2.9998 -2.5,-2.9998 2,0 z" display="inline"/></g></g></svg>