<svg xmlns="http://www.w3.org/2000/svg" xmlns:svg="http://www.w3.org/2000/svg" xmlns:xlink="http://www.w3.org/1999/xlink" id="svg2" width="16" height="16" version="1.1"><defs id="defs4"><linearGradient id="linearGradient4807"><stop id="stop4809" offset="0" stop-color="#9e6627" stop-opacity="1"/><stop id="stop4811" offset="1" stop-color="#bc8532" stop-opacity="1"/></linearGradient><linearGradient id="linearGradient3973"><stop id="stop3975" offset="0" stop-color="#f8d078" stop-opacity="1"/><stop id="stop3977" offset="1" stop-color="#f8f0c8" stop-opacity="1"/></linearGradient><linearGradient id="linearGradient3967"><stop id="stop3969" offset="0" stop-color="#c48a4e" stop-opacity="1"/><stop id="stop3971" offset="1" stop-color="#ad6c24" stop-opacity="1"/></linearGradient><linearGradient id="linearGradient3955"><stop id="stop3957" offset="0" stop-color="#c38536" stop-opacity="1"/><stop id="stop3959" offset=".154" stop-color="#f2dc91" stop-opacity="1"/><stop id="stop3961" offset=".5" stop-color="#fbdc8b" stop-opacity="1"/><stop id="stop3963" offset=".75" stop-color="#e6bd7a" stop-opacity="1"/><stop id="stop3965" offset="1" stop-color="#ba772f" stop-opacity="1"/></linearGradient><linearGradient id="linearGradient3949"><stop id="stop3951" offset="0" stop-color="#9e6627" stop-opacity="1"/><stop id="stop3953" offset="1" stop-color="#c38536" stop-opacity="1"/></linearGradient><linearGradient id="linearGradient3939" x1="531.093" x2="531.093" y1="366.789" y2="371.179" gradientTransform="translate(-61.366562,1.4453859)" gradientUnits="userSpaceOnUse" xlink:href="#linearGradient3967"/><linearGradient id="linearGradient3945" x1="523.008" x2="543.914" y1="373.229" y2="373.229" gradientTransform="translate(-60.558598,1.4188)" gradientUnits="userSpaceOnUse" xlink:href="#linearGradient3955"/><linearGradient id="linearGradient3973-7"><stop id="stop3975-4" offset="0" stop-color="#f8d078" stop-opacity="1"/><stop id="stop3977-0" offset="1" stop-color="#f8f0c8" stop-opacity="1"/></linearGradient><linearGradient id="linearGradient4776" x1="537.943" x2="538.833" y1="397.561" y2="381.572" gradientTransform="matrix(1,0,0,1.4165687,344.32442,-1.0061522e-6)" gradientUnits="userSpaceOnUse" xlink:href="#linearGradient3973-7"/><linearGradient id="linearGradient4778" x1="548.459" x2="548.016" y1="398.988" y2="381.198" gradientTransform="matrix(1,0,0,1.4165687,344.32442,-1.0061522e-6)" gradientUnits="userSpaceOnUse" xlink:href="#linearGradient4807"/><mask id="mask4917" maskUnits="userSpaceOnUse"><path id="path4919" fill="#fff" fill-opacity="1" stroke="#fff" stroke-dashoffset="0" stroke-linecap="round" stroke-linejoin="round" stroke-miterlimit="4" stroke-opacity="1" stroke-width="2" d="m 462.77563,373.22885 29.11636,0 c 1.45425,0 2.625,1.17075 2.625,2.625 l 0,18.76896 c 0,1.45425 -1.17412,2.52598 -2.625,2.625 l -29.11636,1.98708 c -1.45088,0.099 -2.625,-1.17075 -2.625,-2.625 l 0,-20.75604 c 0,-1.45425 1.17075,-2.625 2.625,-2.625 z" display="inline"/></mask><filter id="filter4929" width="1.275" height="1.755" x="-.138" y="-.377"><feGaussianBlur id="feGaussianBlur4931" stdDeviation="3.562"/></filter><linearGradient id="linearGradient4933" x1="538.006" x2="538.006" y1="396.223" y2="374.212" gradientTransform="translate(-60.558598,0)" gradientUnits="userSpaceOnUse" xlink:href="#linearGradient3973"/><linearGradient id="linearGradient4935" x1="548.459" x2="548.459" y1="398.988" y2="373.771" gradientTransform="translate(-60.558598,0)" gradientUnits="userSpaceOnUse" xlink:href="#linearGradient3949"/></defs><metadata id="metadata7"/><g id="layer1" display="inline" transform="translate(0,-1036.3622)"><g id="g13862" display="inline" transform="matrix(0.27903303,0,0,0.27903303,-129.51159,939.94639)"><g id="g13813" transform="matrix(1.1835826,0,0,1.1835826,-75.612218,-78.069702)"><rect id="rect13693-3" width="15" height="16.625" x="463.743" y="368.495" fill="#fdf7eb" fill-opacity="1" stroke="url(#linearGradient3939)" stroke-dasharray="none" stroke-dashoffset="0" stroke-linecap="round" stroke-linejoin="round" stroke-miterlimit="4" stroke-opacity="1" stroke-width="3.028" display="inline" rx="2.625" ry="2.625"/><path id="rect13693" fill="url(#linearGradient4933)" fill-opacity="1" stroke="url(#linearGradient4935)" stroke-dasharray="none" stroke-dashoffset="0" stroke-linecap="round" stroke-linejoin="round" stroke-miterlimit="4" stroke-opacity="1" stroke-width="3.028" d="m 463.24874,374.64819 28.07551,0 c 1.45425,0 2.625,1.17075 2.625,2.625 l 0,11.29376 c 0,1.45425 -1.22088,2.24642 -2.625,2.625 l -28.07551,7.56983 c -1.40411,0.37858 -2.625,-1.17075 -2.625,-2.625 l 0,-18.86359 c 0,-1.45425 1.17075,-2.625 2.625,-2.625 z"/><path id="path13797" fill="none" stroke="url(#linearGradient3945)" stroke-dasharray="none" stroke-linecap="butt" stroke-linejoin="miter" stroke-miterlimit="4" stroke-opacity="1" stroke-width="3.028" d="m 462.26171,374.64819 20.09375,0"/><g id="g4914" mask="url(#mask4917)"><rect id="rect13693-2-2" width="24.878" height="22.649" x="860.685" y="542.897" fill="#000" fill-opacity="1" stroke="#000" stroke-dasharray="none" stroke-dashoffset="0" stroke-linecap="round" stroke-linejoin="round" stroke-miterlimit="4" stroke-opacity="1" stroke-width="2.38" display="inline" filter="url(#filter4929)" opacity=".5" rx="2.625" ry="3.718" transform="matrix(1,0,-0.70828043,0.70593118,4.9445873e-7,0)"/></g><rect id="rect13693-2" width="30.475" height="21.378" x="860.685" y="543.567" fill="url(#linearGradient4776)" fill-opacity="1" stroke="url(#linearGradient4778)" stroke-dasharray="none" stroke-dashoffset="0" stroke-linecap="round" stroke-linejoin="round" stroke-miterlimit="4" stroke-opacity="1" stroke-width="3.604" display="inline" rx="2.625" ry="3.718" transform="matrix(1,0,-0.70828042,0.70593119,0,0)"/></g></g></g></svg>