<svg xmlns="http://www.w3.org/2000/svg" xmlns:svg="http://www.w3.org/2000/svg" xmlns:xlink="http://www.w3.org/1999/xlink" id="svg2" width="16" height="16" version="1.1"><defs id="defs4"><linearGradient id="linearGradient4968"><stop id="stop4970" offset="0" stop-color="#7792b2" stop-opacity="1"/><stop id="stop4972" offset=".159" stop-color="#a1b3cb" stop-opacity="1"/><stop id="stop4974" offset=".466" stop-color="#6180a9" stop-opacity="1"/><stop id="stop4976" offset=".744" stop-color="#a1b3cb" stop-opacity="1"/><stop id="stop4978" offset="1" stop-color="#7995b8" stop-opacity="1"/></linearGradient><linearGradient id="linearGradient4960"><stop id="stop4962" offset="0" stop-color="#fdfcfa" stop-opacity="1"/><stop id="stop4964" offset=".674" stop-color="#fff" stop-opacity=".251"/><stop id="stop4966" offset="1" stop-color="#d2e0f1" stop-opacity="0"/></linearGradient><linearGradient id="linearGradient4847"><stop id="stop4849" offset="0" stop-color="#d2e0f1" stop-opacity="1"/><stop id="stop4855" offset=".841" stop-color="#d2e0f1" stop-opacity="1"/><stop id="stop4851" offset="1" stop-color="#fcf2cf" stop-opacity="1"/></linearGradient><linearGradient id="linearGradient4825"><stop id="stop4827" offset="0" stop-color="#c7a229" stop-opacity="1"/><stop id="stop4829" offset="1" stop-color="#a07e1e" stop-opacity="1"/></linearGradient><linearGradient id="linearGradient4817"><stop id="stop4819" offset="0" stop-color="#fefdef" stop-opacity="1"/><stop id="stop4821" offset="1" stop-color="#fbdd83" stop-opacity="1"/></linearGradient><linearGradient id="linearGradient4823" x1="25.083" x2="31.932" y1="1038.872" y2="1038.872" gradientTransform="translate(-20,0)" gradientUnits="userSpaceOnUse" xlink:href="#linearGradient4817"/><linearGradient id="linearGradient4831" x1="27.425" x2="27.425" y1="1037.767" y2="1039.846" gradientTransform="translate(-20,0)" gradientUnits="userSpaceOnUse" xlink:href="#linearGradient4825"/><radialGradient id="radialGradient4853" cx="28.539" cy="1043.182" r="5.391" fx="28.539" fy="1043.182" gradientTransform="matrix(-8.4128165e-6,1.4346441,-1.6077392,-9.4278539e-6,1685.7036,1001.9661)" gradientUnits="userSpaceOnUse" xlink:href="#linearGradient4847"/><linearGradient id="linearGradient4882" x1="33.923" x2="33.923" y1="1051.258" y2="1040.46" gradientTransform="translate(-20,0)" gradientUnits="userSpaceOnUse" xlink:href="#linearGradient4968"/><radialGradient id="radialGradient4958" cx="28.553" cy="1043.123" r="5.016" fx="28.553" fy="1043.123" gradientTransform="matrix(0.88536081,0.01424168,-0.02077996,1.2918258,4.947957,-305.15187)" gradientUnits="userSpaceOnUse" xlink:href="#linearGradient4960"/></defs><metadata id="metadata7"/><g id="layer1" display="inline" transform="translate(0,-1036.3622)"><path id="rect4044" fill="url(#radialGradient4853)" fill-opacity="1" stroke="none" d="m 6.253476,1039.2695 4.507805,0 c 0.453044,1.6907 2.762136,2.5911 2.762136,5.1157 l 0,3.7565 c 0,1.5302 -1.231912,2.7621 -2.762136,2.7621 l -4.507805,0 c -1.530224,0 -2.762136,-1.2319 -2.762136,-2.7621 l 0,-3.7565 c 0,-2.5909 2.334749,-3.5207 2.762136,-5.1157 z"/><path id="rect4044-7" fill="url(#radialGradient4958)" fill-opacity="1" stroke="none" d="m 6.253476,1039.2695 4.507805,0 c 0.453044,1.6907 2.762136,2.5911 2.762136,5.1157 l 0,3.7565 c 0,1.5302 -1.231912,2.7621 -2.762136,2.7621 l -4.507805,0 c -1.530224,0 -2.762136,-1.2319 -2.762136,-2.7621 l 0,-3.7565 c 0,-2.5909 2.334749,-3.5207 2.762136,-5.1157 z" display="inline"/><path id="rect4044-1" fill="none" stroke="url(#linearGradient4882)" stroke-dashoffset="0" stroke-linecap="butt" stroke-linejoin="round" stroke-miterlimit="4" stroke-opacity="1" stroke-width=".75" d="m 6.253476,1039.2695 4.507805,0 c 0.453044,1.6907 2.762136,2.5911 2.762136,5.1157 l 0,3.7565 c 0,1.5302 -1.231912,2.7621 -2.762136,2.7621 l -4.507805,0 c -1.530224,0 -2.762136,-1.2319 -2.762136,-2.7621 l 0,-3.7565 c 0,-2.5909 2.334749,-3.5207 2.762136,-5.1157 z" display="inline"/><rect id="rect4815" width="8.22" height="2.188" x="4.397" y="1037.778" fill="url(#linearGradient4823)" fill-opacity="1" stroke="url(#linearGradient4831)" stroke-dasharray="none" stroke-dashoffset="0" stroke-linecap="butt" stroke-linejoin="round" stroke-miterlimit="4" stroke-opacity="1" stroke-width=".75" rx=".762" ry=".762"/></g></svg>