<svg xmlns="http://www.w3.org/2000/svg" xmlns:svg="http://www.w3.org/2000/svg" xmlns:xlink="http://www.w3.org/1999/xlink" id="svg2" width="16" height="16" version="1.1"><defs id="defs4"><linearGradient id="linearGradient10653"><stop id="stop10655" offset="0" stop-color="#130d08" stop-opacity="1"/><stop id="stop10657" offset="1" stop-color="#654628" stop-opacity="0"/></linearGradient><linearGradient id="linearGradient10593"><stop id="stop10595" offset="0" stop-color="#1b639e" stop-opacity="1"/><stop id="stop10597" offset="1" stop-color="#6f8db9" stop-opacity="1"/></linearGradient><linearGradient id="linearGradient9610"><stop id="stop9612" offset="0" stop-color="#b4903d" stop-opacity="1"/><stop id="stop9614" offset="1" stop-color="#7e744f" stop-opacity="1"/></linearGradient><linearGradient id="linearGradient15990"><stop id="stop15992" offset="0" stop-color="#f9fafc" stop-opacity="1"/><stop id="stop15994" offset="1" stop-color="#e0eaf8" stop-opacity="1"/></linearGradient><linearGradient id="linearGradient9568" x1="8.014" x2="8.014" y1="1035.974" y2="1049.008" gradientTransform="translate(-7.930539,1.0094674)" gradientUnits="userSpaceOnUse" xlink:href="#linearGradient9610"/><linearGradient id="linearGradient9571" x1="-3.165" x2="-3.165" y1="1030.442" y2="1041.058" gradientTransform="matrix(1.0850786,0,0,1,13.244555,8.008525)" gradientUnits="userSpaceOnUse" xlink:href="#linearGradient15990"/><linearGradient id="linearGradient10599" x1="10" x2="10" y1="10" y2="5" gradientUnits="userSpaceOnUse" xlink:href="#linearGradient10593"/><linearGradient id="linearGradient10659" x1="14" x2="14" y1="1041.362" y2="1038.362" gradientUnits="userSpaceOnUse" xlink:href="#linearGradient10653"/><linearGradient id="linearGradient10653-6"><stop id="stop10655-1" offset="0" stop-color="#130d08" stop-opacity="1"/><stop id="stop10657-8" offset="1" stop-color="#654628" stop-opacity="0"/></linearGradient><linearGradient id="linearGradient10676" x1="14" x2="14" y1="1041.362" y2="1038.362" gradientTransform="matrix(1,0,0,-1,0,2087.7244)" gradientUnits="userSpaceOnUse" xlink:href="#linearGradient10653-6"/></defs><metadata id="metadata7"/><g id="layer1" display="inline" transform="translate(0,-1036.3622)"><rect id="rect3997-9-2-7" width="11.435" height="11.454" x="1.771" y="1038.15" fill="url(#linearGradient9571)" fill-opacity="1" stroke="none" display="inline"/><rect id="rect3997-9" width="12" height="12.007" x="1.5" y="1037.862" fill="none" stroke="url(#linearGradient9568)" stroke-dasharray="none" stroke-dashoffset="0" stroke-linecap="butt" stroke-linejoin="miter" stroke-miterlimit="4" stroke-opacity="1" stroke-width="1" display="inline" rx=".491" ry=".491"/><rect id="rect18863" width="1" height="1" x="3" y="1039.362" fill="#879cc0" fill-opacity="1" stroke="none" display="inline"/><rect id="rect18863-4" width="1" height="1" x="5" y="1039.362" fill="#849abe" fill-opacity="1" stroke="none" display="inline"/><rect id="rect18863-45" width="1" height="1" x="3" y="1043.362" fill="#879cc0" fill-opacity="1" stroke="none" display="inline"/><path id="rect18863-4-5" fill="url(#linearGradient10599)" fill-opacity="1" stroke="none" d="M 5 5 L 5 10 L 6 10 L 14 10 L 15 10 L 15 9 L 15 5 L 6 5 L 5 5 z M 6 6 L 14 6 L 14 9 L 6 9 L 6 6 z" display="inline" transform="translate(0,1036.3622)"/><rect id="rect18863-45-1" width="1" height="1" x="3" y="1047.362" fill="#879cc0" fill-opacity="1" stroke="none" display="inline"/><rect id="rect18863-4-5-5" width="1" height="1" x="5" y="1047.362" fill="#849abe" fill-opacity="1" stroke="none" display="inline"/><rect id="rect18863-4-8-1-2" width="1" height="1" x="7" y="1047.362" fill="#7c91b8" fill-opacity="1" stroke="none" display="inline"/><rect id="rect18863-4-8-8-7-7" width="1" height="1" x="9" y="1047.362" fill="#7288b1" fill-opacity="1" stroke="none" display="inline"/><rect id="rect18863-4-8-8-2-1-6" width="1" height="1" x="11" y="1047.362" fill="#6a80ab" fill-opacity="1" stroke="none" display="inline"/><path id="rect18863-4-5-3" fill="#fff" fill-opacity="1" stroke="none" d="m 6,1042.3622 8,0 0,3 -8,0 0,-3 z" display="inline" opacity=".5"/><rect id="rect18863-4-8" width="1" height="1" x="7" y="1039.362" fill="#7c91b8" fill-opacity="1" stroke="none" display="inline"/><rect id="rect18863-4-8-8" width="1" height="1" x="9" y="1039.362" fill="#7288b1" fill-opacity="1" stroke="none" display="inline"/><rect id="rect18863-4-8-8-2" width="1" height="1" x="11" y="1039.362" fill="#6a80ab" fill-opacity="1" stroke="none" display="inline"/><rect id="rect18863-4-8-1" width="1" height="1" x="7" y="1043.362" fill="#4a77a8" fill-opacity="1" stroke="none" display="inline"/><rect id="rect18863-4-8-8-7" width="1" height="1" x="9" y="1043.362" fill="#4a77a8" fill-opacity="1" stroke="none" display="inline"/><rect id="rect18863-4-8-8-2-1" width="1" height="1" x="11" y="1043.362" fill="#4a77a8" fill-opacity="1" stroke="none" display="inline"/><path id="rect18863-4-5-3-5" fill="url(#linearGradient10659)" fill-opacity="1" stroke="none" d="m 13,1038.3622 1,0 0,3 -1,0 0,-3 z" display="inline" opacity=".5"/><path id="rect18863-4-5-3-5-9" fill="url(#linearGradient10676)" fill-opacity="1" stroke="none" d="m 13,1049.3622 1,0 0,-3 -1,0 0,3 z" display="inline" opacity=".5"/></g></svg>