<svg xmlns="http://www.w3.org/2000/svg" xmlns:svg="http://www.w3.org/2000/svg" xmlns:xlink="http://www.w3.org/1999/xlink" id="svg2" width="16" height="16" version="1.1"><defs id="defs4"><linearGradient id="linearGradient5139"><stop id="stop5141" offset="0" stop-color="#fbf0b4" stop-opacity="1"/><stop id="stop5143" offset="1" stop-color="#d6b429" stop-opacity="1"/></linearGradient><linearGradient id="linearGradient5133"><stop id="stop5135" offset="0" stop-color="#bea025" stop-opacity="1"/><stop id="stop5137" offset="1" stop-color="#8f6c18" stop-opacity="1"/></linearGradient><linearGradient id="linearGradient4901"><stop id="stop4903" offset="0" stop-color="#4d6ea5" stop-opacity="1"/><stop id="stop4905" offset="1" stop-color="#21397c" stop-opacity="1"/></linearGradient><linearGradient id="linearGradient4877"><stop id="stop4879" offset="0" stop-color="#c4d3e8" stop-opacity="1"/><stop id="stop4881" offset="1" stop-color="#647ead" stop-opacity="1"/></linearGradient><radialGradient id="radialGradient4883" cx="3.491" cy="2.543" r="1.29" fx="3.491" fy="2.543" gradientTransform="matrix(0.64449854,0,0,0.64449854,1.2411764,0.90399511)" gradientUnits="userSpaceOnUse" xlink:href="#linearGradient4877"/><linearGradient id="linearGradient4908" x1="2.201" x2="4.603" y1="2.543" y2="1.532" gradientUnits="userSpaceOnUse" xlink:href="#linearGradient4901"/><linearGradient id="linearGradient4887-7"><stop id="stop4889-4" offset="0" stop-color="#c4d3e8" stop-opacity="1"/><stop id="stop4891-0" offset="1" stop-color="#647ead" stop-opacity="1"/></linearGradient><linearGradient id="linearGradient4893-4"><stop id="stop4895-8" offset="0" stop-color="#5773ae" stop-opacity="1"/><stop id="stop4897-8" offset="1" stop-color="#28457e" stop-opacity="1"/></linearGradient><radialGradient id="radialGradient4975" cx="-9.382" cy="1056.691" r="2.457" fx="-9.382" fy="1056.691" gradientTransform="matrix(1.3237207,1.8264719e-5,-1.9675405e-5,1.425959,23.058052,-450.0946)" gradientUnits="userSpaceOnUse" xlink:href="#linearGradient4887-7"/><linearGradient id="linearGradient4977" x1="-10.735" x2="-6.693" y1="1056.659" y2="1053.848" gradientTransform="translate(20,0)" gradientUnits="userSpaceOnUse" xlink:href="#linearGradient4893-4"/><radialGradient id="radialGradient4975-4" cx="-9.382" cy="1056.691" r="2.457" fx="-9.382" fy="1056.691" gradientTransform="matrix(1.3237207,1.8264719e-5,-1.9675405e-5,1.425959,33.058052,-450.0946)" gradientUnits="userSpaceOnUse" xlink:href="#linearGradient4887-7-5"/><linearGradient id="linearGradient4887-7-5"><stop id="stop4889-4-5" offset="0" stop-color="#c4d3e8" stop-opacity="1"/><stop id="stop4891-0-1" offset="1" stop-color="#647ead" stop-opacity="1"/></linearGradient><linearGradient id="linearGradient4977-7" x1="-10.735" x2="-6.693" y1="1056.659" y2="1053.848" gradientTransform="translate(30,-1.1467173e-6)" gradientUnits="userSpaceOnUse" xlink:href="#linearGradient4893-4-1"/><linearGradient id="linearGradient4893-4-1"><stop id="stop4895-8-1" offset="0" stop-color="#5773ae" stop-opacity="1"/><stop id="stop4897-8-5" offset="1" stop-color="#28457e" stop-opacity="1"/></linearGradient><linearGradient id="linearGradient4877-7"><stop id="stop4879-6" offset="0" stop-color="#c4d3e8" stop-opacity="1"/><stop id="stop4881-1" offset="1" stop-color="#647ead" stop-opacity="1"/></linearGradient><linearGradient id="linearGradient4901-2"><stop id="stop4903-3" offset="0" stop-color="#4d6ea5" stop-opacity="1"/><stop id="stop4905-2" offset="1" stop-color="#21397c" stop-opacity="1"/></linearGradient><radialGradient id="radialGradient5007" cx="3.491" cy="2.543" r="1.29" fx="3.491" fy="2.543" gradientTransform="matrix(0.64449854,0,0,0.64449854,1.2411764,0.90399511)" gradientUnits="userSpaceOnUse" xlink:href="#linearGradient4877-7"/><linearGradient id="linearGradient5009" x1="2.201" x2="4.603" y1="2.543" y2="1.532" gradientUnits="userSpaceOnUse" xlink:href="#linearGradient4901-2"/><radialGradient id="radialGradient4975-4-2" cx="-9.382" cy="1056.691" r="2.457" fx="-9.382" fy="1056.691" gradientTransform="matrix(1.3237207,1.8264719e-5,-1.9675405e-5,1.425959,28.042427,-450.0946)" gradientUnits="userSpaceOnUse" xlink:href="#linearGradient4887-7-5-7"/><linearGradient id="linearGradient4887-7-5-7"><stop id="stop4889-4-5-9" offset="0" stop-color="#fbf0b4" stop-opacity="1"/><stop id="stop4891-0-1-5" offset="1" stop-color="#d6b429" stop-opacity="1"/></linearGradient><linearGradient id="linearGradient4977-7-4" x1="-10.735" x2="-6.693" y1="1056.659" y2="1053.848" gradientTransform="translate(24.984375,-1.1467173e-6)" gradientUnits="userSpaceOnUse" xlink:href="#linearGradient4893-4-1-3"/><linearGradient id="linearGradient4893-4-1-3"><stop id="stop4895-8-1-1" offset="0" stop-color="#cbab27" stop-opacity="1"/><stop id="stop4897-8-5-2" offset="1" stop-color="#8f6c18" stop-opacity="1"/></linearGradient><radialGradient id="radialGradient5084" cx="3.491" cy="2.543" r="1.29" fx="3.491" fy="2.543" gradientTransform="matrix(0.64449854,0,0,0.64449854,1.2411764,0.90399511)" gradientUnits="userSpaceOnUse" xlink:href="#linearGradient5139"/><linearGradient id="linearGradient5086" x1="2.201" x2="4.603" y1="2.543" y2="1.532" gradientUnits="userSpaceOnUse" xlink:href="#linearGradient5133"/></defs><metadata id="metadata7"/><g id="layer1" display="inline" transform="translate(0,-1036.3622)"><g id="g8159" display="inline" transform="translate(-8.2201163,-12.904699)"><text id="text4105-1" x="31.62" y="1061.287" fill="#000" fill-opacity="1" stroke="none" display="inline" font-family="Gautami" font-size="10" font-stretch="normal" font-style="normal" font-variant="normal" font-weight="normal" letter-spacing="0" text-anchor="start" word-spacing="0" writing-mode="lr" xml:space="preserve" style="text-align:start;line-height:125%;-inkscape-font-specification:Gautami"><tspan id="tspan4107-7" x="31.62" y="1061.287">Gautami</tspan></text><path id="text4105-1-1" fill="#17325d" fill-opacity="1" stroke="none" d="m 10.720116,1058.1432 c -0.519771,0 -0.9426823,0.2845 -1.2187497,0.8125 -0.2398941,0.4553 -0.3437502,1.0379 -0.34375,1.75 -2e-7,0.712 0.1038559,1.2946 0.34375,1.75 0.2760674,0.5279 0.6989787,0.7812 1.2187497,0.7812 0.519768,0 0.913333,-0.2533 1.1875,-0.7812 0.237987,-0.4554 0.343747,-1.038 0.34375,-1.75 -3e-6,-0.7121 -0.105763,-1.2947 -0.34375,-1.75 -0.274167,-0.528 -0.667732,-0.8125 -1.1875,-0.8125 z m 8,0 c -0.519771,0 -0.942682,0.2845 -1.21875,0.8125 -0.239894,0.4553 -0.34375,1.0379 -0.34375,1.75 0,0.712 0.103856,1.2946 0.34375,1.75 0.276068,0.5279 0.698979,0.7812 1.21875,0.7812 0.519768,0 0.913333,-0.2533 1.1875,-0.7812 0.237987,-0.4554 0.343747,-1.038 0.34375,-1.75 -3e-6,-0.7121 -0.105763,-1.2947 -0.34375,-1.75 -0.274167,-0.528 -0.667732,-0.8125 -1.1875,-0.8125 z m -4.1875,0.031 -0.9375,0.9063 0.40625,0.4375 0.4375,-0.4375 0,4.0625 0.6875,0 0,-4.9688 z m 8,0 -0.9375,0.9063 0.40625,0.4375 0.4375,-0.4375 0,4.0625 0.6875,0 0,-4.9688 z m -11.8125,0.5938 c 0.327472,0 0.585144,0.182 0.78125,0.5937 0.173254,0.3657 0.249998,0.8303 0.25,1.3438 -2e-6,0.5134 -0.07675,0.9467 -0.25,1.3125 -0.196106,0.4117 -0.453778,0.625 -0.78125,0.625 -0.329379,0 -0.616397,-0.2133 -0.8124997,-0.625 -0.1751613,-0.3658 -0.2500007,-0.7991 -0.25,-1.3125 -7e-7,-0.5135 0.074839,-0.9781 0.25,-1.3438 0.1961027,-0.4117 0.4831207,-0.5937 0.8124997,-0.5937 z m 8,0 c 0.327472,0 0.585144,0.182 0.78125,0.5937 0.173254,0.3657 0.249997,0.8303 0.25,1.3438 -3e-6,0.5134 -0.07675,0.9467 -0.25,1.3125 -0.196106,0.4117 -0.453778,0.625 -0.78125,0.625 -0.329379,0 -0.616397,-0.2133 -0.8125,-0.625 -0.175161,-0.3658 -0.25,-0.7991 -0.25,-1.3125 0,-0.5135 0.07484,-0.9781 0.25,-1.3438 0.196103,-0.4117 0.483121,-0.5937 0.8125,-0.5937 z" display="inline" font-family="Gautami" font-size="7.731" font-stretch="normal" font-style="normal" font-variant="normal" font-weight="normal" letter-spacing="0" text-anchor="start" word-spacing="0" writing-mode="lr-tb" style="text-align:start;line-height:125%;-inkscape-font-specification:Gautami"/><path id="path4105" fill="url(#radialGradient4883)" fill-opacity="1" stroke="url(#linearGradient4908)" stroke-dasharray="none" stroke-dashoffset="0" stroke-linecap="round" stroke-linejoin="round" stroke-miterlimit="4" stroke-opacity="1" stroke-width=".635" d="m 4.4636118,2.5428731 c 0,0.536971 -0.435301,0.9722719 -0.9722719,0.9722719 -0.5369709,0 -0.9722718,-0.4353009 -0.9722718,-0.9722719 0,-0.5369709 0.4353009,-0.9722718 0.9722718,-0.9722718 0.5369709,0 0.9722719,0.4353009 0.9722719,0.9722718 z" transform="matrix(1.1804149,0,0,1.1804149,7.590226,1048.8082)"/><path id="rect4875-2" fill="url(#radialGradient4975)" fill-opacity="1" stroke="url(#linearGradient4977)" stroke-dasharray="none" stroke-dashoffset="0" stroke-linecap="butt" stroke-linejoin="round" stroke-miterlimit="4" stroke-opacity="1" stroke-width=".75" d="m 13.813866,1057.2669 0,-1.7812 c 0,-1.0276 -0.847457,-1.875 -1.875,-1.875 l -0.4375,0 c -1.027543,0 -1.8749997,0.8474 -1.8749997,1.875 l 0,1.7812" display="inline"/><path id="path4105-2" fill="url(#radialGradient5007)" fill-opacity="1" stroke="url(#linearGradient5009)" stroke-dasharray="none" stroke-dashoffset="0" stroke-linecap="round" stroke-linejoin="round" stroke-miterlimit="4" stroke-opacity="1" stroke-width=".635" d="m 4.4636118,2.5428731 c 0,0.536971 -0.435301,0.9722719 -0.9722719,0.9722719 -0.5369709,0 -0.9722718,-0.4353009 -0.9722718,-0.9722719 0,-0.5369709 0.4353009,-0.9722718 0.9722718,-0.9722718 0.5369709,0 0.9722719,0.4353009 0.9722719,0.9722718 z" display="inline" transform="matrix(1.1804149,0,0,1.1804149,17.590226,1048.8082)"/><path id="rect4875-2-1" fill="url(#radialGradient4975-4)" fill-opacity="1" stroke="url(#linearGradient4977-7)" stroke-dasharray="none" stroke-dashoffset="0" stroke-linecap="butt" stroke-linejoin="round" stroke-miterlimit="4" stroke-opacity="1" stroke-width=".75" d="m 23.813866,1057.2669 0,-1.7812 c 0,-1.0276 -0.847457,-1.875 -1.875,-1.875 l -0.4375,0 c -1.027543,0 -1.875,0.8474 -1.875,1.875 l 0,1.7812" display="inline"/><path id="path4105-2-3" fill="url(#radialGradient5084)" fill-opacity="1" stroke="url(#linearGradient5086)" stroke-dasharray="none" stroke-dashoffset="0" stroke-linecap="round" stroke-linejoin="round" stroke-miterlimit="4" stroke-opacity="1" stroke-width=".635" d="m 4.4636118,2.5428731 c 0,0.536971 -0.435301,0.9722719 -0.9722719,0.9722719 -0.5369709,0 -0.9722718,-0.4353009 -0.9722718,-0.9722719 0,-0.5369709 0.4353009,-0.9722718 0.9722718,-0.9722718 0.5369709,0 0.9722719,0.4353009 0.9722719,0.9722718 z" display="inline" transform="matrix(1.1804149,0,0,1.1804149,12.574601,1048.8082)"/><path id="rect4875-2-1-3" fill="url(#radialGradient4975-4-2)" fill-opacity="1" stroke="url(#linearGradient4977-7-4)" stroke-dasharray="none" stroke-dashoffset="0" stroke-linecap="butt" stroke-linejoin="round" stroke-miterlimit="4" stroke-opacity="1" stroke-width=".75" d="m 18.798241,1057.2669 0,-1.7812 c 0,-1.0276 -0.847457,-1.875 -1.875,-1.875 l -0.4375,0 c -1.027543,0 -1.875,0.8474 -1.875,1.875 l 0,1.7812" display="inline"/></g></g></svg>