<svg xmlns="http://www.w3.org/2000/svg" xmlns:svg="http://www.w3.org/2000/svg" xmlns:xlink="http://www.w3.org/1999/xlink" id="svg2" width="16" height="16" version="1.1"><defs id="defs4"><linearGradient id="linearGradient4838-07-5-1"><stop id="stop4840-3-2-2" offset="0" stop-color="#4177af" stop-opacity="1"/><stop id="stop4846-52-17-4" offset=".598" stop-color="#14518f" stop-opacity="1"/><stop id="stop4842-56-0-9" offset="1" stop-color="#6ea2d8" stop-opacity="1"/></linearGradient><linearGradient id="linearGradient13741-3-5" x1="388.637" x2="388.637" y1="478.188" y2="457.955" gradientUnits="userSpaceOnUse" xlink:href="#linearGradient10798-1-9-3-7-1-15-1-7-6-1-28-0-5-8"/><linearGradient id="linearGradient10798-1-9-3-7-1-15-1-7-6-1-28-0-5-8"><stop id="stop10800-5-2-1-8-2-8-1-7-3-7-2-4-4-7" offset="0" stop-color="#4f9e55" stop-opacity="1"/><stop id="stop10806-6-8-5-3-2-95-0-5-4-8-94-0-1-8" offset=".5" stop-color="#3c8d49" stop-opacity="1"/><stop id="stop10802-1-5-3-0-2-0-9-8-4-3-4-7-6-9" offset="1" stop-color="#a4e173" stop-opacity="1"/></linearGradient><linearGradient id="linearGradient13743-6-7" x1="16.966" x2="15.634" y1="1054.691" y2="1056.289" gradientUnits="userSpaceOnUse" xlink:href="#linearGradient9276-9-4-7"/><linearGradient id="linearGradient9276-9-4-7"><stop id="stop9278-0-5-1" offset="0" stop-color="#9dd560" stop-opacity="1"/><stop id="stop9280-5-2-6" offset="1" stop-color="#499851" stop-opacity="1"/></linearGradient><linearGradient id="linearGradient17601" x1="5.875" x2="15" y1="24.688" y2="24.688" gradientTransform="matrix(1.0333065,0,0,1.0333065,-5.5682784,1021.4443)" gradientUnits="userSpaceOnUse" xlink:href="#linearGradient4838-07-5-1"/><linearGradient id="linearGradient4922-2"><stop id="stop4924-3" offset="0" stop-color="#0d5c9a" stop-opacity="1"/><stop id="stop4926-7" offset="1" stop-color="#4077a7" stop-opacity="1"/></linearGradient><linearGradient id="linearGradient19869" x1="8.5" x2="7" y1="1048.893" y2="1050.362" gradientTransform="matrix(1,0,0,-1,6.9999999,2100.0146)" gradientUnits="userSpaceOnUse" xlink:href="#linearGradient4922-2"/><mask id="mask19970" maskUnits="userSpaceOnUse"><path id="path19972" fill="#fff" fill-opacity="1" fill-rule="nonzero" stroke="#fff" stroke-dasharray="none" stroke-dashoffset="0" stroke-linecap="butt" stroke-linejoin="miter" stroke-miterlimit="4" stroke-opacity="1" stroke-width=".5" d="m -2.4748735,9.7465248 a 4.3089318,4.3089318 0 1 1 -8.6178635,0 4.3089318,4.3089318 0 1 1 8.6178635,0 z" color="#000" display="inline" enable-background="accumulate" overflow="visible" transform="matrix(1.2065384,0,0,1.2065384,15.710162,1030.1032)" visibility="visible" style="marker:none"/></mask><filter id="filter20746" width="1.48" height="1.48" x="-.24" y="-.24"><feGaussianBlur id="feGaussianBlur20748" stdDeviation="1.324"/></filter></defs><metadata id="metadata7"/><g id="layer1" display="inline" transform="translate(0,-1036.3622)"><g id="g17594" transform="matrix(1.2065384,0,0,1.2065384,1.2248827,-221.37405)"><path id="path6139" fill="#fff" fill-opacity="1" fill-rule="nonzero" stroke="#3784be" stroke-dasharray="none" stroke-dashoffset="0" stroke-linecap="butt" stroke-linejoin="miter" stroke-miterlimit="4" stroke-opacity="1" stroke-width=".5" d="m -2.4748735,9.7465248 c 0,2.3797572 -1.9291745,4.3089322 -4.3089319,4.3089322 -2.3797573,0 -4.3089316,-1.929175 -4.3089316,-4.3089322 0,-2.3797573 1.9291743,-4.3089318 4.3089316,-4.3089318 2.3797574,0 4.3089319,1.9291745 4.3089319,4.3089318 z" color="#000" display="inline" enable-background="accumulate" overflow="visible" transform="translate(12.005651,1037.2461)" visibility="visible" style="marker:none"/><path d="m 5.216858,1042.4979 c -0.436143,0 -0.861017,0.077 -1.259342,0.1937 l 0.516653,0.6782 0.839562,1.0655 0.807271,-1.0655 0.516653,-0.6136 c -0.446184,-0.1501 -0.924009,-0.2583 -1.420797,-0.2583 z m -2.195776,0.6136 c -0.747196,0.4267 -1.348234,1.0416 -1.743705,1.8083 l 0.678108,0.097 1.323924,0.1615 -0.161454,-1.324 -0.09687,-0.7426 z m 4.391553,0 -0.09687,0.7426 -0.161454,1.324 1.356215,-0.1615 0.645817,-0.064 c -0.395006,-0.778 -0.988302,-1.409 -1.743705,-1.8405 z m -6.458166,2.5832 c -0.116895,0.3983 -0.193745,0.8232 -0.193745,1.2593 0,0.4503 0.101739,0.882 0.226036,1.2917 l 0.548944,-0.4521 1.065597,-0.8072 -1.065597,-0.8396 z m 8.524779,0.032 -0.548944,0.4198 -1.065598,0.8396 1.065598,0.8072 0.516653,0.4198 c 0.118617,-0.401 0.226036,-0.8199 0.226036,-1.2594 0,-0.4253 -0.08236,-0.8375 -0.193745,-1.227 z m -6.199839,3.0677 -1.323924,0.1614 -0.645817,0.064 c 0.395954,0.7492 0.977064,1.3565 1.711414,1.7761 l 0.09687,-0.6782 0.161454,-1.3239 z m 3.874899,0 0.161454,1.3238 0.09687,0.6782 c 0.73435,-0.4195 1.31546,-1.0269 1.711414,-1.7761 l -0.613526,-0.064 c -0.451932,-0.054 -0.905156,-0.108 -1.356215,-0.1619 z m -1.840577,0.7426 -0.839562,1.0333 -0.484362,0.6458 c 0.389576,0.1114 0.801707,0.1938 1.227051,0.1938 0.482666,0 0.95327,-0.084 1.388506,-0.226 l -0.484362,-0.6136 z" style="marker:none" id="path6139-5" fill="url(#linearGradient17601)" fill-opacity="1" fill-rule="nonzero" stroke="none" stroke-width=".2" color="#000" display="inline" enable-background="accumulate" overflow="visible" visibility="visible"/><path id="rect9436" fill="#ffffd5" fill-opacity="1" fill-rule="nonzero" stroke="#384e6e" stroke-dasharray="none" stroke-dashoffset="0" stroke-linecap="butt" stroke-linejoin="miter" stroke-miterlimit="4" stroke-opacity="1" stroke-width=".5" d="m 0.524759,1042.9675 3.79253,5.2259 c 0,0 1.216807,0.4672 1.684108,-1e-4 l 0.19297,-0.193 c 0.467299,-0.4673 -8e-6,-1.6841 -8e-6,-1.6841 z m 4.055643,3.5242 c 0.376798,-0.3768 0.991528,-0.3769 1.368362,0 0.376788,0.3767 0.376773,0.9914 -2.5e-5,1.3682 -0.376798,0.3769 -0.991507,0.3769 -1.368294,0 -0.376855,-0.3768 -0.376841,-0.9915 -4.3e-5,-1.3682 z" color="#000" display="inline" enable-background="accumulate" overflow="visible" visibility="visible" style="marker:none"/></g><g id="g19963" mask="url(#mask19970)"><g id="layer1-0-8-7" fill="#fff" stroke="#fff" stroke-dasharray="none" stroke-miterlimit="4" stroke-width="3.54" display="inline" filter="url(#filter20746)" transform="matrix(0.56502437,0,0,0.56502437,7.4012139,454.22542)"><g id="g8159-2-9-9" fill="#fff" stroke="#fff" stroke-dasharray="none" stroke-miterlimit="4" stroke-width="3.54" display="inline" transform="translate(-8.2201167,-12.904699)"><path id="path10796-2-6-0-3-1-0" fill="#fff" fill-opacity="1" stroke="#fff" stroke-dasharray="none" stroke-miterlimit="4" stroke-width="5.682" d="m 398.75,468.23718 c 0,5.86803 -4.75697,10.625 -10.625,10.625 -5.86803,0 -10.625,-4.75697 -10.625,-10.625 0,-5.86802 4.75697,-10.625 10.625,-10.625 5.86803,0 10.625,4.75698 10.625,10.625 z" display="inline" transform="matrix(0.62300696,0,0,0.62300696,-225.45273,765.59692)"/><path id="path8117-2-7-8" fill="#fff" fill-opacity="1" stroke="#fff" stroke-dasharray="none" stroke-miterlimit="4" stroke-opacity="1" stroke-width="3.54" d="m 14.039346,1052.2494 6.0625,5.1875 -6,5.0625 z" display="inline"/><path id="path10796-2-6-0-5-3-5" fill="#fff" stroke="#fff" stroke-dasharray="none" stroke-dashoffset="0" stroke-linecap="round" stroke-linejoin="round" stroke-miterlimit="4" stroke-opacity="1" stroke-width="5.682" d="m 398.75,468.23718 c 0,5.86803 -4.75697,10.625 -10.625,10.625 -5.86803,0 -10.625,-4.75697 -10.625,-10.625 0,-5.86802 4.75697,-10.625 10.625,-10.625 5.86803,0 10.625,4.75698 10.625,10.625 z" display="inline" transform="matrix(0.62300696,0,0,0.62300696,-225.45273,765.59692)"/></g></g></g><g id="layer1-0-8" display="inline" transform="matrix(0.56502437,0,0,0.56502437,7.4012139,454.22542)"><g id="g8159-2-9" display="inline" transform="translate(-8.2201167,-12.904699)"><path id="path10796-2-6-0-3-1" fill="url(#linearGradient13741-3-5)" fill-opacity="1" stroke="none" d="m 398.75,468.23718 c 0,5.86803 -4.75697,10.625 -10.625,10.625 -5.86803,0 -10.625,-4.75697 -10.625,-10.625 0,-5.86802 4.75697,-10.625 10.625,-10.625 5.86803,0 10.625,4.75698 10.625,10.625 z" display="inline" transform="matrix(0.62300696,0,0,0.62300696,-225.45273,765.59692)"/><path id="path8117-2-7" fill="#fff" fill-opacity="1" stroke="url(#linearGradient13743-6-7)" stroke-dasharray="none" stroke-miterlimit="4" stroke-opacity="1" stroke-width=".646" d="m 14.039346,1052.2494 6.0625,5.1875 -6,5.0625 z" display="inline"/><path id="path10796-2-6-0-5-3" fill="none" stroke="#14733c" stroke-dasharray="none" stroke-dashoffset="0" stroke-linecap="round" stroke-linejoin="round" stroke-miterlimit="4" stroke-opacity="1" stroke-width="1.5" d="m 398.75,468.23718 c 0,5.86803 -4.75697,10.625 -10.625,10.625 -5.86803,0 -10.625,-4.75697 -10.625,-10.625 0,-5.86802 4.75697,-10.625 10.625,-10.625 5.86803,0 10.625,4.75698 10.625,10.625 z" display="inline" transform="matrix(0.62300696,0,0,0.62300696,-225.45273,765.59692)"/></g></g><path id="path4920" fill="url(#linearGradient19869)" fill-opacity="1" stroke="none" d="m 11.75,1051.6524 4.25,0 0,-4.2813 z" display="inline"/></g></svg>