<svg xmlns="http://www.w3.org/2000/svg" xmlns:svg="http://www.w3.org/2000/svg" xmlns:xlink="http://www.w3.org/1999/xlink" id="svg2" width="16" height="16" version="1.1"><defs id="defs4"><linearGradient id="linearGradient4735" x1="7.501" x2="7.501" y1="1040.394" y2="1048.31" gradientUnits="userSpaceOnUse" xlink:href="#linearGradient4729"/><linearGradient id="linearGradient6648" x1="8.22" x2="8.22" y1="1043.381" y2="1049.088" gradientUnits="userSpaceOnUse" xlink:href="#linearGradient6642"/><linearGradient id="linearGradient6642"><stop id="stop6644" offset="0" stop-color="#e83038" stop-opacity="1"/><stop id="stop6646" offset="1" stop-color="#af131a" stop-opacity="1"/></linearGradient><linearGradient id="linearGradient4729"><stop id="stop4731" offset="0" stop-color="#fff" stop-opacity="1"/><stop id="stop4737" offset=".5" stop-color="#fff" stop-opacity=".496"/><stop id="stop4733" offset="1" stop-color="#fff" stop-opacity="1"/></linearGradient><linearGradient id="linearGradient5297-3" x1="35.169" x2="35.169" y1="11.447" y2="3.579" gradientTransform="translate(-21,1035.8789)" gradientUnits="userSpaceOnUse" xlink:href="#linearGradient5291-52"/><linearGradient id="linearGradient5287-2" x1="31.544" x2="31.544" y1="11.384" y2="3.946" gradientTransform="translate(-21,1035.8789)" gradientUnits="userSpaceOnUse" xlink:href="#linearGradient5281-6"/><linearGradient id="linearGradient5281-6"><stop id="stop5283-8" offset="0" stop-color="#df9f3f" stop-opacity="1"/><stop id="stop5289-8" offset=".5" stop-color="#ffbf3f" stop-opacity="1"/><stop id="stop5285-2" offset="1" stop-color="#ffff9f" stop-opacity="1"/></linearGradient><linearGradient id="linearGradient5291-52"><stop id="stop5293-3" offset="0" stop-color="#543830" stop-opacity="1"/><stop id="stop5295-1" offset="1" stop-color="#543830" stop-opacity="1"/></linearGradient><mask id="mask24783" maskUnits="userSpaceOnUse"><g id="g24785" fill="#fff" stroke="#fff" display="inline" transform="matrix(1.5170908,0,0,1.5170908,1.1165606,-546.03399)"><path id="path24787" fill="#fff" fill-opacity="1" stroke="#fff" stroke-dasharray="none" stroke-miterlimit="4" stroke-opacity="1" stroke-width=".5" d="m 10.46875,1039.1914 c -0.18722,0 -0.383743,0.04 -0.65625,0.094 l 0,0.875 c -0.213492,0.042 -0.422114,0.072 -0.625,0.156 -0.194391,0.083 -0.388449,0.2273 -0.5625,0.344 L 8,1040.0352 c -0.462167,0.308 -0.597312,0.4445 -0.90625,0.9059 l 0.625,0.625 c -0.121067,0.1811 -0.2597,0.3912 -0.34375,0.5941 -0.08385,0.2029 -0.113627,0.4113 -0.15625,0.625 l -0.90625,0 c -0.108682,0.5449 -0.108112,0.7362 0,1.2809 l 0.90625,0 c 0.08465,0.4266 0.258374,0.8569 0.5,1.2191 l -0.625,0.5934 c 0.308933,0.4619 0.444082,0.5978 0.90625,0.9066 l 0.625,-0.5941 c 0.361804,0.2418 0.760581,0.4148 1.1875,0.5 l 0,0.875 c 0.545014,0.1078 0.76758,0.1087 1.3125,0 l 0,-0.875 c 0.426989,-0.085 0.8255,-0.2582 1.1875,-0.5 l 0.625,0.5941 c 0.46183,-0.309 0.597782,-0.4441 0.90625,-0.9066 l -0.625,-0.5934 c 0.242113,-0.3618 0.414842,-0.792 0.5,-1.2191 l 0.90625,0 c 0.108112,-0.5453 0.108682,-0.7364 0,-1.2809 l -0.90625,0 c -0.08469,-0.4275 -0.258169,-0.8568 -0.5,-1.2191 l 0.625,-0.625 c -0.154067,-0.231 -0.242615,-0.3986 -0.375,-0.5309 -0.13245,-0.1323 -0.299966,-0.2209 -0.53125,-0.375 l -0.625,0.625 c -0.361809,-0.2421 -0.760526,-0.415 -1.1875,-0.5 l 0,-0.875 c -0.27246,-0.054 -0.46903,-0.094 -0.65625,-0.094 z m 0,3.3125 c 0.500508,0 0.90625,0.4057 0.90625,0.9063 0,0.5005 -0.405742,0.9062 -0.90625,0.9062 -0.500508,0 -0.90625,-0.4058 -0.90625,-0.9062 0,-0.5006 0.405742,-0.9063 0.90625,-0.9063 z" display="inline"/></g></mask><filter id="filter25567" width="1.361" height="1.359" x="-.18" y="-.18"><feGaussianBlur id="feGaussianBlur25569" stdDeviation=".747"/></filter></defs><metadata id="metadata7"/><g id="layer1" display="inline" transform="translate(0,-1036.3622)"><g id="layer1-2" display="inline" transform="translate(0.029507,-0.56308167)"><path id="path4059-7-6-6-6" fill="url(#linearGradient5287-2)" fill-opacity="1" stroke="url(#linearGradient5297-3)" stroke-dasharray="none" stroke-miterlimit="4" stroke-opacity="1" stroke-width=".75" d="m 10.46875,1039.1914 c -0.18722,0 -0.383743,0.04 -0.65625,0.094 l 0,0.875 c -0.213492,0.042 -0.422114,0.072 -0.625,0.156 -0.194391,0.083 -0.388449,0.2273 -0.5625,0.344 L 8,1040.0352 c -0.462167,0.308 -0.597312,0.4445 -0.90625,0.9059 l 0.625,0.625 c -0.121067,0.1811 -0.2597,0.3912 -0.34375,0.5941 -0.08385,0.2029 -0.113627,0.4113 -0.15625,0.625 l -0.90625,0 c -0.108682,0.5449 -0.108112,0.7362 0,1.2809 l 0.90625,0 c 0.08465,0.4266 0.258374,0.8569 0.5,1.2191 l -0.625,0.5934 c 0.308933,0.4619 0.444082,0.5978 0.90625,0.9066 l 0.625,-0.5941 c 0.361804,0.2418 0.760581,0.4148 1.1875,0.5 l 0,0.875 c 0.545014,0.1078 0.76758,0.1087 1.3125,0 l 0,-0.875 c 0.426989,-0.085 0.8255,-0.2582 1.1875,-0.5 l 0.625,0.5941 c 0.46183,-0.309 0.597782,-0.4441 0.90625,-0.9066 l -0.625,-0.5934 c 0.242113,-0.3618 0.414842,-0.792 0.5,-1.2191 l 0.90625,0 c 0.108112,-0.5453 0.108682,-0.7364 0,-1.2809 l -0.90625,0 c -0.08469,-0.4275 -0.258169,-0.8568 -0.5,-1.2191 l 0.625,-0.625 c -0.154067,-0.231 -0.242615,-0.3986 -0.375,-0.5309 -0.13245,-0.1323 -0.299966,-0.2209 -0.53125,-0.375 l -0.625,0.625 c -0.361809,-0.2421 -0.760526,-0.415 -1.1875,-0.5 l 0,-0.875 c -0.27246,-0.054 -0.46903,-0.094 -0.65625,-0.094 z m 0,3.3125 c 0.500508,0 0.90625,0.4057 0.90625,0.9063 0,0.5005 -0.405742,0.9062 -0.90625,0.9062 -0.500508,0 -0.90625,-0.4058 -0.90625,-0.9062 0,-0.5006 0.405742,-0.9063 0.90625,-0.9063 z" display="inline"/></g><g id="layer1-3-3" fill="#fff" stroke="#fff" display="inline" mask="url(#mask24783)" transform="matrix(0.65915631,0,0,0.65915631,-0.70648095,359.35867)"><g id="g24789" stroke="#fff" stroke-dasharray="none" stroke-miterlimit="4" stroke-width="1.517" filter="url(#filter25567)"><rect color="#000" style="line-height:125%;marker:none" id="rect6562-5" width="9.944" height="9.988" x="2.903" y="1039.493" fill="#fff" fill-opacity="1" fill-rule="nonzero" stroke="#fff" stroke-dasharray="none" stroke-miterlimit="4" stroke-opacity="1" stroke-width="1.517" display="inline" enable-background="accumulate" font-family="Sans" font-size="13.589" font-style="normal" font-weight="normal" letter-spacing="0" overflow="visible" rx="1.149" ry="1.149" visibility="visible" word-spacing="0"/><rect id="rect6562-9-6" width="7.689" height="7.653" x="4.017" y="1040.633" fill="#fff" stroke="#fff" stroke-dasharray="none" stroke-miterlimit="4" stroke-opacity=".692" stroke-width="1.517" color="#000" display="inline" enable-background="accumulate" font-family="Sans" font-size="13.589" font-style="normal" font-weight="normal" letter-spacing="0" overflow="visible" rx=".309" ry=".309" visibility="visible" word-spacing="0" style="line-height:125%;marker:none"/></g></g><g id="layer1-3" display="inline" transform="matrix(0.65915631,0,0,0.65915631,-0.70648093,359.35867)"><rect color="#000" style="line-height:125%;marker:none" id="rect6562" width="9.944" height="9.988" x="2.903" y="1039.493" fill="url(#linearGradient6648)" fill-opacity="1" fill-rule="nonzero" stroke="#a81d24" stroke-dasharray="none" stroke-miterlimit="4" stroke-opacity="1" stroke-width=".6" display="inline" enable-background="accumulate" font-family="Sans" font-size="13.589" font-style="normal" font-weight="normal" letter-spacing="0" overflow="visible" rx="1.149" ry="1.149" visibility="visible" word-spacing="0"/><rect id="rect6562-9" width="7.689" height="7.653" x="4.017" y="1040.633" fill="none" stroke="url(#linearGradient4735)" stroke-dasharray="none" stroke-miterlimit="4" stroke-opacity=".692" stroke-width=".9" color="#000" display="inline" enable-background="accumulate" font-family="Sans" font-size="13.589" font-style="normal" font-weight="normal" letter-spacing="0" overflow="visible" rx=".309" ry=".309" visibility="visible" word-spacing="0" style="line-height:125%;marker:none"/></g></g></svg>