<svg xmlns="http://www.w3.org/2000/svg" xmlns:svg="http://www.w3.org/2000/svg" xmlns:xlink="http://www.w3.org/1999/xlink" id="svg2" width="16" height="16" version="1.1"><defs id="defs4"><linearGradient id="linearGradient3821"><stop id="stop3823" offset="0" stop-color="#6e7a8e" stop-opacity="1"/><stop id="stop3825" offset="1" stop-color="#a79c68" stop-opacity="1"/></linearGradient><linearGradient id="linearGradient3813"><stop id="stop3815" offset="0" stop-color="#55a4db" stop-opacity="1"/><stop id="stop3817" offset="1" stop-color="#c7e0f5" stop-opacity="1"/></linearGradient><linearGradient id="linearGradient3797"><stop id="stop3799" offset="0" stop-color="#2b568d" stop-opacity="1"/><stop id="stop3801" offset="1" stop-color="#5176a8" stop-opacity="1"/></linearGradient><linearGradient id="linearGradient13831"><stop id="stop13833" offset="0" stop-color="#055797" stop-opacity="1"/><stop id="stop13835" offset="1" stop-color="#184785" stop-opacity="1"/></linearGradient><linearGradient id="linearGradient13755"><stop id="stop13757" offset="0" stop-color="#f1fdfc" stop-opacity="1"/><stop id="stop13765" offset=".455" stop-color="#dbeff9" stop-opacity="1"/><stop id="stop13763" offset=".545" stop-color="#cee4f0" stop-opacity="1"/><stop id="stop13759" offset="1" stop-color="#def1fa" stop-opacity="1"/></linearGradient><linearGradient id="linearGradient8584" x1="28.005" x2="28.005" y1="-5.608" y2="1.609" gradientUnits="userSpaceOnUse" xlink:href="#linearGradient13755"/><linearGradient id="linearGradient8586" x1="30.034" x2="30.034" y1="-6.111" y2="1.909" gradientUnits="userSpaceOnUse" xlink:href="#linearGradient13831"/><linearGradient id="linearGradient3803" x1="9.257" x2="17.349" y1="1054.268" y2="1054.268" gradientUnits="userSpaceOnUse" xlink:href="#linearGradient3797"/><linearGradient id="linearGradient3819" x1="9.226" x2="17.22" y1="1055.768" y2="1055.768" gradientUnits="userSpaceOnUse" xlink:href="#linearGradient3813"/><linearGradient id="linearGradient3827" x1="13.376" x2="13.376" y1="1064.095" y2="1057.189" gradientUnits="userSpaceOnUse" xlink:href="#linearGradient3821"/><linearGradient id="linearGradient3827-0" x1="13.376" x2="13.376" y1="1064.095" y2="1057.189" gradientUnits="userSpaceOnUse" xlink:href="#linearGradient3821-8"/><linearGradient id="linearGradient3821-8"><stop id="stop3823-0" offset="0" stop-color="#6e7a8e" stop-opacity="1"/><stop id="stop3825-4" offset="1" stop-color="#a79c68" stop-opacity="1"/></linearGradient><linearGradient id="linearGradient13755-7"><stop id="stop13757-5" offset="0" stop-color="#f1fdfc" stop-opacity="1"/><stop id="stop13765-2" offset=".455" stop-color="#dbeff9" stop-opacity="1"/><stop id="stop13763-2" offset=".545" stop-color="#cee4f0" stop-opacity="1"/><stop id="stop13759-3" offset="1" stop-color="#def1fa" stop-opacity="1"/></linearGradient><filter id="filter3952" width="1.274" height="1.214" x="-.137" y="-.107"><feGaussianBlur id="feGaussianBlur3954" stdDeviation=".399"/></filter><mask id="mask3959" maskUnits="userSpaceOnUse"><g id="g3961" fill="#fff" stroke="#fff" display="inline" transform="translate(-34.986137,7.993719)"><path id="path3963" fill="#fff" fill-opacity="1" stroke="#fff" stroke-dasharray="none" stroke-linecap="round" stroke-linejoin="round" stroke-miterlimit="4" stroke-opacity="1" stroke-width=".802" d="m 30,-2 c 0,2.209139 -1.790861,4 -4,4 -2.209139,0 -4,-1.790861 -4,-4 0,-2.209139 1.790861,-4 4,-4 2.209139,0 4,1.790861 4,4 z" transform="matrix(1.247029,0,0,1.247029,21.297363,1050.2608)"/><path id="path3965" fill="#fff" stroke="#fff" stroke-linecap="round" stroke-linejoin="round" stroke-opacity="1" stroke-width="1" d="m 53.750446,1047.7972 0,-2.0313"/><path id="path3967" fill="#fff" stroke="#fff" stroke-linecap="round" stroke-linejoin="round" stroke-opacity="1" stroke-width="1" d="m 53.750446,1047.7972 1.458408,2.3881" display="inline"/></g></mask></defs><metadata id="metadata7"/><g id="layer1" display="inline" transform="translate(0,-1036.3622)"><g id="g8159" display="inline" transform="translate(-8.2201163,-12.904699)"><g id="g8579" transform="translate(-34.986137,7.9937193)"><path id="path13745" fill="url(#linearGradient8584)" fill-opacity="1" stroke="url(#linearGradient8586)" stroke-dasharray="none" stroke-linecap="round" stroke-linejoin="round" stroke-miterlimit="4" stroke-opacity="1" stroke-width=".802" d="m 30,-2 c 0,2.209139 -1.790861,4 -4,4 -2.209139,0 -4,-1.790861 -4,-4 0,-2.209139 1.790861,-4 4,-4 2.209139,0 4,1.790861 4,4 z" transform="matrix(1.247029,0,0,1.247029,21.297363,1050.2608)"/><path id="path13811" fill="none" stroke="#1f4a83" stroke-linecap="round" stroke-linejoin="round" stroke-opacity="1" stroke-width="1" d="m 53.750446,1047.7972 0,-2.0313"/><path id="path13811-9" fill="none" stroke="#1f4a83" stroke-linecap="round" stroke-linejoin="round" stroke-opacity="1" stroke-width="1" d="m 53.750446,1047.7972 1.458408,2.3881" display="inline"/></g><g id="g3956" mask="url(#mask3959)" opacity=".75"><path id="rect3009-7-6" fill="#fff" fill-opacity="1" stroke="#fff" stroke-dasharray="none" stroke-linecap="round" stroke-linejoin="miter" stroke-miterlimit="4" stroke-opacity="1" stroke-width="2" d="M 1.5 5.5 L 1.5 7.5 L 1.5 14.46875 L 8.5 14.46875 L 8.5 7.5 L 8.5 5.5 L 1.5 5.5 z" display="inline" filter="url(#filter3952)" transform="translate(8.2201163,1049.2669)"/></g><rect id="rect3009-7" width="7" height="8.969" x="9.72" y="1054.767" fill="#ebf9ff" fill-opacity="1" stroke="url(#linearGradient3827)" stroke-dasharray="none" stroke-linecap="round" stroke-linejoin="miter" stroke-miterlimit="4" stroke-opacity="1" stroke-width="1" display="inline"/><rect id="rect3009" width="6.994" height="1.997" x="9.726" y="1054.77" fill="url(#linearGradient3819)" fill-opacity="1" stroke="url(#linearGradient3803)" stroke-dasharray="none" stroke-linecap="round" stroke-linejoin="miter" stroke-miterlimit="4" stroke-opacity="1" stroke-width="1"/><path id="path3829" fill="none" stroke="#2b568d" stroke-linecap="butt" stroke-linejoin="miter" stroke-opacity="1" stroke-width="1" d="m 11.720115,1058.2747 0,3.9922"/><path id="path3831" fill="none" stroke="#2b568d" stroke-linecap="butt" stroke-linejoin="miter" stroke-opacity="1" stroke-width="1" d="m 13.216193,1058.7606 1.502602,0 0,0.9489 -0.99319,1.1104 0,0.946 1.512472,0"/></g></g></svg>