<svg xmlns="http://www.w3.org/2000/svg" xmlns:svg="http://www.w3.org/2000/svg" xmlns:xlink="http://www.w3.org/1999/xlink" id="svg2" width="7" height="8" version="1.1"><defs id="defs4"><linearGradient id="linearGradient3032"><stop id="stop3034" offset="0" stop-color="#005388" stop-opacity="1"/><stop id="stop3036" offset="1" stop-color="#000f6f" stop-opacity="1"/></linearGradient><linearGradient id="linearGradient5109-0-1" x1="7.596" x2="13.631" y1="1045.211" y2="1044.863" gradientTransform="translate(18.955863,0.17983643)" gradientUnits="userSpaceOnUse" xlink:href="#linearGradient5103-3-7"/><linearGradient id="linearGradient5103-3-7"><stop id="stop5105-5-4" offset="0" stop-color="#b3ffc6" stop-opacity="1"/><stop id="stop7550-07-0" offset=".267" stop-color="#93e8c0" stop-opacity="1"/><stop id="stop7548-6-9" offset=".517" stop-color="#69b5b5" stop-opacity="1"/><stop id="stop5107-7-48" offset="1" stop-color="#1c5ea6" stop-opacity="1"/></linearGradient><linearGradient id="linearGradient6319" x1="11.418" x2="11.418" y1="1067.173" y2="1063.019" gradientTransform="translate(19.911612,-20)" gradientUnits="userSpaceOnUse" xlink:href="#linearGradient6354"/><linearGradient id="linearGradient6354"><stop id="stop6356" offset="0" stop-color="#6994ad" stop-opacity="1"/><stop id="stop6358" offset="1" stop-color="#095a98" stop-opacity="1"/></linearGradient><linearGradient id="linearGradient6310" x1="7.405" x2="14.678" y1="1065.287" y2="1064.864" gradientTransform="translate(18.942297,-19.828284)" gradientUnits="userSpaceOnUse" xlink:href="#linearGradient3032"/></defs><metadata id="metadata7"/><g id="layer1" transform="translate(0,-1044.3622)"><g id="layer1-7" display="inline" transform="matrix(-0.74698003,-0.66484647,-0.66484647,0.74698003,720.27941,287.41912)"><path id="path4108-1" fill="url(#linearGradient5109-0-1)" fill-opacity="1" stroke="none" d="m 26.382459,1043.9667 -0.03305,2.934 3.347937,-0.1481 0.254969,1.6926 3.062036,-3.3692 -3.47804,-2.8209 0.05182,1.6596 z" display="inline"/><path id="path4108-1-6" fill="url(#linearGradient6310)" fill-opacity="1" stroke="none" d="m 28.861336,1043.2398 -2.746153,0.1941 c -0.991813,0.9918 -0.748485,3.1026 0.237827,4.0889 l 2.748169,-0.1599 0.08867,1.5242 c 4.5e-5,0.6519 1.064204,0.5099 1.600915,-0.093 l 3.324262,-3.7349 -3.734894,-3.3242 c -0.790692,-0.703 -1.247905,-0.3035 -1.600932,0.093 z m 0.853945,-0.758 2.987911,2.6594 -2.659364,2.9878 -0.09618,-1.6532 -3.08257,0.1793 c -0.466206,-0.3489 -0.597224,-1.963 -0.139845,-2.4034 l 3.082572,-0.1793 z" display="inline"/></g></g></svg>