<svg xmlns="http://www.w3.org/2000/svg" xmlns:svg="http://www.w3.org/2000/svg" xmlns:xlink="http://www.w3.org/1999/xlink" id="svg2" width="7" height="8" version="1.1"><defs id="defs4"><linearGradient id="linearGradient3796"><stop id="stop3798" offset="0" stop-color="#14733c" stop-opacity="0"/><stop id="stop3800" offset="1" stop-color="#14733c" stop-opacity="1"/></linearGradient><linearGradient id="linearGradient3986" x1="388.637" x2="388.637" y1="478.188" y2="462.115" gradientUnits="userSpaceOnUse" xlink:href="#linearGradient10798-1-9-3-7-6-8-9-0-9-1"/><linearGradient id="linearGradient10798-1-9-3-7-6-8-9-0-9-1"><stop id="stop10800-5-2-1-8-20-6-4-9-8-2" offset="0" stop-color="#4f9e55" stop-opacity="1"/><stop id="stop10806-6-8-5-3-9-24-8-4-3-2" offset=".5" stop-color="#418a4d" stop-opacity="1"/><stop id="stop10802-1-5-3-0-4-8-4-2-9-2" offset="1" stop-color="#a4c589" stop-opacity="1"/></linearGradient><linearGradient id="linearGradient3020" x1="388.637" x2="388.637" y1="478.188" y2="462.115" gradientUnits="userSpaceOnUse" xlink:href="#linearGradient10798-1-9-3-7-6-8-9-0-9-1"/><linearGradient id="linearGradient3020-1" x1="388.637" x2="388.637" y1="478.188" y2="462.115" gradientUnits="userSpaceOnUse" xlink:href="#linearGradient10798-1-9-3-7-6-8-9-0-9-1-7"/><linearGradient id="linearGradient10798-1-9-3-7-6-8-9-0-9-1-7"><stop id="stop10800-5-2-1-8-20-6-4-9-8-2-4" offset="0" stop-color="#4f9e55" stop-opacity="1"/><stop id="stop10806-6-8-5-3-9-24-8-4-3-2-0" offset=".5" stop-color="#418a4d" stop-opacity="1"/><stop id="stop10802-1-5-3-0-4-8-4-2-9-2-9" offset="1" stop-color="#a4c589" stop-opacity="1"/></linearGradient><radialGradient id="radialGradient3802" cx="388.125" cy="468.237" r="11.708" fx="388.125" fy="468.237" gradientTransform="matrix(0.86594438,0,0,0.86594438,52.030335,62.769823)" gradientUnits="userSpaceOnUse" xlink:href="#linearGradient3796"/></defs><metadata id="metadata7"/><g id="layer1" transform="translate(0,-1044.3622)"><path id="path6435" fill="#217a34" fill-opacity="1" stroke="none" d="m 5.603658,1049.9596 c -0.234112,0.1433 -0.478158,0.2514 -0.732139,0.3243 -0.253989,0.073 -0.519016,0.1097 -0.795083,0.1097 -0.823798,0 -1.476429,-0.2708 -1.957894,-0.8129 -0.481467,-0.5445 -0.722201,-1.2816 -0.7222,-2.2117 -10e-7,-0.9327 0.240733,-1.67 0.7222,-2.2119 0.481465,-0.5445 1.134096,-0.8167 1.957894,-0.8167 0.276067,0 0.541094,0.037 0.795083,0.1098 0.253981,0.073 0.498027,0.1811 0.732139,0.3245 l 0,1.2074 c -0.236321,-0.1901 -0.469324,-0.3296 -0.69901,-0.4182 -0.229695,-0.088 -0.471533,-0.1327 -0.725515,-0.1327 -0.454967,0 -0.812754,0.1721 -1.073362,0.5159 -0.260612,0.344 -0.390917,0.8179 -0.390916,1.4226 -1e-6,0.6018 0.130304,1.0746 0.390916,1.4185 0.260608,0.3438 0.618395,0.5158 1.073362,0.5158 0.253982,0 0.49582,-0.044 0.725515,-0.1326 0.229686,-0.088 0.462689,-0.228 0.69901,-0.4183 l 0,1.2076" display="inline" font-family="Sans" font-size="13.589" font-stretch="normal" font-style="normal" font-variant="normal" font-weight="bold" letter-spacing="0" word-spacing="0" style="line-height:125%;-inkscape-font-specification:Sans Bold"/></g></svg>