<svg xmlns="http://www.w3.org/2000/svg" xmlns:svg="http://www.w3.org/2000/svg" xmlns:xlink="http://www.w3.org/1999/xlink" id="svg2" width="6" height="13" version="1.1"><defs id="defs4"><linearGradient id="linearGradient23108" x1="11.063" x2="11.063" y1="9.891" y2="4.234" gradientTransform="translate(-8.0701672,1036.3992)" gradientUnits="userSpaceOnUse" xlink:href="#linearGradient23102"/><linearGradient id="linearGradient23102"><stop id="stop23104" offset="0" stop-color="#c9473e" stop-opacity="1"/><stop id="stop23118" offset=".254" stop-color="#f35863" stop-opacity="1"/><stop id="stop23106" offset="1" stop-color="#f6928e" stop-opacity="1"/></linearGradient><linearGradient id="linearGradient23092" x1="10.938" x2="10.938" y1="3.266" y2="10.891" gradientTransform="translate(-8.0701672,1036.3992)" gradientUnits="userSpaceOnUse" xlink:href="#linearGradient23086"/><linearGradient id="linearGradient23086"><stop id="stop23088" offset="0" stop-color="#c9473e" stop-opacity="1"/><stop id="stop23090" offset="1" stop-color="#c8192a" stop-opacity="1"/></linearGradient><linearGradient id="linearGradient23110" x1="11.04" x2="10.746" y1="13.403" y2="14.498" gradientUnits="userSpaceOnUse" xlink:href="#linearGradient23112"/><linearGradient id="linearGradient23112"><stop id="stop23114" offset="0" stop-color="#f68886" stop-opacity="1"/><stop id="stop23116" offset="1" stop-color="#f4787b" stop-opacity="1"/></linearGradient><linearGradient id="linearGradient23094" x1="10.98" x2="10.98" y1="12.075" y2="15.959" gradientUnits="userSpaceOnUse" xlink:href="#linearGradient23096"/><linearGradient id="linearGradient23096"><stop id="stop23098" offset="0" stop-color="#c9473e" stop-opacity="1"/><stop id="stop23100" offset="1" stop-color="#c8192a" stop-opacity="1"/></linearGradient><linearGradient id="linearGradient3098" x1="11.04" x2="10.746" y1="13.403" y2="14.498" gradientUnits="userSpaceOnUse" xlink:href="#linearGradient23112"/><linearGradient id="linearGradient3100" x1="10.98" x2="10.98" y1="12.075" y2="15.959" gradientUnits="userSpaceOnUse" xlink:href="#linearGradient23096"/><linearGradient id="linearGradient3047" x1="11.04" x2="10.746" y1="13.403" y2="14.498" gradientUnits="userSpaceOnUse" xlink:href="#linearGradient23112"/><linearGradient id="linearGradient3049" x1="10.98" x2="10.98" y1="12.075" y2="15.959" gradientUnits="userSpaceOnUse" xlink:href="#linearGradient23096"/><linearGradient id="linearGradient3051" x1="11.063" x2="11.063" y1="9.891" y2="4.234" gradientTransform="translate(-8.0701672,1036.3992)" gradientUnits="userSpaceOnUse" xlink:href="#linearGradient23102"/><linearGradient id="linearGradient3053" x1="10.938" x2="10.938" y1="3.266" y2="10.891" gradientTransform="translate(-8.0701672,1036.3992)" gradientUnits="userSpaceOnUse" xlink:href="#linearGradient23086"/></defs><metadata id="metadata7"/><g id="layer1" transform="translate(0,-1039.3622)"><g id="g3043" transform="translate(0.08486705,-0.03111101)"><path id="path22314" fill="url(#linearGradient3047)" fill-opacity="1" stroke="url(#linearGradient3049)" stroke-dasharray="none" stroke-miterlimit="4" stroke-opacity="1" stroke-width="1.081" d="m 12.609375,14 c 0,0.897463 -0.727537,1.625 -1.625,1.625 -0.897463,0 -1.625,-0.727537 -1.625,-1.625 0,-0.897463 0.727537,-1.625 1.625,-1.625 0.897463,0 1.625,0.727537 1.625,1.625 z" display="inline" transform="matrix(0.92542861,0,0,0.92542861,-7.2354198,1037.4432)"/><path id="rect22316" fill="url(#linearGradient3051)" fill-opacity="1" stroke="url(#linearGradient3053)" stroke-dashoffset="0" stroke-linecap="round" stroke-linejoin="round" stroke-miterlimit="4" stroke-opacity="1" stroke-width="1" d="m 2.9142132,1039.8836 c 0.839655,0 1.560358,0.6772 1.515624,1.5156 l -0.220969,4.1418 c -0.04473,0.8384 -0.455,1.4051 -1.294655,1.4051 -0.839655,0 -1.24992,-0.5667 -1.294655,-1.4051 l -0.220972,-4.1418 c -0.04473,-0.8384 0.675972,-1.5156 1.515627,-1.5156 z" display="inline"/></g></g></svg>