<svg xmlns="http://www.w3.org/2000/svg" xmlns:svg="http://www.w3.org/2000/svg" xmlns:xlink="http://www.w3.org/1999/xlink" id="svg2" width="7" height="7" version="1.1"><defs id="defs4"><linearGradient id="linearGradient3768"><stop id="stop3770" offset="0" stop-color="#147a38" stop-opacity="1"/><stop id="stop3772" offset="1" stop-color="#308a50" stop-opacity="1"/></linearGradient><linearGradient id="linearGradient3774" x1="6" x2="6" y1="1051.362" y2="1044.362" gradientTransform="translate(-2,0)" gradientUnits="userSpaceOnUse" xlink:href="#linearGradient3768"/><filter id="filter3774" width="1.33" height="1.189" x="-.165" y="-.094"><feGaussianBlur id="feGaussianBlur3776" stdDeviation=".275"/></filter></defs><metadata id="metadata7"/><g id="layer1" transform="translate(0,-1045.3622)"><path id="rect2999-1" fill="#fff" fill-opacity="1" stroke="#fff" stroke-dasharray="none" stroke-miterlimit="4" stroke-width=".5" d="m 2,1045.3622 0,1 0,2 0,1 0,3 1,0 0,-3 2,0 0,-1 -2,0 0,-2 3,0 0,-1 -3,0 -1,0 z" filter="url(#filter3774)" opacity=".75"/><path id="rect2999" fill="#286296" fill-opacity="1" stroke="none" d="m 2,1045.3622 0,1 0,2 0,1 0,3 1,0 0,-3 2,0 0,-1 -2,0 0,-2 3,0 0,-1 -3,0 -1,0 z"/></g></svg>