<svg xmlns="http://www.w3.org/2000/svg" xmlns:svg="http://www.w3.org/2000/svg" xmlns:xlink="http://www.w3.org/1999/xlink" id="svg2" width="7" height="8" version="1.1"><defs id="defs4"><linearGradient id="linearGradient3798"><stop id="stop3800" offset="0" stop-color="#55429f" stop-opacity="0"/><stop id="stop3802" offset="1" stop-color="#55429f" stop-opacity="1"/></linearGradient><linearGradient id="linearGradient7188" x1="388.637" x2="388.637" y1="478.188" y2="462.115" gradientUnits="userSpaceOnUse" xlink:href="#linearGradient10798-1-9-3-7-6-8-9-0-9-1"/><linearGradient id="linearGradient10798-1-9-3-7-6-8-9-0-9-1"><stop id="stop10800-5-2-1-8-20-6-4-9-8-2" offset="0" stop-color="#7564b1" stop-opacity="1"/><stop id="stop10806-6-8-5-3-9-24-8-4-3-2" offset=".5" stop-color="#5d4aa1" stop-opacity="1"/><stop id="stop10802-1-5-3-0-4-8-4-2-9-2" offset="1" stop-color="#9283c3" stop-opacity="1"/></linearGradient><linearGradient id="linearGradient3102" x1="388.637" x2="388.637" y1="478.188" y2="462.115" gradientUnits="userSpaceOnUse" xlink:href="#linearGradient10798-1-9-3-7-6-8-9-0-9-1"/><linearGradient id="linearGradient3102-1" x1="388.637" x2="388.637" y1="478.188" y2="462.115" gradientUnits="userSpaceOnUse" xlink:href="#linearGradient10798-1-9-3-7-6-8-9-0-9-1-7"/><linearGradient id="linearGradient10798-1-9-3-7-6-8-9-0-9-1-7"><stop id="stop10800-5-2-1-8-20-6-4-9-8-2-4" offset="0" stop-color="#7564b1" stop-opacity="1"/><stop id="stop10806-6-8-5-3-9-24-8-4-3-2-0" offset=".5" stop-color="#5d4aa1" stop-opacity="1"/><stop id="stop10802-1-5-3-0-4-8-4-2-9-2-9" offset="1" stop-color="#9283c3" stop-opacity="1"/></linearGradient><radialGradient id="radialGradient3804" cx="388.125" cy="468.237" r="11.708" fx="388.125" fy="468.237" gradientTransform="matrix(0.82332722,0,0,0.82332722,68.57113,82.724774)" gradientUnits="userSpaceOnUse" xlink:href="#linearGradient3798"/></defs><metadata id="metadata7"/><g id="layer1" transform="translate(0,-1044.3622)"><path id="path10796-2-6-2" fill="url(#linearGradient3102)" fill-opacity="1" stroke="#55429f" stroke-dasharray="none" stroke-dashoffset="0" stroke-linecap="round" stroke-linejoin="round" stroke-miterlimit="4" stroke-opacity="1" stroke-width="2.166" d="m 398.75,468.23718 c 0,5.86803 -4.75697,10.625 -10.625,10.625 -5.86803,0 -10.625,-4.75697 -10.625,-10.625 0,-5.86802 4.75697,-10.625 10.625,-10.625 5.86803,0 10.625,4.75698 10.625,10.625 z" display="inline" font-family="Sans" font-size="13.589" font-style="normal" font-weight="normal" letter-spacing="0" transform="matrix(0.29869153,0,0,0.29869153,-112.42903,908.01433)" word-spacing="0" style="line-height:125%"/><path id="path10796-2-6-2-4" fill="url(#radialGradient3804)" fill-opacity="1" stroke="#55429f" stroke-dasharray="none" stroke-dashoffset="0" stroke-linecap="round" stroke-linejoin="round" stroke-miterlimit="4" stroke-opacity="1" stroke-width="2.166" d="m 398.75,468.23718 a 10.625,10.625 0 1 1 -21.25,0 10.625,10.625 0 1 1 21.25,0 z" display="inline" font-family="Sans" font-size="13.589" font-style="normal" font-weight="normal" letter-spacing="0" transform="matrix(0.29869153,0,0,0.29869153,-112.42903,908.01433)" word-spacing="0" style="line-height:125%"/><path id="rect7222" fill="#fff" fill-opacity="1" stroke="none" d="m 2.064772,1045.3643 0,0.7404 0.7179314,0 0,3.5671 -0.7179314,0 0,0.7404 2.871719,0 0,-0.7404 -0.71793,0 0,-3.5671 0.71793,0 0,-0.7404 -2.871719,0 z" display="inline" font-family="Sans" font-size="13.589" font-style="normal" font-weight="normal" letter-spacing="0" word-spacing="0" style="line-height:125%"/></g></svg>