<svg xmlns="http://www.w3.org/2000/svg" xmlns:svg="http://www.w3.org/2000/svg" id="svg2" width="16" height="16" version="1.1"><metadata id="metadata7"/><g id="layer1" display="inline" transform="translate(0,-1036.3622)"><g id="g6616"><path id="path6578" fill="none" stroke="#3d9465" stroke-dasharray="none" stroke-miterlimit="4" stroke-opacity="1" stroke-width="1.396" d="m 14.363107,7.912466 c 0,3.758796 -3.047107,6.805903 -6.8059032,6.805903 -3.7587964,0 -6.80590299,-3.047107 -6.80590299,-6.805903 0,-3.7587964 3.04710659,-6.8059029 6.80590299,-6.8059029 3.7587962,0 6.8059032,3.0471065 6.8059032,6.8059029 z" color="#000" display="inline" enable-background="accumulate" overflow="visible" transform="matrix(0.93090814,0,0,0.93090814,1.1022966,1036.9051)" visibility="visible" style="marker:none"/><path id="path6578-2" fill="none" stroke="#3d9465" stroke-dasharray="none" stroke-miterlimit="4" stroke-opacity="1" stroke-width="2.578" d="m 14.363107,7.912466 c 0,3.758796 -3.047107,6.805903 -6.8059032,6.805903 -3.7587964,0 -6.80590299,-3.047107 -6.80590299,-6.805903 0,-3.7587964 3.04710659,-6.8059029 6.80590299,-6.8059029 3.7587962,0 6.8059032,3.0471065 6.8059032,6.8059029 z" color="#000" display="inline" enable-background="accumulate" overflow="visible" transform="matrix(0.50434102,0,0,0.50434102,4.4143396,1040.3687)" visibility="visible" style="marker:none"/><path id="path6578-2-0" fill="#20680c" fill-opacity="1" stroke="#20680c" stroke-dasharray="none" stroke-miterlimit="4" stroke-opacity="1" stroke-width="2.03" d="m 14.363107,7.912466 c 0,3.758796 -3.047107,6.805903 -6.8059032,6.805903 -3.7587964,0 -6.80590299,-3.047107 -6.80590299,-6.805903 0,-3.7587964 3.04710659,-6.8059029 6.80590299,-6.8059029 3.7587962,0 6.8059032,3.0471065 6.8059032,6.8059029 z" color="#000" display="inline" enable-background="accumulate" overflow="visible" transform="matrix(0.23263973,0,0,0.23263973,6.5301417,1042.456)" visibility="visible" style="marker:none"/></g></g></svg>