<svg xmlns="http://www.w3.org/2000/svg" xmlns:svg="http://www.w3.org/2000/svg" xmlns:xlink="http://www.w3.org/1999/xlink" id="svg2" width="16" height="16" version="1.1"><defs id="defs4"><linearGradient id="linearGradient4922"><stop id="stop4924" offset="0" stop-color="#b08b21" stop-opacity="1"/><stop id="stop4926" offset="1" stop-color="#eee9da" stop-opacity="1"/></linearGradient><linearGradient id="linearGradient4905"><stop id="stop4907" offset="0" stop-color="#fff" stop-opacity="1"/><stop id="stop4910" offset="1" stop-color="#b6cce1" stop-opacity="1"/></linearGradient><radialGradient id="radialGradient4920" cx="5.031" cy="-4.822" r="3.02" fx="5.031" fy="-4.822" gradientTransform="matrix(0.81912447,0,0,3.0162501,0.91003009,8.3414354)" gradientUnits="userSpaceOnUse" xlink:href="#linearGradient4905"/><linearGradient id="linearGradient4929" x1="5.219" x2="5.219" y1="1026.739" y2="1028.606" gradientUnits="userSpaceOnUse" xlink:href="#linearGradient4922"/></defs><metadata id="metadata7"/><g id="layer1" display="inline" transform="translate(0,-1036.3622)"><g id="g6750"><g id="g6722-9-8" stroke="#47698f" stroke-opacity="1" display="inline" transform="translate(-0.34374998,0)"><path id="path6702-4-8-8" fill="none" stroke="#7795b6" stroke-linecap="butt" stroke-linejoin="miter" stroke-opacity="1" stroke-width=".957" d="m 11.891049,1040.6825 3.36478,3.3649 -3.304962,3.305" display="inline"/><path id="path6702-1-1" fill="none" stroke="#47698f" stroke-linecap="butt" stroke-linejoin="miter" stroke-opacity="1" stroke-width="1" d="m 12.15625,1040.5497 3.515625,3.5156 -3.453125,3.4532" display="inline"/></g><g id="g6722-9-8-8" stroke="#47698f" stroke-opacity="1" display="inline" transform="matrix(-1,0,0,1,16.428128,0)"><path id="path6702-4-8-8-5" fill="none" stroke="#7795b6" stroke-linecap="butt" stroke-linejoin="miter" stroke-opacity="1" stroke-width=".957" d="m 11.891049,1040.6825 3.36478,3.3649 -3.304962,3.305" display="inline"/><path id="path6702-1-1-1" fill="none" stroke="#47698f" stroke-linecap="butt" stroke-linejoin="miter" stroke-opacity="1" stroke-width="1" d="m 12.15625,1040.5497 3.515625,3.5156 -3.453125,3.4532" display="inline"/></g></g><g id="g4916" transform="matrix(1.0910769,0,0,1.0910769,2.6415565,-79.668261)"><path id="path4116" fill="url(#radialGradient4920)" fill-opacity="1" stroke="#47698f" stroke-dasharray="none" stroke-linecap="butt" stroke-linejoin="miter" stroke-miterlimit="4" stroke-opacity="1" stroke-width=".45" d="m 3.625,-9 c 0,0 0.054085,0.5036113 -0.15625,1.21875 -0.3125,1.0625 -0.90625,1.1723959 -0.90625,2.34375 0,0.71875 -0.1176588,1.0847984 0.21875,1.75 0.3192453,0.6312632 0.7314575,0.8405731 1.59375,0.9375 0.3201017,0.035982 0.5331504,0.016808 0.703125,0.016779 C 5.2480996,-2.73325 5.4298983,-2.714 5.75,-2.75 6.6122925,-2.8469 7.0245047,-3.0562 7.34375,-3.6875 7.6801588,-4.3527 7.5625,-4.7187 7.5625,-5.4375 7.5625,-6.6089 6.96875,-6.71875 6.65625,-7.78125 6.445915,-8.49645 6.5,-9 6.5,-9 l -1.4375,0 z" transform="translate(0,1036.3622)"/><rect id="rect4914" width="3.906" height="1.5" x="3.125" y="1026.175" fill="url(#linearGradient4929)" fill-opacity="1" fill-rule="nonzero" stroke="none" stroke-width=".4" color="#000" display="inline" enable-background="accumulate" overflow="visible" visibility="visible" style="marker:none"/></g></g></svg>