<svg xmlns="http://www.w3.org/2000/svg" xmlns:svg="http://www.w3.org/2000/svg" xmlns:xlink="http://www.w3.org/1999/xlink" id="svg2" width="16" height="16" version="1.1"><defs id="defs4"><linearGradient id="linearGradient3803"><stop id="stop3805" offset="0" stop-color="#8ea1bf" stop-opacity="1"/><stop id="stop3807" offset="1" stop-color="#fff" stop-opacity="0"/></linearGradient><linearGradient id="linearGradient3795"><stop id="stop3797" offset="0" stop-color="#5b779a" stop-opacity="1"/><stop id="stop3799" offset="1" stop-color="#37649c" stop-opacity="1"/></linearGradient><linearGradient id="linearGradient3801" x1="6.026" x2="7.025" y1="-1.549" y2=".554" gradientUnits="userSpaceOnUse" xlink:href="#linearGradient3795"/><linearGradient id="linearGradient3809" x1="6.515" x2="6.026" y1="-1.095" y2="-1.549" gradientUnits="userSpaceOnUse" xlink:href="#linearGradient3803"/><linearGradient id="linearGradient3809-1" x1="6.515" x2="6.026" y1="-1.095" y2="-1.549" gradientUnits="userSpaceOnUse" xlink:href="#linearGradient3803-1"/><linearGradient id="linearGradient3803-1"><stop id="stop3805-6" offset="0" stop-color="#8ea1bf" stop-opacity="1"/><stop id="stop3807-5" offset="1" stop-color="#fff" stop-opacity="0"/></linearGradient><linearGradient id="linearGradient3801-7" x1="6.026" x2="7.025" y1="-1.549" y2=".554" gradientUnits="userSpaceOnUse" xlink:href="#linearGradient3795-0"/><linearGradient id="linearGradient3795-0"><stop id="stop3797-3" offset="0" stop-color="#5b779a" stop-opacity="1"/><stop id="stop3799-8" offset="1" stop-color="#37649c" stop-opacity="1"/></linearGradient><linearGradient id="linearGradient3859" x1="6.515" x2="6.026" y1="-1.095" y2="-1.549" gradientUnits="userSpaceOnUse" xlink:href="#linearGradient3803-1"/><linearGradient id="linearGradient3861" x1="6.026" x2="7.025" y1="-1.549" y2=".554" gradientUnits="userSpaceOnUse" xlink:href="#linearGradient3795-0"/><linearGradient id="linearGradient3859-7" x1="6.515" x2="6.026" y1="-1.095" y2="-1.549" gradientUnits="userSpaceOnUse" xlink:href="#linearGradient3803-1-0"/><linearGradient id="linearGradient3803-1-0"><stop id="stop3805-6-8" offset="0" stop-color="#8ea1bf" stop-opacity="1"/><stop id="stop3807-5-7" offset="1" stop-color="#fff" stop-opacity="0"/></linearGradient><linearGradient id="linearGradient3861-6" x1="6.026" x2="7.025" y1="-1.549" y2=".554" gradientUnits="userSpaceOnUse" xlink:href="#linearGradient3795-0-3"/><linearGradient id="linearGradient3795-0-3"><stop id="stop3797-3-9" offset="0" stop-color="#5b779a" stop-opacity="1"/><stop id="stop3799-8-0" offset="1" stop-color="#37649c" stop-opacity="1"/></linearGradient><linearGradient id="linearGradient3909" x1="6.515" x2="6.026" y1="-1.095" y2="-1.549" gradientUnits="userSpaceOnUse" xlink:href="#linearGradient3803-1-0"/><linearGradient id="linearGradient3911" x1="6.026" x2="7.025" y1="-1.549" y2=".554" gradientUnits="userSpaceOnUse" xlink:href="#linearGradient3795-0-3"/><linearGradient id="linearGradient3909-1" x1="6.515" x2="6.026" y1="-1.095" y2="-1.549" gradientUnits="userSpaceOnUse" xlink:href="#linearGradient3803-1-0-6"/><linearGradient id="linearGradient3803-1-0-6"><stop id="stop3805-6-8-5" offset="0" stop-color="#8ea1bf" stop-opacity="1"/><stop id="stop3807-5-7-1" offset="1" stop-color="#fff" stop-opacity="0"/></linearGradient><linearGradient id="linearGradient3911-7" x1="6.026" x2="7.025" y1="-1.549" y2=".554" gradientUnits="userSpaceOnUse" xlink:href="#linearGradient3795-0-3-0"/><linearGradient id="linearGradient3795-0-3-0"><stop id="stop3797-3-9-2" offset="0" stop-color="#5b779a" stop-opacity="1"/><stop id="stop3799-8-0-6" offset="1" stop-color="#37649c" stop-opacity="1"/></linearGradient><linearGradient id="linearGradient3959" x1="6.515" x2="6.026" y1="-1.095" y2="-1.549" gradientUnits="userSpaceOnUse" xlink:href="#linearGradient3803-1-0-6"/><linearGradient id="linearGradient3961" x1="6.026" x2="7.025" y1="-1.549" y2=".554" gradientUnits="userSpaceOnUse" xlink:href="#linearGradient3795-0-3-0"/><linearGradient id="linearGradient3859-4" x1="6.515" x2="6.026" y1="-1.095" y2="-1.549" gradientUnits="userSpaceOnUse" xlink:href="#linearGradient3803-1-1"/><linearGradient id="linearGradient3803-1-1"><stop id="stop3805-6-5" offset="0" stop-color="#8ea1bf" stop-opacity="1"/><stop id="stop3807-5-1" offset="1" stop-color="#fff" stop-opacity="0"/></linearGradient><linearGradient id="linearGradient3861-5" x1="6.026" x2="7.025" y1="-1.549" y2=".554" gradientUnits="userSpaceOnUse" xlink:href="#linearGradient3795-0-8"/><linearGradient id="linearGradient3795-0-8"><stop id="stop3797-3-92" offset="0" stop-color="#5b779a" stop-opacity="1"/><stop id="stop3799-8-5" offset="1" stop-color="#37649c" stop-opacity="1"/></linearGradient><linearGradient id="linearGradient3909-2" x1="6.515" x2="6.026" y1="-1.095" y2="-1.549" gradientUnits="userSpaceOnUse" xlink:href="#linearGradient3803-1-0-63"/><linearGradient id="linearGradient3803-1-0-63"><stop id="stop3805-6-8-8" offset="0" stop-color="#8ea1bf" stop-opacity="1"/><stop id="stop3807-5-7-5" offset="1" stop-color="#fff" stop-opacity="0"/></linearGradient><linearGradient id="linearGradient3911-4" x1="6.026" x2="7.025" y1="-1.549" y2=".554" gradientUnits="userSpaceOnUse" xlink:href="#linearGradient3795-0-3-8"/><linearGradient id="linearGradient3795-0-3-8"><stop id="stop3797-3-9-4" offset="0" stop-color="#5b779a" stop-opacity="1"/><stop id="stop3799-8-0-0" offset="1" stop-color="#37649c" stop-opacity="1"/></linearGradient><linearGradient id="linearGradient3809-2" x1="6.515" x2="6.026" y1="-1.095" y2="-1.549" gradientUnits="userSpaceOnUse" xlink:href="#linearGradient3803-5"/><linearGradient id="linearGradient3803-5"><stop id="stop3805-3" offset="0" stop-color="#8ea1bf" stop-opacity="1"/><stop id="stop3807-58" offset="1" stop-color="#fff" stop-opacity="0"/></linearGradient><linearGradient id="linearGradient3801-1" x1="6.026" x2="7.025" y1="-1.549" y2=".554" gradientUnits="userSpaceOnUse" xlink:href="#linearGradient3795-2"/><linearGradient id="linearGradient3795-2"><stop id="stop3797-9" offset="0" stop-color="#5b779a" stop-opacity="1"/><stop id="stop3799-9" offset="1" stop-color="#37649c" stop-opacity="1"/></linearGradient><linearGradient id="linearGradient3959-2" x1="6.515" x2="6.026" y1="-1.095" y2="-1.549" gradientUnits="userSpaceOnUse" xlink:href="#linearGradient3803-1-0-6-2"/><linearGradient id="linearGradient3803-1-0-6-2"><stop id="stop3805-6-8-5-7" offset="0" stop-color="#8ea1bf" stop-opacity="1"/><stop id="stop3807-5-7-1-5" offset="1" stop-color="#fff" stop-opacity="0"/></linearGradient><linearGradient id="linearGradient3961-8" x1="6.026" x2="7.025" y1="-1.549" y2=".554" gradientUnits="userSpaceOnUse" xlink:href="#linearGradient3795-0-3-0-9"/><linearGradient id="linearGradient3795-0-3-0-9"><stop id="stop3797-3-9-2-2" offset="0" stop-color="#5b779a" stop-opacity="1"/><stop id="stop3799-8-0-6-9" offset="1" stop-color="#37649c" stop-opacity="1"/></linearGradient><linearGradient id="linearGradient4036" x1="6.515" x2="6.026" y1="-1.095" y2="-1.549" gradientUnits="userSpaceOnUse" xlink:href="#linearGradient3803-5"/><linearGradient id="linearGradient4038" x1="6.026" x2="7.025" y1="-1.549" y2=".554" gradientUnits="userSpaceOnUse" xlink:href="#linearGradient3795-2"/></defs><metadata id="metadata7"/><g id="layer1" transform="translate(0,-1036.3622)"><g id="g3833" transform="matrix(-0.70710677,-0.70710678,0.70710678,-0.70710677,-724.8764,1788.6264)"><path id="path3793" fill="url(#linearGradient3809)" fill-opacity="1" stroke="url(#linearGradient3801)" stroke-dasharray="none" stroke-miterlimit="4" stroke-opacity="1" stroke-width=".9" d="m 7.8571429,-1.1875001 c 0,0.8382893 -0.6795677,1.51785706 -1.517857,1.51785706 -0.8382894,0 -1.5178571,-0.67956776 -1.5178571,-1.51785706 0,-0.8382893 0.6795677,-1.5178571 1.5178571,-1.5178571 0.8382893,0 1.517857,0.6795678 1.517857,1.5178571 z" transform="translate(1.6285668,1039.6169)"/><path id="path3793-6" fill="url(#linearGradient3859)" fill-opacity="1" stroke="url(#linearGradient3861)" stroke-dasharray="none" stroke-miterlimit="4" stroke-opacity="1" stroke-width=".9" d="m 7.8571429,-1.1875001 c 0,0.8382893 -0.6795677,1.51785706 -1.517857,1.51785706 -0.8382894,0 -1.5178571,-0.67956776 -1.5178571,-1.51785706 0,-0.8382893 0.6795677,-1.5178571 1.5178571,-1.5178571 0.8382893,0 1.517857,0.6795678 1.517857,1.5178571 z" opacity=".52" transform="translate(1.6285668,1051.6377)"/><path id="path3793-6-1" fill="url(#linearGradient3909)" fill-opacity="1" stroke="url(#linearGradient3911)" stroke-dasharray="none" stroke-miterlimit="4" stroke-opacity="1" stroke-width=".9" d="m 7.8571429,-1.1875001 c 0,0.8382893 -0.6795677,1.51785706 -1.517857,1.51785706 -0.8382894,0 -1.5178571,-0.67956776 -1.5178571,-1.51785706 0,-0.8382893 0.6795677,-1.5178571 1.5178571,-1.5178571 0.8382893,0 1.517857,0.6795678 1.517857,1.5178571 z" opacity=".76" transform="translate(-4.3818409,1045.5831)"/><path id="path3793-6-1-0" fill="url(#linearGradient3959)" fill-opacity="1" stroke="url(#linearGradient3961)" stroke-dasharray="none" stroke-miterlimit="4" stroke-opacity="1" stroke-width=".9" d="m 7.8571429,-1.1875001 c 0,0.8382893 -0.6795677,1.51785706 -1.517857,1.51785706 -0.8382894,0 -1.5178571,-0.67956776 -1.5178571,-1.51785706 0,-0.8382893 0.6795677,-1.5178571 1.5178571,-1.5178571 0.8382893,0 1.517857,0.6795678 1.517857,1.5178571 z" opacity=".38" transform="translate(7.6831686,1045.5831)"/><path id="path3793-60" fill="url(#linearGradient4036)" fill-opacity="1" stroke="url(#linearGradient4038)" stroke-dasharray="none" stroke-miterlimit="4" stroke-opacity="1" stroke-width=".9" d="m 7.8571429,-1.1875001 c 0,0.8382893 -0.6795677,1.51785706 -1.517857,1.51785706 -0.8382894,0 -1.5178571,-0.67956776 -1.5178571,-1.51785706 0,-0.8382893 0.6795677,-1.5178571 1.5178571,-1.5178571 0.8382893,0 1.517857,0.6795678 1.517857,1.5178571 z" opacity=".88" transform="matrix(0.70710678,-0.70710678,0.70710678,0.70710678,0.0814675,1045.5277)"/><path id="path3793-6-8" fill="url(#linearGradient3859-4)" fill-opacity="1" stroke="url(#linearGradient3861-5)" stroke-dasharray="none" stroke-miterlimit="4" stroke-opacity="1" stroke-width=".9" d="m 7.8571429,-1.1875001 c 0,0.8382893 -0.6795677,1.51785706 -1.517857,1.51785706 -0.8382894,0 -1.5178571,-0.67956776 -1.5178571,-1.51785706 0,-0.8382893 0.6795677,-1.5178571 1.5178571,-1.5178571 0.8382893,0 1.517857,0.6795678 1.517857,1.5178571 z" opacity=".4" transform="matrix(0.70710678,-0.70710678,0.70710678,0.70710678,8.5814567,1054.0277)"/><path id="path3793-6-1-05" fill="url(#linearGradient3909-2)" fill-opacity="1" stroke="url(#linearGradient3911-4)" stroke-dasharray="none" stroke-miterlimit="4" stroke-opacity="1" stroke-width=".9" d="m 7.8571429,-1.1875001 c 0,0.8382893 -0.6795677,1.51785706 -1.517857,1.51785706 -0.8382894,0 -1.5178571,-0.67956776 -1.5178571,-1.51785706 0,-0.8382893 0.6795677,-1.5178571 1.5178571,-1.5178571 0.8382893,0 1.517857,0.6795678 1.517857,1.5178571 z" opacity=".64" transform="matrix(0.70710678,-0.70710678,0.70710678,0.70710678,0.05020794,1053.9964)"/><path id="path3793-6-1-0-2" fill="url(#linearGradient3959-2)" fill-opacity="1" stroke="url(#linearGradient3961-8)" stroke-dasharray="none" stroke-miterlimit="4" stroke-opacity="1" stroke-width=".9" d="m 7.8571429,-1.1875001 c 0,0.8382893 -0.6795677,1.51785706 -1.517857,1.51785706 -0.8382894,0 -1.5178571,-0.67956776 -1.5178571,-1.51785706 0,-0.8382893 0.6795677,-1.5178571 1.5178571,-1.5178571 0.8382893,0 1.517857,0.6795678 1.517857,1.5178571 z" opacity=".26" transform="matrix(0.70710678,-0.70710678,0.70710678,0.70710678,8.581458,1045.4652)"/></g></g></svg>