<svg xmlns="http://www.w3.org/2000/svg" xmlns:svg="http://www.w3.org/2000/svg" xmlns:xlink="http://www.w3.org/1999/xlink" id="svg2" width="16" height="16" version="1.1"><defs id="defs4"><linearGradient id="linearGradient4926"><stop id="stop4928" offset="0" stop-color="#ac9575" stop-opacity="1"/><stop id="stop4931" offset="1" stop-color="#f4efe9" stop-opacity="1"/></linearGradient><linearGradient id="linearGradient4900"><stop id="stop4902" offset="0" stop-color="#9a8d73" stop-opacity="1"/><stop id="stop4904" offset="1" stop-color="#c0b194" stop-opacity="1"/></linearGradient><linearGradient id="linearGradient4820"><stop id="stop4822" offset="0" stop-color="#f5ede6" stop-opacity="1"/><stop id="stop4824" offset="1" stop-color="#fff" stop-opacity="1"/></linearGradient><linearGradient id="linearGradient4812"><stop id="stop4814" offset="0" stop-color="#ccbba3" stop-opacity="1"/><stop id="stop4816" offset="1" stop-color="#f2ebe4" stop-opacity="1"/></linearGradient><linearGradient id="linearGradient4818" x1="7.863" x2="4.227" y1="1047.579" y2="1046.548" gradientUnits="userSpaceOnUse" xlink:href="#linearGradient4812"/><linearGradient id="linearGradient4826" x1="9.685" x2="9.685" y1="1043.326" y2="1039.857" gradientUnits="userSpaceOnUse" xlink:href="#linearGradient4820"/><linearGradient id="linearGradient4906" x1="-15.132" x2="-10.561" y1="13.523" y2="2.519" gradientTransform="translate(20,1036.3622)" gradientUnits="userSpaceOnUse" xlink:href="#linearGradient4900"/><linearGradient id="linearGradient4933" x1="-13.834" x2="-9.99" y1="1043.866" y2="1043.866" gradientTransform="matrix(-1,0,0,1,-4.708816,0)" gradientUnits="userSpaceOnUse" xlink:href="#linearGradient4926"/></defs><metadata id="metadata7"/><g id="layer1" display="inline" transform="translate(0,-1036.3622)"><g id="g6616"><path id="path4002" fill="none" stroke="#9a8d73" stroke-linecap="butt" stroke-linejoin="miter" stroke-opacity="1" stroke-width="1" d="m 9.0045627,1049.8652 6.0104103,0"/><path id="path4004-1" fill="url(#linearGradient4826)" fill-opacity="1" stroke="none" d="m 4.747933,1043.8557 1.748611,-3.9562 c 0.22097,-0.4861 0.762754,-1.0077 1.425262,-1.0386 l 3.590776,0 c 0.618718,-0.033 1.193243,0.442 1.016466,1.0165 l -2.016145,3.9783 z" display="inline"/><path id="path4004-1-7" fill="url(#linearGradient4818)" fill-opacity="1" stroke="none" d="m 3.49134,1049.8653 c -0.845557,0 -1.109408,-0.4396 -1.016466,-0.9502 l 2.273059,-5.0594 5.76497,0 -2.698303,5.4091 c -0.173238,0.3219 -0.540186,0.6005 -0.809823,0.6005 z" display="inline"/><path id="path4002-1" fill="none" stroke="url(#linearGradient4933)" stroke-linecap="butt" stroke-linejoin="miter" stroke-opacity="1" stroke-width="1" d="m 10.650797,1043.8658 -6.01041,0" display="inline"/><path id="path4004-1-5" fill="none" stroke="url(#linearGradient4906)" stroke-linecap="round" stroke-linejoin="round" stroke-opacity="1" stroke-width="1" d="m 7.90625,1038.8622 c -0.662508,0.031 -1.18528,0.5452 -1.40625,1.0313 l -1.75,3.9687 -2.28125,5.0625 c -0.09294,0.5106 0.185693,0.9375 1.03125,0.9375 l 3.5,0 c 0.269637,0 0.639262,-0.2718 0.8125,-0.5937 l 2.6875,-5.4063 2.03125,-4 c 0.176777,-0.5745 -0.412532,-1.033 -1.03125,-1 l -3.59375,0 z" display="inline"/></g></g></svg>