<svg xmlns="http://www.w3.org/2000/svg" xmlns:svg="http://www.w3.org/2000/svg" id="svg2" width="20" height="20" version="1.1"><metadata id="metadata7"/><g id="layer1" transform="translate(0,-1032.3622)"><g id="text2996" fill="#005596" fill-opacity="1" stroke="none" font-family="Sans" font-size="10.946" font-style="normal" font-weight="normal" letter-spacing="0" transform="scale(0.96516945,1.0360875)" word-spacing="0" style="line-height:125%"><path id="path3041" fill="#005596" d="m 0.45558062,1002.0839 6.70735198,0 0,1.2453 -4.2809474,5.1788 4.403871,0 0,1.5553 -6.95319916,0 0,-1.2453 4.28094736,-5.1788 -4.15802378,0 0,-1.5553" font-weight="bold" style="-inkscape-font-specification:Sans Bold"/><path id="path3043" fill="#005596" d="m 7.9396227,1004.0774 5.2215803,0 0,1.3362 -3.153257,3.2815 3.153257,0 0,1.3682 -5.3551928,0 0,-1.3361 3.1532578,-3.2816 -3.0196453,0 0,-1.3682" font-weight="bold" style="-inkscape-font-specification:Sans Bold"/><path id="path3045" fill="#005596" d="m 14.768161,1004.0774 5.22158,0 0,1.3362 -3.153257,3.2815 3.153257,0 0,1.3682 -5.355193,0 0,-1.3361 3.153257,-3.2816 -3.019644,0 0,-1.3682" font-weight="bold" style="-inkscape-font-specification:Sans Bold"/></g></g></svg>