<svg xmlns="http://www.w3.org/2000/svg" xmlns:svg="http://www.w3.org/2000/svg" xmlns:xlink="http://www.w3.org/1999/xlink" id="svg2" width="20" height="20" version="1.1"><defs id="defs4"><linearGradient id="linearGradient13831"><stop id="stop13833" offset="0" stop-color="#055797" stop-opacity="1"/><stop id="stop13835" offset="1" stop-color="#184785" stop-opacity="1"/></linearGradient><linearGradient id="linearGradient13755"><stop id="stop13757" offset="0" stop-color="#f1fdfc" stop-opacity="1"/><stop id="stop13765" offset=".455" stop-color="#dbeff9" stop-opacity="1"/><stop id="stop13763" offset=".545" stop-color="#cee4f0" stop-opacity="1"/><stop id="stop13759" offset="1" stop-color="#def1fa" stop-opacity="1"/></linearGradient><linearGradient id="linearGradient8584" x1="28.005" x2="28.005" y1="-5.608" y2="1.609" gradientUnits="userSpaceOnUse" xlink:href="#linearGradient13755"/><linearGradient id="linearGradient8586" x1="30.034" x2="30.034" y1="-6.111" y2="1.909" gradientUnits="userSpaceOnUse" xlink:href="#linearGradient13831"/></defs><metadata id="metadata7"/><g id="layer1" display="inline" transform="translate(0,-1032.3622)"><g id="g8159" display="inline" transform="translate(-8.2201163,-12.904699)"><g id="g8579" transform="matrix(1.0304739,0,0,1.0304739,-36.147172,-25.214481)"><path id="path13745" fill="url(#linearGradient8584)" fill-opacity="1" stroke="url(#linearGradient8586)" stroke-dasharray="none" stroke-linecap="round" stroke-linejoin="round" stroke-miterlimit="4" stroke-opacity="1" stroke-width=".802" d="m 31.413783,-2 c 0,2.98994957 -2.423833,5.4137826 -5.413783,5.4137826 -2.98995,0 -5.413783,-2.42383303 -5.413783,-5.4137826 0,-2.9899496 2.423833,-5.4137826 5.413783,-5.4137826 2.98995,0 5.413783,2.423833 5.413783,5.4137826 z" transform="matrix(1.247029,0,0,1.247029,20.641113,1050.8233)"/><path id="path13811" fill="none" stroke="#1f4a83" stroke-dasharray="none" stroke-linecap="round" stroke-linejoin="round" stroke-miterlimit="4" stroke-opacity="1" stroke-width=".8" d="m 53.094196,1048.3597 0,-4.5945"/><path id="path13811-9" fill="none" stroke="#1f4a83" stroke-dasharray="none" stroke-linecap="round" stroke-linejoin="round" stroke-miterlimit="4" stroke-opacity="1" stroke-width=".8" d="m 53.094196,1048.3597 2.607457,3.6255" display="inline"/><path id="path8563" fill="#125385" fill-opacity="1" stroke="#105285" stroke-dasharray="none" stroke-miterlimit="4" stroke-opacity="1" stroke-width="1" d="m 1.4508253,-3.458333 c 0,0.2369556 -0.1746828,0.429046 -0.3901651,0.429046 -0.21548217,0 -0.39016502,-0.1920904 -0.39016502,-0.429046 0,-0.2369556 0.17468285,-0.4290461 0.39016502,-0.4290461 0.2154823,0 0.3901651,0.1920905 0.3901651,0.4290461 z" transform="matrix(0.7191532,0,0,0.7191532,49.14706,1047.6173)"/><path id="path8563-6" fill="#125385" fill-opacity="1" stroke="#105285" stroke-dasharray="none" stroke-miterlimit="4" stroke-opacity="1" stroke-width="1" d="m 1.4508253,-3.458333 c 0,0.2369556 -0.1746828,0.429046 -0.3901651,0.429046 -0.21548217,0 -0.39016502,-0.1920904 -0.39016502,-0.429046 0,-0.2369556 0.17468285,-0.4290461 0.39016502,-0.4290461 0.2154823,0 0.3901651,0.1920905 0.3901651,0.4290461 z" display="inline" transform="matrix(0.7191532,0,0,0.7191532,47.89706,1051.6173)"/><path id="path8563-6-3" fill="#125385" fill-opacity="1" stroke="#105285" stroke-dasharray="none" stroke-miterlimit="4" stroke-opacity="1" stroke-width="1" d="m 1.4508253,-3.458333 c 0,0.2369556 -0.1746828,0.429046 -0.3901651,0.429046 -0.21548217,0 -0.39016502,-0.1920904 -0.39016502,-0.429046 0,-0.2369556 0.17468285,-0.4290461 0.39016502,-0.4290461 0.2154823,0 0.3901651,0.1920905 0.3901651,0.4290461 z" display="inline" transform="matrix(0.7191532,0,0,0.7191532,49.49173,1054.087)"/><path id="path8563-6-3-6" fill="#125385" fill-opacity="1" stroke="#105285" stroke-dasharray="none" stroke-miterlimit="4" stroke-opacity="1" stroke-width="1" d="m 1.4508253,-3.458333 c 0,0.2369556 -0.1746828,0.429046 -0.3901651,0.429046 -0.21548217,0 -0.39016502,-0.1920904 -0.39016502,-0.429046 0,-0.2369556 0.17468285,-0.4290461 0.39016502,-0.4290461 0.2154823,0 0.3901651,0.1920905 0.3901651,0.4290461 z" display="inline" transform="matrix(0.7191532,0,0,0.7191532,52.27206,1055.7423)"/><path id="path8563-6-3-6-8" fill="#125385" fill-opacity="1" stroke="#105285" stroke-dasharray="none" stroke-miterlimit="4" stroke-opacity="1" stroke-width="1" d="m 1.4508253,-3.458333 c 0,0.2369556 -0.1746828,0.429046 -0.3901651,0.429046 -0.21548217,0 -0.39016502,-0.1920904 -0.39016502,-0.429046 0,-0.2369556 0.17468285,-0.4290461 0.39016502,-0.4290461 0.2154823,0 0.3901651,0.1920905 0.3901651,0.4290461 z" display="inline" transform="matrix(0.7191532,0,0,0.7191532,55.630817,1047.6106)"/><path id="path8563-6-3-6-8-6" fill="#125385" fill-opacity="1" stroke="#105285" stroke-dasharray="none" stroke-miterlimit="4" stroke-opacity="1" stroke-width="1" d="m 1.4508253,-3.458333 c 0,0.2369556 -0.1746828,0.429046 -0.3901651,0.429046 -0.21548217,0 -0.39016502,-0.1920904 -0.39016502,-0.429046 0,-0.2369556 0.17468285,-0.4290461 0.39016502,-0.4290461 0.2154823,0 0.3901651,0.1920905 0.3901651,0.4290461 z" display="inline" transform="matrix(0.7191532,0,0,0.7191532,56.868254,1051.2345)"/></g></g></g></svg>