<svg xmlns="http://www.w3.org/2000/svg" xmlns:svg="http://www.w3.org/2000/svg" id="svg2" width="16" height="16" version="1.1"><metadata id="metadata7"/><g id="layer1" display="inline" transform="translate(0,-1036.3622)"><g id="g4794" display="inline" transform="matrix(0.97551468,0,0,0.97551468,9.2809852,25.497327)"><path id="path3981-1-1" fill="#000" fill-opacity="1" stroke="none" d="m 2.796863,1041.331 -2,0 -2.6406003,2.6406 1.3276001,0.7665 2.3601002,-2.36 0.9217,0 z m -4.8901003,3.8126 -2.3601,2.36 -0.9217,0 -0.0312,1.0471 2,0 2.6406,-2.6406 m 3.5625123,2.6405 -2,0 -2.640625,-2.6406 1.3276191,-0.7665 2.3600659,2.36 0.92169,0 z m -8.203125,-7.2196 2,0 2.640625,2.6406 -1.3276191,0.7665 -2.3600661,-2.3601 -0.9216898,0 z" display="inline"/><path id="path4791" fill="#000" fill-opacity="1" stroke="none" d="m -0.97227183,7.1390681 -0.22097087,-0.044194 -0.4861359,0.022097 -0.5524272,0.4640389 0.1325825,0.6408155 0,0.9059806 0.3756505,0.9501749 0.79549515,0 0.4550512,-0.1219308 0,-1.0050208 -0.0573036,-0.066291 0,-0.8396893 z" transform="translate(0,1036.3622)"/></g></g></svg>