<svg xmlns="http://www.w3.org/2000/svg" xmlns:svg="http://www.w3.org/2000/svg" xmlns:xlink="http://www.w3.org/1999/xlink" id="svg2" width="16" height="16" version="1.1"><defs id="defs4"><linearGradient id="linearGradient4772"><stop id="stop4774" offset="0" stop-color="#757c8a" stop-opacity="1"/><stop id="stop4776" offset="1" stop-color="#c9c0c0" stop-opacity="1"/></linearGradient><linearGradient id="linearGradient4830"><stop id="stop4832" offset="0" stop-color="#2e49b0" stop-opacity="1"/><stop id="stop4836" offset=".5" stop-color="#565f9e" stop-opacity="1"/><stop id="stop4834" offset="1" stop-color="#8591c8" stop-opacity="0"/></linearGradient><linearGradient id="linearGradient4762"><stop id="stop4764" offset="0" stop-color="#93b6eb" stop-opacity="1"/><stop id="stop4766" offset="1" stop-color="#b0dffc" stop-opacity="1"/></linearGradient><linearGradient id="linearGradient3967"><stop id="stop3969" offset="0" stop-color="#84909f" stop-opacity="1"/><stop id="stop3971" offset="1" stop-color="#757c8a" stop-opacity="1"/></linearGradient><linearGradient id="linearGradient3955"><stop id="stop3957" offset="0" stop-color="#c38536" stop-opacity="0"/><stop id="stop3959" offset=".154" stop-color="#f2dc91" stop-opacity="1"/><stop id="stop3961" offset=".5" stop-color="#fbdc8b" stop-opacity="1"/><stop id="stop3963" offset=".75" stop-color="#e6bd7a" stop-opacity="1"/><stop id="stop3965" offset="1" stop-color="#ba772f" stop-opacity="0"/></linearGradient><linearGradient id="linearGradient3939" x1="529.219" x2="531.093" y1="366.789" y2="371.179" gradientTransform="translate(-58.381352,-1.4843182)" gradientUnits="userSpaceOnUse" xlink:href="#linearGradient3967"/><mask id="mask4917" maskUnits="userSpaceOnUse"><path id="path4919" fill="#fff" fill-opacity="1" stroke="#fff" stroke-dashoffset="0" stroke-linecap="round" stroke-linejoin="round" stroke-miterlimit="4" stroke-opacity="1" stroke-width="2" d="m 462.77563,373.22885 29.11636,0 c 1.45425,0 2.625,1.17075 2.625,2.625 l 0,18.76896 c 0,1.45425 -1.17412,2.52598 -2.625,2.625 l -29.11636,1.98708 c -1.45088,0.099 -2.625,-1.17075 -2.625,-2.625 l 0,-20.75604 c 0,-1.45425 1.17075,-2.625 2.625,-2.625 z" display="inline"/></mask><linearGradient id="linearGradient4779" x1="392.468" x2="446.225" y1="356.287" y2="356.287" gradientTransform="translate(71.676102,0)" gradientUnits="userSpaceOnUse" xlink:href="#linearGradient4772"/><linearGradient id="linearGradient5950" x1="548.459" x2="548.459" y1="398.988" y2="373.771" gradientTransform="matrix(1.0790773,0,0,0.99598149,-101.72166,1.5483971)" gradientUnits="userSpaceOnUse" xlink:href="#linearGradient4830"/><linearGradient id="linearGradient5952" x1="523.008" x2="543.914" y1="373.229" y2="373.229" gradientTransform="matrix(1.0790773,0,0,0.99598149,-101.72167,1.54839)" gradientUnits="userSpaceOnUse" xlink:href="#linearGradient3955"/><linearGradient id="linearGradient5954" x1="538.006" x2="538.006" y1="396.223" y2="374.212" gradientTransform="matrix(1.0790773,0,0,0.99598149,-101.72167,1.54839)" gradientUnits="userSpaceOnUse" xlink:href="#linearGradient4762"/></defs><metadata id="metadata7"/><g id="layer1" display="inline" transform="translate(0,-1036.3622)"><g id="g13862" display="inline" transform="matrix(0.27903303,0,0,0.27903303,-129.51159,939.94639)"><rect id="rect3978" width="53.757" height="7.168" x="464.144" y="352.703" fill="url(#linearGradient4779)" fill-opacity="1" stroke="none"/><g id="g13813" transform="matrix(1.1835826,0,0,1.1835826,-75.612218,-85.237312)"><rect id="rect13693-3" width="15" height="16.625" x="466.728" y="365.565" fill="#fdf7eb" fill-opacity="1" stroke="url(#linearGradient3939)" stroke-dasharray="none" stroke-dashoffset="0" stroke-linecap="round" stroke-linejoin="round" stroke-miterlimit="4" stroke-opacity="1" stroke-width="3.028" display="inline" rx="2.625" ry="2.625"/><path id="rect13693" fill="url(#linearGradient5954)" fill-opacity="1" stroke="#757c8a" stroke-dasharray="none" stroke-dashoffset="0" stroke-linecap="round" stroke-linejoin="round" stroke-miterlimit="4" stroke-opacity="1" stroke-width="3.139" d="m 463.57404,371.54479 30.26361,0 c 1.56924,0 2.83257,1.16604 2.83257,2.61445 l 0,22.31102 c 0,1.44841 -1.26341,2.6303 -2.83257,2.61445 l -30.26361,-0.30559 c -1.56917,-0.0158 -2.83258,-1.16605 -2.83258,-2.61446 l 0,-22.00542 c 0,-1.44841 1.26333,-2.61445 2.83258,-2.61445 z"/><path id="path13797" fill="none" stroke="url(#linearGradient5952)" stroke-dasharray="none" stroke-linecap="butt" stroke-linejoin="miter" stroke-miterlimit="4" stroke-opacity="1" stroke-width="3.139" d="m 463.01947,371.54533 21.10512,0"/><path id="rect13693-8" fill="none" stroke="url(#linearGradient5950)" stroke-dasharray="none" stroke-dashoffset="0" stroke-linecap="round" stroke-linejoin="round" stroke-miterlimit="4" stroke-opacity="1" stroke-width="3.139" d="m 463.57404,371.54479 30.26361,0 c 1.56925,0 2.83257,1.16604 2.83257,2.61445 l 0,22.09966 c 0,1.44841 -1.26332,2.61935 -2.83257,2.61446 l -30.26361,-0.0942 c -1.56925,-0.005 -2.83258,-1.16605 -2.83258,-2.61446 l 0,-22.00542 c 0,-1.44841 1.26333,-2.61445 2.83258,-2.61445 z" display="inline"/></g></g></g></svg>