<svg xmlns="http://www.w3.org/2000/svg" xmlns:svg="http://www.w3.org/2000/svg" xmlns:xlink="http://www.w3.org/1999/xlink" id="svg2" width="16" height="16" version="1.1"><defs id="defs4"><linearGradient id="linearGradient4830"><stop id="stop4832" offset="0" stop-color="#2e49b0" stop-opacity="1"/><stop id="stop4836" offset=".5" stop-color="#565f9e" stop-opacity="1"/><stop id="stop4834" offset="1" stop-color="#8591c8" stop-opacity="0"/></linearGradient><linearGradient id="linearGradient4762"><stop id="stop4764" offset="0" stop-color="#ffd175" stop-opacity="1"/><stop id="stop4766" offset="1" stop-color="#fff1c2" stop-opacity="1"/></linearGradient><linearGradient id="linearGradient4756"><stop id="stop4758" offset="0" stop-color="#92b5eb" stop-opacity="1"/><stop id="stop4760" offset="1" stop-color="#b1e1fd" stop-opacity="1"/></linearGradient><linearGradient id="linearGradient4807"><stop id="stop4809" offset="0" stop-color="#2846b3" stop-opacity="1"/><stop id="stop4811" offset="1" stop-color="#60649d" stop-opacity="1"/></linearGradient><linearGradient id="linearGradient3967"><stop id="stop3969" offset="0" stop-color="#84909f" stop-opacity="1"/><stop id="stop3971" offset="1" stop-color="#757c8a" stop-opacity="1"/></linearGradient><linearGradient id="linearGradient3955"><stop id="stop3957" offset="0" stop-color="#c38536" stop-opacity="0"/><stop id="stop3959" offset=".154" stop-color="#f2dc91" stop-opacity="1"/><stop id="stop3961" offset=".5" stop-color="#fbdc8b" stop-opacity="1"/><stop id="stop3963" offset=".75" stop-color="#e6bd7a" stop-opacity="1"/><stop id="stop3965" offset="1" stop-color="#ba772f" stop-opacity="0"/></linearGradient><linearGradient id="linearGradient3939" x1="529.219" x2="531.093" y1="366.789" y2="371.179" gradientTransform="translate(-58.381352,-1.4843182)" gradientUnits="userSpaceOnUse" xlink:href="#linearGradient3967"/><linearGradient id="linearGradient3945" x1="523.008" x2="543.914" y1="373.229" y2="373.229" gradientTransform="translate(-60.558602,0)" gradientUnits="userSpaceOnUse" xlink:href="#linearGradient3955"/><linearGradient id="linearGradient4776" x1="537.943" x2="537.902" y1="397.561" y2="385.152" gradientTransform="matrix(0.95640793,0,1.3306873e-8,1.3548175,367.50712,24.15968)" gradientUnits="userSpaceOnUse" xlink:href="#linearGradient4756"/><linearGradient id="linearGradient4778" x1="546.633" x2="546.583" y1="397.264" y2="382.124" gradientTransform="matrix(0.95640793,0,1.3306873e-8,1.3548175,367.50712,24.15968)" gradientUnits="userSpaceOnUse" xlink:href="#linearGradient4807"/><mask id="mask4917" maskUnits="userSpaceOnUse"><path id="path4919" fill="#fff" fill-opacity="1" stroke="#fff" stroke-dashoffset="0" stroke-linecap="round" stroke-linejoin="round" stroke-miterlimit="4" stroke-opacity="1" stroke-width="2" d="m 462.77563,373.22885 29.11636,0 c 1.45425,0 2.625,1.17075 2.625,2.625 l 0,18.76896 c 0,1.45425 -1.17412,2.52598 -2.625,2.625 l -29.11636,1.98708 c -1.45088,0.099 -2.625,-1.17075 -2.625,-2.625 l 0,-20.75604 c 0,-1.45425 1.17075,-2.625 2.625,-2.625 z" display="inline"/></mask><filter id="filter4929" width="1.275" height="1.755" x="-.138" y="-.377"><feGaussianBlur id="feGaussianBlur4931" stdDeviation="3.562"/></filter><linearGradient id="linearGradient4933" x1="538.006" x2="538.006" y1="396.223" y2="374.212" gradientTransform="translate(-60.558602,0)" gradientUnits="userSpaceOnUse" xlink:href="#linearGradient4762"/><linearGradient id="linearGradient4795" x1="548.459" x2="548.459" y1="398.988" y2="373.771" gradientTransform="translate(-60.558592,7.1608197e-6)" gradientUnits="userSpaceOnUse" xlink:href="#linearGradient4830"/></defs><metadata id="metadata7"/><g id="layer1" display="inline" transform="translate(0,-1036.3622)"><g id="g13862" display="inline" transform="matrix(0.27903303,0,0,0.27903303,-129.51159,939.94639)"><g id="g13813" transform="matrix(1.1835826,0,0,1.1835826,-75.612218,-85.237312)"><rect id="rect13693-3" width="15" height="16.625" x="466.728" y="365.565" fill="#fdf7eb" fill-opacity="1" stroke="url(#linearGradient3939)" stroke-dasharray="none" stroke-dashoffset="0" stroke-linecap="round" stroke-linejoin="round" stroke-miterlimit="4" stroke-opacity="1" stroke-width="3.028" display="inline" rx="2.625" ry="2.625"/><path id="rect13693" fill="url(#linearGradient4933)" fill-opacity="1" stroke="#757c8a" stroke-dasharray="none" stroke-dashoffset="0" stroke-linecap="round" stroke-linejoin="round" stroke-miterlimit="4" stroke-opacity="1" stroke-width="3.028" d="m 463.3109,371.48923 28.04582,0 c 1.45425,0 2.625,1.17075 2.625,2.625 l 0,20.50858 c 0,1.45425 -1.17306,2.54291 -2.625,2.625 l -28.04582,1.58563 c -1.45194,0.0821 -2.625,-1.17075 -2.625,-2.625 l 0,-22.09421 c 0,-1.45425 1.17075,-2.625 2.625,-2.625 z"/><path id="path13797" fill="none" stroke="url(#linearGradient3945)" stroke-dasharray="none" stroke-linecap="butt" stroke-linejoin="miter" stroke-miterlimit="4" stroke-opacity="1" stroke-width="3.028" d="m 462.79697,371.48977 19.55849,0"/><g id="g4914" mask="url(#mask4917)"><rect id="rect13693-2-2" width="30.9" height="22.649" x="860.685" y="542.897" fill="#000" fill-opacity="1" stroke="#000" stroke-dasharray="none" stroke-dashoffset="0" stroke-linecap="round" stroke-linejoin="round" stroke-miterlimit="4" stroke-opacity="1" stroke-width="2.38" display="inline" filter="url(#filter4929)" opacity=".5" rx="2.625" ry="3.718" transform="matrix(1,0,-0.70828043,0.70593118,0,0)"/></g><path id="rect13693-8" fill="none" stroke="url(#linearGradient4795)" stroke-dasharray="none" stroke-dashoffset="0" stroke-linecap="round" stroke-linejoin="round" stroke-miterlimit="4" stroke-opacity="1" stroke-width="3.028" d="m 463.3109,371.48923 28.04582,0 c 1.45426,0 2.625,1.17075 2.625,2.625 l 0,20.10713 c 0,1.45425 -1.17437,2.52222 -2.625,2.625 l -28.04582,1.98708 c -1.45062,0.10278 -2.625,-1.17075 -2.625,-2.625 l 0,-22.09421 c 0,-1.45425 1.17075,-2.625 2.625,-2.625 z" display="inline"/><rect id="rect13693-2" width="29.553" height="21.662" x="861.358" y="543.391" fill="url(#linearGradient4776)" fill-opacity="1" stroke="url(#linearGradient4778)" stroke-dasharray="none" stroke-dashoffset="0" stroke-linecap="round" stroke-linejoin="round" stroke-miterlimit="4" stroke-opacity="1" stroke-width="3.604" display="inline" rx="2.511" ry="3.556" transform="matrix(1,0,-0.70828042,0.70593119,0,0)"/></g></g></g></svg>