<svg xmlns="http://www.w3.org/2000/svg" xmlns:svg="http://www.w3.org/2000/svg" xmlns:xlink="http://www.w3.org/1999/xlink" id="svg2" width="16" height="16" version="1.1"><defs id="defs4"><linearGradient id="linearGradient4921"><stop id="stop4923" offset="0" stop-color="#85a2cd" stop-opacity="1"/><stop id="stop4925" offset="1" stop-color="#d3dce9" stop-opacity="1"/></linearGradient><linearGradient id="linearGradient4913"><stop id="stop4915" offset="0" stop-color="#4e6b9b" stop-opacity="1"/><stop id="stop4917" offset="1" stop-color="#6783b1" stop-opacity="1"/></linearGradient><linearGradient id="linearGradient4919" x1="1.86" x2="1.86" y1="1051.589" y2="1046.849" gradientTransform="matrix(1.0234842,0,0,1.0234842,-17.402505,-25.185931)" gradientUnits="userSpaceOnUse" xlink:href="#linearGradient4913"/><linearGradient id="linearGradient4927" x1="1.86" x2="1.86" y1="1051.589" y2="1046.849" gradientTransform="matrix(1.0234842,0,0,1.0234842,-17.402505,-25.185931)" gradientUnits="userSpaceOnUse" xlink:href="#linearGradient4921"/><linearGradient id="linearGradient4789"><stop id="stop4791" offset="0" stop-color="#4e8fbd" stop-opacity="1"/><stop id="stop4793" offset="1" stop-color="#30495a" stop-opacity="1"/></linearGradient><linearGradient id="linearGradient3924" x1="-2.287" x2="-2.287" y1="1044.692" y2="1049.598" gradientTransform="matrix(0.72371262,0.72371262,0.72371262,-0.72371262,-744.90513,1800.3892)" gradientUnits="userSpaceOnUse" xlink:href="#linearGradient4789"/></defs><metadata id="metadata7"/><g id="layer1" display="inline" transform="translate(0,-1036.3622)"><g id="g4908" transform="matrix(-1,0,0,1,-2.6607962,0)"><path id="path4143" fill="url(#linearGradient4927)" fill-opacity="1" stroke="url(#linearGradient4919)" stroke-dasharray="none" stroke-linecap="butt" stroke-linejoin="miter" stroke-miterlimit="4" stroke-opacity="1" stroke-width=".716" d="m -17.306554,1043.8942 0,7.1004 7.132406,0 7.1324058,0 0,-7.1004 -3.0064848,0 0,2.015 0.9275325,0 0,3.0704 -5.0534535,0 -5.053453,0 0,-3.0704 0.927532,0 0,-2.015 z"/></g><path id="path3986" fill="url(#linearGradient3924)" fill-opacity="1" stroke="none" d="m 4.7164468,1046.6891 0.6556696,0.6556 6.2848656,-6.2848 1.311339,1.3113 0.335794,-3.5021 -3.5021962,0.3037 1.2313792,1.2315 z" display="inline"/></g></svg>