<svg xmlns="http://www.w3.org/2000/svg" xmlns:svg="http://www.w3.org/2000/svg" xmlns:xlink="http://www.w3.org/1999/xlink" id="svg2" width="16" height="16" version="1.1"><defs id="defs4"><linearGradient id="linearGradient4830"><stop id="stop4832" offset="0" stop-color="#2e49b0" stop-opacity="1"/><stop id="stop4836" offset=".5" stop-color="#565f9e" stop-opacity="1"/><stop id="stop4834" offset="1" stop-color="#8591c8" stop-opacity="0"/></linearGradient><linearGradient id="linearGradient4762"><stop id="stop4764" offset="0" stop-color="#ffd175" stop-opacity="1"/><stop id="stop4766" offset="1" stop-color="#fff1c2" stop-opacity="1"/></linearGradient><linearGradient id="linearGradient4756"><stop id="stop4758" offset="0" stop-color="#92b5eb" stop-opacity="1"/><stop id="stop4760" offset="1" stop-color="#b1e1fd" stop-opacity="1"/></linearGradient><linearGradient id="linearGradient4807"><stop id="stop4809" offset="0" stop-color="#2846b3" stop-opacity="1"/><stop id="stop4811" offset="1" stop-color="#60649d" stop-opacity="1"/></linearGradient><linearGradient id="linearGradient3967"><stop id="stop3969" offset="0" stop-color="#84909f" stop-opacity="1"/><stop id="stop3971" offset="1" stop-color="#757c8a" stop-opacity="1"/></linearGradient><linearGradient id="linearGradient3955"><stop id="stop3957" offset="0" stop-color="#c38536" stop-opacity="0"/><stop id="stop3959" offset=".154" stop-color="#f2dc91" stop-opacity="1"/><stop id="stop3961" offset=".5" stop-color="#fbdc8b" stop-opacity="1"/><stop id="stop3963" offset=".75" stop-color="#e6bd7a" stop-opacity="1"/><stop id="stop3965" offset="1" stop-color="#ba772f" stop-opacity="0"/></linearGradient><linearGradient id="linearGradient3939" x1="529.219" x2="531.093" y1="366.789" y2="371.179" gradientTransform="translate(-58.381352,-1.4843182)" gradientUnits="userSpaceOnUse" xlink:href="#linearGradient3967"/><linearGradient id="linearGradient3945" x1="523.008" x2="543.914" y1="373.229" y2="373.229" gradientTransform="translate(-60.558602,0)" gradientUnits="userSpaceOnUse" xlink:href="#linearGradient3955"/><linearGradient id="linearGradient4776" x1="537.943" x2="537.902" y1="397.561" y2="385.152" gradientTransform="matrix(0.95640793,0,1.3306873e-8,1.3548175,367.50712,24.15968)" gradientUnits="userSpaceOnUse" xlink:href="#linearGradient4756"/><linearGradient id="linearGradient4778" x1="546.633" x2="546.583" y1="397.264" y2="382.124" gradientTransform="matrix(0.95640793,0,1.3306873e-8,1.3548175,367.50712,24.15968)" gradientUnits="userSpaceOnUse" xlink:href="#linearGradient4807"/><mask id="mask4917" maskUnits="userSpaceOnUse"><path id="path4919" fill="#fff" fill-opacity="1" stroke="#fff" stroke-dashoffset="0" stroke-linecap="round" stroke-linejoin="round" stroke-miterlimit="4" stroke-opacity="1" stroke-width="2" d="m 462.77563,373.22885 29.11636,0 c 1.45425,0 2.625,1.17075 2.625,2.625 l 0,18.76896 c 0,1.45425 -1.17412,2.52598 -2.625,2.625 l -29.11636,1.98708 c -1.45088,0.099 -2.625,-1.17075 -2.625,-2.625 l 0,-20.75604 c 0,-1.45425 1.17075,-2.625 2.625,-2.625 z" display="inline"/></mask><filter id="filter4929" width="1.275" height="1.755" x="-.138" y="-.377"><feGaussianBlur id="feGaussianBlur4931" stdDeviation="3.562"/></filter><linearGradient id="linearGradient4933" x1="538.006" x2="538.006" y1="396.223" y2="374.212" gradientTransform="translate(-60.558602,0)" gradientUnits="userSpaceOnUse" xlink:href="#linearGradient4762"/><linearGradient id="linearGradient4795" x1="548.459" x2="548.459" y1="398.988" y2="373.771" gradientTransform="translate(-60.558592,7.1608197e-6)" gradientUnits="userSpaceOnUse" xlink:href="#linearGradient4830"/><linearGradient id="linearGradient5068"><stop id="stop5070" offset="0" stop-color="#fff" stop-opacity="1"/><stop id="stop5072" offset="1" stop-color="#fff" stop-opacity="0"/></linearGradient><linearGradient id="linearGradient4823"><stop id="stop4825" offset="0" stop-color="#fefdef" stop-opacity="1"/><stop id="stop4827" offset="1" stop-color="#fbdd83" stop-opacity="1"/></linearGradient><linearGradient id="linearGradient4863"><stop id="stop4865" offset="0" stop-color="#ba9726" stop-opacity="1"/><stop id="stop4867" offset="1" stop-color="#997413" stop-opacity="1"/></linearGradient><radialGradient id="radialGradient4534-5" cx="-757.205" cy="-738.838" r="3.48" fx="-757.205" fy="-738.838" gradientTransform="matrix(1.8508179,-8.813921e-6,8.4531434e-6,1.7750589,644.24981,572.63612)" gradientUnits="userSpaceOnUse" xlink:href="#linearGradient4528-9"/><linearGradient id="linearGradient4528-9"><stop id="stop4530-0" offset="0" stop-color="#e0c576" stop-opacity="1"/><stop id="stop4532-7" offset="1" stop-color="#9e7916" stop-opacity="1"/></linearGradient><linearGradient id="linearGradient4526-2" x1=".938" x2=".938" y1="4.844" y2="7.549" gradientTransform="matrix(2.3199889,0,0,2.3199889,10.199693,1043.1852)" gradientUnits="userSpaceOnUse" xlink:href="#linearGradient6281-8-0-1-6"/><linearGradient id="linearGradient6281-8-0-1-6"><stop id="stop6283-0-2-2-1" offset="0" stop-color="#f7f9fb" stop-opacity="1"/><stop id="stop6285-5-0-9-7" offset="1" stop-color="#ffd680" stop-opacity="1"/></linearGradient><linearGradient id="linearGradient3105" x1="10" x2="10.008" y1="5" y2="6.984" gradientTransform="translate(13.866995,1038.8271)" gradientUnits="userSpaceOnUse" xlink:href="#linearGradient5068"/><linearGradient id="linearGradient3107" x1="12.578" x2="12.578" y1="1037.784" y2="1043.763" gradientTransform="translate(13.874807,2.4492957)" gradientUnits="userSpaceOnUse" xlink:href="#linearGradient4863"/><linearGradient id="linearGradient3109" x1=".938" x2=".938" y1="4.844" y2="7.549" gradientTransform="matrix(1.8479968,0,0,1.8479968,24.14231,1031.8602)" gradientUnits="userSpaceOnUse" xlink:href="#linearGradient4823"/><linearGradient id="linearGradient3111" x1="12" x2="12" y1="1043.362" y2="1045.347" gradientTransform="translate(13.866995,2.4648957)" gradientUnits="userSpaceOnUse" xlink:href="#linearGradient5068"/><linearGradient id="linearGradient3113" x1="13" x2="15.008" y1="1043.362" y2="1043.347" gradientTransform="translate(13.866995,2.4648957)" gradientUnits="userSpaceOnUse" xlink:href="#linearGradient5068"/><linearGradient id="linearGradient3115" x1="12" x2="10.008" y1="1042.362" y2="1042.362" gradientTransform="matrix(1.5333047,-0.8452528,1.5333047,0.8452528,-1566.5485,172.95576)" gradientUnits="userSpaceOnUse" xlink:href="#linearGradient5068"/><linearGradient id="linearGradient3117" x1="10" x2="8.008" y1="1041.362" y2="1041.347" gradientTransform="translate(40.491994,1.0273958)" gradientUnits="userSpaceOnUse" xlink:href="#linearGradient5068"/><linearGradient id="linearGradient3119" x1="10" x2="10.008" y1="1040.362" y2="1038.347" gradientTransform="translate(13.866995,2.4648957)" gradientUnits="userSpaceOnUse" xlink:href="#linearGradient5068"/><linearGradient id="linearGradient3121" x1="12" x2="10.008" y1="1038.362" y2="1038.347" gradientTransform="translate(13.866995,2.4648957)" gradientUnits="userSpaceOnUse" xlink:href="#linearGradient5068"/><linearGradient id="linearGradient3123" x1="14" x2="14" y1="1041.362" y2="1043.347" gradientTransform="translate(13.866995,2.4648957)" gradientUnits="userSpaceOnUse" xlink:href="#linearGradient5068"/></defs><metadata id="metadata7"/><g id="layer1" display="inline" transform="translate(0,-1036.3622)"><g id="g13862" display="inline" transform="matrix(0.27903303,0,0,0.27903303,-129.51159,939.94639)"><g id="g13813" transform="matrix(1.1835826,0,0,1.1835826,-75.612218,-85.237312)"><rect id="rect13693-3" width="15" height="16.625" x="466.728" y="365.565" fill="#fdf7eb" fill-opacity="1" stroke="url(#linearGradient3939)" stroke-dasharray="none" stroke-dashoffset="0" stroke-linecap="round" stroke-linejoin="round" stroke-miterlimit="4" stroke-opacity="1" stroke-width="3.028" display="inline" rx="2.625" ry="2.625"/><path id="rect13693" fill="url(#linearGradient4933)" fill-opacity="1" stroke="#757c8a" stroke-dasharray="none" stroke-dashoffset="0" stroke-linecap="round" stroke-linejoin="round" stroke-miterlimit="4" stroke-opacity="1" stroke-width="3.028" d="m 463.3109,371.48923 28.04582,0 c 1.45425,0 2.625,1.17075 2.625,2.625 l 0,20.50858 c 0,1.45425 -1.17306,2.54291 -2.625,2.625 l -28.04582,1.58563 c -1.45194,0.0821 -2.625,-1.17075 -2.625,-2.625 l 0,-22.09421 c 0,-1.45425 1.17075,-2.625 2.625,-2.625 z"/><path id="path13797" fill="none" stroke="url(#linearGradient3945)" stroke-dasharray="none" stroke-linecap="butt" stroke-linejoin="miter" stroke-miterlimit="4" stroke-opacity="1" stroke-width="3.028" d="m 462.79697,371.48977 19.55849,0"/><g id="g4914" mask="url(#mask4917)"><rect id="rect13693-2-2" width="30.9" height="22.649" x="860.685" y="542.897" fill="#000" fill-opacity="1" stroke="#000" stroke-dasharray="none" stroke-dashoffset="0" stroke-linecap="round" stroke-linejoin="round" stroke-miterlimit="4" stroke-opacity="1" stroke-width="2.38" display="inline" filter="url(#filter4929)" opacity=".5" rx="2.625" ry="3.718" transform="matrix(1,0,-0.70828043,0.70593118,0,0)"/></g><path id="rect13693-8" fill="none" stroke="url(#linearGradient4795)" stroke-dasharray="none" stroke-dashoffset="0" stroke-linecap="round" stroke-linejoin="round" stroke-miterlimit="4" stroke-opacity="1" stroke-width="3.028" d="m 463.3109,371.48923 28.04582,0 c 1.45426,0 2.625,1.17075 2.625,2.625 l 0,20.10713 c 0,1.45425 -1.17437,2.52222 -2.625,2.625 l -28.04582,1.98708 c -1.45062,0.10278 -2.625,-1.17075 -2.625,-2.625 l 0,-22.09421 c 0,-1.45425 1.17075,-2.625 2.625,-2.625 z" display="inline"/><rect id="rect13693-2" width="29.553" height="21.662" x="861.358" y="543.391" fill="url(#linearGradient4776)" fill-opacity="1" stroke="url(#linearGradient4778)" stroke-dasharray="none" stroke-dashoffset="0" stroke-linecap="round" stroke-linejoin="round" stroke-miterlimit="4" stroke-opacity="1" stroke-width="3.604" display="inline" rx="2.511" ry="3.556" transform="matrix(1,0,-0.70828042,0.70593119,0,0)"/></g></g><g id="g5996" transform="translate(-40.665532,-3.4250483)"><path id="path5581-1-1-6" fill="url(#linearGradient3115)" fill-opacity="1" stroke="none" d="m 48.564719,1046.3883 3.066609,1.6905 0.01192,-2.516 -3.066608,-1.6905 z" display="inline"/><path id="path5581-1-1-1" fill="url(#linearGradient3117)" fill-opacity="1" stroke="none" d="m 48.499806,1039.374 0,5 1.460938,-1.4844 0,-2 z" display="inline"/></g><g id="g4514" display="inline" transform="translate(8.4499345,-16.874713)"><g id="g4522" transform="translate(-9.9375,0)"><rect id="rect3910" width="4.583" height="4.454" x="-758.823" y="-740.411" fill="url(#radialGradient4534-5)" fill-opacity="1" stroke="#a27d18" stroke-dasharray="none" stroke-miterlimit="4" stroke-opacity="1" stroke-width="1.032" display="inline" transform="matrix(-0.70710678,-0.70710678,0.70710678,-0.70710678,0,0)"/><path id="path5581-5-5" fill="url(#linearGradient4526-2)" fill-opacity="1" stroke="none" d="m 12.471186,1054.309 1.001133,0 0,1.946 1.986639,0 0,1.0167 -1.986639,0 0,2.043 -1.001133,0 0,-2.043 -1.98664,0 0,-1.0167 1.98664,0 z" display="inline"/></g></g></g></svg>