<svg xmlns="http://www.w3.org/2000/svg" xmlns:svg="http://www.w3.org/2000/svg" xmlns:xlink="http://www.w3.org/1999/xlink" id="svg2" width="16" height="16" version="1.1"><defs id="defs4"><linearGradient id="linearGradient8163-2" x1="388.637" x2="388.637" y1="470.63" y2="465.527" gradientUnits="userSpaceOnUse" xlink:href="#linearGradient10798-1-9-3-7-1-15-1-7-6-1"/><linearGradient id="linearGradient10798-1-9-3-7-1-15-1-7-6-1"><stop id="stop10800-5-2-1-8-2-8-1-7-3-7" offset="0" stop-color="#e17673" stop-opacity="1"/><stop id="stop10806-6-8-5-3-2-95-0-5-4-8" offset=".5" stop-color="#d04046" stop-opacity="1"/><stop id="stop10802-1-5-3-0-2-0-9-8-4-3" offset="1" stop-color="#e17673" stop-opacity="1"/></linearGradient></defs><metadata id="metadata7"/><g id="layer1" display="inline" transform="translate(0,-1036.3622)"><g id="g8159" display="inline" transform="translate(-8.2201163,-12.904699)"><path id="path10796-2-6-0" fill="url(#linearGradient8163-2)" fill-opacity="1" stroke="#c93e35" stroke-dasharray="none" stroke-dashoffset="0" stroke-linecap="round" stroke-linejoin="round" stroke-miterlimit="4" stroke-opacity="1" stroke-width="1.975" d="m 398.75,468.23718 c 0,5.86803 -4.75697,10.625 -10.625,10.625 -5.86803,0 -10.625,-4.75697 -10.625,-10.625 0,-5.86802 4.75697,-10.625 10.625,-10.625 5.86803,0 10.625,4.75698 10.625,10.625 z" display="inline" transform="matrix(0.50645089,0,0,0.50645089,-180.12602,820.2612)"/><g id="g5025" transform="matrix(1.1880342,0,0,1.1860465,14.354445,-196.67175)"><g id="g4095" transform="matrix(1.0905016,0,0,1.0905016,-0.09572826,-95.681285)"><path id="path5021" fill="#fff" fill-opacity="1" stroke="none" stroke-width="1" d="M 6.2265625,3.6953125 C 5.9177427,3.7062384 5.125,4.3515625 5.125,4.3515625 c 0,0 0.2885111,0.2731764 0.78125,0.6796875 0.4927389,0.4065111 0.9552143,0.9554552 1.0625,1.4375 C 7.068619,6.9173537 7.1051563,7.3329889 7.15625,7.75 L 4.2010947,10.96967 5.0906092,11.868663 7.4375,9.375 c 0.2792655,0.4616799 0.5966442,0.914462 0.8125,1.28125 0.2533102,0.354 0.6860498,0.734189 1.40625,1.09375 1.285897,0.641907 1.105068,0.565316 1.105068,0.565316 l 0.965609,-0.791649 c 0,0 -0.202967,-0.247189 -1.508177,-0.898667 C 9.6433969,10.337868 9.4953002,10.118107 9.34375,9.90625 8.8239337,9.3154094 8.6327445,8.816423 8.5,8.1875 L 11.629711,4.6423859 10.681163,3.8870243 8.28125,6.5 C 8.263796,6.4030643 8.2724218,6.3194727 8.25,6.21875 8.0333974,5.2456067 7.3191341,4.5264873 6.71875,4.03125 6.4464909,3.8171333 6.4806949,3.8796991 6.2265625,3.6953125 z" baseline-shift="baseline" color="#000" direction="ltr" display="inline" enable-background="accumulate" font-family="Sans" font-size="medium" font-stretch="normal" font-style="normal" font-variant="normal" font-weight="normal" letter-spacing="normal" overflow="visible" text-anchor="start" text-decoration="none" transform="matrix(0.77187105,0,0,0.77316463,-4.647127,1051.0563)" visibility="visible" word-spacing="normal" writing-mode="lr-tb" style="text-indent:0;text-align:start;line-height:normal;text-transform:none;block-progression:tb;marker:none;-inkscape-font-specification:Sans"/></g></g></g></g></svg>