<svg xmlns="http://www.w3.org/2000/svg" xmlns:svg="http://www.w3.org/2000/svg" xmlns:xlink="http://www.w3.org/1999/xlink" id="svg2" width="16" height="16" version="1.1"><defs id="defs4"><linearGradient id="linearGradient7491"><stop id="stop7493" offset="0" stop-color="#5b6c89" stop-opacity="1"/><stop id="stop7495" offset="1" stop-color="#a0b0cc" stop-opacity="1"/></linearGradient><linearGradient id="linearGradient7254"><stop id="stop7256" offset="0" stop-color="#5b6c89" stop-opacity="1"/><stop id="stop7258" offset="1" stop-color="#95a3ba" stop-opacity="1"/></linearGradient><linearGradient id="linearGradient7260" x1="15.001" x2="-8" y1="2" y2="1.375" gradientTransform="translate(-0.03125,1035.7997)" gradientUnits="userSpaceOnUse" xlink:href="#linearGradient7254"/><linearGradient id="linearGradient7254-6"><stop id="stop7256-5" offset="0" stop-color="#5b6c89" stop-opacity="1"/><stop id="stop7258-7" offset="1" stop-color="#95a3ba" stop-opacity="1"/></linearGradient><linearGradient id="linearGradient7277" x1="15.001" x2="-3.264" y1="2" y2="2" gradientTransform="matrix(0.93721973,0,0,1,1036.3976,-3.562483)" gradientUnits="userSpaceOnUse" xlink:href="#linearGradient7254-6"/><linearGradient id="linearGradient7254-62"><stop id="stop7256-0" offset="0" stop-color="#5b6c89" stop-opacity="1"/><stop id="stop7258-0" offset="1" stop-color="#95a3ba" stop-opacity="1"/></linearGradient><linearGradient id="linearGradient7328" x1="15.001" x2="-17.188" y1="2" y2="2" gradientTransform="translate(-16.03125,1037.7997)" gradientUnits="userSpaceOnUse" xlink:href="#linearGradient7254-62"/><linearGradient id="linearGradient7254-6-4"><stop id="stop7256-5-4" offset="0" stop-color="#5b6c89" stop-opacity="1"/><stop id="stop7258-7-4" offset="1" stop-color="#95a3ba" stop-opacity="1"/></linearGradient><linearGradient id="linearGradient7362" x1="15.001" x2="-28.335" y1="2" y2="2" gradientTransform="matrix(0.93721973,0,0,1,1036.3977,-16.624983)" gradientUnits="userSpaceOnUse" xlink:href="#linearGradient7254-6-4"/><linearGradient id="linearGradient7497" x1="1.945" x2="14.142" y1="3.073" y2="3.073" gradientTransform="matrix(0.99637681,0,0,1,0.01998962,1035.7997)" gradientUnits="userSpaceOnUse" xlink:href="#linearGradient7491"/><linearGradient id="linearGradient7065" x1="24.929" x2="24.929" y1="1038.366" y2="1044.562" gradientTransform="matrix(0.72799609,0,0,0.72799609,20.936643,283.97383)" gradientUnits="userSpaceOnUse" xlink:href="#linearGradient7592-1"/><linearGradient id="linearGradient7063" x1="22.519" x2="22.519" y1="1042.028" y2="1040.735" gradientTransform="matrix(0.72799609,0,0,0.72799609,20.936643,283.97383)" gradientUnits="userSpaceOnUse" xlink:href="#linearGradient7584-5"/><linearGradient id="linearGradient7592-1"><stop id="stop7594-6" offset="0" stop-color="#bd8416" stop-opacity="1"/><stop id="stop7596-9" offset="1" stop-color="#a66b10" stop-opacity="1"/></linearGradient><linearGradient id="linearGradient7584-5"><stop id="stop7586-4" offset="0" stop-color="#f9cd5f" stop-opacity="1"/><stop id="stop7588-5" offset="1" stop-color="#fbf0b4" stop-opacity="1"/></linearGradient><filter id="filter9306" width="1.389" height="1.389" x="-.194" y="-.194"><feGaussianBlur id="feGaussianBlur9308" stdDeviation=".486"/></filter></defs><metadata id="metadata7"/><g id="layer1" display="inline" transform="translate(0,-1036.3622)"><rect id="rect7499" width="14.142" height="13.17" x=".941" y="1037.348" fill="#fff" fill-opacity="1" fill-rule="nonzero" stroke="none" stroke-width=".5" color="#000" display="inline" enable-background="accumulate" overflow="visible" visibility="visible" style="marker:none"/><rect id="rect7415-2" width="1.125" height="12.094" x="-1042.518" y="2" fill="#5b6c89" fill-opacity="1" fill-rule="nonzero" stroke="none" stroke-width=".5" color="#000" display="inline" enable-background="accumulate" opacity=".349" overflow="visible" transform="matrix(0,-1,1,0,0,0)" visibility="visible" style="marker:none"/><rect id="rect7415" width="1.125" height="12.938" x="5.094" y="1037.425" fill="#5b6c89" fill-opacity="1" fill-rule="nonzero" stroke="none" stroke-width=".5" color="#000" display="inline" enable-background="accumulate" opacity=".349" overflow="visible" visibility="visible" style="marker:none"/><rect id="rect7244-4-4" width="13.063" height="1" x="1037.393" y="-15.063" fill="url(#linearGradient7362)" fill-opacity="1" fill-rule="nonzero" stroke="none" stroke-width=".5" color="#000" display="inline" enable-background="accumulate" overflow="visible" transform="matrix(0,1,-1,0,0,0)" visibility="visible" style="marker:none"/><rect id="rect7244-4" width="13.063" height="1" x="1037.393" y="-2" fill="url(#linearGradient7277)" fill-opacity="1" fill-rule="nonzero" stroke="none" stroke-width=".5" color="#000" display="inline" enable-background="accumulate" overflow="visible" transform="matrix(0,1,-1,0,0,0)" visibility="visible" style="marker:none"/><rect id="rect7489" width="12.153" height="1.193" x="1.957" y="1038.276" fill="url(#linearGradient7497)" fill-opacity="1" fill-rule="nonzero" stroke="none" stroke-width=".5" color="#000" display="inline" enable-background="accumulate" opacity=".676" overflow="visible" visibility="visible" style="marker:none"/><rect id="rect7244" width="13.938" height="1" x="1.031" y="1037.362" fill="url(#linearGradient7260)" fill-opacity="1" fill-rule="nonzero" stroke="none" stroke-width=".5" color="#000" display="inline" enable-background="accumulate" overflow="visible" visibility="visible" style="marker:none"/><rect id="rect7244-7" width="13.938" height="1" x="-14.969" y="1039.362" fill="url(#linearGradient7328)" fill-opacity="1" fill-rule="nonzero" stroke="none" stroke-width=".5" color="#000" display="inline" enable-background="accumulate" overflow="visible" transform="scale(-1,1)" visibility="visible" style="marker:none"/><rect id="rect7244-4-4-8" width="14.063" height="1" x="1.031" y="1049.425" fill="#5b6c89" fill-opacity="1" fill-rule="nonzero" stroke="none" stroke-width=".5" color="#000" display="inline" enable-background="accumulate" overflow="visible" visibility="visible" style="marker:none"/><rect id="rect7415-2-4" width="1.125" height="12.125" x="-1044.728" y="1.938" fill="#5b6c89" fill-opacity="1" fill-rule="nonzero" stroke="none" stroke-width=".5" color="#000" display="inline" enable-background="accumulate" opacity=".349" overflow="visible" transform="matrix(0,-1,1,0,0,0)" visibility="visible" style="marker:none"/><rect id="rect7415-2-4-3" width="1.125" height="12.094" x="-1047.026" y="1.969" fill="#5b6c89" fill-opacity="1" fill-rule="nonzero" stroke="none" stroke-width=".5" color="#000" display="inline" enable-background="accumulate" opacity=".349" overflow="visible" transform="matrix(0,-1,1,0,0,0)" visibility="visible" style="marker:none"/><rect id="rect7415-2-4-3-9" width="1.125" height="12.063" x="-1049.369" y="2" fill="#5b6c89" fill-opacity="1" fill-rule="nonzero" stroke="none" stroke-width=".5" color="#000" display="inline" enable-background="accumulate" opacity=".349" overflow="visible" transform="matrix(0,-1,1,0,0,0)" visibility="visible" style="marker:none"/><g id="layer1-7" display="inline" transform="matrix(1.3170263,0,0,1.4044518,0.30812959,-429.67462)"><path id="path9304" fill="#fff" fill-opacity="1" stroke="none" d="M 8,11 C 8,12.656854 6.6568542,14 5,14 3.3431458,14 2,12.656854 2,11 2,9.3431458 3.3431458,8 5,8 6.6568542,8 8,9.3431458 8,11 z" filter="url(#filter9306)" transform="matrix(1.3129325,0,0,1.231204,1.933171,1038.8954)"/><g id="g7056" transform="translate(-17,10.0625)"><path id="path7582" fill="url(#linearGradient7063)" fill-opacity="1" stroke="url(#linearGradient7065)" stroke-dasharray="none" stroke-linecap="butt" stroke-linejoin="miter" stroke-miterlimit="4" stroke-opacity="1" stroke-width=".582" d="m 38.106543,1040.5982 0,-1.1582 c 0,0 -0.257386,-0.6113 -0.997369,-0.032 -0.739983,0.5791 -1.608659,1.5121 -1.737352,1.7695 -0.128693,0.2574 -0.675637,0.7078 0.06435,1.4156 0.739983,0.7079 1.544313,1.4478 1.544313,1.4478 0,0 1.126061,1.0617 1.126061,0.064 0,-0.9975 0,-1.3192 0,-1.3192 0.994736,-0.046 1.2338,0.2586 1.484999,0.5012 0.25151,0.2428 0.591496,1.4331 0.887246,1.5242 0.295748,0.091 0.454997,-1.5926 0.454997,-1.911 0,-0.3185 -0.127248,-0.9056 -0.523248,-1.4333 -0.213698,-0.2846 -0.732779,-0.6955 -1.114743,-0.8006 -0.381965,-0.1053 -1.189251,-0.068 -1.189251,-0.068 z" display="inline" transform="translate(-12.551145,0)"/><path id="path7602-2-3" fill="#fff" fill-opacity="1" stroke="none" d="m 37.645884,1040.3848 0,-0.4343 c 0,0 0.08043,-0.2735 -0.160866,-0.177 -0.241299,0.097 -0.70781,0.4826 -0.75607,0.5631 -0.04826,0.08 -0.546944,0.4343 -0.434338,0.5952 0.112606,0.1609 1.061715,0.048 1.061715,0.048 z" display="inline" opacity=".857" transform="translate(-12.551145,0)"/></g></g></g></svg>