<svg xmlns="http://www.w3.org/2000/svg" xmlns:svg="http://www.w3.org/2000/svg" xmlns:xlink="http://www.w3.org/1999/xlink" id="svg2" width="16" height="16" version="1.1"><defs id="defs4"><filter id="filter7474-3-2-7-1" color-interpolation-filters="sRGB"><feGaussianBlur id="feGaussianBlur7476-5-5-6-7" stdDeviation=".115"/></filter><filter id="filter7486-6-6-5-4" color-interpolation-filters="sRGB"><feGaussianBlur id="feGaussianBlur7488-95-0-1-0" stdDeviation=".115"/></filter><filter id="filter7478-9-8-2-9" color-interpolation-filters="sRGB"><feGaussianBlur id="feGaussianBlur7480-8-8-9-4" stdDeviation=".115"/></filter><filter id="filter7482-8-1-5-8" color-interpolation-filters="sRGB"><feGaussianBlur id="feGaussianBlur7484-3-5-6-8" stdDeviation=".115"/></filter><linearGradient id="linearGradient7272-66-4-5-5-5-2"><stop id="stop7274-6-0-1-7-4-3" offset="0" stop-color="#264780" stop-opacity="1"/><stop id="stop7276-66-6-3-9-1-2" offset="1" stop-color="#3e71cc" stop-opacity="1"/></linearGradient><linearGradient id="linearGradient5426" x1="-15.946" x2="-15.946" y1="1037.466" y2="1023.257" gradientTransform="matrix(0.95585117,0,0,0.95585117,-0.7199203,45.488394)" gradientUnits="userSpaceOnUse" xlink:href="#linearGradient7272-66-4-5-5-5-2"/><filter id="filter7474-3-2-7-1-9" color-interpolation-filters="sRGB"><feGaussianBlur id="feGaussianBlur7476-5-5-6-7-2" stdDeviation=".115"/></filter><filter id="filter7486-6-6-5-4-7" color-interpolation-filters="sRGB"><feGaussianBlur id="feGaussianBlur7488-95-0-1-0-9" stdDeviation=".115"/></filter><filter id="filter7478-9-8-2-9-5" color-interpolation-filters="sRGB"><feGaussianBlur id="feGaussianBlur7480-8-8-9-4-4" stdDeviation=".115"/></filter><filter id="filter7482-8-1-5-8-3" color-interpolation-filters="sRGB"><feGaussianBlur id="feGaussianBlur7484-3-5-6-8-1" stdDeviation=".115"/></filter><linearGradient id="linearGradient7272-66-4-5-5-5-2-3"><stop id="stop7274-6-0-1-7-4-3-3" offset="0" stop-color="#80263a" stop-opacity="1"/><stop id="stop7276-66-6-3-9-1-2-4" offset="1" stop-color="#cc3e5d" stop-opacity="1"/></linearGradient><linearGradient id="linearGradient6298" x1="-15.946" x2="-15.946" y1="1037.466" y2="1023.257" gradientTransform="matrix(0.95585117,0,0,0.95585117,-0.7199203,45.488394)" gradientUnits="userSpaceOnUse" xlink:href="#linearGradient7272-66-4-5-5-5-2-3"/><filter id="filter7474-3-2-7-1-9-7" color-interpolation-filters="sRGB"><feGaussianBlur id="feGaussianBlur7476-5-5-6-7-2-7" stdDeviation=".115"/></filter><filter id="filter7486-6-6-5-4-7-9" color-interpolation-filters="sRGB"><feGaussianBlur id="feGaussianBlur7488-95-0-1-0-9-3" stdDeviation=".115"/></filter><filter id="filter7478-9-8-2-9-5-1" color-interpolation-filters="sRGB"><feGaussianBlur id="feGaussianBlur7480-8-8-9-4-4-9" stdDeviation=".115"/></filter><filter id="filter7482-8-1-5-8-3-8" color-interpolation-filters="sRGB"><feGaussianBlur id="feGaussianBlur7484-3-5-6-8-1-6" stdDeviation=".115"/></filter><linearGradient id="linearGradient7272-66-4-5-5-5-2-3-0"><stop id="stop7274-6-0-1-7-4-3-3-2" offset="0" stop-color="#265c80" stop-opacity="1"/><stop id="stop7276-66-6-3-9-1-2-4-8" offset="1" stop-color="#3e93cc" stop-opacity="1"/></linearGradient><linearGradient id="linearGradient6374" x1="-15.946" x2="-15.946" y1="1037.466" y2="1023.257" gradientTransform="matrix(0.95585117,0,0,0.95585117,-0.7199203,45.488394)" gradientUnits="userSpaceOnUse" xlink:href="#linearGradient7272-66-4-5-5-5-2-3-0"/><linearGradient id="linearGradient5336" x1="-15.946" x2="-15.946" y1="1037.466" y2="1023.257" gradientTransform="matrix(0.56679032,0,0,0.56679032,20.694835,465.9436)" gradientUnits="userSpaceOnUse" xlink:href="#linearGradient7272-66-4-5-5-5-2-3-0"/><linearGradient id="linearGradient5344" x1="-15.946" x2="-15.946" y1="1037.466" y2="1023.257" gradientTransform="matrix(0.45865409,0,0,0.45865409,20.898134,570.37811)" gradientUnits="userSpaceOnUse" xlink:href="#linearGradient7272-66-4-5-5-5-2-3"/><linearGradient id="linearGradient5352" x1="-15.946" x2="-15.946" y1="1037.466" y2="1023.257" gradientTransform="matrix(0.58024241,0,0,0.58024241,14.925884,446.05084)" gradientUnits="userSpaceOnUse" xlink:href="#linearGradient7272-66-4-5-5-5-2"/></defs><metadata id="metadata7"/><g id="layer1" display="inline" transform="translate(0,-1036.3622)"><g id="g4908" transform="translate(17.6875,0)"><g id="layer1-8" display="inline" transform="translate(-18.599558,-2.010247)"><path id="rect6501-7-1" fill="#54effe" fill-opacity="1" stroke="none" d="m 5.4640561,1039.4507 c 0,0 0.4581788,1.6723 1.6168028,2.8309 1.158624,1.1586 2.8308856,1.6168 2.8308856,1.6168 0,0 -1.6627753,0.4487 -2.8308814,1.6168 -1.168106,1.1682 -1.6168028,2.8309 -1.6168028,2.8309 0,0 -0.4107523,-1.6248 -1.6168034,-2.8309 -1.206051,-1.2061 -2.8308856,-1.6168 -2.8308856,-1.6168 0,0 1.7007204,-0.4866 2.8308856,-1.6168 1.1301653,-1.1302 1.6167992,-2.8309 1.6167992,-2.8309 z" display="inline"/><path id="rect7280-61-6" fill="#266ce6" fill-opacity="1" stroke="none" d="m -16.369192,1024.5153 c 0,0 -0.626195,2.2024 -2.093572,3.6698 -1.467379,1.4674 -3.66991,2.0937 -3.66991,2.0937 l 5.763482,0 0,-5.7635 z" filter="url(#filter7474-3-2-7-1)" transform="matrix(0.60704263,0,0,0.60704263,15.362906,418.43745)"/><path id="rect7280-8-7-8" fill="#2260cc" fill-opacity="1" stroke="none" d="m -16.244192,1024.5153 0,5.7635 5.763482,0 c 0,0 -2.165582,-0.5894 -3.66991,-2.0937 -1.504327,-1.5043 -2.093572,-3.6698 -2.093572,-3.6698 z" display="inline" filter="url(#filter7486-6-6-5-4)" transform="matrix(0.60704263,0,0,0.60704263,15.362906,418.43745)"/><path id="rect7280-5-3-5" fill="#1d54b3" fill-opacity="1" stroke="none" d="m -22.132674,1030.4036 c 0,0 2.104004,0.5276 3.66991,2.0936 1.565905,1.5659 2.093572,3.6698 2.093572,3.6698 l 0,-5.7634 -5.763482,0 z" display="inline" filter="url(#filter7478-9-8-2-9)" transform="matrix(0.60704263,0,0,0.60704263,15.362906,418.43745)"/><path id="rect7280-6-0-7" fill="#1b4ea6" fill-opacity="1" stroke="none" d="m -16.244192,1030.4036 0,5.7634 c 0,0 0.576934,-2.1532 2.093572,-3.6698 1.516639,-1.5167 3.66991,-2.0936 3.66991,-2.0936 l -5.763482,0 z" display="inline" filter="url(#filter7482-8-1-5-8)" transform="matrix(0.60704263,0,0,0.60704263,15.362906,418.43745)"/><path id="rect6501-1-6-8" fill="none" stroke="url(#linearGradient5352)" stroke-dasharray="none" stroke-linecap="round" stroke-linejoin="round" stroke-miterlimit="4" stroke-opacity="1" stroke-width=".566" d="m 5.4640561,1039.6471 c 0,0 0.4379509,1.5984 1.5454231,2.7059 1.1074722,1.1074 2.7059051,1.5454 2.7059051,1.5454 0,0 -1.5893655,0.4289 -2.7059015,1.5454 -1.1165353,1.1166 -1.5454225,2.7059 -1.5454225,2.7059 0,0 -0.3926181,-1.553 -1.5454237,-2.7059 -1.1528049,-1.1528 -2.7059052,-1.5454 -2.7059052,-1.5454 0,0 1.6256358,-0.4652 2.7059052,-1.5454 1.08027,-1.0803 1.5454195,-2.7059 1.5454195,-2.7059 z" display="inline"/><path id="rect6501-7-1-1" fill="#fef330" fill-opacity="1" stroke="none" d="m 13.419008,1039.4326 c 0,0 0.362169,1.3218 1.278006,2.2376 0.915837,0.9159 2.237681,1.278 2.237681,1.278 0,0 -1.314345,0.3547 -2.237678,1.278 -0.923332,0.9234 -1.278006,2.2377 -1.278006,2.2377 0,0 -0.32468,-1.2843 -1.278006,-2.2377 -0.953326,-0.9533 -2.2376808,-1.278 -2.2376808,-1.278 0,0 1.3443388,-0.3846 2.2376808,-1.278 0.893342,-0.8933 1.278003,-2.2376 1.278003,-2.2376 z" display="inline"/><path id="rect7280-61-6-3" fill="#e66d89" fill-opacity="1" stroke="none" d="m -16.369192,1024.5153 c 0,0 -0.626195,2.2024 -2.093572,3.6698 -1.467379,1.4674 -3.66991,2.0937 -3.66991,2.0937 l 5.763482,0 0,-5.7635 z" filter="url(#filter7474-3-2-7-1-9)" transform="matrix(0.47983839,0,0,0.47983839,21.243579,548.55103)"/><path id="rect7280-8-7-8-8" fill="#cc617a" fill-opacity="1" stroke="none" d="m -16.244192,1024.5153 0,5.7635 5.763482,0 c 0,0 -2.165582,-0.5894 -3.66991,-2.0937 -1.504327,-1.5043 -2.093572,-3.6698 -2.093572,-3.6698 z" display="inline" filter="url(#filter7486-6-6-5-4-7)" transform="matrix(0.47983839,0,0,0.47983839,21.243579,548.55103)"/><path id="rect7280-5-3-5-7" fill="#b3556a" fill-opacity="1" stroke="none" d="m -22.132674,1030.4036 c 0,0 2.104004,0.5276 3.66991,2.0936 1.565905,1.5659 2.093572,3.6698 2.093572,3.6698 l 0,-5.7634 -5.763482,0 z" display="inline" filter="url(#filter7478-9-8-2-9-5)" transform="matrix(0.47983839,0,0,0.47983839,21.243579,548.55103)"/><path id="rect7280-6-0-7-4" fill="#a64f63" fill-opacity="1" stroke="none" d="m -16.244192,1030.4036 0,5.7634 c 0,0 0.576934,-2.1532 2.093572,-3.6698 1.516639,-1.5167 3.66991,-2.0936 3.66991,-2.0936 l -5.763482,0 z" display="inline" filter="url(#filter7482-8-1-5-8-3)" transform="matrix(0.47983839,0,0,0.47983839,21.243579,548.55103)"/><path id="rect6501-1-6-8-2" fill="none" stroke="url(#linearGradient5344)" stroke-dasharray="none" stroke-linecap="round" stroke-linejoin="round" stroke-miterlimit="4" stroke-opacity="1" stroke-width=".448" d="m 13.419008,1039.5878 c 0,0 0.346179,1.2635 1.221584,2.1389 0.875404,0.8753 2.138889,1.2215 2.138889,1.2215 0,0 -1.256318,0.3391 -2.138887,1.2216 -0.882568,0.8826 -1.221583,2.1389 -1.221583,2.1389 0,0 -0.310346,-1.2276 -1.221584,-2.1389 -0.911237,-0.9112 -2.13889,-1.2216 -2.13889,-1.2216 0,0 1.284989,-0.3677 2.13889,-1.2215 0.853902,-0.8539 1.221581,-2.1389 1.221581,-2.1389 z" display="inline"/><path id="rect6501-7-1-1-0" fill="#81cbfe" fill-opacity="1" stroke="none" d="m 11.452367,1045.5864 c 0,0 0.447556,1.6335 1.579319,2.7652 1.131763,1.1318 2.765256,1.5793 2.765256,1.5793 0,0 -1.624226,0.4383 -2.765252,1.5794 -1.141025,1.141 -1.579319,2.7652 -1.579319,2.7652 0,0 -0.40123,-1.5871 -1.5793203,-2.7652 -1.1780905,-1.1782 -2.7652556,-1.5794 -2.7652556,-1.5794 0,0 1.6612916,-0.4753 2.7652556,-1.5793 1.1039643,-1.104 1.5793163,-2.7652 1.5793163,-2.7652 z" display="inline"/><path id="rect7280-61-6-3-2" fill="#adcfe6" fill-opacity="1" stroke="none" d="m -16.369192,1024.5153 c 0,0 -0.626195,2.2024 -2.093572,3.6698 -1.467379,1.4674 -3.66991,2.0937 -3.66991,2.0937 l 5.763482,0 0,-5.7635 z" filter="url(#filter7474-3-2-7-1-9-7)" transform="matrix(0.59296922,0,0,0.59296922,21.121726,438.97038)"/><path id="rect7280-8-7-8-8-4" fill="#99b8cc" fill-opacity="1" stroke="none" d="m -16.244192,1024.5153 0,5.7635 5.763482,0 c 0,0 -2.165582,-0.5894 -3.66991,-2.0937 -1.504327,-1.5043 -2.093572,-3.6698 -2.093572,-3.6698 z" display="inline" filter="url(#filter7486-6-6-5-4-7-9)" transform="matrix(0.59296922,0,0,0.59296922,21.121726,438.97038)"/><path id="rect7280-5-3-5-7-8" fill="#86a1b3" fill-opacity="1" stroke="none" d="m -22.132674,1030.4036 c 0,0 2.104004,0.5276 3.66991,2.0936 1.565905,1.5659 2.093572,3.6698 2.093572,3.6698 l 0,-5.7634 -5.763482,0 z" display="inline" filter="url(#filter7478-9-8-2-9-5-1)" transform="matrix(0.59296922,0,0,0.59296922,21.121726,438.97038)"/><path id="rect7280-6-0-7-4-6" fill="#7d95a6" fill-opacity="1" stroke="none" d="m -16.244192,1030.4036 0,5.7634 c 0,0 0.576934,-2.1532 2.093572,-3.6698 1.516639,-1.5167 3.66991,-2.0936 3.66991,-2.0936 l -5.763482,0 z" display="inline" filter="url(#filter7482-8-1-5-8-3-8)" transform="matrix(0.59296922,0,0,0.59296922,21.121726,438.97038)"/><path id="rect6501-1-6-8-2-5" fill="none" stroke="url(#linearGradient5336)" stroke-dasharray="none" stroke-linecap="round" stroke-linejoin="round" stroke-miterlimit="4" stroke-opacity="1" stroke-width=".553" d="m 11.452367,1045.7782 c 0,0 0.427797,1.5613 1.509594,2.6432 1.081797,1.0817 2.643173,1.5095 2.643173,1.5095 0,0 -1.552518,0.419 -2.643169,1.5096 -1.09065,1.0907 -1.509594,2.6432 -1.509594,2.6432 0,0 -0.383516,-1.5171 -1.5095954,-2.6432 -1.1260788,-1.1261 -2.6431728,-1.5096 -2.6431728,-1.5096 0,0 1.5879479,-0.4544 2.6431728,-1.5095 1.0552254,-1.0553 1.5095914,-2.6432 1.5095914,-2.6432 z" display="inline"/></g></g></g></svg>