<svg xmlns="http://www.w3.org/2000/svg" xmlns:svg="http://www.w3.org/2000/svg" xmlns:xlink="http://www.w3.org/1999/xlink" id="svg2" width="16" height="16" version="1.1"><defs id="defs4"><filter id="filter7474-3-2-7-1" color-interpolation-filters="sRGB"><feGaussianBlur id="feGaussianBlur7476-5-5-6-7" stdDeviation=".115"/></filter><filter id="filter7486-6-6-5-4" color-interpolation-filters="sRGB"><feGaussianBlur id="feGaussianBlur7488-95-0-1-0" stdDeviation=".115"/></filter><filter id="filter7478-9-8-2-9" color-interpolation-filters="sRGB"><feGaussianBlur id="feGaussianBlur7480-8-8-9-4" stdDeviation=".115"/></filter><filter id="filter7482-8-1-5-8" color-interpolation-filters="sRGB"><feGaussianBlur id="feGaussianBlur7484-3-5-6-8" stdDeviation=".115"/></filter><linearGradient id="linearGradient7272-66-4-5-5-5-2"><stop id="stop7274-6-0-1-7-4-3" offset="0" stop-color="#8f6c10" stop-opacity="1"/><stop id="stop7276-66-6-3-9-1-2" offset="1" stop-color="#c9a645" stop-opacity="1"/></linearGradient><linearGradient id="linearGradient5426" x1="-15.946" x2="-15.946" y1="1037.466" y2="1023.257" gradientTransform="matrix(0.95585117,0,0,0.95585117,-0.7199203,45.488394)" gradientUnits="userSpaceOnUse" xlink:href="#linearGradient7272-66-4-5-5-5-2"/><filter id="filter7474-3-2-7-1-9" color-interpolation-filters="sRGB"><feGaussianBlur id="feGaussianBlur7476-5-5-6-7-2" stdDeviation=".115"/></filter><filter id="filter7486-6-6-5-4-7" color-interpolation-filters="sRGB"><feGaussianBlur id="feGaussianBlur7488-95-0-1-0-9" stdDeviation=".115"/></filter><filter id="filter7478-9-8-2-9-5" color-interpolation-filters="sRGB"><feGaussianBlur id="feGaussianBlur7480-8-8-9-4-4" stdDeviation=".115"/></filter><filter id="filter7482-8-1-5-8-3" color-interpolation-filters="sRGB"><feGaussianBlur id="feGaussianBlur7484-3-5-6-8-1" stdDeviation=".115"/></filter><linearGradient id="linearGradient7272-66-4-5-5-5-2-3"><stop id="stop7274-6-0-1-7-4-3-3" offset="0" stop-color="#8f6c10" stop-opacity="1"/><stop id="stop7276-66-6-3-9-1-2-4" offset="1" stop-color="#c9a645" stop-opacity="1"/></linearGradient><linearGradient id="linearGradient6298" x1="-15.946" x2="-15.946" y1="1037.466" y2="1023.257" gradientTransform="matrix(0.95585117,0,0,0.95585117,-0.7199203,45.488394)" gradientUnits="userSpaceOnUse" xlink:href="#linearGradient7272-66-4-5-5-5-2-3"/><filter id="filter7474-3-2-7-1-9-7" color-interpolation-filters="sRGB"><feGaussianBlur id="feGaussianBlur7476-5-5-6-7-2-7" stdDeviation=".115"/></filter><filter id="filter7486-6-6-5-4-7-9" color-interpolation-filters="sRGB"><feGaussianBlur id="feGaussianBlur7488-95-0-1-0-9-3" stdDeviation=".115"/></filter><filter id="filter7478-9-8-2-9-5-1" color-interpolation-filters="sRGB"><feGaussianBlur id="feGaussianBlur7480-8-8-9-4-4-9" stdDeviation=".115"/></filter><filter id="filter7482-8-1-5-8-3-8" color-interpolation-filters="sRGB"><feGaussianBlur id="feGaussianBlur7484-3-5-6-8-1-6" stdDeviation=".115"/></filter><linearGradient id="linearGradient7272-66-4-5-5-5-2-3-0"><stop id="stop7274-6-0-1-7-4-3-3-2" offset="0" stop-color="#8f6c10" stop-opacity="1"/><stop id="stop7276-66-6-3-9-1-2-4-8" offset="1" stop-color="#c9a645" stop-opacity="1"/></linearGradient><linearGradient id="linearGradient6374" x1="-15.946" x2="-15.946" y1="1037.466" y2="1023.257" gradientTransform="matrix(0.95585117,0,0,0.95585117,-0.7199203,45.488394)" gradientUnits="userSpaceOnUse" xlink:href="#linearGradient7272-66-4-5-5-5-2-3-0"/></defs><metadata id="metadata7"/><g id="layer1" display="inline" transform="translate(0,-1036.3622)"><g id="g4908" transform="translate(17.6875,0)"><g id="layer1-8" display="inline" transform="translate(-18.599558,-2.010247)"><g id="g7590-1-2" display="inline" transform="matrix(0.60704263,0,0,0.60704263,15.362906,418.43745)"><path id="rect6501-7-1" fill="#f9f4e2" fill-opacity="1" stroke="none" d="m -16.30668,1023.0143 c 0,0 0.754772,2.7548 2.663409,4.6634 1.908637,1.9086 4.663405,2.6634 4.663405,2.6634 0,0 -2.739141,0.7391 -4.663398,2.6634 -1.924257,1.9243 -2.663409,4.6634 -2.663409,4.6634 0,0 -0.676645,-2.6766 -2.66341,-4.6634 -1.986765,-1.9868 -4.663405,-2.6634 -4.663405,-2.6634 0,0 2.801649,-0.8017 4.663405,-2.6634 1.861756,-1.8618 2.663403,-4.6634 2.663403,-4.6634 z" display="inline" opacity="1"/><path id="rect7280-61-6" fill="#fcf9ee" fill-opacity="1" stroke="none" d="m -16.369192,1024.5153 c 0,0 -0.626195,2.2024 -2.093572,3.6698 -1.467379,1.4674 -3.66991,2.0937 -3.66991,2.0937 l 5.763482,0 0,-5.7635 z" filter="url(#filter7474-3-2-7-1)"/><path id="rect7280-8-7-8" fill="#f3e6c8" fill-opacity="1" stroke="none" d="m -16.244192,1024.5153 0,5.7635 5.763482,0 c 0,0 -2.165582,-0.5894 -3.66991,-2.0937 -1.504327,-1.5043 -2.093572,-3.6698 -2.093572,-3.6698 z" display="inline" filter="url(#filter7486-6-6-5-4)"/><path id="rect7280-5-3-5" fill="#faf2d5" fill-opacity="1" stroke="none" d="m -22.132674,1030.4036 c 0,0 2.104004,0.5276 3.66991,2.0936 1.565905,1.5659 2.093572,3.6698 2.093572,3.6698 l 0,-5.7634 -5.763482,0 z" display="inline" filter="url(#filter7478-9-8-2-9)"/><path id="rect7280-6-0-7" fill="#e9d291" fill-opacity="1" stroke="none" d="m -16.244192,1030.4036 0,5.7634 c 0,0 0.576934,-2.1532 2.093572,-3.6698 1.516639,-1.5167 3.66991,-2.0936 3.66991,-2.0936 l -5.763482,0 z" display="inline" filter="url(#filter7482-8-1-5-8)"/><path id="rect6501-1-6-8" fill="none" stroke="url(#linearGradient5426)" stroke-dasharray="none" stroke-linecap="round" stroke-linejoin="round" stroke-miterlimit="4" stroke-opacity="1" stroke-width=".933" d="m -16.30668,1023.3378 c 0,0 0.72145,2.6331 2.545823,4.4575 1.824373,1.8243 4.4575207,2.5458 4.4575207,2.5458 0,0 -2.6182107,0.7065 -4.4575147,2.5458 -1.839303,1.8394 -2.545822,4.4575 -2.545822,4.4575 0,0 -0.646772,-2.5584 -2.545824,-4.4575 -1.899051,-1.8991 -4.457521,-2.5458 -4.457521,-2.5458 0,0 2.67796,-0.7663 4.457521,-2.5458 1.779562,-1.7796 2.545817,-4.4575 2.545817,-4.4575 z" display="inline" opacity="1"/></g><g id="g7590-1-2-1" display="inline" transform="matrix(0.47983839,0,0,0.47983839,21.243579,548.55103)"><path id="rect6501-7-1-1" fill="#f9f4e2" fill-opacity="1" stroke="none" d="m -16.30668,1023.0143 c 0,0 0.754772,2.7548 2.663409,4.6634 1.908637,1.9086 4.663405,2.6634 4.663405,2.6634 0,0 -2.739141,0.7391 -4.663398,2.6634 -1.924257,1.9243 -2.663409,4.6634 -2.663409,4.6634 0,0 -0.676645,-2.6766 -2.66341,-4.6634 -1.986765,-1.9868 -4.663405,-2.6634 -4.663405,-2.6634 0,0 2.801649,-0.8017 4.663405,-2.6634 1.861756,-1.8618 2.663403,-4.6634 2.663403,-4.6634 z" display="inline"/><path id="rect7280-61-6-3" fill="#fcf9ee" fill-opacity="1" stroke="none" d="m -16.369192,1024.5153 c 0,0 -0.626195,2.2024 -2.093572,3.6698 -1.467379,1.4674 -3.66991,2.0937 -3.66991,2.0937 l 5.763482,0 0,-5.7635 z" filter="url(#filter7474-3-2-7-1-9)"/><path id="rect7280-8-7-8-8" fill="#f3e6c8" fill-opacity="1" stroke="none" d="m -16.244192,1024.5153 0,5.7635 5.763482,0 c 0,0 -2.165582,-0.5894 -3.66991,-2.0937 -1.504327,-1.5043 -2.093572,-3.6698 -2.093572,-3.6698 z" display="inline" filter="url(#filter7486-6-6-5-4-7)"/><path id="rect7280-5-3-5-7" fill="#faf2d5" fill-opacity="1" stroke="none" d="m -22.132674,1030.4036 c 0,0 2.104004,0.5276 3.66991,2.0936 1.565905,1.5659 2.093572,3.6698 2.093572,3.6698 l 0,-5.7634 -5.763482,0 z" display="inline" filter="url(#filter7478-9-8-2-9-5)"/><path id="rect7280-6-0-7-4" fill="#e9d291" fill-opacity="1" stroke="none" d="m -16.244192,1030.4036 0,5.7634 c 0,0 0.576934,-2.1532 2.093572,-3.6698 1.516639,-1.5167 3.66991,-2.0936 3.66991,-2.0936 l -5.763482,0 z" display="inline" filter="url(#filter7482-8-1-5-8-3)"/><path id="rect6501-1-6-8-2" fill="none" stroke="url(#linearGradient6298)" stroke-dasharray="none" stroke-linecap="round" stroke-linejoin="round" stroke-miterlimit="4" stroke-opacity="1" stroke-width=".933" d="m -16.30668,1023.3378 c 0,0 0.72145,2.6331 2.545823,4.4575 1.824373,1.8243 4.4575207,2.5458 4.4575207,2.5458 0,0 -2.6182107,0.7065 -4.4575147,2.5458 -1.839303,1.8394 -2.545822,4.4575 -2.545822,4.4575 0,0 -0.646772,-2.5584 -2.545824,-4.4575 -1.899051,-1.8991 -4.457521,-2.5458 -4.457521,-2.5458 0,0 2.67796,-0.7663 4.457521,-2.5458 1.779562,-1.7796 2.545817,-4.4575 2.545817,-4.4575 z" display="inline"/></g><g id="g7590-1-2-1-6" display="inline" transform="matrix(0.59296922,0,0,0.59296922,21.121726,438.97038)"><path id="rect6501-7-1-1-0" fill="#f9f4e2" fill-opacity="1" stroke="none" d="m -16.30668,1023.0143 c 0,0 0.754772,2.7548 2.663409,4.6634 1.908637,1.9086 4.663405,2.6634 4.663405,2.6634 0,0 -2.739141,0.7391 -4.663398,2.6634 -1.924257,1.9243 -2.663409,4.6634 -2.663409,4.6634 0,0 -0.676645,-2.6766 -2.66341,-4.6634 -1.986765,-1.9868 -4.663405,-2.6634 -4.663405,-2.6634 0,0 2.801649,-0.8017 4.663405,-2.6634 1.861756,-1.8618 2.663403,-4.6634 2.663403,-4.6634 z" display="inline"/><path id="rect7280-61-6-3-2" fill="#fcf9ee" fill-opacity="1" stroke="none" d="m -16.369192,1024.5153 c 0,0 -0.626195,2.2024 -2.093572,3.6698 -1.467379,1.4674 -3.66991,2.0937 -3.66991,2.0937 l 5.763482,0 0,-5.7635 z" filter="url(#filter7474-3-2-7-1-9-7)"/><path id="rect7280-8-7-8-8-4" fill="#f3e6c8" fill-opacity="1" stroke="none" d="m -16.244192,1024.5153 0,5.7635 5.763482,0 c 0,0 -2.165582,-0.5894 -3.66991,-2.0937 -1.504327,-1.5043 -2.093572,-3.6698 -2.093572,-3.6698 z" display="inline" filter="url(#filter7486-6-6-5-4-7-9)"/><path id="rect7280-5-3-5-7-8" fill="#faf2d5" fill-opacity="1" stroke="none" d="m -22.132674,1030.4036 c 0,0 2.104004,0.5276 3.66991,2.0936 1.565905,1.5659 2.093572,3.6698 2.093572,3.6698 l 0,-5.7634 -5.763482,0 z" display="inline" filter="url(#filter7478-9-8-2-9-5-1)"/><path id="rect7280-6-0-7-4-6" fill="#e9d291" fill-opacity="1" stroke="none" d="m -16.244192,1030.4036 0,5.7634 c 0,0 0.576934,-2.1532 2.093572,-3.6698 1.516639,-1.5167 3.66991,-2.0936 3.66991,-2.0936 l -5.763482,0 z" display="inline" filter="url(#filter7482-8-1-5-8-3-8)"/><path id="rect6501-1-6-8-2-5" fill="none" stroke="url(#linearGradient6374)" stroke-dasharray="none" stroke-linecap="round" stroke-linejoin="round" stroke-miterlimit="4" stroke-opacity="1" stroke-width=".933" d="m -16.30668,1023.3378 c 0,0 0.72145,2.6331 2.545823,4.4575 1.824373,1.8243 4.4575207,2.5458 4.4575207,2.5458 0,0 -2.6182107,0.7065 -4.4575147,2.5458 -1.839303,1.8394 -2.545822,4.4575 -2.545822,4.4575 0,0 -0.646772,-2.5584 -2.545824,-4.4575 -1.899051,-1.8991 -4.457521,-2.5458 -4.457521,-2.5458 0,0 2.67796,-0.7663 4.457521,-2.5458 1.779562,-1.7796 2.545817,-4.4575 2.545817,-4.4575 z" display="inline"/></g></g></g></g></svg>