<svg xmlns="http://www.w3.org/2000/svg" xmlns:svg="http://www.w3.org/2000/svg" id="svg2" width="16" height="16" version="1.1"><defs id="defs4"><linearGradient id="linearGradient8303"><stop id="stop8305" offset="0" stop-color="#fff" stop-opacity="1"/><stop id="stop8313" offset=".25" stop-color="#fff" stop-opacity=".25"/><stop id="stop8311" offset=".775" stop-color="#fff" stop-opacity=".251"/><stop id="stop8307" offset="1" stop-color="#fff" stop-opacity="1"/></linearGradient><linearGradient id="linearGradient8198"><stop id="stop8200" offset="0" stop-color="#f8e088" stop-opacity="1"/><stop id="stop8206" offset=".5" stop-color="#f8d880" stop-opacity="1"/><stop id="stop8202" offset="1" stop-color="#f8f0b0" stop-opacity="1"/></linearGradient><linearGradient id="linearGradient8303-8"><stop id="stop8305-8" offset="0" stop-color="#fff" stop-opacity="1"/><stop id="stop8313-2" offset=".25" stop-color="#fff" stop-opacity=".25"/><stop id="stop8311-4" offset=".775" stop-color="#fff" stop-opacity=".251"/><stop id="stop8307-5" offset="1" stop-color="#fff" stop-opacity="1"/></linearGradient><linearGradient id="linearGradient8198-1"><stop id="stop8200-1" offset="0" stop-color="#f8e088" stop-opacity="1"/><stop id="stop8206-5" offset=".5" stop-color="#f8d880" stop-opacity="1"/><stop id="stop8202-2" offset="1" stop-color="#f8f0b0" stop-opacity="1"/></linearGradient></defs><metadata id="metadata7"/><g id="layer1" display="inline" transform="translate(0,-1036.3622)"><g id="layer1-0" display="inline" transform="matrix(0.77393739,0,0,0.77393739,-0.808785,233.54106)"><g id="g8248" display="inline"><path id="path7442" fill="#466f0a" fill-opacity="1" stroke="#466f0a" stroke-dasharray="none" stroke-miterlimit="4" stroke-opacity="1" stroke-width=".9" d="m 4.5961941,8.5753784 c 0,0.5613787 -0.4550873,1.016466 -1.016466,1.016466 -0.5613787,0 -1.016466,-0.4550873 -1.016466,-1.016466 0,-0.5613787 0.4550873,-1.016466 1.016466,-1.016466 0.5613787,0 1.016466,0.4550873 1.016466,1.016466 z" transform="matrix(1.2920942,0,0,1.2920942,1.0450264,1037.3205)"/><path id="path7442-9" fill="#668834" fill-opacity="1" stroke="#683" stroke-dasharray="none" stroke-miterlimit="4" stroke-opacity="1" stroke-width=".9" d="m 4.5961941,8.5753784 c 0,0.5613787 -0.4550873,1.016466 -1.016466,1.016466 -0.5613787,0 -1.016466,-0.4550873 -1.016466,-1.016466 0,-0.5613787 0.4550873,-1.016466 1.016466,-1.016466 0.5613787,0 1.016466,0.4550873 1.016466,1.016466 z" display="inline" transform="matrix(1.2920942,0,0,1.2920942,7.4976695,1037.3205)"/><path id="path7442-9-9" fill="#749347" fill-opacity="1" stroke="#749347" stroke-dasharray="none" stroke-miterlimit="4" stroke-opacity="1" stroke-width=".9" d="m 4.5961941,8.5753784 c 0,0.5613787 -0.4550873,1.016466 -1.016466,1.016466 -0.5613787,0 -1.016466,-0.4550873 -1.016466,-1.016466 0,-0.5613787 0.4550873,-1.016466 1.016466,-1.016466 0.5613787,0 1.016466,0.4550873 1.016466,1.016466 z" display="inline" transform="matrix(1.2920942,0,0,1.2920942,13.978864,1037.2348)"/></g></g></g></svg>