<svg xmlns="http://www.w3.org/2000/svg" xmlns:svg="http://www.w3.org/2000/svg" xmlns:xlink="http://www.w3.org/1999/xlink" id="svg2" width="16" height="16" version="1.1"><defs id="defs4"><linearGradient id="linearGradient4894-7-7"><stop id="stop4896-4-4" offset="0" stop-color="#b4d1e5" stop-opacity="1"/><stop id="stop4898-0-0" offset=".5" stop-color="#5395be" stop-opacity="1"/><stop id="stop4900-9-9" offset="1" stop-color="#91bcd7" stop-opacity="1"/></linearGradient><linearGradient id="linearGradient4076" x1="8.738" x2="8.738" y1="2.155" y2="6.872" gradientUnits="userSpaceOnUse" xlink:href="#linearGradient4894-7-7"/><linearGradient id="linearGradient4894-7-7-8"><stop id="stop4896-4-4-8" offset="0" stop-color="#b4d1e5" stop-opacity="1"/><stop id="stop4898-0-0-2" offset=".5" stop-color="#5395be" stop-opacity="1"/><stop id="stop4900-9-9-4" offset="1" stop-color="#91bcd7" stop-opacity="1"/></linearGradient><linearGradient id="linearGradient4113" x1="8.738" x2="8.738" y1="2.155" y2="6.872" gradientUnits="userSpaceOnUse" xlink:href="#linearGradient4894-7-7-8"/></defs><metadata id="metadata7"/><g id="layer1" display="inline" transform="translate(0,-1036.3622)"><path id="path4035-4-5-4" fill="url(#linearGradient4076)" fill-opacity="1" stroke="#264e72" stroke-dasharray="none" stroke-miterlimit="4" stroke-opacity="1" stroke-width=".938" d="m 11.343751,4.499999 c 0,1.553301 -1.259199,2.8125003 -2.8125,2.8125003 -1.553301,0 -2.8125003,-1.2591993 -2.8125003,-2.8125003 0,-1.5533009 1.2591993,-2.8125002 2.8125003,-2.8125002 1.553301,0 2.8125,1.2591993 2.8125,2.8125002 z" display="inline" transform="matrix(1.0661147,0,0,1.0661147,-4.6249899,1037.0647)"/><path id="path4035-4-5-4-5" fill="url(#linearGradient4113)" fill-opacity="1" stroke="#264e72" stroke-dasharray="none" stroke-miterlimit="4" stroke-opacity="1" stroke-width=".938" d="m 11.343751,4.499999 c 0,1.553301 -1.259199,2.8125003 -2.8125,2.8125003 -1.553301,0 -2.8125003,-1.2591993 -2.8125003,-2.8125003 0,-1.5533009 1.2591993,-2.8125002 2.8125003,-2.8125002 1.553301,0 2.8125,1.2591993 2.8125,2.8125002 z" display="inline" transform="matrix(1.0661147,0,0,1.0661147,2.37501,1042.0646)"/></g></svg>