<svg xmlns="http://www.w3.org/2000/svg" xmlns:svg="http://www.w3.org/2000/svg" xmlns:xlink="http://www.w3.org/1999/xlink" id="svg2" width="16" height="16" version="1.1"><defs id="defs4"><linearGradient id="linearGradient4755-8" x1="690.186" x2="690.186" y1="484.134" y2="438.441" gradientTransform="matrix(0.27903303,0,0,0.27903303,-182.64712,915.83521)" gradientUnits="userSpaceOnUse" xlink:href="#linearGradient4721-1"/><linearGradient id="linearGradient4721-1"><stop id="stop4723-2" offset="0" stop-color="#2b5790" stop-opacity="1"/><stop id="stop4725-1" offset="1" stop-color="#296fc4" stop-opacity="1"/></linearGradient><linearGradient id="linearGradient4800-4" x1="5.015" x2="11.813" y1="2.633" y2="2.633" gradientUnits="userSpaceOnUse" xlink:href="#linearGradient4794-9"/><linearGradient id="linearGradient4794-9"><stop id="stop4796-8" offset="0" stop-color="#486eb1" stop-opacity="1"/><stop id="stop4802-2" offset=".389" stop-color="#a9bddf" stop-opacity="1"/><stop id="stop4798-4" offset="1" stop-color="#355ea6" stop-opacity="1"/></linearGradient><filter id="filter4924-5" width="1.165" height="1.438" x="-.083" y="-.219" color-interpolation-filters="sRGB"><feGaussianBlur id="feGaussianBlur4926-2" stdDeviation=".986"/></filter><linearGradient id="linearGradient4695-9"><stop id="stop4697-8" offset="0" stop-color="#7e9bcb" stop-opacity="1"/><stop id="stop4719-3" offset=".174" stop-color="#aac2e7" stop-opacity="1"/><stop id="stop4713-8" offset=".347" stop-color="#e3eefa" stop-opacity="1"/><stop id="stop4711-6" offset=".5" stop-color="#bed2ee" stop-opacity="1"/><stop id="stop4715-9" offset=".638" stop-color="#aac2e7" stop-opacity="1"/><stop id="stop4717-8" offset=".819" stop-color="#7f9dcb" stop-opacity="1"/><stop id="stop4699-6" offset="1" stop-color="#5e82c4" stop-opacity="1"/></linearGradient><linearGradient id="linearGradient4967" x1="673.61" x2="696.684" y1="460.616" y2="460.616" gradientTransform="matrix(0.27903303,0,0,0.27903303,-182.64712,915.83521)" gradientUnits="userSpaceOnUse" xlink:href="#linearGradient4695-9"/></defs><metadata id="metadata7"/><g id="layer1" display="inline" transform="translate(0,-1036.3622)"><path id="path3868-1" fill="url(#linearGradient4967)" fill-opacity="1" stroke="none" d="m 8.5,1037.8622 c -2.204824,0 -3.968751,0.6672 -3.968751,1.5 l 0,10 c 0,0.8327 1.763927,1.5 3.968751,1.5 2.204824,0 4,-0.6673 4,-1.5 l 0,-10 c 0,-0.8328 -1.795176,-1.5 -4,-1.5 z" display="inline"/><g id="g4913" display="inline" filter="url(#filter4924-5)" transform="matrix(0.27903303,0,0,0.27903303,-182.64712,921.83521)"><path id="path3868-6" fill="#7b99ca" fill-opacity="1" stroke="none" d="M 10.378906,3.9386165 C 9.4619637,4.1385648 8.3722747,4.1927484 7.3495584,4.0892475 l 1.0332541,-1.456435 z" display="inline" transform="matrix(3.5838051,0,0,3.5838051,655.01968,411.78602)"/><path id="path3868-6-2" fill="#deeaf8" fill-opacity="1" stroke="none" d="M 7.3495584,4.0892475 C 6.6726614,4.0207443 6.0554326,3.8861514 5.5599096,3.6989969 L 8.3828125,2.6328125 z" display="inline" transform="matrix(3.5838051,0,0,3.5838051,655.01968,411.78602)"/><path id="path3868-6-4" fill="#a8c0e5" fill-opacity="1" stroke="none" d="M 9.4160668,1.1763775 C 11.545763,1.391907 12.80962,2.2186963 12.238969,3.0230631 11.964933,3.4093337 11.295849,3.7386681 10.378906,3.9386165 L 8.3828125,2.6328125 z" display="inline" transform="matrix(3.5838051,0,0,3.5838051,655.01968,411.78602)"/><path id="path3868-6-4-5" fill="#84a1ce" fill-opacity="1" stroke="none" d="M 6.3867187,1.3270086 C 7.3036612,1.1270602 8.3933503,1.0728766 9.4160668,1.1763775 l -1.0332543,1.456435 z" display="inline" transform="matrix(3.5838051,0,0,3.5838051,655.01968,411.78602)"/><path id="path3868-6-4-5-8" fill="#a8c0e5" fill-opacity="1" stroke="none" d="M 5.5599096,3.6989969 C 4.0008634,3.1101595 4.0008635,2.1554654 5.5599097,1.566628 5.8066068,1.4734528 6.0845777,1.3928934 6.3867187,1.3270086 l 1.9960938,1.3058039 z" display="inline" transform="matrix(3.5838051,0,0,3.5838051,655.01968,411.78602)"/></g><path id="path3868" fill="none" stroke="url(#linearGradient4800-4)" stroke-opacity="1" d="M 12.375,2.6328125 C 12.375,3.4655543 10.587637,4.140625 8.3828125,4.140625 6.1779882,4.140625 4.390625,3.4655543 4.390625,2.6328125 4.390625,1.8000707 6.1779882,1.125 8.3828125,1.125 10.587637,1.125 12.375,1.8000707 12.375,2.6328125 z" display="inline" transform="translate(0.125005,1036.7371)"/><path id="path3868-1-4" fill="none" stroke="url(#linearGradient4755-8)" stroke-opacity="1" stroke-width="1" d="m 8.5,1037.8622 c -2.204824,0 -3.968751,0.6672 -3.968751,1.5 l 0,10 c 0,0.8327 1.763927,1.5 3.968751,1.5 2.204824,0 4,-0.6673 4,-1.5 l 0,-10 c 0,-0.8328 -1.795176,-1.5 -4,-1.5 z" display="inline"/></g></svg>