<svg xmlns="http://www.w3.org/2000/svg" xmlns:svg="http://www.w3.org/2000/svg" xmlns:xlink="http://www.w3.org/1999/xlink" id="svg2" width="16" height="16" version="1.1"><defs id="defs4"><linearGradient id="linearGradient4939"><stop id="stop4941" offset="0" stop-color="#d5f3ff" stop-opacity="1"/><stop id="stop4943" offset="1" stop-color="#fcffff" stop-opacity="1"/></linearGradient><linearGradient id="linearGradient4945" x1="1.433" x2="3.073" y1="6.461" y2="8.105" gradientUnits="userSpaceOnUse" xlink:href="#linearGradient4939"/><linearGradient id="linearGradient4939-8"><stop id="stop4941-8" offset="0" stop-color="#d5f3ff" stop-opacity="1"/><stop id="stop4943-2" offset="1" stop-color="#fcffff" stop-opacity="1"/></linearGradient><linearGradient id="linearGradient4983" x1="1.433" x2="3.073" y1="6.461" y2="8.105" gradientUnits="userSpaceOnUse" xlink:href="#linearGradient4939-8"/></defs><metadata id="metadata7"/><g id="layer1" display="inline" transform="translate(0,-1036.3622)"><g id="g8159" display="inline" transform="translate(-8.2201163,-12.904699)"><text id="text4105-1" x="31.62" y="1061.287" fill="#000" fill-opacity="1" stroke="none" display="inline" font-family="Gautami" font-size="10" font-stretch="normal" font-style="normal" font-variant="normal" font-weight="normal" letter-spacing="0" text-anchor="start" word-spacing="0" writing-mode="lr" xml:space="preserve" style="text-align:start;line-height:125%;-inkscape-font-specification:Gautami"><tspan id="tspan4107-7" x="31.62" y="1061.287">Gautami</tspan></text><path id="text4105-1-1" fill="#17325d" fill-opacity="1" stroke="none" d="M 5.1875 11 L 6.21875 12.4375 L 5.09375 14 L 5.75 14 L 6.5 12.84375 L 7.25 14 L 7.90625 14 L 6.8125 12.4375 L 7.8125 11 L 7.15625 11 L 6.5 12.0625 L 5.84375 11 L 5.1875 11 z M 10 11.0625 L 10 11.90625 L 13 11.90625 L 13 11.0625 L 10 11.0625 z M 10 13.0625 L 10 13.90625 L 13 13.90625 L 13 13.0625 L 10 13.0625 z" display="inline" font-family="Gautami" font-size="6.274" font-stretch="normal" font-style="normal" font-variant="normal" font-weight="normal" letter-spacing="0" text-anchor="start" transform="translate(8.2201163,1049.2669)" word-spacing="0" writing-mode="lr-tb" style="text-align:start;line-height:125%;-inkscape-font-specification:Gautami"/><path id="path4981" fill="none" stroke="#324e6e" stroke-linecap="butt" stroke-linejoin="miter" stroke-opacity="1" stroke-width="1" d="m 12.535948,1055.3138 c 0,0 0.409535,-0.5625 1.699794,-0.5625 1.290259,0 1.658145,0.5 1.658145,0.5"/><path id="path4985" fill="none" stroke="#324e6e" stroke-linecap="round" stroke-linejoin="round" stroke-opacity="1" stroke-width="1" d="M 0.56039169,6.0187556 1.0830191,5.4720505 4.4746604,1.9241548 C 5.3033012,1.1507567 6.5628352,1.0512961 6.5628352,3.6256306" transform="translate(8.2201163,1049.2669)"/><path id="path4985-5" fill="none" stroke="#324e6e" stroke-linecap="round" stroke-linejoin="round" stroke-opacity="1" stroke-width="1" d="m 17.623497,1056.2071 4.076913,-4.2647 c 0.828641,-0.7734 2.088175,-0.8729 2.088175,1.7015" display="inline"/><path id="path4150" fill="url(#linearGradient4945)" fill-opacity="1" stroke="#324e6e" stroke-dasharray="none" stroke-miterlimit="4" stroke-opacity="1" stroke-width="1.119" d="m 4.7343755,7.5624995 c 0,1.2253819 -0.9933683,2.2187503 -2.2187503,2.2187503 -1.2253819,0 -2.2187502,-0.9933684 -2.2187502,-2.2187503 0,-1.2253819 0.9933683,-2.2187502 2.2187502,-2.2187502 1.225382,0 2.2187503,0.9933683 2.2187503,2.2187502 z" transform="matrix(0.89367816,0,0,0.89367816,8.471957,1050.0008)"/><path id="path4150-4" fill="url(#linearGradient4983)" fill-opacity="1" stroke="#324e6e" stroke-dasharray="none" stroke-miterlimit="4" stroke-opacity="1" stroke-width="1.119" d="m 4.7343755,7.5624995 c 0,1.2253819 -0.9933683,2.2187503 -2.2187503,2.2187503 -1.2253819,0 -2.2187502,-0.9933684 -2.2187502,-2.2187503 0,-1.2253819 0.9933683,-2.2187502 2.2187502,-2.2187502 1.225382,0 2.2187503,0.9933683 2.2187503,2.2187502 z" display="inline" transform="matrix(0.89367816,0,0,0.89367816,15.471957,1050.0008)"/></g></g></svg>