<svg xmlns="http://www.w3.org/2000/svg" xmlns:svg="http://www.w3.org/2000/svg" xmlns:xlink="http://www.w3.org/1999/xlink" id="svg2" width="16" height="16" version="1.1"><defs id="defs4"><linearGradient id="linearGradient18855"><stop id="stop18857" offset="0" stop-color="#a4b1c7" stop-opacity="1"/><stop id="stop18859" offset=".5" stop-color="#e1e9f8" stop-opacity="0"/><stop id="stop18861" offset="1" stop-color="#e7eefa" stop-opacity="0"/></linearGradient><linearGradient id="linearGradient18808"><stop id="stop18810" offset="0" stop-color="#a4b1c7" stop-opacity="1"/><stop id="stop18816" offset=".25" stop-color="#e1e9f8" stop-opacity="1"/><stop id="stop18812" offset="1" stop-color="#e7eefa" stop-opacity="1"/></linearGradient><linearGradient id="linearGradient18543"><stop id="stop18545" offset="0" stop-color="#a79c68" stop-opacity="1"/><stop id="stop18555" offset=".319" stop-color="#687692" stop-opacity="1"/><stop id="stop18553" offset=".426" stop-color="#8c99a6" stop-opacity="1"/><stop id="stop18551" offset=".672" stop-color="#7b8da7" stop-opacity="1"/><stop id="stop18547" offset="1" stop-color="#5e78a8" stop-opacity="1"/></linearGradient><linearGradient id="linearGradient4870"><stop id="stop4872" offset="0" stop-color="#fdf3cb" stop-opacity="1"/><stop id="stop4874" offset="1" stop-color="#fce69e" stop-opacity="1"/></linearGradient><linearGradient id="linearGradient4862"><stop id="stop4864" offset="0" stop-color="#c79c2f" stop-opacity="1"/><stop id="stop4866" offset="1" stop-color="#b7912c" stop-opacity="1"/></linearGradient><linearGradient id="linearGradient5001"><stop id="stop5003" offset="0" stop-color="#000" stop-opacity="1"/><stop id="stop5005" offset="1" stop-color="#000" stop-opacity="0"/></linearGradient><linearGradient id="linearGradient4886"><stop id="stop4888" offset="0" stop-color="#dec26f" stop-opacity="1"/><stop id="stop4890" offset="1" stop-color="#fce69e" stop-opacity="1"/></linearGradient><linearGradient id="linearGradient5156"><stop id="stop5158" offset="0" stop-color="#fdf3cb" stop-opacity="1"/><stop id="stop5166" offset=".486" stop-color="#fdf3cb" stop-opacity="1"/><stop id="stop5164" offset=".565" stop-color="#a77e1c" stop-opacity=".502"/><stop id="stop5160" offset="1" stop-color="#a77e1c" stop-opacity=".5"/></linearGradient><filter id="filter5152" color-interpolation-filters="sRGB"><feGaussianBlur id="feGaussianBlur5154" stdDeviation=".324"/></filter><linearGradient id="linearGradient4878"><stop id="stop4880" offset="0" stop-color="#a77e1c" stop-opacity="1"/><stop id="stop4882" offset="1" stop-color="#c19e38" stop-opacity="1"/></linearGradient><linearGradient id="linearGradient8463" x1="25.656" x2="25.656" y1="1035.134" y2="1040.859" gradientTransform="translate(-43.389765,2.4992546)" gradientUnits="userSpaceOnUse" xlink:href="#linearGradient4870"/><linearGradient id="linearGradient8465" x1="30.063" x2="30.063" y1="1034.609" y2="1040.763" gradientTransform="translate(-43.389765,2.4992546)" gradientUnits="userSpaceOnUse" xlink:href="#linearGradient4862"/><linearGradient id="linearGradient8467" x1="29.436" x2="29.436" y1="1041.45" y2="1039.056" gradientTransform="translate(-43.343391,2.5119946)" gradientUnits="userSpaceOnUse" xlink:href="#linearGradient5001"/><linearGradient id="linearGradient8469" x1="32.326" x2="32.326" y1="1049.994" y2="1040.736" gradientTransform="translate(-43.389765,1.0553546)" gradientUnits="userSpaceOnUse" xlink:href="#linearGradient4886"/><linearGradient id="linearGradient8471" x1="27.208" x2="32.558" y1="1041.838" y2="1049.788" gradientTransform="translate(-43.389765,1.0553546)" gradientUnits="userSpaceOnUse" xlink:href="#linearGradient5156"/><linearGradient id="linearGradient8473" x1="29.263" x2="29.263" y1="1049.994" y2="1040.78" gradientTransform="translate(-43.389765,1.0553546)" gradientUnits="userSpaceOnUse" xlink:href="#linearGradient4878"/><linearGradient id="linearGradient4079" x1="8.014" x2="8.014" y1="1035.974" y2="1049.008" gradientTransform="translate(-22.460469,20.310309)" gradientUnits="userSpaceOnUse" xlink:href="#linearGradient18543"/><linearGradient id="linearGradient4077" x1="-13" x2="-15" y1="1047.362" y2="1047.362" gradientTransform="translate(2.539576,14.310209)" gradientUnits="userSpaceOnUse" xlink:href="#linearGradient4910-4"/><linearGradient id="linearGradient4075" x1="-11" x2="-11" y1="1042.362" y2="1044.362" gradientTransform="translate(2.539576,14.310209)" gradientUnits="userSpaceOnUse" xlink:href="#linearGradient4994-4"/><linearGradient id="linearGradient4994-4"><stop id="stop4996-5" offset="0" stop-color="#d1eeff" stop-opacity="1"/><stop id="stop4998-5" offset="1" stop-color="#fff" stop-opacity="0"/></linearGradient><linearGradient id="linearGradient4910-4"><stop id="stop4912-8" offset="0" stop-color="#fff" stop-opacity="0"/><stop id="stop4914-8" offset="1" stop-color="#d1eeff" stop-opacity="1"/></linearGradient><linearGradient id="linearGradient18549" x1="-22.477" x2="-22.477" y1="1056.516" y2="1069.672" gradientTransform="translate(18,0)" gradientUnits="userSpaceOnUse" xlink:href="#linearGradient18543"/><linearGradient id="linearGradient4910-4-5"><stop id="stop4912-8-3" offset="0" stop-color="#fff" stop-opacity="0"/><stop id="stop4914-8-5" offset="1" stop-color="#d1eeff" stop-opacity="1"/></linearGradient><linearGradient id="linearGradient4075-7" x1="-13" x2="-13" y1="1042.362" y2="1044.362" gradientTransform="translate(11.523114,14.310292)" gradientUnits="userSpaceOnUse" xlink:href="#linearGradient4994-4-7"/><linearGradient id="linearGradient4994-4-7"><stop id="stop4996-5-4" offset="0" stop-color="#d1eeff" stop-opacity="1"/><stop id="stop4998-5-4" offset="1" stop-color="#fff" stop-opacity="0"/></linearGradient><linearGradient id="linearGradient18638" x1="-13" x2="-15" y1="1044.362" y2="1044.362" gradientTransform="translate(11.523114,14.310292)" gradientUnits="userSpaceOnUse" xlink:href="#linearGradient4910-4-5"/><linearGradient id="linearGradient4910-4-5-6"><stop id="stop4912-8-3-4" offset="0" stop-color="#fff" stop-opacity="0"/><stop id="stop4914-8-5-4" offset="1" stop-color="#d1eeff" stop-opacity="1"/></linearGradient><linearGradient id="linearGradient4075-7-5" x1="-13" x2="-13" y1="1042.362" y2="1044.362" gradientTransform="translate(11.523114,18.310346)" gradientUnits="userSpaceOnUse" xlink:href="#linearGradient4994-4-7-9"/><linearGradient id="linearGradient4994-4-7-9"><stop id="stop4996-5-4-2" offset="0" stop-color="#d1eeff" stop-opacity="1"/><stop id="stop4998-5-4-4" offset="1" stop-color="#fff" stop-opacity="0"/></linearGradient><linearGradient id="linearGradient18687" x1="-13" x2="-15" y1="1044.362" y2="1044.362" gradientTransform="translate(11.523114,18.310346)" gradientUnits="userSpaceOnUse" xlink:href="#linearGradient4910-4-5-6"/><linearGradient id="linearGradient4910-4-5-6-2"><stop id="stop4912-8-3-4-5" offset="0" stop-color="#fff" stop-opacity="0"/><stop id="stop4914-8-5-4-3" offset="1" stop-color="#d1eeff" stop-opacity="1"/></linearGradient><linearGradient id="linearGradient4075-7-5-2" x1="-13" x2="-13" y1="1042.362" y2="1044.362" gradientTransform="translate(11.523114,23.310392)" gradientUnits="userSpaceOnUse" xlink:href="#linearGradient4994-4-7-9-3"/><linearGradient id="linearGradient4994-4-7-9-3"><stop id="stop4996-5-4-2-4" offset="0" stop-color="#d1eeff" stop-opacity="1"/><stop id="stop4998-5-4-4-0" offset="1" stop-color="#fff" stop-opacity="0"/></linearGradient><linearGradient id="linearGradient18736" x1="-13" x2="-15" y1="1044.362" y2="1044.362" gradientTransform="translate(11.523114,23.310392)" gradientUnits="userSpaceOnUse" xlink:href="#linearGradient4910-4-5-6-2"/><linearGradient id="linearGradient18814" x1="-2.477" x2="-2.477" y1="1060.672" y2="1064.672" gradientUnits="userSpaceOnUse" xlink:href="#linearGradient18808"/><linearGradient id="linearGradient18834" x1="-2.477" x2="-2.477" y1="1060.672" y2="1064.672" gradientTransform="translate(-3.8171387e-7,-5.3951562e-5)" gradientUnits="userSpaceOnUse" xlink:href="#linearGradient18855"/><mask id="mask8608" maskUnits="userSpaceOnUse"><rect id="rect8610" width="14" height="14" x="1" y="1037.362" fill="#fff" fill-opacity="1" stroke="none" rx=".671" ry=".671"/></mask><filter id="filter9392" width="1.384" height="1.339" x="-.192" y="-.169"><feGaussianBlur id="feGaussianBlur9394" stdDeviation=".633"/></filter></defs><metadata id="metadata7"/><g id="layer1" display="inline" transform="translate(0,-1036.3622)"><g id="layer1-6" display="inline" transform="translate(14.476931,-18.310246)"><rect id="rect3997-9" width="12.986" height="13.014" x="-12.977" y="1056.172" fill="#f4fcff" fill-opacity="1" stroke="url(#linearGradient4079)" stroke-dasharray="none" stroke-dashoffset="0" stroke-linecap="butt" stroke-linejoin="miter" stroke-miterlimit="4" stroke-opacity="1" stroke-width="1" display="inline"/><path id="rect4853-82-7" fill="url(#linearGradient4077)" fill-opacity="1" stroke="none" d="m -11.460469,1057.6724 -0.01646,11 -1,0 0.01646,-12 z" display="inline"/><path id="rect4853-82-0" fill="url(#linearGradient4075)" fill-opacity="1" stroke="none" d="m -11.460469,1057.6724 6.983538,0 0,-1 -7.983538,0 z" display="inline"/><rect id="rect18033" width="1" height="14" x="-4.477" y="1055.672" fill="url(#linearGradient18549)" fill-opacity="1" stroke="none"/><rect id="rect18033-4" width="1" height="3" x="1059.672" y=".477" fill="#687692" fill-opacity="1" stroke="none" display="inline" transform="matrix(0,1,-1,0,0,0)"/><rect id="rect18033-4-9" width="1" height="3" x="1064.672" y=".477" fill="#7b8ca7" fill-opacity="1" stroke="none" display="inline" transform="matrix(0,1,-1,0,0,0)"/><path id="rect4853-82-7-3" fill="url(#linearGradient18638)" fill-opacity="1" stroke="none" d="m -2.476931,1057.6724 0,2 -1,0 0,-3 z" display="inline"/><path id="rect4853-82-0-3" fill="url(#linearGradient4075-7)" fill-opacity="1" stroke="none" d="m -2.476931,1057.6724 2,0 0,-1 -3,0 z" display="inline"/><rect id="rect3997-9-5" width="3" height="4" x="-3.477" y="1060.672" fill="url(#linearGradient18814)" fill-opacity="1" stroke="none" display="inline"/><path id="rect4853-82-7-3-4" fill="url(#linearGradient18687)" fill-opacity="1" stroke="none" d="m -2.476931,1061.6724 0,3 -1,0 0,-4 z" display="inline"/><path id="rect4853-82-0-3-2" fill="url(#linearGradient4075-7-5)" fill-opacity="1" stroke="none" d="m -2.476931,1061.6724 2,0 0,-1 -3,0 z" display="inline"/><path id="rect4853-82-7-3-4-2" fill="url(#linearGradient18736)" fill-opacity="1" stroke="none" d="m -2.476931,1066.6724 0,2 -1,0 0,-3 z" display="inline"/><path id="rect4853-82-0-3-2-3" fill="url(#linearGradient4075-7-5-2)" fill-opacity="1" stroke="none" d="m -2.476931,1066.6724 2,0 0,-1 -3,0 z" display="inline"/><rect id="rect3997-9-5-5" width="3" height="4" x="-3.477" y="1060.672" fill="url(#linearGradient18834)" fill-opacity="1" stroke="none" display="inline"/><rect id="rect18863" width="1" height="1" x="12" y="3" fill="#4b6ea2" fill-opacity="1" stroke="none" opacity="1" transform="translate(-14.476931,1054.6724)"/><rect id="rect18863-7" width="1" height="1" x="-2.477" y="1066.672" fill="#4b6ea2" fill-opacity="1" stroke="none" display="inline"/></g><g id="g8605" mask="url(#mask8608)"><path id="path8589" fill="#fff" fill-opacity="1" fill-rule="nonzero" stroke="none" stroke-width=".607" d="m 3.96875,1043.3622 c -1.839313,0 -3.34375,1.4732 -3.34375,3.3125 l 0,0.3125 c -0.347633,0.1472 -0.59375,0.4741 -0.59375,0.875 l 0,3.5 c 0,0.5346 0.434192,0.9688 0.96875,0.9688 l 5.9375,0 c 0.534558,0 1,-0.4342 1,-0.9688 l 0,-3.5 c 0,-0.3852 -0.258682,-0.6877 -0.59375,-0.8437 l 0,-0.3438 c 0,-1.8416 -1.535687,-3.3125 -3.375,-3.3125 z m 0,1.8125 c 0.865247,0 1.53125,0.6385 1.53125,1.5 l 0,0.2188 -3.03125,0 0,-0.2188 c 0,-0.8653 0.634753,-1.5 1.5,-1.5 z" baseline-shift="baseline" color="#000" direction="ltr" display="inline" enable-background="accumulate" filter="url(#filter9392)" font-family="Sans" font-size="medium" font-stretch="normal" font-style="normal" font-variant="normal" font-weight="normal" letter-spacing="normal" overflow="visible" text-anchor="start" text-decoration="none" visibility="visible" word-spacing="normal" writing-mode="lr-tb" style="text-indent:0;text-align:start;line-height:normal;text-transform:none;block-progression:tb;marker:none;-inkscape-font-specification:Sans"/></g><g id="g8451" transform="matrix(0.60714811,0,0,0.60714811,12.404988,413.97769)"><path font-family="Sans" style="text-indent:0;text-align:start;line-height:normal;text-transform:none;block-progression:tb;marker:none;-inkscape-font-specification:Sans" id="rect4838-1" fill="url(#linearGradient8463)" fill-opacity="1" stroke="url(#linearGradient8465)" stroke-dasharray="none" stroke-miterlimit="4" stroke-opacity="1" stroke-width="1" d="m -13.889764,1037.1243 c -2.758584,0 -5,2.2414 -5,5 l 0,2.9375 c 0,2.7586 2.241416,5.0313 5,5.0313 2.758584,0 5.0312492,-2.2727 5.0312492,-5.0313 l 0,-2.9375 c 0,-2.7586 -2.2726652,-5 -5.0312492,-5 z m 0,2 c 1.685179,0 3.03125,1.3148 3.03125,3 l 0,2.9375 c 0,1.6852 -1.346071,3.0313 -3.03125,3.0313 -1.685179,0 -3,-1.3461 -3,-3.0313 l 0,-2.9375 c 0,-1.6852 1.314821,-3 3,-3 z" baseline-shift="baseline" color="#000" direction="ltr" display="inline" enable-background="accumulate" font-size="medium" font-stretch="normal" font-style="normal" font-variant="normal" font-weight="normal" letter-spacing="normal" overflow="visible" text-anchor="start" text-decoration="none" visibility="visible" word-spacing="normal" writing-mode="lr-tb"/><path id="path4994" fill="url(#linearGradient8467)" fill-opacity="1" fill-rule="nonzero" stroke="none" stroke-width="1" d="m -13.84339,1036.6243 c -3.029423,0 -5.5,2.4706 -5.5,5.5 l 0,2.9375 c 0,3.0294 2.466794,5.5313 5.5,5.5313 3.033206,0 5.5312493,-2.4981 5.5312493,-5.5313 l 0,-2.9375 c 0,-3.0332 -2.5018263,-5.5 -5.5312493,-5.5 z m 0,3 c 1.425108,0 2.53125,1.0811 2.53125,2.5 l 0,2.9375 c 0,1.4189 -1.112334,2.5313 -2.53125,2.5313 -1.418916,0 -2.5,-1.1062 -2.5,-2.5313 l 0,-2.9375 c 0,-1.4251 1.074892,-2.5 2.5,-2.5 z" baseline-shift="baseline" color="#000" direction="ltr" display="inline" enable-background="accumulate" font-family="Sans" font-size="medium" font-stretch="normal" font-style="normal" font-variant="normal" font-weight="normal" letter-spacing="normal" opacity=".5" overflow="visible" text-anchor="start" text-decoration="none" visibility="visible" word-spacing="normal" writing-mode="lr-tb" style="text-indent:0;text-align:start;line-height:normal;text-transform:none;block-progression:tb;marker:none;-inkscape-font-specification:Sans"/><rect id="rect4838" width="11.999" height="7.938" x="-19.876" y="1042.982" fill="url(#linearGradient8469)" fill-opacity="1" stroke="none" display="inline" rx="1.105" ry="1.105"/><rect id="rect4838-4" width="10.729" height="6.824" x="-19.242" y="1043.485" fill="none" stroke="url(#linearGradient8471)" stroke-opacity="1" stroke-width=".879" display="inline" filter="url(#filter5152)" rx=".622" ry=".601"/><rect id="rect4894" width="11.031" height="1" x="-19.393" y="1045.48" fill="#a77e1c" fill-opacity="1" stroke="none" display="inline" opacity=".25"/><rect id="rect4894-7" width="11.031" height="1" x="-19.393" y="1047.48" fill="#a77e1c" fill-opacity="1" stroke="none" display="inline" opacity=".25"/><rect id="rect4894-7-4" width="11.031" height="1" x="-19.393" y="1049.48" fill="#a77e1c" fill-opacity="1" stroke="none" display="inline" opacity=".25"/><path id="path4066" fill="#785b13" fill-opacity="1" stroke="none" d="m 10.496117,12.531184 c 0,0.561379 -0.455088,1.016466 -1.0164665,1.016466 -0.5613787,0 -1.016466,-0.455087 -1.016466,-1.016466 0,-0.561378 0.4550873,-1.016466 1.016466,-1.016466 0.5613785,0 1.0164665,0.455088 1.0164665,1.016466 z" display="inline" transform="translate(-23.389764,1033.4176)"/><rect id="rect4836" width="1.061" height="2.806" x="-14.44" y="1046.59" fill="#785b13" fill-opacity="1" stroke="none" display="inline"/><rect id="rect4838-12" width="11.999" height="7.974" x="-19.876" y="1042.946" fill="none" stroke="url(#linearGradient8473)" stroke-opacity="1" display="inline" rx="1.105" ry="1.105"/></g></g></svg>