<svg xmlns="http://www.w3.org/2000/svg" xmlns:svg="http://www.w3.org/2000/svg" xmlns:xlink="http://www.w3.org/1999/xlink" id="svg2" width="16" height="16" version="1.1"><defs id="defs4"><linearGradient id="linearGradient5147"><stop id="stop5149" offset="0" stop-color="#91a5c7" stop-opacity="1"/><stop id="stop5151" offset="1" stop-color="#637aa7" stop-opacity="1"/></linearGradient><linearGradient id="linearGradient5141"><stop id="stop5143" offset="0" stop-color="#91a5c7" stop-opacity="1"/><stop id="stop5145" offset="1" stop-color="#637aa7" stop-opacity="1"/></linearGradient><linearGradient id="linearGradient5135"><stop id="stop5137" offset="0" stop-color="#91a5c7" stop-opacity="1"/><stop id="stop5139" offset="1" stop-color="#637aa7" stop-opacity="1"/></linearGradient><linearGradient id="linearGradient4994"><stop id="stop4996" offset="0" stop-color="#f9fafc" stop-opacity="1"/><stop id="stop4998" offset="1" stop-color="#dce7f7" stop-opacity="1"/></linearGradient><linearGradient id="linearGradient4902"><stop id="stop4904" offset="0" stop-color="#c7b571" stop-opacity="1"/><stop id="stop4906" offset="1" stop-color="#9a9a8f" stop-opacity="1"/></linearGradient><linearGradient id="linearGradient4894"><stop id="stop4896" offset="0" stop-color="#e0c88f" stop-opacity="1"/><stop id="stop4898" offset="1" stop-color="#d5b269" stop-opacity="1"/></linearGradient><linearGradient id="linearGradient4877"><stop id="stop4879" offset="0" stop-color="#91a5c7" stop-opacity="1"/><stop id="stop4881" offset="1" stop-color="#5e76a3" stop-opacity="1"/></linearGradient><linearGradient id="linearGradient4861"><stop id="stop4863" offset="0" stop-color="#91a5c7" stop-opacity="1"/><stop id="stop4865" offset="1" stop-color="#637aa7" stop-opacity="1"/></linearGradient><linearGradient id="linearGradient4867" x1="7.007" x2="11" y1="1043.857" y2="1043.857" gradientTransform="matrix(1.5556668,0,0,1,-7.8935846,-4)" gradientUnits="userSpaceOnUse" xlink:href="#linearGradient4877"/><linearGradient id="linearGradient4869" x1="7.007" x2="14" y1="1045.857" y2="1045.857" gradientTransform="matrix(0.67377864,0,0,1,-1.7141507,-4)" gradientUnits="userSpaceOnUse" xlink:href="#linearGradient4861"/><linearGradient id="linearGradient4871" x1="7.007" x2="14" y1="1047.857" y2="1047.857" gradientTransform="matrix(0.51960552,0,0,1,-0.63385206,-4)" gradientUnits="userSpaceOnUse" xlink:href="#linearGradient5147"/><linearGradient id="linearGradient4873" x1="7.007" x2="12.016" y1="1051.857" y2="1051.857" gradientTransform="matrix(0.48896165,0,0,1,-0.41912899,-4)" gradientUnits="userSpaceOnUse" xlink:href="#linearGradient5135"/><linearGradient id="linearGradient4875" x1="7.007" x2="14" y1="1049.857" y2="1049.857" gradientTransform="matrix(0.35202605,0,0,1,0.54038559,-4)" gradientUnits="userSpaceOnUse" xlink:href="#linearGradient5141"/><linearGradient id="linearGradient4900" x1="7.999" x2="9.987" y1="1042.231" y2="1040.33" gradientTransform="translate(0,-2)" gradientUnits="userSpaceOnUse" xlink:href="#linearGradient4894"/><linearGradient id="linearGradient4908" x1="10.545" x2="10.545" y1="1038.578" y2="1052.323" gradientTransform="translate(-4,-2)" gradientUnits="userSpaceOnUse" xlink:href="#linearGradient4902"/><linearGradient id="linearGradient5000" x1="9.895" x2="9.895" y1="1039.153" y2="1051.838" gradientTransform="translate(-4,-2)" gradientUnits="userSpaceOnUse" xlink:href="#linearGradient4994"/><linearGradient id="linearGradient4852-7-8"><stop id="stop4854-4-1" offset="0" stop-color="#707070" stop-opacity="1"/><stop id="stop4856-0-2" offset="1" stop-color="#a0a0a0" stop-opacity="1"/></linearGradient><linearGradient id="linearGradient4844-4-1"><stop id="stop4846-8-4" offset="0" stop-color="#606060" stop-opacity="1"/><stop id="stop4848-8-9" offset="1" stop-color="#787878" stop-opacity="1"/></linearGradient><linearGradient id="linearGradient6120" x1="4.753" x2="4.753" y1="1051.047" y2="1038.581" gradientTransform="translate(1.9961442e-6,-9.9830355e-5)" gradientUnits="userSpaceOnUse" xlink:href="#linearGradient4852-7-8"/><linearGradient id="linearGradient6122" x1="8.657" x2="8.657" y1="1050.739" y2="1037.7" gradientTransform="translate(1.9961442e-6,-9.9830355e-5)" gradientUnits="userSpaceOnUse" xlink:href="#linearGradient4844-4-1"/><mask id="mask6204"><path id="path6206" fill="#fff" fill-opacity="1" stroke="none" stroke-width="1" d="m 1,1036.3935 0,0.5 0,12.9687 0,0.5 0.5,0 10.0625,0 0.5,0 0,-0.5 0,-9.9687 0,-0.2188 -0.15625,-0.125 -3.0625,-3 -0.125,-0.1562 -0.21875,0 -7,0 -0.5,0 z" baseline-shift="baseline" color="#000" direction="ltr" display="inline" enable-background="accumulate" font-family="Sans" font-size="medium" font-stretch="normal" font-style="normal" font-variant="normal" font-weight="normal" letter-spacing="normal" overflow="visible" text-anchor="start" text-decoration="none" visibility="visible" word-spacing="normal" writing-mode="lr-tb" style="text-indent:0;text-align:start;line-height:normal;text-transform:none;block-progression:tb;marker:none;-inkscape-font-specification:Sans"/></mask><filter id="filter6988" width="1.48" height="1.48" x="-.24" y="-.24" color-interpolation-filters="sRGB"><feGaussianBlur id="feGaussianBlur6990" stdDeviation="1.205"/></filter><linearGradient id="linearGradient7074" x1="1.138" x2="10.473" y1="1045.208" y2="1045.208" gradientTransform="matrix(0,0.58432111,0.58432111,0,-601.73696,1040.3056)" gradientUnits="userSpaceOnUse" xlink:href="#linearGradient7084"/><linearGradient id="linearGradient7084"><stop id="stop7086" offset="0" stop-color="#fefaef" stop-opacity="1"/><stop id="stop7088" offset="1" stop-color="#fce5a7" stop-opacity="1"/></linearGradient><linearGradient id="linearGradient7082" x1="32" x2="32" y1="1050.362" y2="1037.362" gradientTransform="translate(-19,-0.93755)" gradientUnits="userSpaceOnUse" xlink:href="#linearGradient7076"/><linearGradient id="linearGradient7076"><stop id="stop7078" offset="0" stop-color="#956413" stop-opacity="1"/><stop id="stop7080" offset="1" stop-color="#c38b1d" stop-opacity="1"/></linearGradient><linearGradient id="linearGradient3026" x1="1.138" x2="10.473" y1="1045.208" y2="1045.208" gradientTransform="matrix(-0.58432111,0,0,0.58432111,15.364557,435.77077)" gradientUnits="userSpaceOnUse" xlink:href="#linearGradient7084"/><linearGradient id="linearGradient3028" x1="32" x2="32" y1="1050.362" y2="1037.362" gradientTransform="matrix(0,1,-1,0,1056.6077,1018.5078)" gradientUnits="userSpaceOnUse" xlink:href="#linearGradient7076"/></defs><metadata id="metadata7"/><g id="layer1" display="inline" transform="translate(0,-1036.3622)"><path id="rect4001-3" fill="url(#linearGradient5000)" fill-opacity="1" stroke="none" d="m 1.4972825,1036.9037 7.0096685,0 3.062057,3.0066 0,9.9546 -10.0717255,0 z" display="inline"/><path id="rect4001" fill="none" stroke="url(#linearGradient4908)" stroke-dashoffset="0" stroke-linecap="butt" stroke-linejoin="miter" stroke-miterlimit="4" stroke-opacity="1" stroke-width="1" d="m 1.4972825,1036.9037 7.0096685,0 3.062057,3.0066 0,9.9546 -10.0717255,0 z"/><rect id="rect4001-1" width="6.212" height="1.01" x="3.007" y="1039.352" fill="url(#linearGradient4867)" fill-opacity="1" stroke="none" display="inline"/><rect id="rect4001-1-7" width="4.712" height="1.01" x="3.007" y="1041.352" fill="url(#linearGradient4869)" fill-opacity="1" stroke="none" display="inline"/><rect id="rect4001-1-7-4" width="3.634" height="1.01" x="3.007" y="1043.352" fill="url(#linearGradient4871)" fill-opacity="1" stroke="none" display="inline"/><rect id="rect4001-1-7-4-0" width="2.462" height="1.01" x="3.007" y="1045.352" fill="url(#linearGradient4875)" fill-opacity="1" stroke="none" display="inline"/><rect id="rect4001-1-7-4-0-9" width="2.449" height="1.01" x="3.007" y="1047.352" fill="url(#linearGradient4873)" fill-opacity="1" stroke="none" display="inline"/><g id="g6200" mask="url(#mask6204)"><g id="layer1-8" fill="#fff" stroke="#fff" stroke-dasharray="none" stroke-miterlimit="4" stroke-width="3.707" display="inline" filter="url(#filter6988)" opacity=".75" transform="matrix(0.53947849,0,0,0.53947849,7.846281,484.46953)"><path id="rect4043" fill="#fff" fill-opacity="1" stroke="#fff" stroke-dasharray="none" stroke-dashoffset="0" stroke-linecap="round" stroke-linejoin="miter" stroke-miterlimit="4" stroke-opacity="1" stroke-width="3.707" d="m 13.419292,1038.6553 c -0.468185,-0.4682 -1.221974,-0.4682 -1.690135,-10e-5 l -3.1127968,3.1129 -3.1127723,-3.1128 c -0.4681138,-0.4682 -1.221974,-0.4682 -1.690134,0 l -0.8600555,0.8601 c -0.4681391,0.468 -0.4681272,1.2218 3.66e-5,1.6901 l 3.1127223,3.1128 -3.1127269,3.1127 c -0.4682099,0.4682 -0.468198,1.222 -1.34e-5,1.6902 l 0.8601016,0.8601 c 0.4681344,0.4681 1.2219244,0.4681 1.6901337,0 l 3.1127774,-3.1128 3.1344053,3.1344 c 0.468135,0.4682 1.221925,0.4682 1.690135,0 l 0.860055,-0.86 c 0.46816,-0.4682 0.463458,-1.2173 -3.7e-5,-1.6902 l -3.134406,-3.1344 3.112777,-3.1127 c 0.468181,-0.4683 0.468169,-1.2221 3.4e-5,-1.6902 z" display="inline"/></g></g><path id="rect3968" fill="url(#linearGradient3026)" fill-opacity="1" stroke="url(#linearGradient3028)" stroke-dasharray="none" stroke-dashoffset="0" stroke-linecap="round" stroke-linejoin="round" stroke-miterlimit="4" stroke-opacity="1" stroke-width=".584" d="m 15.807557,1045.4609 0,-5.7031 c 0,-0.3903 -0.2972,-0.7187 -0.6875,-0.7187 l -0.5312,0 c -0.3903,0 -0.7188,0.3284 -0.7188,0.7187 l 0,5.2813 -3.0625,0 0,-2.25 -0.9999996,0 -3.2188,3.2187 3.2188,3.2188 0.9999996,0 0,-2.2188 3.4687,0 c 0.9367,0 1.5313,-0.4395 1.5313,-1.5469 z" display="inline"/></g></svg>