<svg xmlns="http://www.w3.org/2000/svg" xmlns:svg="http://www.w3.org/2000/svg" xmlns:xlink="http://www.w3.org/1999/xlink" id="svg2" width="7" height="8" version="1.1"><defs id="defs4"><linearGradient id="linearGradient4877"><stop id="stop4879" offset="0" stop-color="#f7fdff" stop-opacity="1"/><stop id="stop4881" offset="1" stop-color="#e8f0f5" stop-opacity="1"/></linearGradient><linearGradient id="linearGradient4107" x1="12.108" x2="12.108" y1="2.792" y2="17.833" gradientUnits="userSpaceOnUse" xlink:href="#linearGradient4877"/></defs><metadata id="metadata7"/><g id="layer1" display="inline" transform="translate(0,-1044.3622)"><g id="g8159" display="inline" transform="translate(-8.2201163,-12.904699)"><g id="g4102" transform="matrix(0.34703577,0,0,0.34703577,4.7066823,695.58895)"><path id="path4110" fill="url(#linearGradient4107)" fill-opacity="1" stroke="#286296" stroke-dasharray="none" stroke-miterlimit="4" stroke-opacity="1" stroke-width="1" d="m 21.8125,11.6875 c 0,5.453812 -4.421188,9.875 -9.875,9.875 -5.4538119,0 -9.875,-4.421188 -9.875,-9.875 0,-5.4538119 4.4211881,-9.875 9.875,-9.875 5.453812,0 9.875,4.4211881 9.875,9.875 z" transform="matrix(0.96385542,0,0,0.96385542,8.714092,1041.0018)"/><path font-style="normal" style="text-align:start;line-height:125%;-inkscape-font-specification:Reznor Bold" id="text4882" fill="#286296" fill-opacity="1" stroke="none" d="m 20.279131,1044.9761 c -1.426102,10e-5 -2.56467,0.3966 -3.433424,1.1943 -0.868758,0.7977 -1.321534,1.9026 -1.37337,3.2841 l 2.358613,0.2986 c 0.07755,-1.7081 0.859346,-2.5378 2.298902,-2.5378 0.60937,0 1.103814,0.1559 1.492793,0.5076 0.388965,0.3517 0.567253,0.8034 0.567261,1.3435 -8e-6,0.5025 -0.174161,0.9368 -0.537405,1.3136 -0.194296,0.2009 -0.58073,0.5017 -1.164379,0.8659 -0.531429,0.3266 -0.876392,0.6994 -1.044955,1.1643 -0.15591,0.3895 -0.238852,0.9876 -0.238847,1.7914 l 0,1.0748 2.179478,0 0,-0.6867 c -7e-6,-0.7912 0.340821,-1.3987 1.015099,-1.851 0.882004,-0.603 1.484063,-1.1382 1.821208,-1.5525 0.466518,-0.603 0.71653,-1.33 0.71654,-2.2094 -10e-6,-1.2059 -0.482839,-2.2021 -1.403225,-2.9557 -0.882021,-0.7034 -1.970648,-1.0449 -3.254289,-1.045 z" font-family="Reznor" font-size="20.037" font-stretch="normal" font-variant="normal" font-weight="bold" letter-spacing="0" text-anchor="start" word-spacing="0" writing-mode="lr-tb"/><path id="path4908-1" fill="#286296" fill-opacity="1" stroke="none" d="m 12.575997,16.531185 c 0,0.21967 -0.288136,0.397748 -0.64357,0.397748 -0.355433,0 -0.643569,-0.178078 -0.643569,-0.397748 0,-0.21967 0.288136,-0.397747 0.643569,-0.397747 0.355434,0 0.64357,0.178077 0.64357,0.397747 z" display="inline" transform="matrix(2.5622525,0,0,3.5344747,-10.42135,999.36901)"/></g></g></g></svg>