<svg xmlns="http://www.w3.org/2000/svg" xmlns:svg="http://www.w3.org/2000/svg" id="svg2" width="16" height="16" version="1.1"><metadata id="metadata7"/><g id="layer1" display="inline" transform="translate(0,-1036.3622)"><path font-family="AustralianFlyingCorpsStencil" style="text-align:start;line-height:125%;-inkscape-font-specification:AustralianFlyingCorpsStencil" id="path4719" fill="#236298" fill-opacity="1" stroke="#236298" stroke-dasharray="none" stroke-miterlimit="4" stroke-opacity="1" stroke-width=".318" d="m 14.464118,1049.2149 c -0.423701,0 -0.784673,-0.1086 -1.082887,-0.3248 -0.327307,-0.2449 -0.501742,-0.5743 -0.523298,-0.9886 -0.483034,0.8661 -1.115289,1.2992 -1.89675,1.2992 -0.706167,0 -1.268019,-0.2164 -1.685572,-0.6495 -0.417843,-0.4426 -0.637261,-1.0217 -0.658246,-1.7372 -0.02899,-0.9886 0.302696,-1.8784 0.995072,-2.6693 0.692364,-0.7909 1.523441,-1.1863 2.493226,-1.1863 0.932125,0 1.447444,0.3954 1.545972,1.1863 l 0.28047,-1.031 1.610026,0 c -0.239065,0.8381 -0.473417,1.676 -0.703042,2.5139 -0.322726,1.1959 -0.477998,2.0008 -0.465847,2.4151 0.01269,0.4331 0.174396,0.6497 0.485117,0.6497 m -1.655353,-4.4347 c -0.01354,-0.4613 -0.227442,-0.692 -0.641712,-0.692 -0.583757,0 -1.095142,0.5413 -1.534151,1.6241 -0.386941,0.9322 -0.570468,1.7372 -0.550585,2.4151 0.01905,0.6497 0.282794,0.9745 0.791232,0.9745 0.508425,0 0.980339,-0.6026 1.41577,-1.8078 0.365073,-1.0356 0.538211,-1.8737 0.519446,-2.5139" display="inline" font-size="11.052" font-stretch="normal" font-style="normal" font-variant="normal" font-weight="normal" letter-spacing="0" text-anchor="start" word-spacing="0" writing-mode="lr-tb"/><g id="text7319" fill="#236298" fill-opacity="1" stroke="none" font-family="Sans" font-size="10.259" font-style="normal" font-weight="bold" letter-spacing="0" transform="scale(0.93822513,1.0658423)" word-spacing="0" style="line-height:125%;-inkscape-font-specification:DejaVu Serif Bold Italic"><path id="path7303" fill="#236298" d="m 0.49347803,984.61603 0.11521283,-0.60612 0.61112894,0 4.1526711,-6.8727 1.1972116,0 1.4827391,6.8727 0.711314,0 -0.1152129,0.60612 -3.5014682,0 0.1152129,-0.60612 0.731351,0 -0.315583,-1.52782 -2.8101912,0 -0.9267119,1.52782 0.8916471,0 -0.1152128,0.60612 -2.22410857,0 m 2.73505237,-2.74006 2.3192844,0 -0.5961011,-2.86029 -1.7231833,2.86029" font-family="DejaVu Serif" font-stretch="normal" font-style="italic" font-variant="normal" style="-inkscape-font-specification:DejaVu Serif Bold Italic"/></g></g></svg>