<svg xmlns="http://www.w3.org/2000/svg" xmlns:svg="http://www.w3.org/2000/svg" xmlns:xlink="http://www.w3.org/1999/xlink" id="svg2" width="16" height="16" version="1.1"><defs id="defs4"><linearGradient id="linearGradient4810"><stop id="stop4812" offset="0" stop-color="#886b2d" stop-opacity="1"/><stop id="stop4814" offset="1" stop-color="#bc9617" stop-opacity="1"/></linearGradient><linearGradient id="linearGradient4910-4"><stop id="stop4912-8" offset="0" stop-color="#fff" stop-opacity="0"/><stop id="stop4914-8" offset="1" stop-color="#d1eeff" stop-opacity="1"/></linearGradient><linearGradient id="linearGradient4994-4"><stop id="stop4996-5" offset="0" stop-color="#d1eeff" stop-opacity="1"/><stop id="stop4998-5" offset="1" stop-color="#fff" stop-opacity="0"/></linearGradient><linearGradient id="linearGradient6101" x1="8.014" x2="8.014" y1="1036.662" y2="1050.071" gradientTransform="translate(0,2.0000784)" gradientUnits="userSpaceOnUse" xlink:href="#linearGradient4810"/><linearGradient id="linearGradient6103" x1="-13" x2="-15" y1="1047.362" y2="1047.362" gradientTransform="translate(20.03125,-4.0000216)" gradientUnits="userSpaceOnUse" xlink:href="#linearGradient4910-4"/><linearGradient id="linearGradient6105" x1="-11" x2="-11" y1="1042.362" y2="1044.362" gradientTransform="matrix(0.82102273,0,0,1,17.284091,-4.0000216)" gradientUnits="userSpaceOnUse" xlink:href="#linearGradient4994-4"/><linearGradient id="linearGradient9203-3" x1="7.007" x2="11" y1="1043.857" y2="1043.857" gradientTransform="translate(2.0918142,-0.60984125)" gradientUnits="userSpaceOnUse" xlink:href="#linearGradient4877-6-4-2-5"/><linearGradient id="linearGradient4877-6-4-2-5"><stop id="stop4879-1-3-9-9" offset="0" stop-color="#91a5c7" stop-opacity="1"/><stop id="stop4881-4-4-6-5" offset="1" stop-color="#5e76a3" stop-opacity="1"/></linearGradient><linearGradient id="linearGradient4869-17-7-2-5" x1="7.007" x2="14" y1="1045.857" y2="1045.857" gradientTransform="translate(1.0753482,-4.6757052)" gradientUnits="userSpaceOnUse" xlink:href="#linearGradient4861-1-9-7-3"/><linearGradient id="linearGradient4861-1-9-7-3"><stop id="stop4863-1-0-5-5" offset="0" stop-color="#91a5c7" stop-opacity="1"/><stop id="stop4865-52-3-4-4" offset="1" stop-color="#637aa7" stop-opacity="1"/></linearGradient><linearGradient id="linearGradient5147-4-0-5-8"><stop id="stop5149-5-8-0-9" offset="0" stop-color="#91a5c7" stop-opacity="1"/><stop id="stop5151-5-4-6-0" offset="1" stop-color="#637aa7" stop-opacity="1"/></linearGradient><linearGradient id="linearGradient9273" x1="7.007" x2="14" y1="1047.857" y2="1047.857" gradientTransform="translate(1.0753482,-2.5543849)" gradientUnits="userSpaceOnUse" xlink:href="#linearGradient5147-4-0-5-8"/><linearGradient id="linearGradient9334-5"><stop id="stop9337-0" offset="0" stop-color="#f3f0bc" stop-opacity="1"/><stop id="stop9366-9" offset="1" stop-color="#f6db85" stop-opacity="1"/></linearGradient><linearGradient id="linearGradient9368-7"><stop id="stop9370-5" offset="0" stop-color="#c3a867" stop-opacity="1"/><stop id="stop9372-0" offset="1" stop-color="#866f36" stop-opacity="1"/></linearGradient><radialGradient id="radialGradient9405" cx="5.867" cy="-8.366" r="2.736" fx="5.867" fy="-8.366" gradientTransform="matrix(3.8020701,0,0,0.71327892,-16.439119,-2.0966268)" gradientUnits="userSpaceOnUse" xlink:href="#linearGradient9334-5"/><linearGradient id="linearGradient9407" x1="5.867" x2="6.237" y1="-8.064" y2="-5.526" gradientUnits="userSpaceOnUse" xlink:href="#linearGradient9368-7"/></defs><metadata id="metadata7"/><g id="layer1" display="inline" transform="translate(0,-1036.3622)"><g id="g6096" transform="matrix(0,-1,1,0,-1036.3625,1053.3635)"><rect id="rect3997-9" width="10.03" height="13.908" x="4.47" y="1037.956" fill="#f4fcff" fill-opacity="1" stroke="url(#linearGradient6101)" stroke-dasharray="none" stroke-dashoffset="0" stroke-linecap="butt" stroke-linejoin="miter" stroke-miterlimit="4" stroke-opacity="1" stroke-width="1" display="inline"/><path id="rect4853-82-7" fill="url(#linearGradient6103)" fill-opacity="1" stroke="none" d="m 6.03125,1039.3622 0,12 -1,0 0,-13 z" display="inline"/><path id="rect4853-82-0" fill="url(#linearGradient6105)" fill-opacity="1" stroke="none" d="m 5.7897727,1039.3622 8.2102273,0 0,-1 -9.03125,0 z" display="inline"/><g id="g9242" display="inline" opacity=".605" transform="matrix(0,-1,-1,0,1052.6565,1058.4595)"><rect id="rect4001-1-3" width="3.993" height="1.01" x="9.099" y="1042.742" fill="url(#linearGradient9203-3)" fill-opacity="1" stroke="none" display="inline"/><rect id="rect4001-1-7-6" width="6.993" height="1.01" x="8.082" y="1040.676" fill="url(#linearGradient4869-17-7-2-5)" fill-opacity="1" stroke="none" display="inline"/><rect id="rect4001-1-7-4-3" width="5.446" height="1.01" x="8.082" y="1044.797" fill="url(#linearGradient9273)" fill-opacity="1" stroke="none" display="inline"/></g><g id="g9376" display="inline" transform="matrix(0,1,-1,0,1042.7023,1022.3087)"><path id="path9345-4" fill="#da76a3" fill-opacity="1" stroke="#da76a3" stroke-dasharray="none" stroke-linecap="butt" stroke-linejoin="miter" stroke-miterlimit="4" stroke-opacity="1" stroke-width=".5" d="m 19.538267,1031.4597 0,3.5797 -1.458408,1.2816 0,-4.7729 1.59099,-0.088 m 0,0 1.590991,0.088 0,4.773 -1.458408,-1.2817 0,-3.5797" display="inline"/><path id="path9314" fill="url(#radialGradient9405)" fill-opacity="1" stroke="url(#linearGradient9407)" stroke-dasharray="none" stroke-miterlimit="4" stroke-opacity="1" stroke-width=".5" d="m 8.3526988,-7.3124266 c 0,0.9396991 -1.1129853,1.7014758 -2.4859223,1.7014758 -1.372937,0 -2.4859224,-0.7617767 -2.4859224,-1.7014758 0,-0.9396991 1.1129854,-1.7014757 2.4859224,-1.7014757 1.372937,0 2.4859223,0.7617766 2.4859223,1.7014757 z" display="inline" transform="matrix(0.99059914,0,0,1.2070442,13.898978,1040.7488)"/></g><g id="g6146" stroke="#8694ae" stroke-opacity="1" transform="translate(0,-0.57452426)"><path id="path6107-3-5-5" fill="#fff" fill-opacity="1" stroke="none" d="m 4.8415918,1046.8695 c 0,0 0.043276,0.044 0.562586,0.4879 0.51931,0.4433 1.5146531,1.2858 2.423445,1.2858 0.9087919,0 1.3848259,-1.0199 1.6444809,-1.4854 0.2596549,-0.4655 0.7356883,-1.4854 1.6444803,-1.4854 0.908793,0 1.904135,0.8425 2.423445,1.2859 0.519309,0.4438 0.562586,0.4878 0.562586,0.4878 l 0.865517,0 0,-3.0494 -0.865517,0 c 0,0 -0.04328,-0.044 -0.562586,-0.4878 -0.51931,-0.4434 -1.514652,-1.2859 -2.423445,-1.2859 -0.908792,0 -1.3848254,1.0199 -1.6444803,1.4854 -0.259655,0.4655 -0.735689,1.4854 -1.6444809,1.4854 -0.9087919,0 -1.904136,-0.8425 -2.423445,-1.2858 -0.51931,-0.4439 -0.562586,-0.4879 -0.562586,-0.4879 l -0.8655164,0 0,3.0494 z" display="inline"/><path id="path6107-3" fill="none" stroke="#8694ae" stroke-linecap="butt" stroke-linejoin="miter" stroke-opacity="1" stroke-width=".993" d="m 14.992426,1044.3625 -0.868803,0 c 0,0 -0.04344,-0.044 -0.564721,-0.4874 -0.521282,-0.4431 -1.520402,-1.2849 -2.432645,-1.2849 -0.912242,0 -1.3900841,1.0191 -1.6507247,1.4842 -0.2606401,0.4651 -0.7384812,1.4842 -1.6507234,1.4842 -0.9122423,0 -1.9113643,-0.8418 -2.4326455,-1.2848 -0.5212811,-0.4431 -0.564722,-0.4875 -0.564722,-0.4875 l -0.8688017,0" display="inline"/><path id="path6107-3-5" fill="none" stroke="#8694ae" stroke-linecap="butt" stroke-linejoin="miter" stroke-opacity="1" stroke-width=".992" d="m 14.992836,1047.412 -0.867127,0 c 0,0 -0.04336,-0.044 -0.563632,-0.4876 -0.520277,-0.4432 -1.517471,-1.2852 -2.427955,-1.2852 -0.910483,0 -1.3874026,1.0194 -1.6475407,1.4846 -0.2601381,0.4652 -0.7370577,1.4846 -1.6475403,1.4846 -0.9104833,0 -1.9076786,-0.842 -2.4279545,-1.2851 -0.5202762,-0.4433 -0.5636328,-0.4877 -0.5636328,-0.4877 l -0.8671265,0" display="inline"/></g></g></g></svg>