<svg xmlns="http://www.w3.org/2000/svg" xmlns:svg="http://www.w3.org/2000/svg" xmlns:xlink="http://www.w3.org/1999/xlink" id="svg2" width="16" height="16" version="1.1"><defs id="defs4"><linearGradient id="linearGradient5091"><stop id="stop5093" offset="0" stop-color="#c6852e" stop-opacity="1"/><stop id="stop5095" offset="1" stop-color="#e1a555" stop-opacity="1"/></linearGradient><linearGradient id="linearGradient5081"><stop id="stop5083" offset="0" stop-color="#ffe296" stop-opacity="1"/><stop id="stop5089" offset=".5" stop-color="#f8d880" stop-opacity="1"/><stop id="stop5085" offset="1" stop-color="#fffcd3" stop-opacity="1"/></linearGradient><linearGradient id="linearGradient4198" x1="3.383" x2="3.383" y1="7.016" y2=".982" gradientTransform="matrix(1.0698871,0,0,1.0698871,15.423308,1043.4798)" gradientUnits="userSpaceOnUse" xlink:href="#linearGradient5081"/><linearGradient id="linearGradient4200" x1="6.389" x2="6.389" y1="7.237" y2=".393" gradientTransform="matrix(1.0698871,0,0,1.0698871,15.423308,1043.4798)" gradientUnits="userSpaceOnUse" xlink:href="#linearGradient5091"/></defs><metadata id="metadata7"/><g id="layer1" display="inline" transform="translate(0,-1036.3622)"><g id="g8472" display="inline" transform="matrix(0.9346781,0,0,0.9346781,-14.571811,69.044514)"><g id="g4193" transform="matrix(1.4166388,0,0,1.4166388,-3.2411359,-441.17622)"><path id="path4292" fill="url(#linearGradient4198)" fill-opacity="1" stroke="url(#linearGradient4200)" stroke-dasharray="none" stroke-linecap="butt" stroke-linejoin="miter" stroke-miterlimit="4" stroke-opacity="1" stroke-width=".755" d="m 18.432366,1044.4494 -2.173208,4.3798 c -0.648383,1.0968 -0.206292,2.6552 1.003019,2.6748 l 1.370793,0 1.403654,0 1.370793,0 c 1.209311,-0.019 1.651402,-1.5781 1.003019,-2.6748 l -2.173208,-4.3798 c -0.31486,-0.5957 -1.530765,-0.4999 -1.804862,0 z"/><path id="path4253" fill="#502800" fill-opacity="1" stroke="none" d="m 4.109375,5.484375 a 0.625,0.625 0 1 1 -1.25,0 0.625,0.625 0 1 1 1.25,0 z" transform="matrix(1.125929,0,0,1.125929,15.445014,1043.3905)"/><path id="path4253-7" fill="#502800" fill-opacity="1" stroke="none" d="m 18.48263,1046.4854 0.09137,0.8464 c 0,0.3887 0.464638,0.7037 0.801057,0.7037 0.336419,0 0.75099,-0.315 0.75099,-0.7037 l 0.06091,-0.8464 c -0.34003,-1.1674 -1.417226,-0.9954 -1.704327,0 z" display="inline"/></g></g></g></svg>