<svg xmlns="http://www.w3.org/2000/svg" xmlns:svg="http://www.w3.org/2000/svg" xmlns:xlink="http://www.w3.org/1999/xlink" id="svg2" width="16" height="16" version="1.1"><defs id="defs4"><filter id="filter19612" width="1.342" height="1.38" x="-.171" y="-.19"><feGaussianBlur id="feGaussianBlur19614" stdDeviation=".742"/></filter><linearGradient id="linearGradient3967-7"><stop id="stop3969-4" offset="0" stop-color="#c48a4e" stop-opacity="1"/><stop id="stop3971-0" offset="1" stop-color="#ad6c24" stop-opacity="1"/></linearGradient><linearGradient id="linearGradient3973-4"><stop id="stop3975-8" offset="0" stop-color="#f8d078" stop-opacity="1"/><stop id="stop3977-8" offset="1" stop-color="#f8f0c8" stop-opacity="1"/></linearGradient><linearGradient id="linearGradient3949-45"><stop id="stop3951-5" offset="0" stop-color="#9e6627" stop-opacity="1"/><stop id="stop3953-1" offset="1" stop-color="#c38536" stop-opacity="1"/></linearGradient><linearGradient id="linearGradient3955-1"><stop id="stop3957-5" offset="0" stop-color="#c38536" stop-opacity="1"/><stop id="stop3959-27" offset=".154" stop-color="#f2dc91" stop-opacity="1"/><stop id="stop3961-61" offset=".5" stop-color="#fbdc8b" stop-opacity="1"/><stop id="stop3963-4" offset=".75" stop-color="#e6bd7a" stop-opacity="1"/><stop id="stop3965-2" offset="1" stop-color="#ba772f" stop-opacity="1"/></linearGradient><filter id="filter19612-6" width="1.342" height="1.38" x="-.171" y="-.19" color-interpolation-filters="sRGB"><feGaussianBlur id="feGaussianBlur19614-5" stdDeviation=".742"/></filter><linearGradient id="linearGradient3967-7-6"><stop id="stop3969-4-9" offset="0" stop-color="#c48a4e" stop-opacity="1"/><stop id="stop3971-0-8" offset="1" stop-color="#ad6c24" stop-opacity="1"/></linearGradient><linearGradient id="linearGradient3973-4-2"><stop id="stop3975-8-0" offset="0" stop-color="#f8d078" stop-opacity="1"/><stop id="stop3977-8-6" offset="1" stop-color="#f8f0c8" stop-opacity="1"/></linearGradient><linearGradient id="linearGradient3949-45-0"><stop id="stop3951-5-9" offset="0" stop-color="#9e6627" stop-opacity="1"/><stop id="stop3953-1-7" offset="1" stop-color="#c38536" stop-opacity="1"/></linearGradient><linearGradient id="linearGradient3955-1-7"><stop id="stop3957-5-4" offset="0" stop-color="#c38536" stop-opacity="1"/><stop id="stop3959-27-7" offset=".154" stop-color="#f2dc91" stop-opacity="1"/><stop id="stop3961-61-6" offset=".5" stop-color="#fbdc8b" stop-opacity="1"/><stop id="stop3963-4-2" offset=".75" stop-color="#e6bd7a" stop-opacity="1"/><stop id="stop3965-2-5" offset="1" stop-color="#ba772f" stop-opacity="1"/></linearGradient><linearGradient id="linearGradient11220" x1="525.668" x2="543.914" y1="373.229" y2="373.229" gradientTransform="matrix(0.33025864,0,0,0.33025864,-167.65045,916.69385)" gradientUnits="userSpaceOnUse" xlink:href="#linearGradient3955-1-7"/><linearGradient id="linearGradient11223" x1="538.006" x2="538.006" y1="396.223" y2="374.212" gradientTransform="matrix(0.31447743,0,0,0.31447743,-159.13946,922.26692)" gradientUnits="userSpaceOnUse" xlink:href="#linearGradient3973-4-2"/><linearGradient id="linearGradient11225" x1="548.459" x2="548.459" y1="398.988" y2="373.771" gradientTransform="matrix(0.31447743,0,0,0.31447743,-159.13946,922.26692)" gradientUnits="userSpaceOnUse" xlink:href="#linearGradient3949-45-0"/><linearGradient id="linearGradient11228" x1="531.093" x2="531.093" y1="366.789" y2="371.179" gradientTransform="matrix(0.33025864,0,0,0.33025864,-167.88604,916.70259)" gradientUnits="userSpaceOnUse" xlink:href="#linearGradient3967-7-6"/><linearGradient id="linearGradient11236" x1="525.668" x2="543.914" y1="373.229" y2="373.229" gradientTransform="matrix(0.33025864,0,0,0.33025864,-172.2775,919.93882)" gradientUnits="userSpaceOnUse" xlink:href="#linearGradient3955-1"/><linearGradient id="linearGradient11239" x1="538.006" x2="538.006" y1="396.223" y2="374.212" gradientTransform="matrix(0.31447743,0,0,0.31447743,-163.76651,925.51189)" gradientUnits="userSpaceOnUse" xlink:href="#linearGradient3973-4"/><linearGradient id="linearGradient11241" x1="548.459" x2="548.459" y1="398.988" y2="373.771" gradientTransform="matrix(0.31447743,0,0,0.31447743,-163.76651,925.51189)" gradientUnits="userSpaceOnUse" xlink:href="#linearGradient3949-45"/><linearGradient id="linearGradient11244" x1="531.093" x2="531.093" y1="366.789" y2="371.179" gradientTransform="matrix(0.33025864,0,0,0.33025864,-172.51309,919.94756)" gradientUnits="userSpaceOnUse" xlink:href="#linearGradient3967-7"/></defs><metadata id="metadata7"/><g id="layer1" display="inline" transform="translate(0,-1036.3622)"><g id="g11349" transform="matrix(0.89017036,0,0,0.89017036,0.83301922,114.20596)"><path id="rect13693-3-3-5" fill="#fff" fill-opacity="1" stroke="#fff" stroke-dasharray="none" stroke-dashoffset="0" stroke-linecap="round" stroke-linejoin="round" stroke-miterlimit="4" stroke-opacity="1" stroke-width="2" d="m 7.3717309,1037.7989 2.282522,0 c 0.4802781,0 0.8669291,0.3866 0.8669291,0.8669 l 0,3.7567 c 0,0.4803 -0.386651,0.8669 -0.8669291,0.8669 l -2.282522,0 c -0.480279,0 -0.866929,-0.3866 -0.866929,-0.8669 l 0,-3.7567 c 0,-0.4803 0.38665,-0.8669 0.866929,-0.8669 z" display="inline" filter="url(#filter19612-6)"/><path id="rect13693-4-0" fill="#fff" fill-opacity="1" stroke="#fff" stroke-dasharray="none" stroke-dashoffset="0" stroke-linecap="round" stroke-linejoin="round" stroke-miterlimit="4" stroke-opacity="1" stroke-width="2" d="m 8.1226959,1039.5185 6.6784301,0 c 0.480278,0 0.866929,0.3867 0.866929,0.867 l 0,5.924 c 0,0.4803 -0.386647,0.8675 -0.866929,0.8669 l -8.6784301,-0.01 c -0.480282,-6e-4 -0.866929,-0.3866 -0.866929,-0.8669 l 0,-5.9174 c 0,-0.4802 0.700039,-0.8672 0.866929,-0.8669 z" filter="url(#filter19612-6)"/><path id="path13797-1-1" fill="#fff" stroke="#fff" stroke-dasharray="none" stroke-linecap="round" stroke-linejoin="round" stroke-miterlimit="4" stroke-opacity="1" stroke-width="2" d="m 5.9529699,1039.5187 5.6986341,0" filter="url(#filter19612-6)"/><path id="rect13693-3-6" fill="#fdf7eb" fill-opacity="1" stroke="url(#linearGradient11228)" stroke-dasharray="none" stroke-dashoffset="0" stroke-linecap="round" stroke-linejoin="round" stroke-miterlimit="4" stroke-opacity="1" stroke-width="1" d="m 7.3404809,1037.924 2.282522,0 c 0.4802781,0 0.8669291,0.3866 0.8669291,0.8669 l 0,3.7566 c 0,0.4802 -0.386651,0.8669 -0.8669291,0.8669 l -2.282522,0 c -0.480279,0 -0.866929,-0.3867 -0.866929,-0.8669 l 0,-3.7566 c 0,-0.4803 0.38665,-0.8669 0.866929,-0.8669 z" display="inline"/><path id="rect13693-7" fill="url(#linearGradient11223)" fill-opacity="1" stroke="url(#linearGradient11225)" stroke-dasharray="none" stroke-dashoffset="0" stroke-linecap="round" stroke-linejoin="round" stroke-miterlimit="4" stroke-opacity="1" stroke-width="1" d="m 8.234474,1039.9514 6.359305,0 c 0.457329,0 0.825504,0.3683 0.825504,0.8256 l 0,5.3284 c 0,0.4574 -0.368172,0.826 -0.825504,0.8255 l -8.2637362,-0.01 c -0.457332,-6e-4 -0.8255033,-0.3681 -0.8255033,-0.8255 l 0,-5.3221 c 0,-0.4572 0.3541007,-0.8264 0.8255033,-0.8255 z" display="inline"/><path id="path13797-0" fill="none" stroke="url(#linearGradient11220)" stroke-dasharray="none" stroke-linecap="butt" stroke-linejoin="miter" stroke-miterlimit="4" stroke-opacity="1" stroke-width="1" d="m 5.9529699,1039.9561 5.6986341,0" display="inline"/><path id="rect13693-3-3" fill="#fff" fill-opacity="1" stroke="#fff" stroke-dasharray="none" stroke-dashoffset="0" stroke-linecap="round" stroke-linejoin="round" stroke-miterlimit="4" stroke-opacity="1" stroke-width="2" d="m 2.7446881,1041.0439 2.282522,0 c 0.480278,0 0.866929,0.3866 0.866929,0.8669 l 0,3.7567 c 0,0.4803 -0.386651,0.8669 -0.866929,0.8669 l -2.282522,0 c -0.480279,0 -0.866929,-0.3866 -0.866929,-0.8669 l 0,-3.7567 c 0,-0.4803 0.38665,-0.8669 0.866929,-0.8669 z" display="inline" filter="url(#filter19612)"/><path id="rect13693-4" fill="#fff" fill-opacity="1" stroke="#fff" stroke-dasharray="none" stroke-dashoffset="0" stroke-linecap="round" stroke-linejoin="round" stroke-miterlimit="4" stroke-opacity="1" stroke-width="2" d="m 3.4956531,1042.7635 6.6784299,0 c 0.480278,0 0.866929,0.3867 0.866929,0.867 l 0,5.924 c 0,0.4803 -0.386647,0.8675 -0.866929,0.8669 l -8.6784299,-0.01 c -0.480282,-6e-4 -0.866929,-0.3866 -0.866929,-0.8669 l 0,-5.9174 c 0,-0.4802 0.700039,-0.8672 0.866929,-0.8669 z" filter="url(#filter19612)"/><path id="path13797-1" fill="#fff" stroke="#fff" stroke-dasharray="none" stroke-linecap="round" stroke-linejoin="round" stroke-miterlimit="4" stroke-opacity="1" stroke-width="2" d="m 1.3259271,1042.7637 5.698634,0" filter="url(#filter19612)"/><path id="rect13693-3" fill="#fdf7eb" fill-opacity="1" stroke="url(#linearGradient11244)" stroke-dasharray="none" stroke-dashoffset="0" stroke-linecap="round" stroke-linejoin="round" stroke-miterlimit="4" stroke-opacity="1" stroke-width="1" d="m 2.7134381,1041.169 2.282522,0 c 0.480278,0 0.866929,0.3866 0.866929,0.8669 l 0,3.7566 c 0,0.4802 -0.386651,0.8669 -0.866929,0.8669 l -2.282522,0 c -0.480279,0 -0.866929,-0.3867 -0.866929,-0.8669 l 0,-3.7566 c 0,-0.4803 0.38665,-0.8669 0.866929,-0.8669 z" display="inline"/><path id="rect13693" fill="url(#linearGradient11239)" fill-opacity="1" stroke="url(#linearGradient11241)" stroke-dasharray="none" stroke-dashoffset="0" stroke-linecap="round" stroke-linejoin="round" stroke-miterlimit="4" stroke-opacity="1" stroke-width="1" d="m 3.6074312,1043.1964 6.3593049,0 c 0.4573289,0 0.8255039,0.3683 0.8255039,0.8256 l 0,5.3284 c 0,0.4574 -0.368172,0.826 -0.8255039,0.8255 L 1.703,1050.1659 c -0.457332,-6e-4 -0.8255033,-0.3681 -0.8255033,-0.8255 l 0,-5.3221 c 0,-0.4572 0.3541007,-0.8264 0.8255033,-0.8255 z" display="inline"/><path id="path13797" fill="none" stroke="url(#linearGradient11236)" stroke-dasharray="none" stroke-linecap="butt" stroke-linejoin="miter" stroke-miterlimit="4" stroke-opacity="1" stroke-width="1" d="m 1.3259271,1043.2011 5.698634,0" display="inline"/></g><path id="path11406" fill="#fff" fill-opacity="1" stroke="none" d="m -18.561553,-7.0472617 c 0,0.012204 -0.01979,0.022097 -0.04419,0.022097 -0.02441,0 -0.04419,-0.00989 -0.04419,-0.022097 0,-0.012204 0.01979,-0.022097 0.04419,-0.022097 0.02441,0 0.04419,0.00989 0.04419,0.022097 z" transform="translate(0,1036.3622)"/><path id="path11408" fill="#000" fill-opacity="1" stroke="none" d="m -5.5242716,16.640816 c 0,0.549175 -0.4451941,0.994369 -0.9943689,0.994369 -0.5491748,0 -0.9943689,-0.445194 -0.9943689,-0.994369 0,-0.549175 0.4451941,-0.994369 0.9943689,-0.994369 0.5491748,0 0.9943689,0.445194 0.9943689,0.994369 z" transform="matrix(0.95555553,0,0,0.95555553,7.1790979,1035.4666)"/><path id="path11408-0" fill="#000" fill-opacity="1" stroke="none" d="m -5.5242716,16.640816 c 0,0.549175 -0.4451941,0.994369 -0.9943689,0.994369 -0.5491748,0 -0.9943689,-0.445194 -0.9943689,-0.994369 0,-0.549175 0.4451941,-0.994369 0.9943689,-0.994369 0.5491748,0 0.9943689,0.445194 0.9943689,0.994369 z" display="inline" transform="matrix(1.0666666,0,0,1.0666666,21.890848,1033.5071)"/><path id="path11408-0-3" fill="#000" fill-opacity="1" stroke="none" d="m -5.5242716,16.640816 c 0,0.549175 -0.4451941,0.994369 -0.9943689,0.994369 -0.5491748,0 -0.9943689,-0.445194 -0.9943689,-0.994369 0,-0.549175 0.4451941,-0.994369 0.9943689,-0.994369 0.5491748,0 0.9943689,0.445194 0.9943689,0.994369 z" display="inline" transform="translate(21.522563,1020.7174)"/><path id="path11408-0-3-8" fill="#000" fill-opacity="1" stroke="none" d="m -5.5242716,16.640816 c 0,0.549175 -0.4451941,0.994369 -0.9943689,0.994369 -0.5491748,0 -0.9943689,-0.445194 -0.9943689,-0.994369 0,-0.549175 0.4451941,-0.994369 0.9943689,-0.994369 0.5491748,0 0.9943689,0.445194 0.9943689,0.994369 z" display="inline" transform="matrix(1.0222222,0,0,1.0222222,7.7241592,1020.3697)"/></g></svg>